<svg width="100" height="100" viewBox="0 0 100 100" fill="none" xmlns="http://www.w3.org/2000/svg">
<path d="M45.3045 0H53.3128C53.5597 0.0733949 53.8118 0.128326 54.0669 0.164351C60.3294 0.558288 66.3989 1.8862 72.3692 3.73848C74.1697 4.29678 74.5454 4.78203 74.5454 6.67345C74.5454 13.2425 74.5454 19.8134 74.5454 26.386V27.6512C77.494 25.7103 80.213 23.8841 82.9346 22.0579C83.6574 21.5726 84.3906 21.3326 85.21 21.7761C86.0293 22.2196 86.3138 22.984 86.3085 23.8997C86.2929 26.6651 86.3085 29.4305 86.3085 32.1933V33.3099C88.7483 33.3099 91.0524 33.3099 93.3539 33.3099C95.4936 33.3099 96.0859 33.9021 96.0859 36.0178V96.0371C97.5968 96.1572 99.2355 95.6562 100 97.4459V98.6173C99.4781 99.6609 98.6222 100 97.448 100C65.8118 99.9774 34.1738 99.9704 2.53402 99.9791C2.33831 99.9791 2.14261 99.9791 1.94951 99.9791C0.780507 99.9269 -0.0179587 99.1078 0.000307004 97.9834C0.0185727 96.9007 0.783099 96.1232 1.93123 96.0815C2.56792 96.058 3.20724 96.0815 3.90917 96.0815V35.7178C3.90917 34.0351 4.58761 33.3333 6.25762 33.3151C8.37384 33.2968 10.4901 33.3151 12.6037 33.3151C12.9481 33.3151 13.2899 33.2838 13.6866 33.2629C13.6866 30.0984 13.6866 27.0434 13.6866 23.9858C13.6866 23.0805 13.8822 22.3083 14.7146 21.8231C15.607 21.3013 16.3821 21.6065 17.1597 22.1283C19.6386 23.8006 22.1331 25.452 24.6251 27.106C24.8547 27.2573 25.1027 27.3799 25.4471 27.5782V26.2738C25.4471 19.6647 25.4471 13.0556 25.4471 6.44648C25.4471 5.03248 25.8202 4.3594 26.9109 3.97068C31.2971 2.353 35.8471 1.2201 40.4798 0.592207C42.0924 0.386108 43.6997 0.195664 45.3045 0ZM37.1972 74.5298C36.5501 74.5298 35.9994 74.5532 35.4541 74.5298C34.1233 74.4645 33.304 73.6584 33.3379 72.4766C33.3692 71.347 34.1938 70.5512 35.4776 70.5486C45.1428 70.533 54.8089 70.533 64.4758 70.5486C65.8092 70.5486 66.6546 71.3757 66.652 72.547C66.6494 73.7184 65.8092 74.4828 64.4627 74.535C63.9226 74.5558 63.3824 74.535 62.811 74.535V96.0189H70.4695C70.5 95.8795 70.5218 95.7383 70.5348 95.5963C70.5348 85.9957 70.5399 76.3968 70.5504 66.7997C70.5504 66.2779 70.3652 66.0823 69.872 65.9336C65.2143 64.5052 60.4245 63.5499 55.5751 63.0821C49.3126 62.5081 43.0944 62.7221 36.9441 64.0552C34.4234 64.6031 31.9445 65.3309 29.5308 65.9571V96.0032H37.2076L37.1972 74.5298ZM25.3923 96.0293C25.4106 95.6693 25.4393 95.3823 25.4393 95.0954C25.4393 74.4698 25.4393 53.8442 25.4393 33.2185C25.4621 32.9656 25.4115 32.7114 25.2934 32.4866C25.1754 32.2617 24.995 32.0756 24.7739 31.9506C22.6472 30.5706 20.5492 29.1461 18.4382 27.7426C18.2321 27.6069 18.0077 27.4999 17.7076 27.3356V96.0293H25.3923ZM82.2535 96.0293V27.2756C79.8738 28.8591 77.6192 30.3905 75.3282 31.8645C75.0652 32.011 74.85 32.2301 74.7084 32.4957C74.5668 32.7613 74.5047 33.0621 74.5297 33.362C74.5506 53.885 74.5558 74.408 74.5454 94.931V96.0111L82.2535 96.0293ZM13.6083 96.045V37.3457H7.90939V96.045H13.6083ZM86.3842 37.3457V96.0006H92.1066V37.3353L86.3842 37.3457ZM70.54 38.4832C70.54 36.1587 70.5139 33.949 70.5556 31.7393C70.5687 31.0714 70.3703 30.7949 69.7102 30.5992C64.4799 29.0331 59.0929 28.048 53.6468 27.6617C46.1398 27.1307 38.5991 27.9859 31.4017 30.1844C29.4369 30.7845 29.4447 30.8132 29.4447 32.8377V38.4023C43.1936 34.0273 56.7937 34.476 70.54 38.4728V38.4832ZM70.493 61.9942C70.5113 61.5924 70.5374 61.3055 70.54 61.0185C70.54 58.9314 70.5582 56.8574 70.5061 54.7781C70.5061 54.5642 70.0912 54.2563 69.8172 54.1676C58.6333 50.8466 47.3268 49.9204 35.8612 52.5397C33.698 53.0328 31.5714 53.685 29.4447 54.2616V61.942C43.1962 57.52 56.8172 57.9948 70.493 61.9733V61.9942ZM70.54 50.2544C70.54 47.9064 70.5086 45.6967 70.5608 43.4896C70.5765 42.7983 70.3312 42.5504 69.7023 42.3652C64.2808 40.755 58.6958 39.7582 53.0519 39.3937C45.6724 38.9474 38.2728 39.831 31.206 42.0026C29.4369 42.54 29.4447 42.5661 29.4447 44.4184V50.1709C43.191 45.7802 56.7937 46.2341 70.54 50.2335V50.2544ZM29.4812 14.8652C36.117 12.7235 43.0549 11.6664 50.0275 11.7346C56.9764 11.8025 63.766 12.9791 70.5426 14.9279C70.5426 12.426 70.5609 10.0858 70.5139 7.74829C70.5139 7.52915 70.1225 7.20043 69.8537 7.11956C58.6646 3.76718 47.3451 2.86452 35.869 5.46294C33.7032 5.95341 31.5765 6.61344 29.4812 7.18478V14.8652ZM70.5426 26.7121C70.5426 24.2049 70.5661 21.8648 70.5087 19.5299C70.5087 19.2977 70.0599 18.9585 69.7572 18.8646C65.1638 17.4389 60.4359 16.4895 55.6482 16.0314C47.7333 15.2492 39.7418 15.9769 32.0984 18.1759C29.4577 18.9403 29.4499 18.922 29.4499 21.6874V26.6442C43.1961 22.2483 56.7963 22.7075 70.5374 26.7121H70.5426ZM47.9818 96.0241V74.6028H41.2444V96.0241H47.9818ZM58.7116 96.045V74.595H52.0342V96.045H58.7116Z" fill="url(#paint0_linear_3755_3818)"/>
<defs>
<linearGradient id="paint0_linear_3755_3818" x1="0" y1="50" x2="100" y2="50" gradientUnits="userSpaceOnUse">
<stop stop-color="#CCAB64"/>
<stop offset="1" stop-color="#FAECC9"/>
</linearGradient>
</defs>
</svg>
