<svg width="100" height="100" viewBox="0 0 100 100" fill="none" xmlns="http://www.w3.org/2000/svg">
<path d="M79.9663 58.8522V63.3822H97.7063C99.3863 63.3822 99.9063 63.8822 99.9063 65.5122V97.8622C99.9063 99.4522 99.3763 99.9922 97.7963 99.9922H2.1763C0.5263 99.9922 0.0162655 99.4722 0.0162655 97.8122V65.5622C0.0162655 63.8922 0.52629 63.3822 2.16629 63.3822H19.9063V58.9022C17.8531 59.7936 15.6186 60.1885 13.3842 60.0547C11.1498 59.9209 8.97848 59.2622 7.04629 58.1322C4.3034 56.583 2.18286 54.1302 1.04629 51.1922C-0.348765 47.8208 -0.348765 44.0336 1.04629 40.6622C2.36419 37.3116 4.91064 34.5899 8.16629 33.0522C4.47629 25.0522 8.29632 17.9322 13.6963 14.9922C12.5963 9.23219 14.2163 4.5222 19.4563 1.5722C21.3455 0.426072 23.5398 -0.115325 25.7453 0.0205065C27.9508 0.156338 30.062 0.962921 31.7963 2.33221C36.0963 5.43221 37.3863 9.79223 36.3063 14.9722C39.4097 16.6594 41.7234 19.5012 42.7462 22.8822C43.7803 26.1579 43.4896 29.7084 41.9363 32.7722C43.4963 34.0622 44.9363 35.3022 46.4663 36.5022C46.6845 36.6587 46.9479 36.7395 47.2163 36.7322C49.0563 36.7322 50.8962 36.7322 52.7362 36.7322C53.0352 36.7267 53.3251 36.6289 53.5663 36.4522C55.0363 35.2722 56.4863 34.0622 58.0063 32.8122C55.3463 24.3722 56.7663 19.8122 63.6463 14.9422C62.5663 9.4722 64.0362 4.9422 68.8462 1.9422C70.7434 0.644892 73.0023 -0.0189196 75.2997 0.0457446C77.5971 0.110409 79.8151 0.90028 81.6363 2.30224C86.0163 5.38225 87.3363 9.76222 86.2563 15.0222C89.3413 16.7108 91.6442 19.5382 92.6736 22.9011C93.703 26.264 93.3774 29.8961 91.7663 33.0222C93.7491 33.96 95.4894 35.3417 96.8524 37.0602C98.2155 38.7788 99.1646 40.7879 99.6263 42.9322C100.335 45.9581 99.9818 49.1356 98.6263 51.9322C97.8552 53.607 96.7575 55.111 95.3975 56.356C94.0375 57.6009 92.4426 58.5617 90.7063 59.1822C87.2211 60.4821 83.3652 60.3637 79.9663 58.8522ZM23.3263 36.6822C23.3263 35.5522 23.3263 34.4822 23.3263 33.4122C23.3521 33.1069 23.3046 32.7997 23.1881 32.5163C23.0716 32.2328 22.8893 31.9812 22.6563 31.7822C20.9163 30.0922 19.2162 28.3622 17.4962 26.6422C16.4962 25.6422 16.3862 24.6422 17.1162 23.9322C17.8462 23.2222 18.8763 23.2822 19.9063 24.3022L22.1863 26.5822L23.3163 27.6822V12.6822C23.3163 12.4322 23.3163 12.1922 23.3163 11.9522C23.3163 11.5119 23.4912 11.0898 23.8025 10.7784C24.1138 10.4671 24.536 10.2922 24.9762 10.2922C25.4165 10.2922 25.8387 10.4671 26.1501 10.7784C26.4614 11.0898 26.6363 11.5119 26.6363 11.9522C26.6363 16.7722 26.6363 21.5922 26.6363 26.4122V27.8122L30.1162 24.2822C31.1162 23.2822 32.1163 23.2122 32.8363 23.9722C33.5563 24.7322 33.4363 25.7122 32.4663 26.6922L27.1663 31.9922C26.9563 32.2022 26.6763 32.4822 26.6663 32.7322C26.6663 34.0622 26.6663 35.4022 26.6663 36.7322H41.1663C40.5066 36.2832 39.7904 35.9234 39.0363 35.6622C37.4563 35.0722 37.1163 34.0822 38.0363 32.6622C41.7863 27.0222 39.9063 20.4022 33.7563 17.5622C32.5063 16.9922 32.2863 16.3022 32.6563 14.9622C33.0486 13.8227 33.2545 12.6274 33.2663 11.4222C33.2447 9.81046 32.73 8.24394 31.7914 6.93347C30.8528 5.623 29.5353 4.63143 28.0163 4.09222C26.5393 3.44529 24.8982 3.27193 23.3188 3.59607C21.7393 3.9202 20.2991 4.7259 19.1963 5.90222C18.0051 6.98775 17.1748 8.41201 16.8173 9.98346C16.4597 11.5549 16.5921 13.1982 17.1963 14.6922C17.7863 16.3822 17.5663 16.9222 15.8963 17.6922C13.9075 18.5924 12.268 20.1188 11.2279 22.0381C10.1879 23.9575 9.80446 26.1645 10.1363 28.3222C10.3934 29.9354 11.031 31.4643 11.9962 32.7822C12.8362 34.0022 12.4862 35.0322 11.0962 35.5622C10.9062 35.6422 10.7063 35.6922 10.5063 35.7622C9.10785 36.2601 7.82699 37.0406 6.74344 38.0552C5.65988 39.0697 4.79694 40.2966 4.20828 41.6592C3.61963 43.0219 3.31787 44.4912 3.32193 45.9756C3.32598 47.46 3.63575 48.9277 4.23184 50.2871C4.82793 51.6466 5.69757 52.8686 6.78665 53.8773C7.87573 54.8859 9.16081 55.6594 10.5619 56.1496C11.963 56.6398 13.4501 56.8362 14.9305 56.7266C16.4108 56.6169 17.8527 56.2035 19.1663 55.5122C19.4321 55.4074 19.6568 55.2191 19.8064 54.9756C19.9561 54.7322 20.0227 54.4468 19.9962 54.1622C19.9962 49.3422 19.9962 44.5222 19.9962 39.7022C19.9962 37.4222 20.2763 36.5822 22.8963 36.7822C22.9763 36.7422 23.0763 36.7122 23.3263 36.6822ZM76.5962 36.7422H77.3562C79.5962 36.7422 79.9263 37.1022 79.9263 39.3422C79.9263 44.2622 79.9263 49.1922 79.9263 54.1122C79.8924 54.3991 79.9557 54.6891 80.1062 54.9357C80.2567 55.1823 80.4856 55.3712 80.7563 55.4722C82.7712 56.503 85.055 56.8871 87.2963 56.5722C89.6945 56.2347 91.9092 55.0994 93.5834 53.3494C95.2576 51.5994 96.2938 49.3366 96.5248 46.9258C96.7558 44.5149 96.1683 42.0965 94.857 40.0604C93.5456 38.0243 91.5868 36.4891 89.2963 35.7022C87.2363 34.9822 86.9663 34.1522 88.1963 32.3122C88.9978 31.1256 89.5328 29.7796 89.7648 28.3666C89.9968 26.9537 89.9201 25.5072 89.5401 24.1267C89.16 22.7462 88.4856 21.4643 87.5631 20.3691C86.6407 19.2739 85.4922 18.3914 84.1963 17.7822C82.5063 17.0122 82.1963 16.2122 82.7663 14.4722C83.2023 13.2119 83.3279 11.8649 83.1322 10.5457C82.9366 9.22641 82.4257 7.97387 81.6426 6.89429C80.8596 5.8147 79.8276 4.93998 78.6343 4.34436C77.441 3.74874 76.1217 3.44978 74.7882 3.4729C73.4548 3.49602 72.1465 3.84053 70.9746 4.47717C69.8027 5.11381 68.8017 6.0238 68.0565 7.12988C67.3114 8.23596 66.8441 9.50546 66.6944 10.8307C66.5446 12.1559 66.7168 13.4977 67.1963 14.7422C67.7463 16.2322 67.4863 16.9322 66.1963 17.5322C60.0263 20.3922 58.1963 27.0022 61.9063 32.6222C62.8263 34.0122 62.4863 35.0122 60.9063 35.6222C60.1663 35.8922 59.4463 36.2222 58.7063 36.5322L58.7963 36.7022H73.2863C73.2863 35.5722 73.2863 34.5022 73.2863 33.4322C73.3065 33.1274 73.2567 32.822 73.1405 32.5394C73.0244 32.2569 72.845 32.0047 72.6162 31.8022C70.8762 30.1122 69.1763 28.3822 67.4563 26.6622C66.4563 25.6622 66.3463 24.6622 67.0763 23.9522C67.8063 23.2422 68.8362 23.3022 69.8662 24.3222L72.1463 26.6022L73.2763 27.7022V12.7022C73.2763 12.4522 73.2763 12.2122 73.2763 11.9722C73.2763 11.532 73.4512 11.1097 73.7625 10.7984C74.0738 10.4871 74.496 10.3122 74.9363 10.3122C75.3766 10.3122 75.7988 10.4871 76.1101 10.7984C76.4214 11.1097 76.5962 11.532 76.5962 11.9722C76.5962 16.7922 76.5962 21.6122 76.5962 26.4322V27.8322L80.0763 24.3022C81.0763 23.3022 82.0763 23.2322 82.7963 23.9922C83.5163 24.7522 83.3963 25.7322 82.4163 26.7122C80.6563 28.4822 78.8863 30.2322 77.1363 32.0222C76.8601 32.2651 76.6794 32.5983 76.6263 32.9622C76.5663 34.1322 76.5962 35.3722 76.5962 36.7422ZM76.5962 40.1422H23.4063V56.6622H76.5563L76.5962 40.1422ZM69.9063 76.6522V60.1222H30.0663V70.8522C31.0409 70.3265 32.128 70.0438 33.2353 70.0281C34.3425 70.0125 35.4372 70.2643 36.4263 70.7622C36.6363 70.8722 37.0163 70.7622 37.2763 70.6122C38.744 69.9435 40.4053 69.8336 41.9483 70.3031C43.4913 70.7726 44.8099 71.7893 45.6563 73.1622C45.7763 73.3522 45.9163 73.5422 46.0463 73.7122C47.0665 73.3587 48.1564 73.2539 49.2253 73.4066C50.2941 73.5593 51.3111 73.9651 52.1914 74.5901C53.0718 75.2152 53.7901 76.0415 54.2867 77.0002C54.7832 77.959 55.0437 79.0225 55.0463 80.1022C55.7563 80.4922 56.4463 80.8822 57.1563 81.2222C57.2575 81.2717 57.3686 81.2974 57.4812 81.2974C57.5939 81.2974 57.7051 81.2717 57.8063 81.2222C60.0316 81.3746 62.2636 81.0453 64.35 80.2566C66.4364 79.4679 68.3282 78.2385 69.8963 76.6522H69.9063ZM54.9063 86.8322C54.9863 86.2822 55.0363 85.7322 55.1563 85.1922C55.4363 83.9422 55.3963 83.8422 54.1563 83.5022C53.8583 83.4256 53.5535 83.3788 53.2462 83.3622C51.7662 83.2922 51.1762 82.4922 51.4762 81.0222C51.618 80.5254 51.6621 80.0058 51.6062 79.4922C51.5201 78.924 51.2858 78.3886 50.9269 77.9398C50.568 77.4911 50.0971 77.1448 49.5618 76.936C49.0264 76.7271 48.4455 76.663 47.8775 76.7501C47.3095 76.8372 46.7745 77.0725 46.3263 77.4322C45.2363 78.2022 44.2563 78.2022 43.6863 77.3622C43.4486 76.9038 43.2833 76.4113 43.1963 75.9022C43.0944 75.3877 42.8664 74.9065 42.5327 74.5018C42.1991 74.097 41.7702 73.7815 41.2846 73.5833C40.799 73.385 40.2718 73.3104 39.7503 73.3661C39.2287 73.4218 38.7291 73.606 38.2963 73.9022C37.8605 74.2964 37.2939 74.5147 36.7063 74.5147C36.1187 74.5147 35.552 74.2964 35.1162 73.9022C34.6992 73.6021 34.2142 73.4101 33.7047 73.3432C33.1953 73.2763 32.6772 73.3367 32.1968 73.519C31.7164 73.7012 31.2887 73.9997 30.9518 74.3876C30.6149 74.7756 30.3794 75.241 30.2663 75.7422C30.0638 77.2068 29.9636 78.6837 29.9663 80.1622C30.9697 79.908 32.0178 79.8863 33.0308 80.0985C34.0438 80.3108 34.995 80.7514 35.8119 81.387C36.6288 82.0226 37.2899 82.8363 37.7447 83.7661C38.1994 84.6959 38.436 85.7172 38.4363 86.7522C43.0763 88.9822 44.1063 91.3622 42.6463 96.5822H50.7362C49.2462 91.2722 50.2963 88.8722 54.9063 86.8322ZM69.9063 80.0822C69.1102 80.0797 68.3412 80.3713 67.747 80.9009C67.1527 81.4306 66.775 82.1611 66.6863 82.9522C66.2863 84.7322 65.2163 85.0722 63.6863 84.1422C62.9093 83.6565 62.0013 83.4225 61.0863 83.4722C60.6295 83.532 60.1915 83.6916 59.8033 83.9396C59.415 84.1877 59.0861 84.5181 58.8399 84.9075C58.5937 85.2968 58.4361 85.7356 58.3784 86.1927C58.3208 86.6498 58.3644 87.1139 58.5063 87.5522C58.8563 89.0922 58.2963 89.9622 56.9063 90.0222C56.4429 89.9899 55.9779 90.0547 55.5409 90.2123C55.104 90.3699 54.7046 90.6169 54.3686 90.9376C54.0325 91.2582 53.767 91.6455 53.589 92.0745C53.4111 92.5036 53.3245 92.965 53.335 93.4294C53.3455 93.8938 53.4528 94.3509 53.6499 94.7715C53.8471 95.1922 54.1297 95.567 54.4799 95.8722C54.8301 96.1774 55.2401 96.4061 55.6837 96.5439C56.1274 96.6816 56.5948 96.7254 57.0563 96.6722H67.4663C67.7263 96.6722 67.9963 96.6722 68.3263 96.6022C68.3263 95.2022 68.3863 93.8522 68.3263 92.5122C68.2663 91.1722 68.5163 90.1622 69.9563 89.9322L69.9063 80.0822ZM26.5962 89.9622V60.1222H23.3863V89.9622H26.5962ZM73.3562 60.0922V89.9322H76.5563V60.0922H73.3562ZM31.6563 96.6622C33.4863 96.6622 35.1762 96.7322 36.8662 96.6622C37.7266 96.6207 38.5364 96.2434 39.1216 95.6115C39.7068 94.9795 40.0208 94.1432 39.9962 93.2822C39.9676 92.4413 39.6255 91.6415 39.037 91.0401C38.4486 90.4387 37.6564 90.0792 36.8163 90.0322C34.8863 89.8922 34.4563 89.3022 34.8963 87.3522C35.0416 86.7741 35.0149 86.1662 34.8195 85.603C34.6241 85.0399 34.2685 84.546 33.7963 84.1822C33.374 83.7898 32.8477 83.5274 32.2802 83.4263C31.7127 83.3252 31.128 83.3898 30.5962 83.6122C30.446 83.6913 30.3157 83.8036 30.2152 83.9404C30.1148 84.0773 30.0467 84.2352 30.0163 84.4022C30.0163 86.2422 30.0163 88.0722 30.0163 89.8822C31.4963 90.4822 31.6863 90.7622 31.6863 92.3022L31.6563 96.6622ZM3.4263 66.7522V87.3622L6.63626 86.5322V66.7522H3.4263ZM93.3163 66.7522V86.5222L96.5363 87.3622V66.7522H93.3163ZM10.0563 66.7522V80.0922H13.2663V66.7522H10.0563ZM89.9363 66.7522H86.5962V79.6122C86.5886 79.7655 86.5886 79.919 86.5962 80.0722H89.9063C89.9175 79.8824 89.9175 79.692 89.9063 79.5022L89.9363 66.7522ZM13.3462 96.6022V85.1022C13.3462 83.6322 12.6363 83.1022 11.1363 83.3922C10.3763 83.5322 9.94623 83.7922 9.97623 84.7322C10.0662 86.9122 9.97623 89.1022 9.97623 91.2822V96.6022H13.3462ZM89.9363 96.6022V85.1022C89.9363 83.6522 89.2863 83.1022 87.8263 83.3622C86.9763 83.5022 86.5263 83.8122 86.5663 84.8422C86.6663 87.0222 86.5663 89.2022 86.5663 91.3922V96.6022H89.9363ZM19.9363 80.0522C19.4944 80.0506 19.0568 80.1382 18.6497 80.3099C18.2425 80.4816 17.8742 80.7338 17.5669 81.0513C17.2597 81.3689 17.0197 81.7452 16.8615 82.1578C16.7033 82.5704 16.6301 83.0106 16.6463 83.4522C16.6463 87.7722 16.6463 92.1022 16.6463 96.4522C16.6463 96.5022 16.7162 96.5622 16.7362 96.5922H18.2863V92.2722C18.2863 90.7422 18.4963 90.4522 19.9263 89.8922L19.9363 80.0522ZM79.9363 80.0522V89.8722C81.3963 90.4522 81.5763 90.7222 81.5763 92.3522V96.5922H83.2262C83.2262 92.1122 83.2962 87.6822 83.2262 83.2622C83.1762 81.3722 81.9063 80.2722 79.9563 80.0622L79.9363 80.0522ZM16.7163 66.7422V77.3722L19.9263 76.5322V66.7422H16.7163ZM83.1763 77.3822V66.7822H79.9762V76.5322L83.1763 77.3822ZM28.2462 93.3822H21.7163V96.6022H28.2462V93.3822ZM71.6263 96.5722H78.1663V93.3722H71.6263V96.5722ZM3.32632 96.5722H6.59622V90.0322C5.74942 90.0343 4.93655 90.3648 4.32852 90.9542C3.72049 91.5436 3.36482 92.3459 3.33633 93.1922C3.29633 94.3222 3.34622 95.4222 3.34622 96.6022L3.32632 96.5722ZM96.5363 96.5722C96.5363 95.3222 96.6263 94.1222 96.5363 92.9322C96.4636 92.133 96.0932 91.3903 95.4987 90.8513C94.9041 90.3123 94.1288 90.0164 93.3263 90.0222V96.5722H96.5363Z" fill="url(#paint0_linear_4012_996)"/>
<path d="M54.9062 48.483C54.8903 49.4717 54.5815 50.4335 54.019 51.2467C53.4565 52.06 52.6653 52.6882 51.7458 53.0519C50.8263 53.4156 49.8195 53.4984 48.8529 53.29C47.8862 53.0816 47.0032 52.5912 46.3153 51.8809C45.6273 51.1706 45.1654 50.2722 44.988 49.2994C44.8106 48.3266 44.9256 47.323 45.3186 46.4155C45.7115 45.5081 46.3647 44.7375 47.1955 44.2013C48.0263 43.6651 48.9974 43.3873 49.9862 43.403C50.6428 43.4134 51.291 43.5531 51.8936 43.814C52.4963 44.075 53.0416 44.4521 53.4985 44.9238C53.9554 45.3956 54.3148 45.9527 54.5563 46.5634C54.7979 47.1741 54.9168 47.8264 54.9062 48.483ZM49.9062 46.733C49.5775 46.7271 49.2545 46.8188 48.9781 46.9967C48.7017 47.1746 48.4843 47.4306 48.3535 47.7321C48.2227 48.0337 48.1843 48.3674 48.2434 48.6908C48.3024 49.0141 48.456 49.3127 48.6849 49.5487C48.9138 49.7846 49.2077 49.9472 49.5291 50.0159C49.8506 50.0847 50.1852 50.0565 50.4905 49.9349C50.7959 49.8133 51.0584 49.6037 51.2446 49.3327C51.4307 49.0618 51.5322 48.7417 51.5362 48.413C51.5242 47.993 51.3607 47.5915 51.0758 47.2827C50.7909 46.9739 50.4038 46.7787 49.9862 46.733H49.9062Z" fill="url(#paint1_linear_4012_996)"/>
<path d="M41.1662 48.4828C41.1503 49.4711 40.8418 50.4325 40.2798 51.2456C39.7177 52.0587 38.9273 52.6869 38.0083 53.0509C37.0893 53.4149 36.0831 53.4984 35.1167 53.2908C34.1503 53.0832 33.2671 52.5938 32.5787 51.8845C31.8903 51.1752 31.4277 50.2778 31.2491 49.3056C31.0706 48.3334 31.1842 47.3301 31.5756 46.4225C31.9669 45.5148 32.6186 44.7436 33.4481 44.2061C34.2776 43.6686 35.2479 43.3891 36.2362 43.4028C36.8937 43.4119 37.5429 43.5507 38.1467 43.811C38.7505 44.0714 39.2971 44.4483 39.755 44.9202C40.2129 45.392 40.5733 45.9496 40.8154 46.561C41.0576 47.1723 41.1768 47.8254 41.1662 48.4828ZM36.1662 46.7328C35.838 46.7289 35.5159 46.8224 35.2407 47.0015C34.9656 47.1806 34.7497 47.4373 34.6205 47.7391C34.4912 48.0409 34.4543 48.3742 34.5145 48.697C34.5747 49.0197 34.7292 49.3174 34.9585 49.5523C35.1878 49.7872 35.4816 49.9488 35.8028 50.0168C36.124 50.0847 36.4582 50.0559 36.7631 49.9339C37.0679 49.8119 37.3297 49.6023 37.5154 49.3316C37.7011 49.0608 37.8023 48.7411 37.8063 48.4128C37.7926 47.9835 37.6206 47.5743 37.3234 47.2641C37.0261 46.9539 36.6247 46.7647 36.1963 46.7328H36.1662Z" fill="url(#paint2_linear_4012_996)"/>
<path d="M68.2662 48.3516C68.2662 49.3405 67.973 50.3071 67.4236 51.1294C66.8742 51.9516 66.0933 52.5925 65.1797 52.9709C64.2661 53.3494 63.2607 53.4484 62.2908 53.2555C61.3209 53.0626 60.43 52.5863 59.7307 51.8871C59.0315 51.1878 58.5552 50.2969 58.3623 49.327C58.1694 48.3571 58.2684 47.3517 58.6469 46.4381C59.0253 45.5245 59.6662 44.7436 60.4884 44.1942C61.3107 43.6448 62.2773 43.3516 63.2662 43.3516C64.5923 43.3516 65.8641 43.8784 66.8018 44.816C67.7394 45.7537 68.2662 47.0255 68.2662 48.3516ZM64.9363 48.3516C64.9262 48.0235 64.8191 47.7057 64.6285 47.4384C64.4379 47.1712 64.1724 46.9665 63.8655 46.8501C63.5585 46.7337 63.224 46.711 62.9042 46.7847C62.5843 46.8585 62.2935 47.0254 62.0685 47.2643C61.8435 47.5033 61.6942 47.8037 61.6399 48.1274C61.5855 48.4511 61.6284 48.7837 61.7631 49.0831C61.8977 49.3824 62.118 49.6352 62.3962 49.8093C62.6745 49.9835 62.9982 50.0713 63.3263 50.0615C63.7561 50.0218 64.1558 49.8239 64.4478 49.506C64.7397 49.1882 64.9031 48.7731 64.9063 48.3416L64.9363 48.3516Z" fill="url(#paint3_linear_4012_996)"/>
<defs>
<linearGradient id="paint0_linear_4012_996" x1="0" y1="49.9961" x2="99.9832" y2="49.9961" gradientUnits="userSpaceOnUse">
<stop stop-color="#CCAB64"/>
<stop offset="1" stop-color="#FAECC9"/>
</linearGradient>
<linearGradient id="paint1_linear_4012_996" x1="44.9069" y1="48.4023" x2="54.9068" y2="48.4023" gradientUnits="userSpaceOnUse">
<stop stop-color="#CCAB64"/>
<stop offset="1" stop-color="#FAECC9"/>
</linearGradient>
<linearGradient id="paint2_linear_4012_996" x1="31.1669" y1="48.4023" x2="41.1669" y2="48.4023" gradientUnits="userSpaceOnUse">
<stop stop-color="#CCAB64"/>
<stop offset="1" stop-color="#FAECC9"/>
</linearGradient>
<linearGradient id="paint3_linear_4012_996" x1="58.2662" y1="48.3516" x2="68.2662" y2="48.3516" gradientUnits="userSpaceOnUse">
<stop stop-color="#CCAB64"/>
<stop offset="1" stop-color="#FAECC9"/>
</linearGradient>
</defs>
</svg>
