<svg width="110" height="101" viewBox="0 0 110 101" fill="none" xmlns="http://www.w3.org/2000/svg">
<path d="M0 82.3822C0.217544 82.0394 0.521576 81.7601 0.88147 81.5722C1.24136 81.3844 1.6444 81.2947 2.04999 81.3122C2.48888 81.2662 2.90023 81.0764 3.21997 80.7722C11.6466 72.8456 20.0666 64.9122 28.48 56.9722C31.48 54.1122 34.65 54.0522 37.69 56.8622L40.48 59.4922L43.34 62.1722C43.61 61.9422 43.88 61.7222 44.13 61.4922L60 46.4922C63.15 43.4922 66.26 43.4922 69.44 46.4922C72.62 49.4922 76.1 52.7622 79.44 55.9022C79.6806 56.1111 79.9046 56.3385 80.11 56.5822C80.3352 56.8854 80.446 57.2585 80.4225 57.6355C80.3991 58.0125 80.2432 58.3691 79.9821 58.6421C79.7211 58.9151 79.3718 59.087 78.9963 59.1273C78.6207 59.1675 78.243 59.0737 77.93 58.8622C77.6406 58.6599 77.3726 58.4287 77.13 58.1722L67.06 48.6822C65.34 47.0622 64.06 47.0722 62.36 48.6822L59.15 51.6822L71.23 62.3822C74.33 65.1322 77.5 67.8122 79.87 71.2822C82.39 74.9722 83.21 78.8822 81.6 83.1622C81.5883 83.225 81.5883 83.2894 81.6 83.3522L101.77 81.4822L102.08 81.3122C101.729 81.1206 101.394 80.8999 101.08 80.6522C95.3333 75.2655 89.5967 69.8689 83.87 64.4622C83.69 64.2922 83.51 64.1222 83.34 63.9422C82.46 63.0822 82.34 62.1322 82.98 61.4322C83.1497 61.2636 83.3531 61.1328 83.5769 61.0482C83.8007 60.9636 84.0397 60.9272 84.2785 60.9414C84.5173 60.9556 84.7504 61.0199 84.9626 61.1304C85.1749 61.2408 85.3614 61.3948 85.51 61.5822C87.17 63.1289 88.8367 64.6822 90.51 66.2422C95.75 71.1755 100.993 76.1089 106.24 81.0422C106.608 81.3417 107.05 81.5353 107.52 81.6022C107.928 81.6323 108.309 81.8145 108.589 82.1127C108.869 82.4109 109.026 82.8034 109.03 83.2122C109.036 83.4256 108.997 83.6379 108.917 83.8356C108.836 84.0333 108.716 84.2121 108.562 84.3606C108.409 84.5092 108.227 84.6243 108.027 84.6986C107.826 84.7729 107.613 84.8048 107.4 84.7922C103.82 84.9422 100.24 85.0122 96.67 85.2022C88.6542 85.6816 80.691 86.8154 72.86 88.5922C70.38 89.1422 67.92 89.8122 65.45 90.4322C65.329 90.468 65.2175 90.5307 65.124 90.6155C65.0305 90.7004 64.9574 90.8052 64.91 90.9222C69.91 91.9222 74.79 92.9222 79.75 93.8422C88.7897 95.4264 97.9218 96.4285 107.09 96.8422C108.36 96.9122 109.01 97.5022 108.97 98.5122C108.93 99.5222 108.21 100.132 106.97 100.032C101.21 99.5822 95.43 99.3122 89.71 98.5422C82.5 97.5422 75.3 96.3422 68.17 94.8622C61.91 93.5622 55.77 91.7122 49.56 90.1722C41.6902 88.2379 33.6987 86.8381 25.64 85.9822C22.75 85.6722 19.85 85.4222 16.96 85.1522C15.87 85.0422 15.13 84.3322 15.2 83.4122C15.27 82.4922 16.01 81.8922 17.2 81.9522C18.58 82.0322 19.95 82.1922 21.33 82.2122C21.8312 82.2141 22.3181 82.0447 22.71 81.7322C24.89 79.7322 26.99 77.6822 29.18 75.7322C29.6344 75.3144 30.2328 75.0887 30.85 75.1022C31.1473 75.1553 31.4228 75.2935 31.6431 75.5001C31.8634 75.7067 32.0189 75.9727 32.0909 76.266C32.1629 76.5593 32.1483 76.8672 32.0487 77.1523C31.9491 77.4374 31.7689 77.6875 31.53 77.8722C30.37 79.0222 29.16 80.1222 27.98 81.2422L26.38 82.7522L32.76 83.6622C41.0942 84.8713 49.3439 86.6048 57.46 88.8522C58.1598 89.0219 58.8901 89.0219 59.59 88.8522C65.3633 87.4522 71.1233 86.0189 76.87 84.5522C77.3181 84.4139 77.6992 84.1146 77.94 83.7122C78.9443 82.1415 79.4199 80.2909 79.2976 78.4306C79.1753 76.5703 78.4613 74.7978 77.26 73.3722C75.365 70.989 73.2816 68.7618 71.03 66.7122C66.55 62.5822 61.92 58.6022 57.36 54.5522L56.82 54.1222C54.42 56.3822 52.04 58.6022 49.68 60.8322L37.31 72.3822C37.15 72.5222 37 72.6822 36.84 72.8122C36.5216 73.1022 36.1019 73.2553 35.6716 73.2385C35.2412 73.2216 34.8347 73.0362 34.54 72.7222C34.3895 72.5683 34.2729 72.3846 34.1978 72.1829C34.1227 71.9812 34.0908 71.7659 34.1039 71.5511C34.1171 71.3363 34.1752 71.1266 34.2744 70.9356C34.3736 70.7446 34.5118 70.5765 34.68 70.4422C36.44 68.7322 38.23 67.0722 40.02 65.4422C40.32 65.1522 40.67 64.9122 41.1 64.5622C38.88 62.4922 36.86 60.5122 34.73 58.6622C33.64 57.7222 32.26 57.9422 31.08 59.0522C27.79 62.1222 24.52 65.2222 21.24 68.3022L8.14001 80.6322C7.90253 80.829 7.65195 81.0094 7.39001 81.1722L7.56 81.4622C8.22 81.4622 8.88 81.5222 9.56 81.5722C9.77859 81.5613 9.99706 81.5956 10.2018 81.673C10.4065 81.7504 10.593 81.8693 10.7497 82.0221C10.9064 82.1749 11.0298 82.3585 11.1123 82.5612C11.1948 82.764 11.2345 82.9815 11.2289 83.2003C11.2234 83.4191 11.1728 83.6344 11.0802 83.8328C10.9876 84.0311 10.8551 84.2082 10.6909 84.3529C10.5267 84.4976 10.3345 84.6069 10.1261 84.6739C9.91773 84.7409 9.69775 84.7641 9.47998 84.7422C6.91998 84.7422 4.37001 84.7422 1.82001 84.5722C1.17213 84.394 0.562119 84.0992 0.0199585 83.7022L0 82.3822Z" fill="url(#paint0_linear_3755_3831)"/>
<path d="M49.36 24.5013C49.3521 27.1391 48.5629 29.7155 47.0921 31.9052C45.6213 34.0949 43.5347 35.7997 41.0958 36.8046C38.6568 37.8095 35.9749 38.0694 33.3884 37.5514C30.802 37.0334 28.4269 35.7607 26.5631 33.8941C24.6993 32.0275 23.4302 29.6506 22.9161 27.0633C22.4019 24.4761 22.6658 21.7946 23.6743 19.3571C24.6828 16.9197 26.3909 14.8357 28.5828 13.3682C30.7747 11.9006 33.3522 11.1153 35.99 11.1113C39.537 11.1193 42.9361 12.5332 45.4423 15.0432C47.9485 17.5531 49.3573 20.9543 49.36 24.5013ZM36.06 14.3813C34.7359 14.3641 33.4215 14.6101 32.1932 15.1049C30.9649 15.5997 29.8471 16.3336 28.9047 17.2639C27.9623 18.1942 27.2141 19.3024 26.7034 20.5242C26.1928 21.746 25.9299 23.0571 25.93 24.3813C25.9062 26.3874 26.4792 28.3553 27.5762 30.035C28.6732 31.7147 30.2447 33.0304 32.0911 33.8151C33.9374 34.5998 35.9754 34.818 37.946 34.442C39.9167 34.066 41.7311 33.1127 43.1588 31.7033C44.5865 30.2939 45.5632 28.4919 45.9646 26.5263C46.366 24.5607 46.1742 22.5201 45.4135 20.6637C44.6527 18.8074 43.3573 17.219 41.6919 16.1004C40.0265 14.9818 38.0662 14.3834 36.06 14.3813Z" fill="url(#paint1_linear_3755_3831)"/>
<path d="M55.99 26.1212C55.07 26.1212 54.15 26.1212 53.23 26.1212C53.0084 26.1393 52.7854 26.111 52.5754 26.0381C52.3653 25.9652 52.1727 25.8493 52.0099 25.6978C51.8472 25.5463 51.7177 25.3626 51.6299 25.1583C51.5421 24.954 51.4979 24.7336 51.5 24.5113C51.4859 24.2883 51.5204 24.065 51.6012 23.8567C51.682 23.6485 51.807 23.4602 51.9678 23.3052C52.1286 23.1501 52.3212 23.0319 52.5323 22.9587C52.7433 22.8855 52.9678 22.859 53.19 22.8813C55.07 22.8313 56.94 22.8313 58.81 22.8813C59.0329 22.8625 59.2572 22.8915 59.4679 22.9665C59.6787 23.0414 59.8709 23.1605 60.0319 23.3158C60.1929 23.4711 60.3188 23.6589 60.4012 23.8668C60.4837 24.0747 60.5208 24.2979 60.5101 24.5213C60.5039 24.7442 60.4526 24.9635 60.3593 25.1661C60.266 25.3686 60.1326 25.5502 59.9671 25.6997C59.8017 25.8492 59.6077 25.9637 59.3968 26.0362C59.1859 26.1086 58.9624 26.1375 58.74 26.1212C57.86 26.1512 56.91 26.1212 55.99 26.1212Z" fill="url(#paint2_linear_3755_3831)"/>
<path d="M16.03 26.1214C15.11 26.1214 14.19 26.1214 13.27 26.1214C13.0487 26.1335 12.8273 26.1012 12.6187 26.0263C12.41 25.9514 12.2186 25.8356 12.0555 25.6855C11.8924 25.5355 11.761 25.3542 11.669 25.1526C11.5771 24.9509 11.5264 24.7329 11.52 24.5114C11.5224 24.2886 11.5699 24.0686 11.6595 23.8646C11.7492 23.6607 11.8793 23.477 12.0419 23.3247C12.2045 23.1724 12.3962 23.0546 12.6056 22.9784C12.8149 22.9022 13.0376 22.8692 13.2601 22.8814C15.1301 22.8814 17.0101 22.8814 18.8801 22.8814C19.1026 22.8719 19.3247 22.9076 19.533 22.9863C19.7414 23.065 19.9316 23.185 20.0923 23.3392C20.253 23.4934 20.3808 23.6785 20.4681 23.8834C20.5553 24.0882 20.6002 24.3087 20.6 24.5314C20.5618 24.9787 20.352 25.394 20.0147 25.6903C19.6774 25.9866 19.2386 26.1411 18.79 26.1214H16.03Z" fill="url(#paint3_linear_3755_3831)"/>
<path d="M47.9501 14.1818C47.5501 13.8618 46.95 13.6018 46.72 13.1818C46.6137 12.9174 46.5693 12.6322 46.5901 12.3479C46.6109 12.0637 46.6964 11.788 46.84 11.5418C48.23 9.99183 49.71 8.54181 51.24 7.09181C51.3842 6.95524 51.5551 6.84997 51.7419 6.78261C51.9288 6.71525 52.1275 6.68728 52.3257 6.70043C52.5238 6.71357 52.7171 6.76758 52.8934 6.85903C53.0697 6.95048 53.2251 7.0774 53.35 7.23183C53.4957 7.35024 53.6157 7.49714 53.7027 7.66353C53.7896 7.82992 53.8417 8.01229 53.8558 8.19951C53.8698 8.38673 53.8455 8.57484 53.7843 8.75234C53.7232 8.92984 53.6264 9.09301 53.5 9.23183C52.06 10.7818 50.5001 12.2318 49.0101 13.7418C48.6797 13.9387 48.3227 14.0869 47.9501 14.1818Z" fill="url(#paint4_linear_3755_3831)"/>
<path d="M25.78 36.4616C25.5409 36.9612 25.2492 37.4338 24.91 37.8716C23.69 39.1516 22.44 40.3916 21.17 41.6316C20.27 42.4916 19.36 42.5116 18.66 41.7516C18.5101 41.5769 18.3977 41.3733 18.3298 41.1533C18.2619 40.9334 18.24 40.7018 18.2653 40.473C18.2906 40.2442 18.3627 40.0231 18.477 39.8233C18.5913 39.6235 18.7455 39.4493 18.93 39.3116C20.19 38.0216 21.42 36.6916 22.78 35.5116C23.035 35.3264 23.3265 35.1976 23.6351 35.1338C23.9438 35.07 24.2625 35.0727 24.57 35.1416C25.04 35.2816 25.35 35.9716 25.78 36.4616Z" fill="url(#paint5_linear_3755_3831)"/>
<path d="M37.65 4.51106C37.65 5.43106 37.65 6.35107 37.65 7.27107C37.6649 7.49207 37.6357 7.71382 37.5641 7.92342C37.4925 8.13301 37.3798 8.32625 37.2328 8.4919C37.0858 8.65755 36.9072 8.7923 36.7076 8.88829C36.508 8.98429 36.2913 9.03964 36.0701 9.05107C35.8474 9.05603 35.6261 9.0141 35.4206 8.92806C35.2151 8.84201 35.03 8.71376 34.8773 8.55159C34.7245 8.38943 34.6075 8.19697 34.5339 7.98671C34.4603 7.77645 34.4318 7.55309 34.4501 7.33107C34.4501 5.45107 34.4501 3.58105 34.4501 1.71105C34.4285 1.48966 34.4546 1.26623 34.5265 1.05574C34.5984 0.84525 34.7145 0.652564 34.8669 0.490617C35.0194 0.32867 35.2047 0.201214 35.4105 0.116776C35.6163 0.0323389 35.8378 -0.00712064 36.0601 0.00105379C36.2821 0.00297047 36.5014 0.0508155 36.704 0.141557C36.9067 0.232298 37.0884 0.36398 37.2377 0.528337C37.3871 0.692693 37.5008 0.88615 37.5718 1.09657C37.6427 1.307 37.6693 1.52983 37.65 1.75105C37.67 2.67105 37.65 3.59106 37.65 4.51106Z" fill="url(#paint6_linear_3755_3831)"/>
<path d="M34.43 44.3819C34.43 43.4619 34.43 42.5419 34.43 41.6219C34.409 41.4024 34.4335 41.181 34.5021 40.9715C34.5706 40.7619 34.6818 40.5689 34.8285 40.4043C34.9753 40.2398 35.1544 40.1073 35.3547 40.0153C35.5551 39.9232 35.7722 39.8736 35.9927 39.8694C36.2131 39.8653 36.432 39.9067 36.6356 39.9912C36.8393 40.0756 37.0233 40.2013 37.1761 40.3602C37.3289 40.5191 37.4471 40.7079 37.5236 40.9147C37.6 41.1214 37.6328 41.3418 37.62 41.5619C37.62 43.4719 37.62 45.3819 37.62 47.2919C37.6168 47.502 37.5721 47.7094 37.4887 47.9023C37.4053 48.0952 37.2846 48.2697 37.1337 48.416C36.9828 48.5622 36.8046 48.6773 36.6092 48.7547C36.4139 48.8321 36.2052 48.8702 35.995 48.8669C35.7849 48.8636 35.5775 48.819 35.3846 48.7355C35.1918 48.6521 35.0172 48.5315 34.871 48.3806C34.7247 48.2297 34.6097 48.0515 34.5323 47.8561C34.4549 47.6607 34.4168 47.452 34.42 47.2419C34.41 46.3219 34.43 45.3819 34.43 44.3819Z" fill="url(#paint7_linear_3755_3831)"/>
<path d="M52.29 42.5128C51.8022 42.2562 51.3372 41.9584 50.9 41.6228C49.62 40.3928 48.38 39.1328 47.14 37.8728C46.3 37.0228 46.24 36.1528 46.93 35.4428C47.0869 35.2697 47.2802 35.1335 47.4961 35.0441C47.712 34.9547 47.945 34.9143 48.1783 34.9257C48.4117 34.9372 48.6397 35.0003 48.8457 35.1105C49.0518 35.2206 49.2308 35.3751 49.37 35.5628C50.68 36.8428 52.03 38.1128 53.24 39.4928C53.427 39.7469 53.5568 40.0384 53.6207 40.3474C53.6845 40.6563 53.6809 40.9754 53.61 41.2828C53.47 41.7628 52.78 42.0928 52.29 42.5128Z" fill="url(#paint8_linear_3755_3831)"/>
<path d="M19.79 6.49219C20.2674 6.73898 20.7224 7.02674 21.15 7.3522C22.43 8.5822 23.67 9.8322 24.91 11.1022C25.093 11.2415 25.2446 11.4176 25.3551 11.6193C25.4655 11.8209 25.5323 12.0435 25.5512 12.2727C25.57 12.5018 25.5405 12.7324 25.4645 12.9493C25.3885 13.1663 25.2677 13.3649 25.11 13.5322C24.41 14.2622 23.48 14.2022 22.61 13.3422C21.32 12.0822 20.06 10.7922 18.78 9.52222C18.5013 9.29474 18.3137 8.97467 18.2513 8.62039C18.1889 8.26611 18.2559 7.90121 18.44 7.59219C18.8306 7.15808 19.286 6.78702 19.79 6.49219Z" fill="url(#paint9_linear_3755_3831)"/>
<path d="M42.5601 7.12109C42.9915 7.13159 43.4015 7.31175 43.701 7.6225C44.0005 7.93325 44.1654 8.34953 44.16 8.7811C44.132 9.1909 43.9565 9.57671 43.6661 9.86716C43.3756 10.1576 42.9898 10.3331 42.58 10.3611C42.1511 10.3469 41.7431 10.1728 41.4359 9.87302C41.1288 9.57328 40.9448 9.16953 40.92 8.74109C40.9352 8.31284 41.1135 7.90658 41.4183 7.60544C41.7232 7.30429 42.1317 7.13103 42.5601 7.12109Z" fill="url(#paint10_linear_3755_3831)"/>
<path d="M21.86 17.9112C21.8628 18.3394 21.6981 18.7516 21.401 19.06C21.1039 19.3683 20.698 19.5482 20.27 19.5612C19.8661 19.5445 19.4835 19.3756 19.1991 19.0883C18.9147 18.801 18.7495 18.4168 18.7369 18.0127C18.7242 17.6087 18.8649 17.2148 19.1308 16.9103C19.3967 16.6057 19.768 16.4131 20.17 16.3712C20.3823 16.3604 20.5946 16.3919 20.7947 16.4636C20.9948 16.5353 21.1788 16.6459 21.3359 16.7891C21.493 16.9323 21.6202 17.1052 21.7102 17.2977C21.8002 17.4903 21.8511 17.6988 21.86 17.9112Z" fill="url(#paint11_linear_3755_3831)"/>
<path d="M53.3901 31.0528C53.3811 31.2652 53.3302 31.4737 53.2402 31.6663C53.1502 31.8588 53.023 32.0317 52.8659 32.1749C52.7088 32.3181 52.5249 32.4287 52.3248 32.5005C52.1247 32.5722 51.9124 32.6036 51.7001 32.5928C51.4871 32.5897 51.2771 32.5424 51.0833 32.454C50.8896 32.3655 50.7163 32.2379 50.5744 32.079C50.4324 31.9202 50.325 31.7337 50.2589 31.5312C50.1927 31.3288 50.1693 31.1148 50.1901 30.9028C50.22 30.4941 50.4019 30.1114 50.6998 29.8301C50.9978 29.5488 51.3903 29.3892 51.8001 29.3828C52.229 29.4034 52.6334 29.5884 52.9295 29.8994C53.2256 30.2103 53.3906 30.6234 53.3901 31.0528Z" fill="url(#paint12_linear_3755_3831)"/>
<path d="M31.0701 8.75124C31.0715 8.96343 31.0303 9.17375 30.9491 9.3698C30.8679 9.56585 30.7484 9.74367 30.5974 9.89278C30.4464 10.0419 30.2671 10.1593 30.0701 10.238C29.8731 10.3168 29.6623 10.3553 29.4501 10.3512C29.0204 10.3305 28.616 10.1417 28.3242 9.82555C28.0324 9.50942 27.8765 9.09126 27.8901 8.66124C27.9103 8.25074 28.0858 7.86329 28.381 7.57735C28.6762 7.29141 29.0691 7.12835 29.4801 7.12124C29.6931 7.11837 29.9044 7.15887 30.1013 7.24029C30.2981 7.3217 30.4763 7.44232 30.6251 7.59481C30.7738 7.74729 30.89 7.92847 30.9665 8.12728C31.043 8.32609 31.0783 8.53838 31.0701 8.75124Z" fill="url(#paint13_linear_3755_3831)"/>
<path d="M51.73 19.5619C51.5176 19.5583 51.3082 19.5116 51.1145 19.4248C50.9207 19.3379 50.7465 19.2126 50.6026 19.0565C50.4586 18.9004 50.3478 18.7167 50.2769 18.5165C50.206 18.3163 50.1764 18.1039 50.19 17.8919C50.1912 17.6876 50.2333 17.4855 50.3139 17.2977C50.3945 17.1099 50.5119 16.9402 50.6592 16.7985C50.8065 16.6568 50.9806 16.5461 51.1714 16.4728C51.3622 16.3995 51.5657 16.3652 51.7699 16.3719C52.1979 16.3719 52.6084 16.5412 52.912 16.8429C53.2155 17.1445 53.3873 17.554 53.39 17.9819C53.3744 18.4099 53.1919 18.8147 52.8817 19.11C52.5716 19.4052 52.1582 19.5674 51.73 19.5619Z" fill="url(#paint14_linear_3755_3831)"/>
<path d="M29.5501 41.8711C29.1208 41.8689 28.7088 41.7015 28.3997 41.4036C28.0906 41.1056 27.9081 40.7001 27.8901 40.2712C27.8817 39.8595 28.0333 39.4605 28.3131 39.1584C28.5929 38.8562 28.979 38.6744 29.3901 38.6511C29.6015 38.6348 29.814 38.6617 30.0146 38.7302C30.2153 38.7987 30.3999 38.9074 30.5571 39.0497C30.7143 39.192 30.8409 39.3648 30.9291 39.5576C31.0173 39.7504 31.0653 39.9592 31.0701 40.1712C31.0836 40.383 31.0548 40.5953 30.9854 40.7959C30.9161 40.9965 30.8075 41.1813 30.666 41.3395C30.5246 41.4977 30.3531 41.6261 30.1615 41.7174C29.9699 41.8087 29.7621 41.861 29.5501 41.8711Z" fill="url(#paint15_linear_3755_3831)"/>
<path d="M42.58 41.8624C42.1513 41.8529 41.742 41.6817 41.4341 41.3831C41.1263 41.0845 40.9426 40.6806 40.92 40.2523C40.9305 39.8244 41.1079 39.4174 41.4143 39.1185C41.7207 38.8195 42.1319 38.6522 42.5601 38.6523C42.9718 38.6544 43.3671 38.8141 43.6647 39.0987C43.9623 39.3833 44.1396 39.7711 44.16 40.1823C44.1584 40.6104 43.9944 41.0219 43.7012 41.3337C43.4079 41.6456 43.0072 41.8345 42.58 41.8624Z" fill="url(#paint16_linear_3755_3831)"/>
<path d="M71.3701 77.291C71.794 77.3135 72.194 77.4946 72.4904 77.7985C72.7869 78.1024 72.9581 78.5066 72.97 78.931C72.957 79.3572 72.7785 79.7616 72.4724 80.0585C72.1662 80.3553 71.7565 80.5212 71.33 80.521C71.1187 80.5225 70.9093 80.4812 70.7144 80.3998C70.5194 80.3184 70.3428 80.1985 70.1953 80.0472C70.0478 79.896 69.9323 79.7165 69.8558 79.5195C69.7793 79.3226 69.7433 79.1122 69.7501 78.901C69.7578 78.4747 69.9313 78.0682 70.2337 77.7676C70.5361 77.4671 70.9437 77.2961 71.3701 77.291Z" fill="url(#paint17_linear_3755_3831)"/>
<path d="M21.86 31.0428C21.8418 31.4708 21.6548 31.8742 21.34 32.1646C21.0251 32.4551 20.608 32.6091 20.18 32.5928C19.9666 32.5924 19.7557 32.5475 19.5608 32.4608C19.3658 32.374 19.1912 32.2475 19.048 32.0893C18.9049 31.9311 18.7964 31.7447 18.7296 31.5421C18.6628 31.3395 18.639 31.1251 18.66 30.9128C18.6826 30.5041 18.8592 30.1191 19.1542 29.8353C19.4492 29.5514 19.8407 29.3898 20.25 29.3828C20.6791 29.4031 21.0843 29.586 21.3833 29.8943C21.6824 30.2027 21.8528 30.6133 21.86 31.0428Z" fill="url(#paint18_linear_3755_3831)"/>
<path d="M55.2 65.8715C54.7737 65.8796 54.3613 65.7193 54.0525 65.4254C53.7436 65.1315 53.563 64.7277 53.55 64.3015C53.5442 63.8756 53.7033 63.464 53.994 63.1527C54.2848 62.8414 54.6847 62.6547 55.11 62.6315C55.3227 62.6256 55.5345 62.6616 55.7333 62.7376C55.9321 62.8135 56.114 62.9279 56.2686 63.0741C56.4233 63.2204 56.5476 63.3957 56.6344 63.5899C56.7213 63.7842 56.769 63.9938 56.7749 64.2065C56.7808 64.4192 56.7448 64.631 56.6689 64.8298C56.5929 65.0287 56.4786 65.2106 56.3323 65.3652C56.1861 65.5198 56.0108 65.6441 55.8165 65.7309C55.6222 65.8178 55.4127 65.8656 55.2 65.8715Z" fill="url(#paint19_linear_3755_3831)"/>
<path d="M50.2 68.7324C50.6217 68.7324 51.0261 68.8999 51.3243 69.1981C51.6225 69.4963 51.79 69.9007 51.79 70.3224C51.79 70.7441 51.6225 71.1485 51.3243 71.4467C51.0261 71.7449 50.6217 71.9124 50.2 71.9124C49.7783 71.9124 49.3739 71.7449 49.0757 71.4467C48.7775 71.1485 48.61 70.7441 48.61 70.3224C48.61 69.9007 48.7775 69.4963 49.0757 69.1981C49.3739 68.8999 49.7783 68.7324 50.2 68.7324Z" fill="url(#paint20_linear_3755_3831)"/>
<defs>
<linearGradient id="paint0_linear_3755_3831" x1="0" y1="72.1425" x2="109.031" y2="72.1425" gradientUnits="userSpaceOnUse">
<stop stop-color="#CCAB64"/>
<stop offset="1" stop-color="#FAECC9"/>
</linearGradient>
<linearGradient id="paint1_linear_3755_3831" x1="22.66" y1="24.4613" x2="49.36" y2="24.4613" gradientUnits="userSpaceOnUse">
<stop stop-color="#CCAB64"/>
<stop offset="1" stop-color="#FAECC9"/>
</linearGradient>
<linearGradient id="paint2_linear_3755_3831" x1="51.4969" y1="24.4892" x2="60.5119" y2="24.4892" gradientUnits="userSpaceOnUse">
<stop stop-color="#CCAB64"/>
<stop offset="1" stop-color="#FAECC9"/>
</linearGradient>
<linearGradient id="paint3_linear_3755_3831" x1="11.52" y1="24.5014" x2="20.6" y2="24.5014" gradientUnits="userSpaceOnUse">
<stop stop-color="#CCAB64"/>
<stop offset="1" stop-color="#FAECC9"/>
</linearGradient>
<linearGradient id="paint4_linear_3755_3831" x1="46.5851" y1="10.4395" x2="53.8596" y2="10.4395" gradientUnits="userSpaceOnUse">
<stop stop-color="#CCAB64"/>
<stop offset="1" stop-color="#FAECC9"/>
</linearGradient>
<linearGradient id="paint5_linear_3755_3831" x1="18.2551" y1="38.6941" x2="25.78" y2="38.6941" gradientUnits="userSpaceOnUse">
<stop stop-color="#CCAB64"/>
<stop offset="1" stop-color="#FAECC9"/>
</linearGradient>
<linearGradient id="paint6_linear_3755_3831" x1="34.4427" y1="4.52573" x2="37.6589" y2="4.52573" gradientUnits="userSpaceOnUse">
<stop stop-color="#CCAB64"/>
<stop offset="1" stop-color="#FAECC9"/>
</linearGradient>
<linearGradient id="paint7_linear_3755_3831" x1="34.4172" y1="44.3681" x2="37.6227" y2="44.3681" gradientUnits="userSpaceOnUse">
<stop stop-color="#CCAB64"/>
<stop offset="1" stop-color="#FAECC9"/>
</linearGradient>
<linearGradient id="paint8_linear_3755_3831" x1="46.4568" y1="38.7183" x2="53.666" y2="38.7183" gradientUnits="userSpaceOnUse">
<stop stop-color="#CCAB64"/>
<stop offset="1" stop-color="#FAECC9"/>
</linearGradient>
<linearGradient id="paint9_linear_3755_3831" x1="18.2285" y1="10.2647" x2="25.5567" y2="10.2647" gradientUnits="userSpaceOnUse">
<stop stop-color="#CCAB64"/>
<stop offset="1" stop-color="#FAECC9"/>
</linearGradient>
<linearGradient id="paint10_linear_3755_3831" x1="40.92" y1="8.7411" x2="44.1602" y2="8.7411" gradientUnits="userSpaceOnUse">
<stop stop-color="#CCAB64"/>
<stop offset="1" stop-color="#FAECC9"/>
</linearGradient>
<linearGradient id="paint11_linear_3755_3831" x1="18.7361" y1="17.9652" x2="21.8601" y2="17.9652" gradientUnits="userSpaceOnUse">
<stop stop-color="#CCAB64"/>
<stop offset="1" stop-color="#FAECC9"/>
</linearGradient>
<linearGradient id="paint12_linear_3755_3831" x1="50.1827" y1="30.9888" x2="53.3901" y2="30.9888" gradientUnits="userSpaceOnUse">
<stop stop-color="#CCAB64"/>
<stop offset="1" stop-color="#FAECC9"/>
</linearGradient>
<linearGradient id="paint13_linear_3755_3831" x1="27.8893" y1="8.73631" x2="31.0713" y2="8.73631" gradientUnits="userSpaceOnUse">
<stop stop-color="#CCAB64"/>
<stop offset="1" stop-color="#FAECC9"/>
</linearGradient>
<linearGradient id="paint14_linear_3755_3831" x1="50.1868" y1="17.9666" x2="53.39" y2="17.9666" gradientUnits="userSpaceOnUse">
<stop stop-color="#CCAB64"/>
<stop offset="1" stop-color="#FAECC9"/>
</linearGradient>
<linearGradient id="paint15_linear_3755_3831" x1="27.8898" y1="40.2588" x2="31.0733" y2="40.2588" gradientUnits="userSpaceOnUse">
<stop stop-color="#CCAB64"/>
<stop offset="1" stop-color="#FAECC9"/>
</linearGradient>
<linearGradient id="paint16_linear_3755_3831" x1="40.92" y1="40.2574" x2="44.16" y2="40.2574" gradientUnits="userSpaceOnUse">
<stop stop-color="#CCAB64"/>
<stop offset="1" stop-color="#FAECC9"/>
</linearGradient>
<linearGradient id="paint17_linear_3755_3831" x1="69.7493" y1="78.906" x2="72.97" y2="78.906" gradientUnits="userSpaceOnUse">
<stop stop-color="#CCAB64"/>
<stop offset="1" stop-color="#FAECC9"/>
</linearGradient>
<linearGradient id="paint18_linear_3755_3831" x1="18.6526" y1="30.9884" x2="21.86" y2="30.9884" gradientUnits="userSpaceOnUse">
<stop stop-color="#CCAB64"/>
<stop offset="1" stop-color="#FAECC9"/>
</linearGradient>
<linearGradient id="paint19_linear_3755_3831" x1="53.5498" y1="64.2513" x2="56.7756" y2="64.2513" gradientUnits="userSpaceOnUse">
<stop stop-color="#CCAB64"/>
<stop offset="1" stop-color="#FAECC9"/>
</linearGradient>
<linearGradient id="paint20_linear_3755_3831" x1="48.61" y1="70.3224" x2="51.79" y2="70.3224" gradientUnits="userSpaceOnUse">
<stop stop-color="#CCAB64"/>
<stop offset="1" stop-color="#FAECC9"/>
</linearGradient>
</defs>
</svg>
