<svg width="97" height="100" viewBox="0 0 97 100" fill="none" xmlns="http://www.w3.org/2000/svg">
<path d="M96.1336 100H0.831545C0.646371 99.3741 0.309928 98.7481 0.309928 98.1196C0.28037 78.3086 0.272554 58.4958 0.286464 38.6813C0.286464 37.0982 0.583768 36.8009 2.15905 36.8009H24.899V35.4655C24.899 25.8034 24.899 16.1414 24.899 6.47927C24.899 5.55079 25.1937 4.97962 26.0596 4.57275C31.4531 2.04813 37.1622 0.780598 43.0538 0.253765C47.8536 -0.182161 52.6878 -0.0561192 57.4583 0.629329C62.1737 1.31265 66.7353 2.5228 71.0386 4.61709C71.7741 4.9744 72.1105 5.45429 72.1105 6.28105C72.0949 13.8949 72.0949 21.5079 72.1105 29.1201V36.8009H94.8452C96.4101 36.8009 96.7204 37.1008 96.7204 38.6813C96.7204 58.5028 96.7126 78.3155 96.697 98.1196C96.6657 98.7403 96.3188 99.3741 96.1336 100ZM69.7398 26.4963C69.7596 26.4575 69.7745 26.4163 69.7841 26.3737C69.7841 19.9318 69.8128 13.4898 69.7841 7.04783C69.7841 6.75051 69.4086 6.32278 69.1034 6.18194C64.6697 4.13981 59.9751 3.07832 55.1267 2.53062C50.7932 2.04871 46.4197 2.04871 42.0862 2.53062C37.2195 3.06789 32.4937 4.15546 27.9817 6.09848C27.3532 6.35929 27.1445 6.72182 27.1497 7.40253C27.1784 13.4533 27.1654 19.5067 27.1654 25.5574V26.5302C41.4003 21.348 55.5335 21.2567 69.7398 26.4963ZM27.1549 97.7544H36.1659V96.6538C36.1659 91.3855 36.1659 86.1154 36.1659 80.8436C36.1659 79.4379 36.458 79.1536 37.8951 79.1536H59.0753C60.5045 79.1536 60.7992 79.4431 60.7992 80.8488C60.7992 86.1189 60.7992 91.389 60.7992 96.659V97.7571H69.6981C69.7386 97.6785 69.7692 97.5953 69.7893 97.5093C69.7893 90.4492 69.8102 83.3917 69.7893 76.3316C69.7582 76.1567 69.6866 75.9916 69.5802 75.8493C69.4737 75.7071 69.3355 75.5918 69.1764 75.5127C67.5721 74.8122 65.9329 74.1941 64.2654 73.6609C57.7452 71.731 51.0763 71.1598 44.3005 71.6527C38.6931 72.0596 33.2553 73.1602 28.06 75.3745C27.4027 75.6535 27.1393 75.9821 27.1419 76.7281C27.1732 83.3969 27.1602 90.0658 27.1602 96.7347L27.1549 97.7544ZM58.5641 97.7544V81.4722H49.6966V97.7571L58.5641 97.7544ZM47.292 97.7544V81.4669H38.4245V97.7649L47.292 97.7544ZM24.8103 97.7544V84.3306H14.8995V97.7597L24.8103 97.7544ZM82.0578 84.3306H72.147V97.7544H82.0578V84.3306ZM84.4416 84.3019V97.7571H94.3523V84.3072L84.4416 84.3019ZM12.5445 84.3254H2.60245V97.7258H12.5445V84.3254ZM12.5445 39.1064H2.58939V52.4885H12.534L12.5445 39.1064ZM24.8494 39.1064H14.9048V52.4833H24.8494V39.1064ZM72.147 39.1064V52.5146H82.0578V39.1038L72.147 39.1064ZM84.4207 52.512H94.3679V39.1325H84.4207V52.512ZM12.5132 81.9964V69.5819H2.60245V81.9964H12.5132ZM14.9178 69.5793V81.9938H24.8285V69.5793H14.9178ZM82.0734 69.5793H72.1392V81.9703H82.0734V69.5793ZM94.381 69.5793H84.4442V81.9703H94.394L94.381 69.5793ZM2.58939 54.8567V67.232H12.5001V54.8567H2.58939ZM72.1262 54.8567V67.2659H82.0369V54.8462L72.1262 54.8567ZM94.3757 54.8906H84.4285V67.2294H94.394L94.3757 54.8906ZM14.8917 54.8645V67.2398H24.8025V54.854L14.8917 54.8645ZM58.5407 38.8743V25.5731L49.6575 24.7541V38.1206L58.5407 38.8743ZM47.305 24.715C44.603 25.0045 42.0002 25.3357 39.3869 25.5392C38.4453 25.6122 38.3097 26.006 38.3176 26.8171C38.3541 30.5258 38.3332 34.2371 38.3332 37.9458V38.9239L47.305 38.1075V24.715ZM49.6523 55.8112V69.2037L58.6137 69.9731C58.6137 65.735 58.6137 61.5177 58.5928 57.2978C58.5728 57.1703 58.521 57.05 58.4422 56.9478C58.3633 56.8457 58.2599 56.7652 58.1416 56.7136C55.364 56.3798 52.5655 56.1007 49.668 55.8008L49.6523 55.8112ZM38.388 56.698V69.9992L47.2555 69.2037V55.8425L38.388 56.698ZM47.2972 40.2905L38.401 41.1616V54.4628L47.2972 53.6335V40.2905ZM58.5615 54.4367V41.086L49.681 40.3035V53.6204L58.5615 54.4367ZM60.8306 39.2446L69.7946 42.0536C69.7946 37.9302 69.8102 33.8068 69.7633 29.6834C69.7633 29.3887 69.372 28.9453 69.0643 28.828C67.0717 28.0638 65.0557 27.3492 63.0344 26.6632C62.3433 26.4285 61.6104 26.3164 60.8306 26.1416V39.2446ZM69.6981 57.6916C69.7432 57.5542 69.7747 57.4127 69.792 57.2691C69.792 53.2683 69.8128 49.2675 69.7685 45.2719C69.7322 45.0839 69.6528 44.9069 69.5365 44.7549C69.4202 44.6028 69.2701 44.4798 69.0982 44.3956C67.5333 43.7488 65.9685 43.1437 64.3697 42.6091C63.2274 42.2283 62.0433 41.9779 60.7888 41.6467C60.7888 46.0048 60.7888 50.1673 60.7888 54.3272C60.7888 54.8879 61.0496 55.0131 61.5243 55.1331C63.157 55.5504 64.7844 55.9886 66.3962 56.4867C67.5047 56.8127 68.574 57.2717 69.7111 57.6812L69.6981 57.6916ZM60.8306 70.3356L69.805 73.1498C69.805 69.0159 69.805 64.89 69.7893 60.764C69.7833 60.6298 69.7469 60.4988 69.6827 60.3809C69.6186 60.2629 69.5284 60.1611 69.419 60.0833C66.6831 58.7876 63.7988 57.832 60.8306 57.2378V70.3356ZM27.1497 57.5873C29.9195 56.771 32.5746 55.9468 35.2557 55.2244C35.9572 55.0366 36.1868 54.7993 36.1789 54.0742C36.1424 50.2716 36.1633 46.469 36.1607 42.6665C36.1607 42.39 36.1215 42.1109 36.0955 41.7275C33.1477 42.339 30.2794 43.2849 27.5462 44.5469C27.4358 44.6244 27.3444 44.7259 27.2789 44.8438C27.2134 44.9617 27.1755 45.0929 27.168 45.2276C27.1497 49.3432 27.1549 53.4665 27.1549 57.5769L27.1497 57.5873ZM36.1268 25.9173C33.177 26.9606 30.4281 27.9151 27.7079 28.9375C27.4471 29.0366 27.1863 29.5608 27.1863 29.8921C27.1419 32.3306 27.1628 34.7718 27.1628 37.2103V42.0822L36.132 39.2759L36.1268 25.9173ZM36.1268 57.0318C33.2944 58.0229 30.6159 58.9722 27.9243 59.9007C27.2932 60.1146 27.1263 60.4797 27.1419 61.1265C27.1732 64.8978 27.1419 68.6665 27.1602 72.4378C27.1698 72.6813 27.1924 72.9242 27.228 73.1654L36.1372 70.4087L36.1268 57.0318Z" fill="url(#paint0_linear_943_1376)"/>
<path d="M43.4087 17.7856C43.7379 17.9059 44.0802 17.9873 44.4284 18.0281C47.7772 18.049 51.126 18.0281 54.4748 18.0281C54.7356 18.0281 54.9964 18.0125 55.2572 18.0281C55.9457 18.0907 56.4699 18.3828 56.4699 19.1522C56.4699 19.9216 55.964 20.2424 55.265 20.2763C54.6182 20.3076 53.961 20.2763 53.3194 20.2763L53.4498 20.5136C52.9934 20.8735 52.5552 21.4786 52.0727 21.5177C51.658 21.549 51.1938 20.9309 50.753 20.5997L50.9147 20.3389H47.2321L47.3834 20.571C46.9191 20.9153 46.4627 21.5099 45.9854 21.5256C45.5629 21.5412 45.1196 20.9127 44.6814 20.5658L44.8248 20.305C44.3032 20.305 43.7816 20.2711 43.2756 20.305C42.2324 20.3884 41.7395 19.9007 41.4891 18.9305C40.6024 15.5122 39.6826 12.1008 38.7297 8.69638C38.5606 8.23315 38.2516 7.83396 37.8456 7.55404C37.1362 7.04807 36.3329 6.66729 35.5818 6.2187C34.9454 5.83792 34.7759 5.26414 35.1462 4.65385C35.5166 4.04355 36.0721 3.98096 36.672 4.32001C37.7726 4.94334 38.8836 5.55363 39.9529 6.22913C40.278 6.43383 40.5144 6.75307 40.6154 7.1237C40.7406 7.83049 41.137 7.88005 41.7238 7.87744C46.6966 7.86179 51.6719 7.86179 56.6499 7.87744C58.3034 7.87744 58.666 8.35994 58.2356 9.97956C57.6853 12.0452 57.1011 14.1055 56.5821 16.1816C56.3526 17.0918 55.8649 17.4387 54.9234 17.4283C51.1208 17.3917 47.3208 17.4126 43.5182 17.4126L43.4087 17.7856ZM41.4761 10.1778C41.8829 11.7426 42.2585 13.2371 42.694 14.7184C42.7591 14.8479 42.855 14.9593 42.9732 15.043C43.0915 15.1267 43.2285 15.18 43.3721 15.1983C46.9122 15.2296 50.4522 15.2296 53.9923 15.1983C54.1219 15.1855 54.2464 15.1416 54.3554 15.0703C54.4644 14.999 54.5546 14.9025 54.6182 14.7889C55.0616 13.2814 55.4502 11.7583 55.8727 10.1752L41.4761 10.1778Z" fill="url(#paint1_linear_943_1376)"/>
<defs>
<linearGradient id="paint0_linear_943_1376" x1="0.279785" y1="50" x2="96.7204" y2="50" gradientUnits="userSpaceOnUse">
<stop stop-color="#CCAB64"/>
<stop offset="1" stop-color="#FAECC9"/>
</linearGradient>
<linearGradient id="paint1_linear_943_1376" x1="34.9526" y1="12.8205" x2="58.4019" y2="12.8205" gradientUnits="userSpaceOnUse">
<stop stop-color="#CCAB64"/>
<stop offset="1" stop-color="#FAECC9"/>
</linearGradient>
</defs>
</svg>
