<svg width="201" height="70" viewBox="0 0 201 70" fill="none" xmlns="http://www.w3.org/2000/svg">
<path d="M20.6371 69.7021C19.6808 69.7021 18.17 69.6605 17.2691 69.6605C16.7355 69.6605 15.8138 69.6605 15.1416 69.7021C15.2386 68.0458 15.2941 65.8698 15.2941 64.0819V61.691C15.2941 59.8962 15.2386 57.7201 15.1416 56.0708C15.696 56.0708 16.6316 56.0708 17.2691 56.0708C18.2255 56.0708 19.6392 56.0708 20.6371 56.0708C25.3634 56.0708 27.872 57.7825 27.872 62.6058C27.872 67.8657 24.109 69.7021 20.6371 69.7021ZM20.1797 56.9232C19.2521 56.9249 18.3258 56.992 17.4077 57.1241C17.3315 58.323 17.3107 60.3328 17.3107 61.6703V64.0403C17.3107 65.3154 17.3107 67.4707 17.4077 68.6419C18.186 68.7732 18.9747 68.8334 19.7639 68.822C22.4943 68.822 25.5228 67.7686 25.5228 62.585C25.5228 58.0597 23.2289 56.9232 20.1797 56.9232Z" fill="black"/>
<path d="M35.1073 69.6398C34.5876 69.6398 33.458 69.6813 33.0283 69.7021C33.1323 68.1082 33.1877 65.4748 33.1877 63.6799V61.691C33.1877 59.8962 33.1323 57.6647 33.0283 56.0708C33.4926 56.0708 34.4143 56.1263 35.0657 56.1263C36.3755 56.1263 38.5307 56.1262 39.8474 56.0708C39.8474 56.3064 39.8474 56.5074 39.8474 56.6876C39.8474 56.8678 39.8474 57.1034 39.8474 57.3251C38.328 57.1115 36.7939 57.0187 35.2598 57.0479C35.2251 57.9627 35.1836 59.8199 35.1836 61.4277V62.0652C36.614 62.0923 38.0447 62.0251 39.4663 61.8643C39.4663 62.086 39.4663 62.3286 39.4663 62.5018C39.4663 62.6751 39.4663 62.9246 39.4663 63.1394C38.0435 62.9964 36.6129 62.9454 35.1836 62.9869V63.7215C35.1836 65.4956 35.2251 67.9281 35.2598 68.725C36.8283 68.7485 38.3958 68.6348 39.9445 68.3854C39.9445 68.725 39.9445 68.919 39.9445 69.0784C39.9445 69.2378 39.9445 69.4041 39.9445 69.7229C38.6555 69.6813 36.8052 69.6398 35.1073 69.6398Z" fill="black"/>
<path d="M50.3537 69.702C50.1527 69.702 49.8547 69.6604 49.5983 69.6604C49.3419 69.6604 49.0578 69.6604 48.8014 69.702C47.8866 67.0686 45.2532 60.5336 43.3613 56.1053H43.4168C43.8187 56.1053 44.3385 56.1053 44.678 56.1053C45.0176 56.1053 45.475 56.1053 45.8284 56.1053C46.9095 59.3486 48.9192 64.5946 50.1389 67.4428H50.1943C51.7881 63.7376 53.1921 59.9535 54.4008 56.1053C54.6572 56.1053 54.9206 56.1053 55.1354 56.1053C55.3502 56.1053 55.7314 56.1053 55.9739 56.1053H56.0155C54.7473 58.8981 51.7674 66.0915 50.3537 69.702Z" fill="black"/>
<path d="M62.1762 69.6398C61.6564 69.6398 60.5199 69.6813 60.0625 69.7021C60.1595 68.1082 60.2219 65.4748 60.2219 63.6799V61.691C60.2219 59.8962 60.1595 57.6647 60.0625 56.0708C60.5199 56.0708 61.4485 56.1263 62.093 56.1263C63.4097 56.1263 65.558 56.1262 66.8747 56.0708C66.8747 56.3064 66.8747 56.5074 66.8747 56.6876C66.8747 56.8678 66.8747 57.1034 66.8747 57.3251C65.3576 57.1112 63.8258 57.0184 62.294 57.0479C62.2524 57.9627 62.2108 59.8199 62.2108 61.4277V62.0652C63.6436 62.0919 65.0765 62.0248 66.5005 61.8643C66.5005 62.086 66.5005 62.3286 66.5005 62.5018C66.5005 62.6751 66.5005 62.9246 66.5005 63.1394C65.0753 62.9966 63.6425 62.9457 62.2108 62.9869V63.7215C62.2108 65.4956 62.2524 67.9281 62.294 68.725C63.8624 68.7482 65.4299 68.6346 66.9786 68.3854C66.9786 68.725 66.9786 68.919 66.9786 69.0784C66.9786 69.2378 66.9786 69.4041 66.9786 69.7229C65.7174 69.6813 63.8671 69.6398 62.1762 69.6398Z" fill="black"/>
<path d="M74.151 69.6398C73.6313 69.6398 72.4809 69.6813 72.0166 69.7021C72.1206 68.1082 72.176 65.4748 72.176 63.6799V61.691C72.176 59.8962 72.1206 57.6647 72.0166 56.0708C72.377 56.0708 72.8136 56.0708 73.1739 56.0708C73.5343 56.0708 73.9709 56.0708 74.3312 56.0708C74.2342 57.6647 74.1718 59.8962 74.1718 61.691V63.6799C74.1718 65.4748 74.2134 67.838 74.255 68.725C76.0326 68.7403 77.8091 68.6268 79.5703 68.3854C79.5703 68.725 79.5703 68.919 79.5703 69.0784C79.5703 69.2378 79.5703 69.4041 79.5703 69.7229C77.9348 69.6813 75.8281 69.6398 74.151 69.6398Z" fill="black"/>
<path d="M89.834 70C85.5097 70 82.6406 67.228 82.6406 62.8829C82.6406 58.5378 85.5097 55.7727 89.834 55.7727C94.283 55.7727 97.0481 58.4962 97.0481 62.8829C97.0481 67.2696 94.1791 70 89.834 70ZM89.834 56.5904C86.9234 56.5904 84.983 58.6695 84.983 62.8829C84.983 67.0963 86.9511 69.1199 89.834 69.1199C92.7169 69.1199 94.7404 66.9855 94.7404 62.8829C94.7404 58.7803 92.7654 56.5904 89.834 56.5904Z" fill="black"/>
<path d="M105.219 63.6592H104.325V63.777C104.325 65.454 104.387 68.1082 104.484 69.7021C104.124 69.7021 103.688 69.6605 103.327 69.6605C102.967 69.6605 102.53 69.6605 102.177 69.7021C102.274 68.1082 102.336 65.4748 102.336 63.6799V61.691C102.336 59.8962 102.274 57.6647 102.177 56.0708C102.911 56.0708 103.826 56.0708 104.325 56.0708C104.824 56.0708 105.24 56.0708 105.711 56.0708C106.182 56.0708 106.612 56.0708 106.889 56.0708C108.504 56.0708 110.777 56.4658 110.777 59.5358C110.784 63.1048 107.617 63.6592 105.219 63.6592ZM105.6 56.8677C105.195 56.8718 104.79 56.8972 104.387 56.944C104.346 58.1637 104.325 60.4922 104.325 61.7118V62.8622H105.067C106.958 62.8622 108.587 62.3632 108.587 59.5774C108.587 57.4429 107.236 56.8677 105.6 56.8677Z" fill="black"/>
<path d="M129.653 69.6605C129.279 69.6605 128.898 69.6605 128.482 69.7021C128.399 67.1865 128.039 62.7028 127.665 59.4595H127.581C126.507 61.2891 123.936 66.348 122.64 69.4595H121.906C120.804 66.6875 118.552 62.3078 117.422 60.1733C117.308 59.9741 117.206 59.7682 117.117 59.5565H117.041C116.625 63.1047 116.182 67.4498 116.182 69.7021C115.967 69.7021 115.627 69.6605 115.405 69.6605C115.184 69.6605 114.886 69.6605 114.608 69.7021C115.301 65.5441 116.147 59.9169 116.5 56.0292H117.658C119.189 59.4179 121.76 64.56 122.841 66.4727H122.917C123.936 64.6155 126.424 59.7575 128.198 56.0292H129.355C129.757 61.0881 130.409 67.5676 130.832 69.7021C130.471 69.6813 130.014 69.6605 129.653 69.6605Z" fill="black"/>
<path d="M138.067 69.6398C137.547 69.6398 136.411 69.6813 135.953 69.7021C136.057 68.1082 136.113 65.4748 136.113 63.6799V61.691C136.113 59.8962 136.057 57.6647 135.953 56.0708C136.411 56.0708 137.339 56.1263 137.991 56.1263C139.3 56.1263 141.456 56.1262 142.772 56.0708C142.772 56.3064 142.772 56.5074 142.772 56.6876C142.772 56.8678 142.772 57.1034 142.772 57.3251C141.253 57.1115 139.719 57.0187 138.185 57.0479C138.185 57.9627 138.108 59.8199 138.108 61.4277V62.0652C139.539 62.0923 140.969 62.0251 142.391 61.8643C142.391 62.086 142.391 62.3286 142.391 62.5018C142.391 62.6751 142.391 62.9246 142.391 63.1394C140.968 62.9964 139.538 62.9454 138.108 62.9869V63.7215C138.108 65.4956 138.15 67.9281 138.185 68.725C139.753 68.7485 141.321 68.6348 142.869 68.3854C142.869 68.725 142.869 68.919 142.869 69.0784C142.869 69.2378 142.869 69.4041 142.869 69.7229C141.615 69.6813 139.758 69.6398 138.067 69.6398Z" fill="black"/>
<path d="M159.03 63.0838V64.6777C159.03 66.7082 159.071 68.6209 159.113 69.7366H158.136C156.5 67.6576 152.716 63.2432 149.549 59.7921C149.399 59.6291 149.258 59.4579 149.127 59.2793H149.071V62.668C149.05 65.013 149.168 67.3571 149.425 69.6881C149.168 69.6881 148.829 69.6465 148.607 69.6465C148.385 69.6465 148.052 69.6465 147.789 69.6881C147.955 68.0942 148.052 65.0589 148.052 62.668V61.677C148.052 59.1614 147.99 56.8746 147.969 55.9529H149.05C151.379 58.8843 155.287 63.2502 157.616 65.7588C157.734 65.8766 157.838 66.0152 157.997 66.1954H158.032V63.0908C158.052 60.7481 157.934 58.4063 157.678 56.0776C157.997 56.0776 158.274 56.0776 158.517 56.0776C158.759 56.0776 159.071 56.0776 159.293 56.0776C159.133 57.6646 159.03 60.693 159.03 63.0838Z" fill="black"/>
<path d="M169.515 57.0618C169.473 57.8657 169.46 58.8775 169.46 59.418V63.6799C169.46 65.454 169.515 68.1082 169.619 69.7021C169.259 69.7021 168.822 69.6605 168.462 69.6605C168.101 69.6605 167.665 69.6605 167.304 69.7021C167.401 68.1082 167.464 65.4748 167.464 63.6799V59.418C167.464 58.8567 167.464 57.8449 167.401 57.0618C166.029 57.0749 164.659 57.1698 163.299 57.3459C163.299 57.0479 163.299 56.8678 163.299 56.6876C163.299 56.5074 163.299 56.348 163.299 56.0708C164.532 56.1262 166.764 56.147 168.441 56.147C170.118 56.147 172.384 56.147 173.625 56.0708C173.625 56.348 173.625 56.5074 173.625 56.6876C173.625 56.8678 173.625 57.0479 173.625 57.3459C172.262 57.1683 170.889 57.0735 169.515 57.0618Z" fill="black"/>
<path d="M180.257 69.9584C179.068 69.9584 177.89 69.7229 176.792 69.2654C176.886 68.5218 177.02 67.7839 177.194 67.0547L177.527 67.0131C177.689 67.6514 178.073 68.2111 178.61 68.5921C179.147 68.973 179.802 69.1503 180.458 69.0921C181.844 69.0921 183.112 68.3506 183.112 66.5765C183.112 64.948 182.114 64.3105 180.382 63.5689C178.829 62.8759 177.152 62.1344 177.152 59.7228C177.152 57.3111 179.183 55.8558 181.678 55.8558C182.733 55.8667 183.774 56.0907 184.741 56.5142C184.515 57.1359 184.344 57.7758 184.228 58.4268H183.868C183.736 57.8935 183.419 57.4243 182.974 57.1031C182.528 56.7819 181.983 56.6297 181.435 56.6736C181.128 56.6466 180.819 56.6855 180.528 56.7878C180.237 56.8901 179.972 57.0534 179.749 57.2667C179.527 57.4799 179.353 57.7383 179.238 58.0245C179.124 58.3106 179.072 58.6179 179.086 58.9258C179.086 60.3811 179.98 61.0603 181.359 61.6147C183.59 62.5294 185.066 63.3125 185.066 65.7727C185.066 68.2328 183.112 69.9584 180.257 69.9584Z" fill="black"/>
<mask id="mask0_3699_807" style="mask-type:luminance" maskUnits="userSpaceOnUse" x="0" y="43" width="201" height="2">
<path d="M200.18 43.0284H0V44.0541H200.18V43.0284Z" fill="white"/>
</mask>
<g mask="url(#mask0_3699_807)">
<path d="M200.18 43.0284H0V44.0541H200.18V43.0284Z" fill="url(#paint0_linear_3699_807)"/>
</g>
<path d="M79.8132 0H78.3509L66.2996 23.3541L53.8741 0H52.0515L48.7737 25.1767C48.4133 27.727 48.4133 28.4546 47.6787 29.9099H51.3239C50.9593 28.2293 50.9593 26.49 51.3239 24.8094L53.5138 9.47331L64.1098 29.5703H65.9324L76.168 10.2218L77.9906 24.4699C78.3509 26.1509 78.3509 27.8893 77.9906 29.5703L84.5464 29.9446C83.7414 28.4835 83.246 26.8723 83.0911 25.2114L79.8132 0Z" fill="black"/>
<path d="M42.2174 27.3943H30.1869V15.6965H42.9659L43.6935 13.5135H30.1869V1.8226H40.7898C41.8015 1.8497 42.795 2.09807 43.7004 2.55024C44.0677 2.55024 44.4281 2.91753 44.7954 2.91753V0H24.3311C24.8661 1.52043 25.1015 3.13015 25.0241 4.74012V25.1767C25.1006 26.7844 24.8652 28.3917 24.3311 29.9099H45.8626L46.223 26.9993C46.223 26.6597 44.04 27.7547 42.2174 27.3943Z" fill="black"/>
<path d="M171.864 27.3943H159.82V15.6965H172.557L173.292 13.5135H159.82V1.8226H170.416C171.43 1.8487 172.426 2.09708 173.333 2.55024C173.694 2.55024 174.061 2.91753 174.428 2.91753V0H153.957C154.492 1.52043 154.727 3.13015 154.65 4.74012V25.1767C154.727 26.7844 154.491 28.3917 153.957 29.9099H175.489L175.856 26.9993C175.856 26.6597 173.666 27.7547 171.843 27.3943" fill="black"/>
<path d="M136.577 16.0845H137.665C141.677 15.3569 145.322 12.8066 145.322 8.46152C145.322 -0.284155 135.115 0.0831379 130.714 0.0831379H124.519C125.065 1.59907 125.312 3.20641 125.246 4.81633V25.2322C125.313 26.8444 125.065 28.4542 124.519 29.9723H131.074C130.528 28.4542 130.28 26.8444 130.347 25.2322V16.1261C131.074 16.1261 131.809 16.4865 133.264 17.9487C136.802 22.3017 140.714 26.3365 144.955 30.0069H150.783C150.056 29.5773 136.577 16.0915 136.577 16.0915M130.714 14.6362V1.85028C139.827 1.48992 140.95 6.22312 140.95 8.413C140.95 10.6029 140.215 13.1809 137.304 14.2758C135.454 15.0035 130.374 14.6362 130.714 14.6362Z" fill="black"/>
<path d="M94.0823 16.0845H100.319H101.414C105.42 15.3569 109.037 12.7997 109.037 8.42687C109.037 -0.318802 98.8363 0.0484695 94.4288 0.0484695H88.2334C88.7852 1.56545 89.0347 3.17578 88.968 4.78862V25.2252C89.0342 26.8358 88.7846 28.4437 88.2334 29.9584H94.7961C94.2501 28.4425 94.0031 26.8351 94.0685 25.2252L94.0823 16.0845ZM94.4427 14.5946V1.79485C103.556 1.42756 104.678 6.16768 104.678 8.35063C104.678 10.5336 103.951 13.1185 101.033 14.2134C99.1828 14.9411 94.1031 14.5738 94.4427 14.5738" fill="black"/>
<path d="M118.621 4.74012C118.554 3.12789 118.802 1.51811 119.348 0H112.675C113.222 1.51811 113.469 3.12789 113.402 4.74012V25.1767C113.468 26.7866 113.221 28.394 112.675 29.9099H119.348C118.802 28.394 118.555 26.7866 118.621 25.1767V4.74012Z" fill="black"/>
<defs>
<linearGradient id="paint0_linear_3699_807" x1="-18.5159" y1="45.4381" x2="181.317" y2="45.4381" gradientUnits="userSpaceOnUse">
<stop stop-color="#FFE48E"/>
<stop offset="0.17" stop-color="#FFE48E"/>
<stop offset="0.26" stop-color="#E9C77D"/>
<stop offset="0.38" stop-color="#D5AC6E"/>
<stop offset="0.49" stop-color="#C79863"/>
<stop offset="0.61" stop-color="#BE8D5C"/>
<stop offset="0.73" stop-color="#BB895A"/>
<stop offset="1" stop-color="#BB895A"/>
</linearGradient>
</defs>
</svg>
