<svg width="45" height="101" viewBox="0 0 45 101" fill="none" xmlns="http://www.w3.org/2000/svg">
<path d="M1.19303 100.165C1.14639 100.085 1.08834 100.013 1.02073 99.9505C0.7202 99.7754 0.494548 99.4959 0.386722 99.1652C0.278897 98.8345 0.296428 98.4757 0.435972 98.1571C0.697026 97.4653 1.27918 97.2251 2.00229 97.2303C4.37788 97.2303 6.75868 97.2016 9.13427 97.2512C9.81562 97.2669 10.0871 97.0319 10.3168 96.4211C12.9613 89.3596 14.7547 82.0631 16.0156 74.6544C17.2834 67.3052 17.9668 59.8672 18.0597 52.4101C18.0597 52.0602 18.0597 51.713 18.0597 51.2536C17.5219 51.2536 17.0755 51.2536 16.6291 51.2536C12.7812 51.2014 10.8024 48.0661 12.4261 44.5967C12.47 44.4947 12.5075 44.3901 12.5384 44.2835C9.72426 41.981 8.50514 39.0624 9.79474 35.5512C11.1548 31.8364 14.1387 30.5024 18.0858 30.7348C18.0858 29.205 18.0988 27.7562 18.0649 26.2969C18.0649 26.1559 17.7412 26.0358 17.6211 25.8766C17.2817 25.4093 16.7283 24.929 16.7179 24.4434C16.7179 24.0153 17.3209 23.5741 17.6551 23.1381C17.8456 22.8771 18.1589 22.6552 18.1954 22.3837C18.6158 19.3192 19.4537 16.3267 20.6859 13.4896C20.8994 12.9836 21.0129 12.4411 21.02 11.8919C21.0514 8.6366 21.02 5.37867 21.0487 2.12333C21.0487 1.65344 21.0801 1.0504 21.3594 0.75019C21.6805 0.400378 22.3305 0.0949291 22.7613 0.178466C23.192 0.262003 23.6488 0.78411 23.8629 1.22268C24.0587 1.6247 23.9647 2.17814 23.9673 2.66631C23.9673 5.69453 23.9464 8.72277 23.9882 11.751C24.003 12.3952 24.1385 13.031 24.3876 13.6253C25.5671 16.4142 26.3806 19.3441 26.8076 22.3419C26.8494 22.6343 27.2044 22.864 27.4028 23.1512C27.7265 23.5976 28.2852 24.0466 28.2904 24.5008C28.2956 24.9551 27.7474 25.4171 27.4211 25.8609C27.2827 26.0463 26.9407 26.1846 26.9381 26.3517C26.8963 27.7718 26.9146 29.1946 26.9146 30.7165C31.0053 30.4789 34.0675 31.9356 35.3284 35.8697C36.4144 39.2425 35.2057 42.0619 32.4359 44.2782C33.4436 46.1056 33.5271 47.8912 32.2088 49.5802C30.8905 51.2692 28.9717 51.3136 27.0556 51.2353C27.0556 53.1697 27.0243 55.0128 27.0556 56.8532C27.0869 58.1846 27.2227 59.5159 27.3166 60.8499C27.3845 61.915 26.8885 62.6042 26.0114 62.6773C25.1342 62.7504 24.479 62.2074 24.4189 61.1266C24.2597 58.3647 24.1579 55.6001 24.0248 52.8356C24.0039 52.3526 24.0248 51.8697 24.0248 51.3136H21.0331C20.772 66.9768 18.493 82.2928 13.1832 97.1546H21.0331V96.0008C21.0331 91.6046 21.0331 87.2076 21.0331 82.8097C21.0243 82.4524 21.0391 82.0948 21.0775 81.7394C21.0997 81.3904 21.2578 81.064 21.5179 80.8302C21.7781 80.5964 22.1195 80.4739 22.4689 80.489C23.2808 80.489 23.8133 80.9328 23.9256 81.7733C23.9622 82.1289 23.9752 82.4864 23.9647 82.8437C23.9647 87.2085 23.9647 91.5733 23.9647 95.9381V97.1703H31.7624C31.0393 94.9278 30.2796 92.7324 29.6139 90.4821C27.42 83.0202 25.8844 75.3804 25.0246 67.6504C24.8653 66.2537 25.2857 65.5175 26.2724 65.4262C27.2592 65.3348 27.7891 66.024 27.9484 67.4023C28.8253 75.1969 30.4051 82.8962 32.6682 90.4064C33.2817 92.4243 34.0309 94.4057 34.681 96.4106C34.882 97.0293 35.177 97.2617 35.8635 97.2434C38.1086 97.1912 40.3563 97.2434 42.6039 97.2173C43.4263 97.2173 44.2068 97.2616 44.5644 98.1466C44.9221 99.0316 44.4104 99.6189 43.8048 100.157L1.19303 100.165ZM32.4176 39.6001H12.5776C13.3477 41.5685 14.6138 42.4456 16.59 42.4456C18.3155 42.4456 20.0437 42.4326 21.7693 42.4456C22.7456 42.4456 23.2964 42.9678 23.3356 43.8292C23.3747 44.6907 22.8135 45.2467 21.8867 45.3512C21.6262 45.3708 21.3647 45.376 21.1036 45.3668C19.4433 45.3668 17.7804 45.3329 16.1201 45.3956C15.9112 45.4132 15.7083 45.4743 15.5244 45.575C15.3405 45.6757 15.1797 45.8138 15.0523 45.9803C14.2901 47.1968 15.0524 48.288 16.6448 48.2932C20.5606 48.3089 24.4633 48.2932 28.3739 48.2932C28.6378 48.2989 28.9012 48.269 29.1571 48.2045C29.4988 48.1395 29.8033 47.9474 30.0092 47.667C30.215 47.3865 30.307 47.0385 30.2665 46.693C30.2248 45.8419 29.6766 45.3877 28.8177 45.359C28.2956 45.3433 27.6717 45.4399 27.2984 45.1867C26.8212 44.8502 26.4906 44.344 26.3742 43.7718C26.2881 43.0826 26.7998 42.5683 27.5516 42.4665C27.8438 42.436 28.1378 42.4265 28.4313 42.4378C30.3892 42.4535 31.6501 41.5789 32.4176 39.6132V39.6001ZM32.4176 36.538C31.8094 34.8907 30.4884 33.7317 28.9038 33.7082C24.6382 33.6438 20.3744 33.6438 16.1122 33.7082C14.4676 33.7343 13.0344 35.0134 12.6402 36.5406L32.4176 36.538ZM21.0931 26.0254V30.6617H23.8942V26.0254H21.0931ZM20.9861 22.9632H24.0169L22.6829 17.2566L22.2705 17.2905C21.8554 19.1545 21.4377 21.0053 20.9913 22.9763L20.9861 22.9632Z" fill="url(#paint0_linear_1015_1402)"/>
<defs>
<linearGradient id="paint0_linear_1015_1402" x1="0.316895" y1="50.1646" x2="44.6827" y2="50.1646" gradientUnits="userSpaceOnUse">
<stop stop-color="#CCAB64"/>
<stop offset="1" stop-color="#FAECC9"/>
</linearGradient>
</defs>
</svg>
