<svg width="107" height="100" viewBox="0 0 107 100" fill="none" xmlns="http://www.w3.org/2000/svg">
<path d="M25.171 48.6514C24.01 48.6514 22.8228 48.6688 21.6328 48.6514C20.3469 48.6311 19.7838 48.0709 19.7693 46.7909C19.7432 44.9796 19.7461 43.1684 19.7693 41.3572C19.7867 40.0046 20.3179 39.488 21.714 39.4531C22.875 39.4241 24.0361 39.4531 25.2871 39.4531C25.319 38.8726 25.3654 38.3821 25.3684 37.8916C25.3684 36.1907 25.3684 34.4869 25.3684 32.7859C25.3684 31.3027 25.9489 30.5393 26.9909 30.5597C28.0329 30.58 28.535 31.3143 28.5408 32.7366C28.5408 34.5478 28.5408 36.359 28.5408 38.1702C28.5408 38.5592 28.5757 38.9481 28.599 39.4531C30.2447 39.4531 31.7917 39.4531 33.3475 39.4531C34.4679 39.4531 35.597 39.4183 36.7116 39.5025C37.1211 39.5264 37.505 39.7098 37.7807 40.0135C38.0565 40.3172 38.2022 40.7168 38.1867 41.1267C38.1711 41.5366 37.9954 41.9241 37.6974 42.206C37.3994 42.4878 37.0027 42.6416 36.5926 42.6344C36.2327 42.6344 35.8698 42.6344 35.507 42.6344H23.0463V45.4092C23.383 45.4092 23.7632 45.4557 24.1435 45.4557H36.0962C37.4605 45.4557 38.2296 46.0565 38.2064 47.0782C38.1832 48.0999 37.4315 48.6398 36.1398 48.6456C34.0006 48.6456 31.8643 48.6456 29.728 48.6456H28.6076V62.755C28.8612 62.6676 29.1085 62.5629 29.3478 62.4415C34.1864 59.3996 39.0307 56.3693 43.8403 53.281C44.2089 53.043 44.4702 52.4102 44.5224 51.9458C44.7488 49.8927 44.9172 47.8358 45.0275 45.775C45.0913 44.6139 45.5267 43.8651 46.6181 43.3194C52.3419 40.4574 58.0252 37.5142 63.7432 34.6378C64.5327 34.243 64.9043 33.8657 64.8404 32.8962C64.7069 31.2418 64.8027 29.5728 64.8027 27.7848C64.3267 27.7587 63.9116 27.7152 63.4937 27.7152C59.5868 27.7152 55.678 27.7152 51.7672 27.7152C51.4048 27.7239 51.0422 27.7094 50.6817 27.6716C49.7412 27.5497 49.2536 26.9663 49.2913 26.0462C49.2817 25.8534 49.3119 25.6608 49.38 25.4802C49.4482 25.2997 49.5528 25.1351 49.6873 24.9968C49.8218 24.8584 49.9835 24.7493 50.162 24.6761C50.3406 24.603 50.5323 24.5674 50.7253 24.5717C51.7382 24.5223 52.757 24.5513 53.7671 24.5339C54.1532 24.5339 54.5421 24.4991 54.9717 24.4759V16.1977C54.5305 16.1774 54.1009 16.1426 53.6917 16.1426C48.736 16.1426 43.7804 16.1426 38.8247 16.1426C38.4996 16.1426 38.1716 16.1426 37.8465 16.1426C36.8103 16.0758 36.134 15.4402 36.1427 14.5549C36.1514 13.6696 36.8161 13.031 37.8843 12.9904C38.9524 12.9498 39.977 12.9904 41.141 12.9904C41.17 12.5202 41.2077 12.137 41.2106 11.7539C41.2106 9.07484 41.2106 6.39286 41.2106 3.71378C41.1992 3.3519 41.2186 2.98971 41.2686 2.63112C41.4196 1.76035 41.9682 1.29303 42.8534 1.31626C43.7387 1.33948 44.3047 1.83002 44.3482 2.7182C44.4092 4.20142 44.3831 5.68754 44.3889 7.17365C44.3889 8.80199 44.4179 10.4332 44.3889 12.0616C44.3715 12.7843 44.6414 13.031 45.3381 12.9904C46.0347 12.9498 46.6964 12.9904 47.4947 12.9904C47.4947 11.9135 47.4947 10.9789 47.4947 10.0443C47.5121 8.68879 48.1245 7.89929 49.1317 7.91961C50.1389 7.93992 50.6701 8.66848 50.6817 9.98625C50.6817 10.9238 50.6817 11.8613 50.6817 12.9904H53.4536C54.3941 12.9904 55.3374 12.9759 56.2778 12.9904C57.6972 13.0252 58.2225 13.5709 58.2254 15.0019C58.2254 18.1134 58.2254 21.225 58.2254 24.4556C58.6782 24.4846 59.0614 24.5252 59.4416 24.5252C61.5431 24.5252 63.6446 24.5252 65.7432 24.5252C67.5427 24.5252 68.0071 24.9925 68.01 26.7573C68.01 28.5888 68.01 30.4204 68.01 32.4493C70.0795 31.3985 71.9721 30.4378 73.8616 29.4741C76.2476 28.2608 78.6421 27.0679 81.0106 25.8169C81.983 25.3031 82.7522 25.4221 83.5678 26.1536C90.116 32.0864 96.6778 38.0048 103.253 43.9086C104.167 44.73 104.199 45.5515 103.784 46.6167C98.8305 59.3532 93.8904 72.0964 88.9637 84.8465C88.8099 85.2441 88.6734 85.6476 88.4964 86.1613C90.1407 86.2751 91.7891 86.0059 93.3118 85.3747C94.586 84.8668 95.8079 84.2137 97.0415 83.6332C99.4619 82.4603 102.129 81.8869 104.818 81.9613C105.851 81.9787 106.455 82.5099 106.51 83.4126C106.565 84.3153 105.996 85.0119 104.942 85.128C104.072 85.2209 103.163 85.0874 102.353 85.3312C100.53 85.874 98.6757 86.4284 96.9777 87.2643C91.0535 90.1901 85.1207 90.3817 79.272 87.3137C75.2955 85.2296 71.2174 84.5475 66.9013 85.6592C65.4152 86.0394 63.9987 86.7883 62.6171 87.4588C56.9309 90.1843 51.1983 90.3352 45.6022 87.4269C41.5241 85.308 37.3647 84.4953 32.9325 85.6853C31.3128 86.1149 29.8035 86.9799 28.2622 87.6794C22.7967 90.1582 17.3224 90.2017 11.9178 87.5836C9.18939 86.2629 6.4813 85.0642 3.35813 85.1367C2.24644 85.1628 1.56729 84.4053 1.59922 83.4852C1.63115 82.565 2.33937 81.9903 3.47427 81.9758C6.42243 81.9034 9.33582 82.6253 11.9092 84.0657C15.1775 85.903 18.646 86.678 22.3584 86.1352C23.7342 85.9349 25.0781 85.5082 26.5816 85.1512C26.3494 84.5446 26.2159 84.1499 26.0505 83.7667C24.0864 79.2194 22.1175 74.672 20.1437 70.1246C19.4761 68.5834 19.659 68.029 21.1016 67.1988C22.2945 66.5138 23.5078 65.8636 24.6689 65.1322C24.9823 64.9348 25.3422 64.4965 25.3451 64.1685C25.3741 59.0978 25.3452 54.027 25.3277 48.9591C25.3161 48.8865 25.2987 48.8546 25.171 48.6514ZM76.0937 82.3386C77.9194 83.192 79.5768 83.9931 81.2574 84.7391C82.1775 85.1483 83.1412 85.4705 84.0874 85.8188C84.7811 86.0743 85.173 85.874 85.4603 85.128C90.3947 72.3064 95.3523 59.4954 100.333 46.6951C100.594 46.0246 100.455 45.6647 99.9586 45.2177C94.138 39.993 88.3329 34.7529 82.5432 29.4973C82.0411 29.0445 81.6725 29.0532 81.1181 29.3377C70.3998 34.8177 59.6777 40.2959 48.9517 45.772C48.7667 45.8819 48.6068 46.0293 48.4823 46.2048C48.3579 46.3803 48.2715 46.5799 48.229 46.7909C47.9765 48.9475 47.753 51.1099 47.6485 53.2752C47.6434 53.7425 47.5131 54.1998 47.2711 54.5995C47.0291 54.9992 46.6843 55.3268 46.2727 55.5479C40.4327 59.1645 34.6159 62.8218 28.7702 66.4325C27.0286 67.5065 25.2174 68.4643 23.3888 69.518L29.4029 83.3923C30.5262 83.0324 31.5044 82.6318 32.5232 82.4112C37.5243 81.3227 42.2439 81.999 46.8039 84.443C51.596 87.0031 56.5507 86.9653 61.369 84.443C64.7563 82.6724 68.2684 81.6682 72.1085 81.9555C72.7674 82.0049 72.9792 81.732 73.0866 81.1254C75.1165 69.4009 77.1531 57.6794 79.1965 45.9607C79.6377 43.4297 80.0673 40.8986 80.523 38.3734C80.7901 36.8902 82.0701 36.2487 83.1179 37.0411C83.8465 37.5955 83.7797 38.3647 83.6491 39.1252C81.8166 49.6363 79.9783 60.1446 78.1342 70.65C77.4318 74.5714 76.7497 78.484 76.0937 82.3386Z" fill="url(#paint0_linear_943_1565)"/>
<path d="M5.6134 37.6738V36.1267C5.6134 24.9344 5.6134 13.7421 5.6134 2.54977C5.6134 0.361226 5.95594 0.0187287 8.11255 0.0158261C10.2692 0.0129235 12.3881 -0.0335219 14.5214 0.0477502C15.192 0.0717346 15.8378 0.306335 16.3674 0.718244C28.9008 11.4113 41.4186 22.1247 53.921 32.8584C54.8759 33.6799 55.0355 34.6551 54.3737 35.3953C53.7119 36.1354 52.7657 36.0803 51.7846 35.2385C42.4616 27.2526 33.1414 19.2628 23.8241 11.2691C20.8829 8.75353 17.9387 6.23797 14.9916 3.72241C14.7434 3.46988 14.4229 3.30054 14.0744 3.23768C12.3764 3.19124 10.6784 3.21736 8.88751 3.21736V37.6738C9.63928 37.6738 10.3562 37.6477 11.0703 37.6738C12.2081 37.726 12.7973 38.3153 12.8118 39.4589C12.8292 42.4659 12.8292 45.473 12.8118 48.4801C12.8118 49.6411 12.2458 50.1723 11.0703 50.2506C8.85849 50.3958 8.85847 50.3958 8.79461 52.6627C8.75397 54.0849 8.34765 54.529 6.9428 54.6945C5.23899 54.9005 3.99376 56.018 3.71801 57.597C3.59109 58.372 3.72449 59.1671 4.09735 59.8582C4.4702 60.5493 5.06152 61.0974 5.77887 61.4168C7.2766 62.0815 8.84398 61.6897 9.97888 60.369C10.9106 59.2805 11.7495 59.0948 12.5506 59.803C13.2849 60.4503 13.2414 61.3994 12.4344 62.4153C12.3909 62.4734 12.3474 62.5314 12.3009 62.5866C11.6405 63.3545 10.815 63.9633 9.88612 64.3672C8.95727 64.7712 7.94915 64.96 6.93706 64.9194C5.92498 64.8788 4.93518 64.6099 4.04165 64.1329C3.14812 63.6559 2.37396 62.983 1.77713 62.1646C1.18031 61.3462 0.776258 60.4035 0.595128 59.4069C0.413998 58.4104 0.460507 57.3857 0.731186 56.4097C1.00186 55.4336 1.48972 54.5314 2.15824 53.7704C2.82676 53.0095 3.65862 52.4095 4.59169 52.0154C4.79197 51.9312 5.08223 51.9167 5.17221 51.7716C5.3899 51.4872 5.52275 51.1471 5.55537 50.7905C5.55537 50.6193 5.16063 50.3377 4.91681 50.3C4.38564 50.2216 3.83413 50.3 3.29135 50.2564C2.18256 50.1926 1.59047 49.6469 1.58176 48.57C1.55274 45.5282 1.55274 42.4853 1.58176 39.4415C1.58176 38.3182 2.21158 37.7347 3.3581 37.6999C4.04601 37.6506 4.73102 37.6738 5.6134 37.6738ZM4.82972 47.0172H9.53769V40.9508H4.82972V47.0172Z" fill="url(#paint1_linear_943_1565)"/>
<path d="M37.4895 92.4423C40.7027 92.3379 43.939 93.4757 47.0506 95.1446C50.5743 97.0342 54.3332 97.2171 58.1269 96.2708C59.6478 95.8935 61.0845 95.1098 62.5126 94.4335C68.161 91.7254 73.8327 91.6616 79.4404 94.4335C82.1369 95.76 84.8305 96.8775 87.9072 96.8078C88.1267 96.7883 88.3478 96.8171 88.555 96.8923C88.7621 96.9675 88.9502 97.0873 89.1061 97.2431C89.2619 97.3989 89.3816 97.587 89.4568 97.7942C89.5321 98.0013 89.5609 98.2225 89.5414 98.442C89.5182 99.3824 88.8825 99.9571 87.7998 99.9716C84.9632 100.043 82.1555 99.3873 79.6436 98.0675C77.0313 96.6772 74.3348 95.6178 71.3045 95.6294C68.7299 95.6294 66.2569 96.0328 63.9813 97.2954C60.6172 99.1618 57.0645 100.166 53.1809 99.9774C50.4228 99.8901 47.7223 99.1648 45.2916 97.8585C42.6793 96.4073 39.919 95.5626 36.9032 95.6323C34.5173 95.6874 32.2301 96.1141 30.1141 97.2635C27.1158 98.889 23.9926 100.041 20.5153 99.9745C19.302 99.9513 18.5706 99.4114 18.5299 98.4536C18.4893 97.4957 19.2237 96.7788 20.3963 96.7933C23.1944 96.8281 25.74 95.9951 28.1549 94.6686C30.9617 93.1215 33.9513 92.4104 37.4895 92.4423Z" fill="url(#paint2_linear_943_1565)"/>
<path d="M44.6444 40.6579C44.2177 41.189 43.9565 41.7986 43.5153 41.9814C43.0741 42.1643 42.4123 42.0279 41.8928 41.874C41.6025 41.7841 41.3645 41.4009 41.1236 41.1339C31.282 30.2725 21.4423 19.4081 11.6045 8.54091C11.2939 8.19841 10.8585 7.78914 10.8469 7.3973C10.8266 6.85451 10.992 6.06792 11.3694 5.80379C11.796 5.51353 12.5565 5.6006 13.1544 5.66446C13.4127 5.69058 13.6508 6.05921 13.8656 6.29722C23.7595 17.2109 33.6485 28.1284 43.5328 39.0499C43.935 39.5633 44.3062 40.1002 44.6444 40.6579Z" fill="url(#paint3_linear_943_1565)"/>
<path d="M61.7027 53.8091C61.7027 55.8409 60.3443 57.5041 58.5911 57.6202C57.7203 57.6811 57.0847 57.3299 56.8496 56.4911C56.6145 55.6522 56.9918 55.0398 57.7407 54.6044C58.0309 54.4303 58.446 54.111 58.4518 53.8498C58.4576 53.5885 58.0715 53.2286 57.7755 53.0661C57.0034 52.6452 56.6145 52.0415 56.8409 51.2026C57.0789 50.3144 57.7407 49.9458 58.6637 50.0271C60.3472 50.1722 61.6911 51.8325 61.7027 53.8091Z" fill="url(#paint4_linear_943_1565)"/>
<defs>
<linearGradient id="paint0_linear_943_1565" x1="1.59814" y1="45.4356" x2="106.513" y2="45.4356" gradientUnits="userSpaceOnUse">
<stop stop-color="#CCAB64"/>
<stop offset="1" stop-color="#FAECC9"/>
</linearGradient>
<linearGradient id="paint1_linear_943_1565" x1="0.486816" y1="32.4624" x2="54.7753" y2="32.4624" gradientUnits="userSpaceOnUse">
<stop stop-color="#CCAB64"/>
<stop offset="1" stop-color="#FAECC9"/>
</linearGradient>
<linearGradient id="paint2_linear_943_1565" x1="18.5283" y1="96.1892" x2="89.5473" y2="96.1892" gradientUnits="userSpaceOnUse">
<stop stop-color="#CCAB64"/>
<stop offset="1" stop-color="#FAECC9"/>
</linearGradient>
<linearGradient id="paint3_linear_943_1565" x1="10.8452" y1="23.8348" x2="44.6444" y2="23.8348" gradientUnits="userSpaceOnUse">
<stop stop-color="#CCAB64"/>
<stop offset="1" stop-color="#FAECC9"/>
</linearGradient>
<linearGradient id="paint4_linear_943_1565" x1="56.7769" y1="53.8215" x2="61.7027" y2="53.8215" gradientUnits="userSpaceOnUse">
<stop stop-color="#CCAB64"/>
<stop offset="1" stop-color="#FAECC9"/>
</linearGradient>
</defs>
</svg>
