<svg width="60" height="50" viewBox="0 0 60 50" fill="none" xmlns="http://www.w3.org/2000/svg">
<path d="M0.958008 43.9842C1.39451 42.5961 2.04933 41.2863 2.89795 40.1042C10.3779 27.6909 17.8614 15.2776 25.348 2.86425C25.8143 1.956 26.5361 1.20407 27.4246 0.701187C28.313 0.198305 29.3293 -0.0335359 30.348 0.0342478C31.2233 0.0775071 32.0725 0.346018 32.8136 0.813781C33.5547 1.28154 34.1624 1.93271 34.578 2.70425L38.798 9.70425L58.118 41.7042C58.8124 42.6875 59.1483 43.8791 59.0701 45.0803C58.9918 46.2814 58.504 47.4194 57.688 48.3042C57.2385 48.8057 56.6924 49.2113 56.0824 49.4965C55.4724 49.7818 54.811 49.9409 54.1379 49.9642C53.8979 49.9642 53.648 49.9642 53.408 49.9642C37.788 49.9642 22.1747 49.9642 6.56799 49.9642C5.59064 50.0331 4.61342 49.8282 3.74609 49.3725C2.87877 48.9167 2.15565 48.2282 1.65796 47.3842C1.35826 46.7832 1.11069 46.1576 0.917969 45.5142L0.958008 43.9842ZM30.038 46.2342H53.318C53.6533 46.2458 53.9888 46.219 54.318 46.1543C54.5954 46.1074 54.8475 45.9645 55.0303 45.7507C55.2131 45.5368 55.3149 45.2656 55.318 44.9842C55.2875 44.5226 55.1505 44.0742 54.918 43.6742C50.3913 36.1142 45.848 28.5676 41.288 21.0342C38.028 15.6442 34.7879 10.2442 31.5179 4.86425C31.2789 4.43103 30.9124 4.08189 30.468 3.86425C29.768 3.56425 29.188 3.92425 28.658 4.86425L5.25793 43.6642C5.13382 43.8544 5.0268 44.0552 4.93799 44.2642C4.85466 44.4538 4.81509 44.6597 4.82214 44.8666C4.8292 45.0736 4.88272 45.2763 4.97876 45.4597C5.0748 45.6431 5.2109 45.8026 5.37695 45.9263C5.54301 46.05 5.73473 46.1347 5.93799 46.1742C6.21466 46.2277 6.49625 46.2512 6.77795 46.2442L30.038 46.2342Z" fill="white"/>
<path d="M32.3264 24.9643C32.2464 27.2743 32.1464 29.5843 32.0964 31.8843C32.1168 32.2357 32.0171 32.5836 31.8135 32.8708C31.61 33.1579 31.3147 33.3673 30.9764 33.4643C30.3313 33.7041 29.6215 33.7041 28.9764 33.4643C28.6836 33.3788 28.427 33.1993 28.2463 32.9535C28.0656 32.7077 27.9707 32.4093 27.9764 32.1043C27.8164 27.3943 27.6364 22.6843 27.4764 17.9843C27.4164 16.2943 28.8863 15.2443 30.6863 15.6343C31.2411 15.6925 31.751 15.966 32.1063 16.3961C32.4615 16.8262 32.6339 17.3785 32.5864 17.9343C32.5264 20.2743 32.4364 22.6243 32.3664 24.9343L32.3264 24.9643Z" fill="white"/>
<path d="M27.387 38.7942C27.3817 38.4388 27.4467 38.0858 27.5782 37.7556C27.7096 37.4253 27.9049 37.1243 28.153 36.8697C28.4011 36.6151 28.697 36.4121 29.0237 36.2721C29.3505 36.1322 29.7016 36.0581 30.0571 36.0542C30.7758 36.0542 31.4651 36.3397 31.9733 36.8479C32.4815 37.3562 32.767 38.0455 32.767 38.7642C32.767 39.4829 32.4815 40.1722 31.9733 40.6805C31.4651 41.1887 30.7758 41.4742 30.0571 41.4742C29.3496 41.4664 28.6736 41.1812 28.1742 40.68C27.6749 40.1788 27.3922 39.5017 27.387 38.7942Z" fill="white"/>
</svg>
