<svg width="62" height="50" viewBox="0 0 62 50" fill="none" xmlns="http://www.w3.org/2000/svg">
<path d="M61.4017 21.86C61.1447 21.5904 60.8338 21.3781 60.4892 21.2368C60.1445 21.0955 59.774 21.0285 59.4017 21.04H55.4017L54.2317 16.68C53.3017 13.24 52.3417 9.68 51.4717 6.18C51.2258 5.07578 50.7451 4.03744 50.0621 3.13557C49.3792 2.23371 48.5101 1.48945 47.5139 0.953407C46.5177 0.417361 45.4179 0.10209 44.289 0.0290298C43.1601 -0.0440304 42.0287 0.12683 40.9717 0.529999C38.0917 1.63 35.0917 2.59 32.2017 3.53L31.5717 3.73C31.3849 3.79301 31.1888 3.82345 30.9917 3.82C30.7914 3.82249 30.5922 3.79209 30.4017 3.73C28.8217 3.22 27.2216 2.67 25.6716 2.14C23.9716 1.55 22.2217 0.950003 20.4817 0.390003C19.6905 0.132435 18.8638 0.000825448 18.0318 0C16.3401 0.00613396 14.6981 0.572817 13.3628 1.6114C12.0275 2.64999 11.0741 4.1019 10.6517 5.74C10.1017 7.74 9.57166 9.74 9.06166 11.64C8.84166 12.48 8.62174 13.32 8.39174 14.16L6.56166 21.03H4.47169C3.71169 21.03 2.97168 21.03 2.21168 21.03C1.63949 21.0568 1.09793 21.2961 0.692886 21.7011C0.287839 22.1062 0.0485131 22.6478 0.0217431 23.22C-0.0386347 23.7769 0.0984812 24.3373 0.409194 24.8034C0.719907 25.2694 1.18443 25.6116 1.72169 25.77C2.0477 25.8562 2.38475 25.8933 2.72169 25.88H59.4617C59.5882 25.8887 59.7152 25.8887 59.8417 25.88C60.2831 25.8239 60.7011 25.649 61.051 25.3741C61.401 25.0992 61.6698 24.7345 61.8289 24.3189C61.9879 23.9033 62.0314 23.4523 61.9544 23.014C61.8774 22.5757 61.6829 22.1665 61.3917 21.83L61.4017 21.86ZM18.0217 4.92C18.5059 4.93072 18.9851 5.01848 19.4417 5.18L21.2916 5.81001C23.8216 6.67001 26.4317 7.56 29.0017 8.45C30.2945 8.91493 31.7089 8.91493 33.0017 8.45C34.0617 8.08 35.1517 7.72 36.2117 7.37C38.2117 6.68 40.3817 5.98 42.4517 5.19C42.8999 5.00897 43.3783 4.91399 43.8617 4.91C44.5881 4.92001 45.2875 5.18642 45.8364 5.66219C46.3854 6.13795 46.7486 6.79243 46.8617 7.51C47.6517 10.81 48.5617 14.14 49.4417 17.36C49.7617 18.55 50.0917 19.74 50.4417 20.94H11.7916L11.9017 20.52C12.2317 19.24 12.5717 17.96 12.9017 16.69L13.9017 13.07C14.4117 11.18 14.9016 9.29 15.4216 7.39C15.5101 6.74424 15.8159 6.14784 16.2885 5.69891C16.761 5.24999 17.3723 4.97528 18.0217 4.92Z" fill="white"/>
<path d="M47.0709 27.32C46.2201 27.1341 45.3518 27.0403 44.4809 27.04C42.6901 27.0414 40.9263 27.4772 39.3409 28.31C37.8328 29.0714 36.5124 30.1578 35.4748 31.491C34.4373 32.8243 33.7085 34.3711 33.3409 36.02H28.7509C28.1409 33.4558 26.6836 31.1723 24.6148 29.5391C22.546 27.9058 19.9867 27.0183 17.3509 27.02C16.7577 27.019 16.1655 27.0692 15.5809 27.17C12.9604 27.6167 10.5758 28.9581 8.83345 30.9659C7.09113 32.9736 6.09896 35.5233 6.02584 38.1806C5.95271 40.8379 6.80318 43.4384 8.43245 45.5389C10.0617 47.6394 12.3689 49.1099 14.9609 49.7C15.8114 49.8886 16.6797 49.9858 17.5509 49.99C19.3429 49.9884 21.1074 49.549 22.6909 48.71C24.199 47.9487 25.5194 46.8623 26.557 45.529C27.5945 44.1958 28.3233 42.6489 28.6909 41H33.281C33.8869 43.5627 35.3403 45.8456 37.4057 47.4791C39.4712 49.1126 42.0275 50.0009 44.6608 50C45.2574 50.0015 45.853 49.9513 46.4409 49.85C49.0585 49.3672 51.4333 48.0063 53.1732 45.9919C54.9131 43.9775 55.914 41.43 56.0109 38.77C56.0508 36.1279 55.1858 33.5516 53.5597 31.4689C51.9335 29.3861 49.6438 27.9221 47.0709 27.32ZM51.0709 38.52C51.0689 39.8139 50.6832 41.0782 49.9625 42.1528C49.2418 43.2274 48.2184 44.0641 47.0221 44.557C45.8257 45.0498 44.5101 45.1767 43.2415 44.9216C41.973 44.6665 40.8087 44.0409 39.8958 43.1239C38.983 42.2068 38.3628 41.0396 38.1135 39.7699C37.8642 38.5003 37.9971 37.1852 38.4954 35.9911C38.9938 34.797 39.8351 33.7776 40.913 33.0618C41.991 32.346 43.257 31.9661 44.5509 31.97C45.4123 31.962 46.2667 32.126 47.0639 32.4526C47.8611 32.7792 48.5851 33.2617 49.1933 33.8718C49.8016 34.4819 50.2819 35.2073 50.606 36.0055C50.9302 36.8037 51.0916 37.6586 51.0809 38.52H51.0709ZM24.0709 38.52C24.0736 39.3808 23.9051 40.2334 23.5752 41.0284C23.2452 41.8234 22.7604 42.5448 22.149 43.1507C21.5376 43.7565 20.8117 44.2346 20.0138 44.5573C19.2158 44.8799 18.3616 45.0406 17.5009 45.03C15.8091 44.9533 14.2128 44.2242 13.047 42.9958C11.8811 41.7674 11.2364 40.1353 11.248 38.4417C11.2596 36.7482 11.9267 35.125 13.1093 33.9128C14.292 32.7006 15.8982 31.9935 17.5909 31.94C18.4504 31.9438 19.3006 32.1186 20.0919 32.4541C20.8832 32.7896 21.5998 33.2792 22.2 33.8944C22.8003 34.5095 23.2722 35.238 23.5882 36.0373C23.9043 36.8365 24.0581 37.6907 24.0408 38.55L24.0709 38.52Z" fill="white"/>
</svg>
