<svg width="44" height="50" viewBox="0 0 44 50" fill="none" xmlns="http://www.w3.org/2000/svg">
<path d="M21.4975 49.9376C20.1175 49.2576 18.6975 48.6576 17.3675 47.9376C13.4728 45.7383 10.0766 42.7552 7.39322 39.1768C4.70986 35.5984 2.7977 31.5024 1.7775 27.1476C1.17657 24.7135 0.877637 22.2147 0.887484 19.7076C0.887484 16.4876 0.887484 13.2643 0.887484 10.0376C0.86472 9.60147 0.985415 9.16988 1.23099 8.80874C1.47657 8.4476 1.83351 8.17676 2.24747 8.03761L21.1375 0.197609C21.4402 0.0777183 21.7645 0.0220309 22.0899 0.0340809C22.4152 0.046131 22.7345 0.125655 23.0275 0.267609L37.7775 6.33761C39.0775 6.87761 40.3775 7.42761 41.6875 7.95761C42.1225 8.10325 42.4964 8.38989 42.75 8.7721C43.0036 9.15432 43.1224 9.61024 43.0876 10.0676C43.0876 13.3776 43.1476 16.6776 43.0876 19.9876C43.0547 24.4252 42.106 28.8082 40.3009 32.8622C38.4959 36.9162 35.8734 40.5539 32.5976 43.5476C29.6938 46.2701 26.3007 48.4179 22.5976 49.8776C22.5566 49.902 22.5195 49.9323 22.4875 49.9676L21.4975 49.9376ZM39.2575 16.0976H39.1775C39.1775 14.6176 39.1775 13.0976 39.1775 11.6576C39.2022 11.5019 39.1676 11.3426 39.0806 11.2112C38.9936 11.0797 38.8605 10.9857 38.7076 10.9476C33.2576 8.69761 27.8175 6.42761 22.3775 4.18761C22.1287 4.09746 21.8563 4.09746 21.6076 4.18761C16.1476 6.43761 10.6876 8.71761 5.22757 10.9676C5.08382 11.0053 4.95875 11.0942 4.87589 11.2175C4.79303 11.3409 4.75802 11.4903 4.7775 11.6376C4.7775 14.2276 4.7775 16.8176 4.7775 19.3976C4.76535 21.3361 4.95986 23.2703 5.35758 25.1676C6.22819 29.6502 8.16459 33.8574 11.0033 37.4341C13.8421 41.0108 17.4997 43.8519 21.6675 45.7176C21.8794 45.8022 22.1157 45.8022 22.3275 45.7176C27.5554 43.3551 31.9448 39.4642 34.9175 34.5576C37.1846 30.899 38.5551 26.7564 38.9175 22.4676C39.1675 20.3376 39.1775 18.2076 39.2575 16.0976Z" fill="white"/>
<path d="M19.8165 26.0576L20.2364 25.6576C22.9031 22.9909 25.5498 20.3443 28.1765 17.7176C28.4227 17.4756 28.7274 17.3014 29.061 17.2121C29.3945 17.1228 29.7456 17.1214 30.0799 17.2079C30.4142 17.2945 30.7203 17.4662 30.9686 17.7062C31.2168 17.9462 31.3986 18.2464 31.4964 18.5776C31.588 18.9357 31.5785 19.3122 31.4691 19.6652C31.3596 20.0183 31.1545 20.3341 30.8764 20.5776L23.1765 28.2776C22.5565 28.8976 21.9465 29.5176 21.3165 30.1376C21.1288 30.3504 20.898 30.5209 20.6394 30.6376C20.3807 30.7544 20.1002 30.8147 19.8165 30.8147C19.5327 30.8147 19.2522 30.7544 18.9936 30.6376C18.735 30.5209 18.5042 30.3504 18.3165 30.1376C16.5698 28.3976 14.8232 26.6509 13.0765 24.8976C12.8314 24.7326 12.6259 24.5154 12.4748 24.2615C12.3237 24.0076 12.2307 23.7234 12.2025 23.4293C12.1743 23.1352 12.2117 22.8385 12.3118 22.5606C12.412 22.2826 12.5724 22.0303 12.7817 21.8218C12.991 21.6133 13.2439 21.4537 13.5222 21.3545C13.8005 21.2554 14.0973 21.2191 14.3913 21.2484C14.6853 21.2776 14.9692 21.3716 15.2225 21.5237C15.4758 21.6757 15.6924 21.8819 15.8565 22.1276L19.8165 26.0576Z" fill="white"/>
</svg>
