<svg width="57" height="39" viewBox="0 0 57 39" fill="none" xmlns="http://www.w3.org/2000/svg">
<path d="M57 36.0772C56.7427 36.5617 56.5538 37.1028 56.2133 37.5219C55.6005 38.2785 54.7261 38.5 53.7728 38.5C47.7615 38.4941 41.7507 38.4941 35.7405 38.5C24.9255 38.5 14.1106 38.5 3.29566 38.5C2.47324 38.5 1.70733 38.3514 1.06486 37.8088C0.321261 37.1801 -0.00295413 36.373 2.02711e-05 35.4053C0.00696055 31.6972 0.00696055 27.9891 2.02711e-05 24.281V3.86671C2.02711e-05 1.65791 1.15112 0.5 3.35069 0.5H53.3816C55.4979 0.5 56.2073 0.972673 56.997 2.91987L57 36.0772ZM54.7692 4.11197C54.5179 4.2948 54.3528 4.40924 54.1907 4.53261C46.7279 10.1255 39.2646 15.7193 31.8009 21.3142C29.698 22.8883 27.308 22.8927 25.2259 21.332L2.75432 4.48506C2.6056 4.3706 2.44201 4.26209 2.25313 4.1298V34.6383C2.46134 34.3916 2.6056 34.2266 2.74242 34.0571L13.3164 21.002C13.7239 20.4981 14.118 19.9809 14.5523 19.5007C14.7388 19.2892 15.0012 19.1596 15.2827 19.1402C15.5641 19.1207 15.8419 19.2129 16.0559 19.3967C16.2626 19.5728 16.3964 19.8194 16.4313 20.0887C16.4662 20.3579 16.3997 20.6304 16.2447 20.8534C16.1603 20.9754 16.0689 21.0925 15.9711 21.2042C12.0508 26.0469 8.13006 30.8886 4.20881 35.7293C4.07645 35.8928 3.953 36.0623 3.80428 36.2555H53.2062C53.0664 36.0697 52.9727 35.9345 52.87 35.8096C49.042 31.0848 45.2134 26.359 41.3844 21.6323C41.1851 21.3885 40.9754 21.1507 40.7895 20.889C40.6153 20.6675 40.5352 20.3863 40.5667 20.1062C40.5981 19.8262 40.7385 19.5697 40.9576 19.3922C41.1737 19.2123 41.4511 19.1229 41.7316 19.1429C42.0122 19.1628 42.2742 19.2905 42.4626 19.4993C42.5638 19.6081 42.6591 19.7222 42.7482 19.8411L54.3483 34.1463C54.4643 34.295 54.5907 34.4272 54.7781 34.6428L54.7692 4.11197ZM4.07793 2.71325C4.26086 2.86189 4.33968 2.93919 4.42593 3.01054C11.8411 8.57069 19.2568 14.1299 26.673 19.688C27.1976 20.0956 27.8436 20.3158 28.508 20.3137C29.1724 20.3115 29.817 20.0871 30.3389 19.6761C37.7402 14.1318 45.1416 8.58606 52.5429 3.03879C52.6584 2.96591 52.7797 2.90276 52.9057 2.85001L52.7763 2.72069L4.07793 2.71325Z" fill="white"/>
</svg>
