<svg width="50" height="51" viewBox="0 0 50 51" fill="none" xmlns="http://www.w3.org/2000/svg">
<path d="M10.6837 0.5C12.2859 0.811491 13.4407 1.81605 14.5349 2.93547C16.4712 4.91733 18.476 6.82909 20.3654 8.85962C22.1396 10.7617 22.1239 13.3373 20.383 15.2666C19.1715 16.606 17.8566 17.8539 16.565 19.1213C16.3051 19.3783 16.2446 19.5574 16.4107 19.9C17.7022 22.5925 19.5702 24.8644 21.5886 27.0254C23.6326 29.2477 25.9515 31.2023 28.4898 32.8425C29.1893 33.2883 29.9416 33.6504 30.6606 34.067C30.9049 34.2111 31.0514 34.1663 31.2468 33.9716C32.3351 32.8678 33.3961 31.7464 34.547 30.701C35.1494 30.1086 35.8443 29.6175 36.6045 29.2467C38.5584 28.3998 40.3326 28.8729 41.8234 30.3097C43.9727 32.3947 46.0712 34.5479 48.2147 36.6446C50.4343 38.8173 50.6239 41.6947 48.5605 43.9101C47.0423 45.5416 45.4929 47.1594 43.8379 48.6526C42.0657 50.249 39.8558 50.6442 37.5248 50.4573C33.8651 50.1653 30.516 48.8765 27.2686 47.2645C22.4719 44.9052 18.0757 41.8118 14.2399 38.0969C8.46014 32.4687 3.8059 26.0792 1.14856 18.3854C0.411929 16.2439 -0.0452859 14.0635 0.00356222 11.7896C0.0524103 9.57995 0.785132 7.65065 2.34827 6.06594C3.64177 4.75379 4.94438 3.45592 6.25612 2.17232C7.11919 1.32133 8.21466 0.742396 9.40584 0.507783L10.6837 0.5ZM38.3747 47.9848C39.9046 48.0218 41.3056 47.6402 42.4272 46.5695C43.8926 45.1587 45.317 43.7031 46.7004 42.2028C47.734 41.0814 47.7223 39.851 46.6555 38.7589C44.4573 36.5083 42.22 34.2929 39.9691 32.0949C39.0918 31.2383 37.98 31.2169 36.9816 31.9411C36.7355 32.1289 36.5036 32.3345 36.2879 32.5563C35.0706 33.7614 33.8631 34.9762 32.6458 36.1774C31.8291 36.9834 30.9752 37.1235 29.9689 36.6115C29.2577 36.2514 28.5445 35.8854 27.8606 35.4765C24.7676 33.6309 22.0673 31.3084 19.6249 28.6821C17.3642 26.2525 15.3067 23.6749 13.9292 20.6204C13.3313 19.2907 13.468 18.5704 14.5153 17.5658C15.7131 16.4133 16.9109 15.2588 18.0754 14.0732C19.4432 12.6793 19.4431 11.5423 18.0989 10.1309L18.0305 10.0628C16.0218 8.05949 14.0171 6.05038 11.9967 4.06074C11.679 3.7336 11.3085 3.46182 10.9006 3.2567C9.78881 2.74079 8.85875 3.1944 8.0635 3.96534C6.77586 5.21325 5.48236 6.45921 4.26507 7.77331C3.72196 8.3543 3.28428 9.0249 2.97156 9.75518C2.2955 11.3788 2.47332 13.0803 2.81135 14.7507C3.45615 17.9337 4.68711 20.9124 6.28542 23.7216C11.9967 33.7594 19.9902 41.352 30.6391 46.0516C33.1011 47.138 35.6588 47.8875 38.3747 47.9848Z" fill="white"/>
</svg>
