<svg width="101" height="89" viewBox="0 0 101 89" fill="none" xmlns="http://www.w3.org/2000/svg">
<path d="M0.5 18.0966C1.07744 17.2589 1.87717 17.0122 2.86397 17.1396C4.1544 17.2941 5.45569 17.3673 6.74883 17.5002C7.74105 17.6032 8.37542 18.2863 8.30764 19.1538C8.23987 20.0214 7.49433 20.6585 6.45602 20.6042C6.00057 20.5799 5.55055 20.5012 5.10053 20.4633C4.65051 20.4253 4.19778 20.4145 3.6854 20.3874V49.7798C4.41737 49.7798 5.15204 49.7798 5.88672 49.7798C8.19648 49.8232 10.4954 49.8666 12.8133 49.9343C13.8977 49.9642 14.5646 50.6013 14.5564 51.5122C14.5483 52.423 13.8353 53.0628 12.694 53.0466C10.3192 53.0086 7.94434 52.9489 5.56952 52.9029C4.95684 52.9029 4.34147 52.9029 3.62577 52.9029V54.093C3.62577 62.9489 3.62577 71.8047 3.62577 80.6606C3.62577 83.9734 5.52344 85.8657 8.83084 85.8657H92.1176C95.5009 85.8657 97.358 84.0005 97.358 80.601C97.358 62.4735 97.358 44.3452 97.358 26.216V25.0692C95.5931 25.3186 93.9042 25.5328 92.2261 25.8039C90.5995 26.075 89.7591 25.7334 89.5747 24.6463C89.3985 23.6188 90.0546 23.0034 91.6405 22.7486C93.5002 22.4558 95.3627 22.1874 97.2875 21.8974C97.3092 21.6642 97.3525 21.4148 97.3525 21.1654C97.3525 17.2914 97.3525 13.4174 97.3688 9.54615C97.3688 8.98768 97.2251 8.68676 96.6857 8.46175C93.1966 6.94902 89.7428 5.36039 86.2402 3.88561C85.9347 3.77118 85.6094 3.71919 85.2834 3.73269C84.9575 3.74619 84.6375 3.82494 84.3425 3.96424C81.5692 5.59083 78.8664 7.34213 76.1391 9.05005C76.0388 9.1124 75.9493 9.19914 75.7298 9.37264C76.8711 9.91483 77.9148 10.3947 78.9558 10.8881C79.9968 11.3815 80.4116 12.1758 80.0402 13.0569C79.6363 13.9759 78.7416 14.2904 77.66 13.7184C73.7562 11.658 69.8578 9.57866 66.0027 7.42614C64.9915 6.85954 64.2298 6.82973 63.2348 7.4641C55.9369 12.1216 48.2241 16.0389 40.5222 19.9699C39.4893 20.5121 38.6245 20.2545 38.1908 19.387C37.757 18.5195 38.1095 17.7198 39.1396 17.1667C45.4671 13.7699 51.7999 10.3892 58.1165 6.95986C59.3988 6.26313 60.6215 5.44713 61.8522 4.65824C63.6822 3.48167 65.5012 3.47082 67.3501 4.61485C68.7869 5.50405 70.2237 6.39599 71.6877 7.21742C71.8728 7.30873 72.0755 7.3589 72.2819 7.36452C72.4882 7.37013 72.6934 7.33106 72.8832 7.24995C76.0171 5.39835 79.1646 3.563 82.2117 1.57585C83.9901 0.415551 85.7008 0.174273 87.6337 1.03365C91.4526 2.75784 95.2841 4.45583 99.1283 6.1276C100.099 6.5478 100.5 7.1659 100.5 8.22318C100.484 32.4702 100.477 56.7172 100.481 80.9642C100.481 85.6027 97.1004 88.9915 92.4755 88.9915C64.4855 89.0023 36.4955 89.0023 8.50554 88.9915C4.58004 88.9915 1.5844 86.5895 0.678934 82.7969C0.631732 82.6461 0.572807 82.4993 0.502714 82.3577L0.5 18.0966Z" fill="url(#paint0_linear_1015_1383)"/>
<defs>
<linearGradient id="paint0_linear_1015_1383" x1="0.5" y1="44.7593" x2="100.5" y2="44.7593" gradientUnits="userSpaceOnUse">
<stop stop-color="#CCAB64"/>
<stop offset="1" stop-color="#FAECC9"/>
</linearGradient>
</defs>
</svg>
