<svg width="102" height="100" viewBox="0 0 102 100" fill="none" xmlns="http://www.w3.org/2000/svg">
<path d="M0.835938 85.6217C1.59594 84.5317 2.75588 84.7417 3.90588 84.7117V83.1317C3.90588 83.1317 3.82587 83.0517 3.76587 83.0417C2.46587 82.7817 1.93587 82.2817 2.01587 81.3617C2.09587 80.4417 2.76587 79.9917 4.01587 79.9817H6.86597C8.14597 79.9817 8.79597 80.4517 8.86597 81.3817C8.93597 82.3117 8.46594 82.7717 7.21594 83.0217L6.97595 83.1117V84.7117C8.17595 84.7117 9.33598 84.7117 10.506 84.7117C10.726 84.7117 10.9959 84.4117 11.1459 84.1917C11.7459 83.3417 12.336 82.4817 12.876 81.5817C13.0701 81.251 13.1735 80.8751 13.1759 80.4917C13.1759 73.8317 13.1759 67.1617 13.1759 60.4917C13.1759 59.9217 13.0859 59.6317 12.4159 59.4917C10.2451 59.1283 8.19412 58.246 6.43738 56.9199C4.68064 55.5939 3.27003 53.8632 2.32556 51.8751C1.38109 49.887 0.930692 47.7003 1.01257 45.5008C1.09445 43.3013 1.70623 41.1541 2.7959 39.2417C3.20774 38.6557 3.49182 37.9896 3.62964 37.2867C3.76746 36.5839 3.75599 35.8598 3.59595 35.1617C3.5346 34.9638 3.516 34.7552 3.5415 34.5496C3.567 34.3441 3.63595 34.1462 3.74377 33.9694C3.8516 33.7925 3.99594 33.6406 4.16699 33.5237C4.33805 33.4069 4.53198 33.3278 4.73596 33.2917C4.93717 33.2591 5.14285 33.267 5.34094 33.3151C5.53904 33.3631 5.72557 33.4503 5.88953 33.5714C6.05348 33.6925 6.19151 33.8451 6.29565 34.0203C6.3998 34.1956 6.46795 34.3898 6.49597 34.5917C6.75031 35.5888 6.79273 36.6282 6.62048 37.6427C6.44824 38.6572 6.06515 39.6244 5.49597 40.4817C4.61332 41.9469 4.09469 43.6023 3.98376 45.3092C3.87284 47.0161 4.17279 48.7247 4.8584 50.2918C5.544 51.8589 6.59532 53.2388 7.92419 54.3158C9.25307 55.3928 10.8209 56.1355 12.496 56.4817C12.686 56.4817 12.8759 56.4817 13.1659 56.5617V53.7917C13.1659 51.1717 13.1659 48.5617 13.1659 45.9517C13.1886 45.6314 13.1383 45.3102 13.0188 45.0123C12.8993 44.7143 12.7137 44.4474 12.476 44.2317C11.186 43.0217 9.95594 41.7617 8.71594 40.5017C7.90594 39.6817 7.84587 38.8517 8.51587 38.1917C9.18587 37.5317 9.99593 37.6217 10.8259 38.4317C11.6559 39.2417 12.2359 39.8517 13.1459 40.7717V36.2317C13.1459 35.6717 13.1459 35.1217 13.1459 34.5617C13.1419 34.3657 13.1769 34.1708 13.2489 33.9884C13.3209 33.806 13.4284 33.6398 13.5652 33.4993C13.702 33.3588 13.8653 33.2469 14.0457 33.17C14.226 33.0932 14.4199 33.053 14.616 33.0517C14.8123 33.0489 15.0072 33.0859 15.1888 33.1607C15.3704 33.2355 15.5349 33.3464 15.6724 33.4866C15.8098 33.6269 15.9174 33.7936 15.9885 33.9767C16.0596 34.1598 16.0927 34.3554 16.0859 34.5517C16.0859 34.8417 16.0859 35.1317 16.0859 35.4317C16.0859 38.6617 16.0859 41.9017 16.0859 45.1317C16.0859 45.4417 16.0859 45.7517 16.1459 46.3817C17.1459 45.3817 17.9759 44.4517 18.8359 43.6217C18.9778 43.4388 19.162 43.293 19.3726 43.1969C19.5832 43.1008 19.8139 43.0573 20.045 43.0701C20.2762 43.0829 20.5007 43.1515 20.6995 43.2703C20.8982 43.389 21.0651 43.5542 21.1859 43.7517C21.3992 44.0625 21.4848 44.4434 21.4253 44.8156C21.3657 45.1878 21.1656 45.5229 20.866 45.7517C19.456 47.1517 18.0259 48.5417 16.6659 49.9917C16.3349 50.3673 16.1379 50.8421 16.106 51.3417C16.046 53.0317 16.106 54.7317 16.106 56.5717C16.656 56.4717 17.1059 56.4217 17.5759 56.3017C19.1425 55.8597 20.588 55.0667 21.8025 53.9829C23.017 52.8991 23.9688 51.553 24.5856 50.0466C25.2024 48.5403 25.4681 46.9132 25.3624 45.2888C25.2568 43.6645 24.7827 42.0855 23.976 40.6717C22.7856 38.8206 22.3791 36.5725 22.8459 34.4217C23.0518 33.4067 23.0378 32.3594 22.8049 31.3503C22.5721 30.3413 22.1258 29.3938 21.496 28.5717C20.7774 27.6603 20.2932 26.5867 20.0857 25.4448C19.8782 24.3029 19.9538 23.1276 20.3059 22.0217C20.6302 20.8625 20.5806 19.6305 20.1641 18.5012C19.7475 17.3718 18.9853 16.4027 17.986 15.7317C17.0273 15.0698 15.8931 14.7087 14.7281 14.6944C13.5632 14.6802 12.4205 15.0134 11.4459 15.6517C10.4278 16.2912 9.64221 17.2409 9.20471 18.3607C8.76721 19.4806 8.70094 20.7114 9.01587 21.8717C9.40145 23.0211 9.48727 24.2498 9.26501 25.4415C9.04276 26.6333 8.51991 27.7486 7.74597 28.6817C7.07597 29.5217 6.28591 29.7617 5.55591 29.2617C5.36787 29.1418 5.20977 28.9805 5.09375 28.7901C4.97773 28.5997 4.90687 28.3853 4.8866 28.1632C4.86632 27.9412 4.89719 27.7174 4.97681 27.5092C5.05642 27.3009 5.18272 27.1136 5.34595 26.9617C5.82166 26.3675 6.14354 25.6652 6.28308 24.9169C6.42262 24.1686 6.37544 23.3974 6.14587 22.6717C5.66933 21.0446 5.70127 19.3107 6.23743 17.7022C6.77358 16.0937 7.78837 14.6875 9.14587 13.6717C10.4166 12.5679 11.9952 11.8802 13.6688 11.7014C15.3425 11.5226 17.0308 11.8612 18.506 12.6717C20.0599 13.3944 21.3607 14.5674 22.2397 16.0385C23.1188 17.5096 23.5356 19.2109 23.4359 20.9217C23.379 21.711 23.2722 22.4959 23.116 23.2717C24.4052 21.7954 26.1148 20.7486 28.0159 20.2717C29.4594 19.9379 30.9638 19.9744 32.3894 20.3778C33.815 20.7811 35.1156 21.5383 36.1702 22.5789C37.2248 23.6195 37.9992 24.9099 38.4215 26.33C38.8439 27.7501 38.9005 29.2539 38.5859 30.7017C38.3385 31.5065 38.2856 32.3586 38.4316 33.1878C38.5777 34.0171 38.9184 34.7998 39.4259 35.4717C40.1307 36.6512 40.733 37.8891 41.226 39.1717C41.436 38.8717 41.666 38.5717 41.876 38.2617C44.3893 34.5217 46.8992 30.7817 49.4059 27.0417C50.4059 25.5717 51.4059 25.5817 52.4059 27.0417C56.7259 33.4617 61.0393 39.885 65.3459 46.3117C65.5122 46.5514 65.6561 46.8057 65.7759 47.0717C65.9177 47.3718 65.943 47.714 65.8469 48.0317C65.7509 48.3495 65.5403 48.6203 65.256 48.7917C65.0059 49.0099 64.6814 49.1232 64.3499 49.1083C64.0184 49.0934 63.7054 48.9514 63.476 48.7117C63.2207 48.4613 62.9988 48.179 62.8159 47.8717C59.0759 42.3117 55.346 36.755 51.626 31.2017C51.406 30.8817 51.1759 30.5717 50.8859 30.2017C50.6259 30.5617 50.416 30.8317 50.226 31.1117C37.9793 49.3517 25.7425 67.595 13.5159 85.8417C13.1596 86.4097 12.9596 87.0616 12.9359 87.7317C12.8759 90.4417 12.9359 93.1517 12.9359 95.8617V96.9517H34.2859L29.616 92.8617L28.2859 91.7017C27.0459 90.6017 27.006 89.9317 28.126 88.7517C30.546 86.1917 32.9725 83.635 35.4059 81.0817C39.8392 76.415 44.2759 71.7483 48.7159 67.0817C48.9478 66.8593 49.1293 66.5899 49.2483 66.2915C49.3673 65.993 49.421 65.6726 49.4059 65.3517C49.4059 59.6717 49.4059 53.9817 49.4059 48.3017C49.4059 48.0417 49.4059 47.7717 49.4059 47.5117C49.4059 46.4117 50.0359 45.6917 50.9059 45.6817C51.7759 45.6717 52.4159 46.3917 52.4259 47.4917C52.4259 50.2717 52.4259 53.0517 52.4259 55.8217C52.4259 58.9917 52.4259 62.1617 52.4259 65.3317C52.4088 65.6519 52.4607 65.9721 52.578 66.2706C52.6953 66.569 52.8754 66.8388 53.106 67.0617C59.806 74.0817 66.4726 81.115 73.106 88.1617C73.356 88.4217 73.616 88.6717 73.856 88.9417C74.0533 89.0947 74.2107 89.2933 74.3148 89.5203C74.4189 89.7474 74.4666 89.9962 74.4539 90.2456C74.4411 90.495 74.3682 90.7377 74.2415 90.9529C74.1147 91.1682 73.9379 91.3496 73.726 91.4817C71.946 93.0717 70.146 94.6217 68.3459 96.2017C68.1159 96.4017 67.8959 96.6217 67.5559 96.9417H88.8459V95.8617C88.8459 93.1117 88.8459 90.3717 88.8459 87.6317C88.8317 87.0249 88.6518 86.4337 88.3259 85.9217C81.4059 75.555 74.4626 65.1984 67.496 54.8517C66.596 53.5017 66.5759 52.7217 67.4359 52.1217C68.2959 51.5217 69.0759 51.8717 69.9459 53.1217L84.7959 75.2317C85.0059 75.5517 85.2359 75.8617 85.5759 76.3417C85.5759 75.9417 85.6459 75.7417 85.6459 75.5317C85.6459 71.7817 85.6459 68.0217 85.6459 64.2617C85.6459 63.5517 85.416 63.3317 84.746 63.2017C82.9601 62.8254 81.2877 62.0344 79.8639 60.8926C78.4401 59.7509 77.3047 58.2903 76.5494 56.6289C75.7942 54.9675 75.4402 53.1517 75.516 51.3283C75.5918 49.5048 76.0954 47.7247 76.986 46.1317C77.6355 45.0441 77.8665 43.7572 77.6359 42.5117C77.4338 41.3314 77.4722 40.1224 77.7489 38.9573C78.0256 37.7923 78.5348 36.6951 79.246 35.7317C79.6018 35.289 79.8435 34.7656 79.9498 34.2077C80.0562 33.6498 80.0239 33.0743 79.856 32.5317C79.4366 31.0243 79.5004 29.4233 80.0386 27.9542C80.5767 26.485 81.5621 25.2215 82.856 24.3417C84.1258 23.4644 85.6325 22.9945 87.1759 22.9945C88.7193 22.9945 90.2262 23.4644 91.496 24.3417C92.791 25.2174 93.7814 26.4744 94.3297 27.9384C94.878 29.4023 94.957 31.0007 94.5559 32.5117C94.3828 33.0521 94.3433 33.6265 94.4408 34.1856C94.5383 34.7447 94.7701 35.2718 95.116 35.7217C95.877 36.7877 96.4055 38.0018 96.6674 39.2852C96.9292 40.5686 96.9185 41.8927 96.6359 43.1717C96.4788 44.1123 96.6941 45.077 97.236 45.8617C98.1325 47.3653 98.6789 49.0516 98.8347 50.7952C98.9905 52.5389 98.7517 54.2953 98.136 55.9341C97.5202 57.5729 96.5433 59.0519 95.2778 60.2616C94.0124 61.4713 92.4908 62.3805 90.8259 62.9217L90.5459 63.0317C88.6859 63.5717 88.6859 63.5717 88.6859 65.4617C88.6859 70.1017 88.6859 74.7417 88.6859 79.3817C88.7093 80.4742 89.0235 81.5408 89.5959 82.4717C90.5959 84.2917 91.8559 85.1017 93.8859 84.7117C94.2386 84.6815 94.5932 84.6815 94.9459 84.7117C94.9836 84.5503 95.0103 84.3866 95.0259 84.2217C95.0259 83.8617 95.0259 83.5117 95.0259 83.1117C94.7159 83.0317 94.4359 82.9817 94.1559 82.9017C93.8642 82.8161 93.6104 82.6339 93.4359 82.3849C93.2615 82.1359 93.1768 81.8351 93.1959 81.5317C93.1751 81.3671 93.1874 81.2001 93.2323 81.0404C93.2772 80.8807 93.3537 80.7317 93.4572 80.6021C93.5607 80.4725 93.689 80.365 93.8348 80.2859C93.9806 80.2068 94.1408 80.1577 94.3059 80.1417C95.8346 80.0516 97.3672 80.0516 98.8959 80.1417C99.0611 80.1542 99.2223 80.1996 99.3699 80.275C99.5175 80.3504 99.6486 80.4544 99.7556 80.5809C99.8626 80.7075 99.9434 80.8541 99.9933 81.0122C100.043 81.1702 100.061 81.3366 100.046 81.5017C100.077 81.8327 99.9858 82.1638 99.7883 82.4313C99.5909 82.6989 99.3016 82.8842 98.976 82.9517C98.736 83.0217 98.4759 83.0617 98.1559 83.1317V84.7017C99.3459 84.9717 101.306 84.2717 101.156 86.4317C101.046 88.2517 99.3359 87.6517 98.0759 87.8517V88.8517C98.0759 91.9817 98.0759 95.1217 98.0759 98.2617C98.1236 98.6223 98.0367 98.9879 97.8319 99.2885C97.6272 99.5892 97.3189 99.8039 96.9659 99.8917C96.6494 99.9973 96.3048 99.981 95.9996 99.846C95.6945 99.711 95.4507 99.467 95.3159 99.1617C95.1748 98.799 95.1133 98.4102 95.1359 98.0217C95.1359 94.9817 95.1359 91.945 95.1359 88.9117V87.8017H91.996V97.8717C91.996 99.4617 91.526 99.9417 89.996 99.9417H12.0759C10.5859 99.9417 10.0759 99.4517 10.0759 97.9417V87.7917H6.93591V88.7917C6.93591 91.865 6.93591 94.935 6.93591 98.0017C6.93591 99.2417 6.41593 99.8917 5.45593 99.8717C4.49593 99.8517 3.99597 99.2017 3.99597 97.9617V87.7817C2.81597 87.6817 1.57596 87.9917 0.855957 86.7817L0.835938 85.6217ZM85.7659 46.7617V45.5317C85.7659 44.4517 85.7659 43.3717 85.7659 42.2917C85.7658 42.0939 85.8055 41.8981 85.8823 41.7159C85.9592 41.5337 86.0718 41.3687 86.2135 41.2308C86.3552 41.0928 86.5231 40.9846 86.7073 40.9127C86.8915 40.8407 87.0882 40.8064 87.2859 40.8117C87.6682 40.8217 88.0323 40.9774 88.3037 41.2469C88.5751 41.5164 88.7334 41.8794 88.746 42.2617C88.7611 42.5548 88.7611 42.8485 88.746 43.1417V50.3917C88.746 50.6817 88.7459 50.9817 88.7959 51.2817L89.0459 51.3717C89.5059 50.8617 89.9459 50.3717 90.4359 49.8517C91.2559 49.0317 92.076 48.9717 92.746 49.6317C92.8975 49.793 93.013 49.9848 93.0847 50.1942C93.1564 50.4037 93.1828 50.626 93.162 50.8464C93.1412 51.0668 93.0736 51.2802 92.964 51.4725C92.8543 51.6648 92.705 51.8315 92.5259 51.9617C91.4459 53.0617 90.3459 54.1317 89.2759 55.2317C89.0659 55.4517 88.7859 55.7517 88.7759 56.0117C88.7759 57.4417 88.7759 58.8717 88.7759 60.3917C89.1459 60.3217 89.3959 60.2917 89.6459 60.2317C90.9376 59.8689 92.1278 59.212 93.1232 58.3123C94.1185 57.4127 94.8921 56.2948 95.3832 55.0462C95.8743 53.7976 96.0696 52.4523 95.9539 51.1156C95.8381 49.7789 95.4144 48.4872 94.7159 47.3417C93.8184 45.9956 93.4844 44.3512 93.7859 42.7617C94.001 41.7885 94.0024 40.7804 93.79 39.8066C93.5777 38.8329 93.1566 37.9169 92.5559 37.1217C92.0233 36.4178 91.6651 35.5976 91.5104 34.7286C91.3557 33.8595 91.4089 32.9662 91.6659 32.1217C91.8549 31.5004 91.9263 30.8492 91.876 30.2017C91.8258 29.555 91.6397 28.9262 91.3298 28.3563C91.02 27.7865 90.5934 27.2885 90.0779 26.8948C89.5624 26.5011 88.9697 26.2206 88.3384 26.0717C87.7071 25.9227 87.0515 25.9086 86.4144 26.0304C85.7773 26.1522 85.1731 26.407 84.6412 26.7782C84.1094 27.1494 83.6617 27.6288 83.3278 28.1848C82.9938 28.7409 82.781 29.3611 82.7031 30.005C82.6253 30.6489 82.6842 31.3021 82.876 31.9217C83.1648 32.8577 83.2248 33.8494 83.0508 34.8135C82.8768 35.7775 82.4739 36.6857 81.876 37.4617C81.3649 38.1045 80.9985 38.85 80.8018 39.6473C80.605 40.4446 80.5826 41.2749 80.736 42.0817C80.9413 43.0206 80.9585 43.991 80.7869 44.9367C80.6152 45.8824 80.2581 46.7847 79.736 47.5917C78.8172 49.1708 78.4265 51.002 78.6207 52.8187C78.815 54.6353 79.584 56.3425 80.8159 57.6917C82.0932 59.1437 83.8365 60.1055 85.746 60.4117C85.746 57.3317 85.746 54.3617 85.746 51.4117C85.6826 51.1002 85.5171 50.8187 85.2759 50.6117C84.4659 49.7617 83.6159 48.9517 82.7859 48.1117C81.9559 47.2717 81.8859 46.4517 82.5259 45.7917C83.1659 45.1317 84.0059 45.1617 84.9059 46.0217C85.1259 46.2017 85.3559 46.4017 85.7659 46.7617ZM31.6459 53.5317C31.8259 53.3217 31.916 53.2417 31.986 53.1417C33.926 50.2517 35.8759 47.3517 37.8059 44.4517C37.9588 44.2048 38.0703 43.9346 38.1359 43.6517C38.4517 42.5144 38.5097 41.3208 38.3055 40.1583C38.1014 38.9957 37.6404 37.8934 36.9559 36.9317C36.2233 35.9903 35.7311 34.8846 35.522 33.7101C35.3129 32.5357 35.3933 31.328 35.756 30.1917C36.1161 28.7846 35.9293 27.2933 35.2334 26.0184C34.5375 24.7436 33.3843 23.7799 32.006 23.3217C30.6146 22.8571 29.1 22.9275 27.7577 23.5192C26.4154 24.1108 25.3417 25.1812 24.746 26.5217C24.5961 26.7872 24.5173 27.0868 24.5173 27.3917C24.5173 27.6965 24.5961 27.9962 24.746 28.2617C25.8671 30.3877 26.2203 32.8354 25.746 35.1917C25.4633 36.5024 25.6997 37.8717 26.4059 39.0117C28.177 41.9129 28.793 45.3738 28.1317 48.708C27.4704 52.0422 25.5802 55.006 22.8359 57.0117C22.0259 57.6117 21.146 58.1017 20.246 58.6717C21.2065 60.7897 22.8227 62.5427 24.856 63.6717C26.056 61.8817 27.2159 60.1817 28.3359 58.4617C28.4983 58.154 28.5775 57.8093 28.5659 57.4617C28.5659 55.8717 28.5659 54.2717 28.5659 52.6717C28.5578 52.4899 28.5867 52.3083 28.651 52.1381C28.7153 51.9678 28.8136 51.8125 28.9399 51.6815C29.0663 51.5505 29.218 51.4466 29.3857 51.3762C29.5535 51.3057 29.7339 51.2701 29.9159 51.2717C30.2954 51.2408 30.672 51.3595 30.9653 51.6024C31.2586 51.8452 31.4455 52.193 31.486 52.5717C31.626 52.8217 31.6159 53.1017 31.6459 53.5317ZM51.0159 70.9017C47.4859 79.7417 44.0159 88.3017 40.5959 96.9017H61.4359C57.9759 88.3217 54.5559 79.7517 51.0159 70.9117V70.9017ZM55.6759 73.9617L55.496 74.0817C58.396 81.3317 61.296 88.5917 64.246 95.9517L70.9559 90.0617L55.6759 73.9617ZM37.7959 95.9617L46.5459 74.0817L46.376 73.9717L31.0759 90.0817L37.7959 95.9617ZM23.256 66.1617C20.8946 64.7726 18.9927 62.7212 17.7859 60.2617C17.5559 59.7817 17.3659 59.4517 16.7159 59.5717C16.0659 59.6917 16.1659 60.1817 16.1659 60.6217C16.1659 65.6484 16.1659 70.6783 16.1659 75.7117V76.3517L16.376 76.4217L23.256 66.1617Z" fill="url(#paint0_linear_1691_880)"/>
<path d="M52.7156 13.6721C52.7156 13.1121 52.7155 12.5621 52.8055 12.0121C52.9055 10.8321 53.5355 10.2221 54.5255 10.3321C55.5155 10.4421 55.8756 11.1221 55.7556 12.3321C55.4852 14.4661 55.8624 16.632 56.8383 18.549C57.8142 20.4659 59.3438 22.0452 61.2284 23.082C63.113 24.1189 65.2657 24.5654 67.4072 24.3635C69.5488 24.1617 71.5802 23.3208 73.2379 21.9501C74.8956 20.5794 76.1032 18.7421 76.7037 16.6766C77.3043 14.6112 77.2703 12.4129 76.606 10.367C75.9416 8.32114 74.6777 6.52213 72.9783 5.20349C71.2788 3.88485 69.2223 3.10744 67.0756 2.97211C65.5044 2.85617 63.9273 3.09531 62.4611 3.67175C60.9948 4.2482 59.6771 5.14719 58.6056 6.30212C58.2832 6.69796 57.8217 6.95552 57.3156 7.02209C56.7641 6.94318 56.2635 6.65712 55.9155 6.22211C55.4555 5.62211 55.7955 4.9821 56.2755 4.4621C58.0614 2.50212 60.3846 1.111 62.9556 0.462097C64.8004 -0.0291989 66.7274 -0.130093 68.6134 0.165893C70.4994 0.46188 72.3029 1.14823 73.9086 2.18103C75.5142 3.21383 76.8866 4.57033 77.938 6.16382C78.9894 7.75731 79.6967 9.55273 80.0146 11.4352C80.3326 13.3176 80.2542 15.2457 79.7844 17.0961C79.3146 18.9465 78.4639 20.6785 77.2865 22.1813C76.1091 23.6842 74.6311 24.9248 72.9469 25.8237C71.2627 26.7227 69.4095 27.2603 67.5056 27.4021C64.1543 27.6848 60.8168 26.7176 58.136 24.6867C55.4552 22.6558 53.6207 19.7048 52.9856 16.4021C52.8156 15.5421 52.7655 14.6621 52.6655 13.7921L52.7156 13.6721Z" fill="url(#paint1_linear_1691_880)"/>
<defs>
<linearGradient id="paint0_linear_1691_880" x1="0.835938" y1="55.8077" x2="101.164" y2="55.8077" gradientUnits="userSpaceOnUse">
<stop stop-color="#CCAB64"/>
<stop offset="1" stop-color="#FAECC9"/>
</linearGradient>
<linearGradient id="paint1_linear_1691_880" x1="52.6655" y1="13.7252" x2="80.2063" y2="13.7252" gradientUnits="userSpaceOnUse">
<stop stop-color="#CCAB64"/>
<stop offset="1" stop-color="#FAECC9"/>
</linearGradient>
</defs>
</svg>
