<svg width="81" height="80" viewBox="0 0 81 80" fill="none" xmlns="http://www.w3.org/2000/svg">
<g clip-path="url(#clip0_3618_1381)">
<path d="M0.5 34.4889C0.941016 32.5553 1.80101 30.7419 3.01937 29.177C5.24123 26.5784 7.99115 24.483 11.0861 23.0303C15.8827 20.6963 20.9964 19.0803 26.2633 18.2343C32.5232 17.1346 38.8899 16.7679 45.2347 17.1415C53.0889 17.5968 60.7534 18.9552 68.0005 22.1424C71.4423 23.521 74.559 25.6015 77.1523 28.2512C78.2329 29.3423 79.0854 30.6376 79.66 32.0617C80.2345 33.4858 80.5197 35.01 80.4989 36.5455C80.4231 44.559 80.4989 52.5725 80.4989 60.5936C80.4989 61.7015 80.3092 61.8912 79.1785 61.8912C72.7206 61.8912 66.2779 61.8912 59.8124 61.8912C59.5935 61.9011 59.375 61.8635 59.1719 61.781C58.9689 61.6985 58.7861 61.573 58.6362 61.4131C58.4996 61.1399 58.7576 60.548 59.0005 60.2141C60.5182 58.188 62.0359 56.1846 63.5991 54.1964C63.7558 54.01 63.8635 53.7875 63.9125 53.549C63.9615 53.3105 63.9503 53.0635 63.8799 52.8304C63.2121 50.0682 61.4667 48.0952 59.2433 46.4864C55.9134 44.1951 52.1117 42.6806 48.1185 42.0547C41.0902 40.6585 33.8134 41.2203 27.0828 43.6787C24.1384 44.6747 21.4868 46.385 19.3652 48.6567C18.0668 50.0929 17.2358 51.89 16.9824 53.8094C16.9637 54.1368 17.0633 54.46 17.2632 54.72C18.6519 56.6019 20.0862 58.4536 21.4673 60.3431C21.5876 60.4926 21.6742 60.6662 21.7213 60.8521C21.7684 61.0381 21.775 61.232 21.7405 61.4207C21.6157 61.5707 21.459 61.6908 21.2817 61.7722C21.1044 61.8536 20.911 61.8943 20.7159 61.8912C14.3668 61.9215 8.01771 61.9215 1.66858 61.8912C1.27347 61.8152 0.892222 61.6796 0.537887 61.489L0.5 34.4889ZM78.8447 60.29V36.7655L60.8445 60.29H78.8447ZM2.0708 37.3346V60.29H19.4487L2.0708 37.3346ZM58.4085 30.7478C58.9246 29.4274 59.4786 28.0387 60.0553 26.5741C53.9569 24.8296 47.6468 23.9359 41.3038 23.9181V28.3498C44.2178 28.6002 47.0788 28.7292 49.9018 29.1086C52.7247 29.4881 55.5097 30.1787 58.4161 30.7478H58.4085ZM22.6283 30.9678C28.1551 29.3572 33.8778 28.517 39.6344 28.4712V23.9181C33.3025 23.9632 27.0093 24.9086 20.9436 26.7259L22.6283 30.9678ZM59.8124 31.3625L60.7079 31.704C63.1242 32.558 65.4199 33.7211 67.5376 35.1643C69.8387 36.6099 71.638 38.7298 72.6903 41.2352C72.751 41.4097 72.8269 41.5842 72.9331 41.8422C73.6009 40.962 74.2231 40.1955 74.7847 39.3836C74.9857 39.0974 75.0895 38.7542 75.0807 38.4046C74.9468 36.9722 74.3954 35.6107 73.4947 34.4889C71.3926 31.7039 68.5014 29.9813 65.4052 28.5623C64.1455 27.9856 62.8327 27.5151 61.4972 26.9687L59.8124 31.3625ZM21.1106 31.4459L19.4563 27.2419C15.4446 28.4403 11.7487 30.5137 8.63495 33.3127C7.49324 34.3823 6.60181 35.6909 6.02443 37.1449C5.65768 38.0277 5.6299 39.0147 5.94643 39.9167C6.26296 40.8187 6.90151 41.572 7.73946 42.032C8.68803 39.0876 10.775 37.0615 13.2033 35.3464C15.6617 33.6972 18.3318 32.3877 21.1409 31.4535L21.1106 31.4459ZM20.3517 25.2309C26.6103 23.3714 33.0981 22.3957 39.6268 22.3321V18.6441C32.6245 18.641 25.6579 19.6427 18.9402 21.6188L20.3517 25.2309ZM4.22593 37.623C5.06488 34.9739 6.7097 32.6527 8.93092 30.983C11.2783 29.13 13.8899 27.6387 16.6789 26.5589C17.3846 26.2629 18.1055 25.9897 18.8644 25.6938L17.4377 22.0968C13.3702 23.5311 9.57593 25.2385 6.34318 27.9931C4.39594 29.5014 2.97504 31.5863 2.2833 33.9501C2.15332 34.3054 2.15332 34.6952 2.2833 35.0505C2.8828 35.9004 3.52781 36.6744 4.24872 37.623H4.22593ZM41.2583 22.3169H41.9337C45.4017 22.6205 48.8848 22.8026 52.3301 23.2655C54.895 23.607 57.4068 24.3279 59.9187 24.8743C60.2222 24.9426 60.5561 25.193 60.7534 24.677C61.1328 23.6601 61.5123 22.6508 61.9525 21.5732C55.2246 19.597 48.2476 18.5978 41.2355 18.6061L41.2583 22.3169ZM65.2307 51.9957C66.2324 50.6829 67.181 49.4763 68.0764 48.2014C68.2206 47.9347 68.2638 47.6248 68.1979 47.3287C67.9417 45.9381 67.2788 44.6546 66.2931 43.6407C64.3123 41.6341 61.9092 40.0942 59.2585 39.1331C58.5527 38.8448 57.8242 38.5943 57.0729 38.3135C56.4962 39.8313 55.9499 41.1972 55.3959 42.6087C59.7442 44.6804 63.584 47.1239 65.2535 51.9957H65.2307ZM21.7253 32.9712C18.1698 34.0429 14.8805 35.853 12.0726 38.2832C10.6275 39.4957 9.60884 41.1392 9.16612 42.9729C9.04574 43.3885 9.06979 43.8326 9.23439 44.2327C9.81112 45.1433 10.5245 45.978 11.1999 46.8659C13.4765 41.4021 18.3787 39.2166 23.3417 37.1449L21.7253 32.9712ZM76.606 37.1905C77.16 36.4771 77.6153 35.7714 78.1845 35.1719C78.4217 34.9397 78.5784 34.6376 78.6316 34.3099C78.6849 33.9822 78.6318 33.6461 78.4803 33.3507C77.6086 31.1062 76.1261 29.1504 74.2005 27.7048C70.984 25.2369 67.36 23.3517 63.4929 22.1348L62.1346 25.5952C62.3926 25.6938 62.5899 25.7545 62.772 25.8456C65.0486 26.9231 67.439 27.8869 69.6473 29.1314C72.2923 30.5269 74.4495 32.6947 75.8319 35.3464C76.1203 35.8852 76.3328 36.4923 76.606 37.1525V37.1905ZM23.9487 38.6095C20.7669 39.6229 17.8256 41.2756 15.3053 43.4662C13.9012 44.6479 12.9472 46.2773 12.6038 48.08C12.5443 48.2989 12.5603 48.5316 12.6493 48.7402C13.5827 50.0151 14.5465 51.2672 15.5633 52.6028C17.0355 47.3439 21.0651 44.7866 25.5424 42.6618L23.9487 38.6095ZM23.1898 32.4704C23.6603 33.6694 24.1233 34.747 24.5027 35.8777C24.7152 36.4999 24.958 36.6365 25.6182 36.4544C29.2275 35.3791 32.9518 34.7371 36.7128 34.5421C37.6917 34.4889 38.663 34.4131 39.6344 34.3524V30.0876C34.0782 30.1037 28.5513 30.8928 23.2126 32.4324L23.1898 32.4704ZM41.2583 34.3827C46.2964 34.428 51.3069 35.1321 56.1623 36.4771L57.7559 32.4097C52.3907 30.8757 46.8385 30.0942 41.2583 30.0876V34.3827ZM57.6649 36.9097C62.643 38.8675 67.4086 40.9088 69.6245 46.2891C70.2012 45.5303 70.7552 44.8549 71.2485 44.134C71.4496 43.845 71.5533 43.4994 71.5445 43.1474C71.396 41.7703 70.8322 40.4708 69.9281 39.4215C68.0346 37.1968 65.6352 35.4585 62.9313 34.3524C61.7399 33.806 60.5106 33.3507 59.2661 32.8346L57.6649 36.9097ZM41.2811 39.8009C45.6019 39.8835 49.882 40.6519 53.9616 42.0775L55.6008 37.8886C50.9337 36.6102 46.12 35.9444 41.2811 35.908V39.8009ZM39.6723 35.8853C34.8452 35.9527 30.051 36.6933 25.4285 38.0859L27.0069 42.0699C31.0808 40.6425 35.3564 39.874 39.6723 39.7933V35.8853Z" fill="white"/>
<path d="M40.4166 62.5669C36.6223 62.4758 32.9115 62.0205 29.3904 60.4117C27.8918 59.7928 26.5663 58.8188 25.5278 57.5736C24.8689 56.8058 24.5016 55.8304 24.4905 54.8187C24.4794 53.8069 24.8251 52.8237 25.467 52.0416C26.7237 50.4953 28.3993 49.344 30.2934 48.7254C34.3367 47.2489 38.657 46.6866 42.9436 47.0787C45.9584 47.2332 48.9191 47.9406 51.6781 49.1656C53.1647 49.7934 54.4694 50.785 55.4724 52.0492C56.1169 52.8314 56.4624 53.8172 56.4471 54.8306C56.4318 55.8439 56.0567 56.8189 55.3889 57.5812C53.7726 59.5998 51.5036 60.5711 49.1359 61.33C46.304 62.159 43.3674 62.5756 40.4166 62.5669ZM40.3559 61.0037C43.4102 61.0694 46.4521 60.5942 49.3408 59.5998C50.8216 59.0383 52.2162 58.272 53.4842 57.3232C55.4117 55.8738 55.4041 53.8173 53.6132 52.2085C52.9208 51.5839 52.1346 51.0718 51.2835 50.6908C44.7942 47.89 37.4719 47.7132 30.855 50.1976C29.4953 50.7214 28.2446 51.4934 27.1669 52.4741C25.6036 53.8249 25.6492 55.6765 27.1669 57.1031C27.9306 57.8053 28.792 58.3932 29.7242 58.8485C33.0936 60.518 36.7513 60.9354 40.3559 61.0492V61.0037Z" fill="white"/>
</g>
<defs>
<clipPath id="clip0_3618_1381">
<rect width="80" height="80" fill="white" transform="translate(0.5)"/>
</clipPath>
</defs>
</svg>
