<svg width="100" height="100" viewBox="0 0 100 100" fill="none" xmlns="http://www.w3.org/2000/svg">
<path d="M20.9056 99.9869C20.2144 99.5643 19.9223 98.9696 19.8623 98.1402C19.2937 88.9721 15.0579 81.4472 9.15272 74.7361C6.51053 71.7366 3.65705 68.9222 0.887057 66.0349C0.328885 65.4558 -0.244928 64.9133 0.146314 64.0082C0.537556 63.1031 1.29658 63.077 2.11558 63.1083C9.25184 63.3822 15.7986 65.3854 21.5421 69.7412C21.6141 69.8012 21.6972 69.8463 21.7867 69.8741C21.8763 69.9018 21.9704 69.9116 22.0637 69.9029C21.1612 68.3067 20.2588 66.7104 19.3563 65.1141C19.1008 64.699 18.8709 64.2687 18.6677 63.8256C18.3834 63.124 18.6338 62.5215 19.2389 62.1355C19.5039 61.9368 19.8339 61.845 20.1635 61.8784C20.493 61.9117 20.7979 62.0677 21.0178 62.3155C21.2141 62.5323 21.3831 62.7723 21.5212 63.0301C27.2291 72.1487 30.9462 82.3703 32.429 93.0254C32.5881 94.1521 32.7785 95.2763 33.0237 96.3848C33.0785 96.6457 33.4175 97.0134 33.6314 97.016C36.3936 97.0578 39.1558 97.0447 42.0353 97.0447C41.7458 95.6336 41.4537 94.3139 41.2059 92.9862C39.9017 86.0195 39.4636 78.9902 39.6409 71.9113C39.6467 71.3048 39.5024 70.7063 39.221 70.169C35.1468 62.605 28.9131 57.3649 21.2838 53.6872C18.8477 52.5109 16.2994 51.5641 13.8007 50.513L13.6442 50.7738C14.844 52.5735 16.0438 54.375 17.2436 56.1782C17.4508 56.469 17.6373 56.7741 17.8018 57.0911C17.971 57.3957 18.0145 57.7545 17.9229 58.0907C17.8313 58.427 17.6118 58.7141 17.3114 58.8908C16.6645 59.3446 16.0073 59.2299 15.4517 58.6952C15.361 58.6014 15.2806 58.4982 15.2117 58.3874C13.0756 55.2418 10.9107 52.1118 8.83448 48.9245C8.57365 48.5046 8.51888 47.6439 8.7745 47.2526C8.9651 47.0361 9.20545 46.869 9.47487 46.7659C9.74429 46.6628 10.0347 46.6266 10.3212 46.6605C20.9395 49.3731 30.4441 54.0237 37.6429 62.6024C38.4254 63.5439 39.1506 64.5481 40.0374 65.701C40.2408 64.1882 40.3947 62.8319 40.6112 61.4886C40.9068 59.6593 41.2285 57.8335 41.5762 56.0112C41.7797 54.9679 42.4474 54.4749 43.3421 54.6471C44.2367 54.8192 44.6332 55.573 44.4193 56.6085C42.5045 65.8305 42.0311 75.2936 43.016 84.6606C43.4203 88.573 44.268 92.4176 44.9096 96.2961C44.9853 96.7421 45.087 97.0604 45.6921 97.0551C48.7177 97.0265 51.7407 97.0551 55.0037 97.0551C59.0622 77.7539 58.4936 58.9038 50.2592 40.698L49.8992 40.6536C49.4063 41.697 48.856 42.7142 48.4386 43.7836C47.6562 45.7789 46.9389 47.7977 46.2007 49.8113C45.833 50.8129 45.2253 51.2407 44.4036 51.0503C43.4412 50.8259 43.0004 50.007 43.4386 48.888C44.7193 45.6277 46.0625 42.3908 47.411 39.1565C47.726 38.4782 48.0849 37.8213 48.4856 37.1898C49.3933 35.6249 50.6009 35.6249 51.5008 37.1742C53.9291 41.3214 55.674 45.7528 57.0094 50.3591C58.3589 55.0488 59.2868 59.8498 59.7821 64.7046C59.8107 64.9889 59.8811 65.2732 59.949 65.6645C61.047 64.2951 61.9991 62.9414 63.1207 61.7521C64.6596 60.1245 66.3002 58.5882 67.9512 57.0728C68.8667 56.2329 69.7457 56.272 70.3299 57.0128C70.9142 57.7535 70.7473 58.5465 69.7666 59.3602C66.033 62.3729 62.9442 66.1065 60.6845 70.3385C60.457 70.7611 60.3369 71.2331 60.335 71.7131C60.5515 80.0596 59.9542 88.3513 58.0319 96.5126C58.0069 96.6853 57.9964 96.8598 58.0006 97.0343H66.8844C68.2146 88.6356 69.7535 80.3152 73.4051 72.5399C76.9941 64.8585 81.6342 57.8109 86.3552 50.8051L86.1961 50.5443C83.6139 51.6371 81.0213 52.7039 78.4548 53.8333C77.474 54.2637 76.5611 54.8375 75.6117 55.3357C74.6623 55.8339 73.8511 55.6565 73.4208 54.8845C72.9904 54.1124 73.2512 53.3195 74.2033 52.7822C78.9999 50.033 84.1147 48.0873 89.4565 46.6944C90.192 46.4988 90.8206 46.5771 91.2823 47.2161C91.7439 47.8551 91.5431 48.4942 91.1231 49.1097C88.5957 52.8552 86.0188 56.572 83.58 60.3749C81.6003 63.4657 79.7928 66.6635 77.907 69.8116L78.087 69.9864C78.3295 69.8273 78.5825 69.676 78.8173 69.5039C84.5868 65.2419 91.1257 63.33 98.2281 63.1083C99.0471 63.0823 99.5662 63.4709 100.004 64.076V65.0515C99.634 65.4584 99.2714 65.8679 98.8958 66.2696C95.9406 69.423 92.8707 72.4773 90.0512 75.7481C84.5007 82.1958 80.6874 89.4729 80.1553 98.1584C80.1057 98.9879 79.8058 99.58 79.112 99.9999L20.9056 99.9869ZM5.71238 66.2174L5.60804 66.5669C14.0197 75.1743 21.6125 84.2537 22.6923 97.0056H30.0685C30.087 96.8078 30.087 96.6087 30.0685 96.4109C29.1478 91.896 28.3001 87.3654 27.2568 82.8791C26.8447 81.1029 26.3178 79.2015 25.2901 77.7486C21.8577 72.8868 17.1732 69.5665 11.5132 67.7041C9.61697 67.0808 7.64772 66.7026 5.71238 66.2174ZM94.5191 66.653L94.3444 66.4417C94.0709 66.4209 93.7962 66.4209 93.5227 66.4417C87.3203 67.4694 81.916 70.0777 77.4115 74.5039C75.3118 76.5645 73.6477 78.8493 73.0165 81.8071C72.4531 84.4389 71.6941 87.0237 71.1359 89.6633C70.6143 92.0707 70.2647 94.5121 69.8318 96.9821H77.3175C77.8679 90.597 80.0719 84.864 83.52 79.5823C86.2848 75.3438 89.5869 71.5462 93.0976 67.9233C93.528 67.4668 94.0392 67.073 94.5322 66.6504L94.5191 66.653Z" fill="url(#paint0_linear_1015_1366)"/>
<path d="M12.2853 14.1875C11.4376 13.405 10.6055 12.6017 9.73174 11.84C9.56742 11.6992 9.24661 11.707 8.99361 11.7044C8.05202 11.6888 7.1078 11.72 6.1636 11.6887C5.2194 11.6574 4.54649 11.0262 4.56214 10.202C4.57779 9.37781 5.21159 8.80662 6.20795 8.78575C7.01652 8.76749 7.82508 8.78575 8.7771 8.78575C8.7771 7.87807 8.7771 7.04339 8.7771 6.21135C8.79797 5.21759 9.35616 4.58118 10.196 4.56554C11.0359 4.54989 11.641 5.19413 11.6932 6.15919C11.7506 6.57891 11.7506 7.00449 11.6932 7.4242C11.1533 9.81078 12.9269 10.8593 14.218 12.0956C14.4266 10.2125 14.4788 8.29016 14.8987 6.45393C15.2305 5.10029 15.8184 3.82268 16.6306 2.69016C18.399 0.196645 21.6307 -0.622348 24.4816 0.480956C25.4753 0.864373 25.8796 1.59209 25.577 2.44761C25.3006 3.2301 24.5337 3.51962 23.553 3.2301C20.9082 2.48413 19.0903 3.31876 18.1069 5.89053C16.8289 9.22652 17.1601 12.5964 18.1774 15.9324C18.3154 16.2244 18.5168 16.4819 18.7668 16.6862C21.0178 18.945 23.3131 21.1594 25.5092 23.4678C26.456 24.4615 27.5567 24.5267 28.7252 24.3676C31.1275 24.0338 32.8985 22.0463 33.1045 19.571C33.1742 18.425 32.8637 17.288 32.2214 16.3364C31.5792 15.3848 30.6409 14.6716 29.5521 14.3075C27.9219 13.7675 27.9376 13.645 27.8437 11.96C27.7344 10.5396 27.5076 9.13059 27.1655 7.74763C26.9047 6.56868 27.1237 5.75751 28.0027 5.49668C28.8817 5.23585 29.6433 5.67406 29.9563 6.8843C30.3032 8.23018 30.478 9.62038 30.7754 10.9793C30.8469 11.3323 31.049 11.6453 31.3413 11.8557C34.9564 13.8223 36.7092 17.3331 35.8511 21.0082C34.9486 24.8502 31.9125 27.2054 27.6793 27.3489C27.5984 27.358 27.5182 27.3729 27.4394 27.3932C27.3559 28.1053 27.3194 28.846 27.1785 29.5659C26.5186 32.8628 23.8086 35.4606 20.5822 35.9249C17.0506 36.4466 13.7302 34.8503 12.1575 31.7673C11.748 30.9692 11.2654 30.7449 10.4569 30.677C7.43385 30.4162 4.66123 29.4851 2.41289 27.3567C-1.4578 23.7051 -0.557942 17.9512 4.23869 15.6194C6.40095 14.5761 8.71452 14.3153 11.0802 14.3753C11.4245 14.3753 11.7688 14.3753 12.1235 14.3753L12.2853 14.1875ZM11.0985 17.3174C8.68582 17.3174 6.82089 17.5209 5.12029 18.4651C2.90064 19.6962 2.2225 22.1949 3.66488 24.2841C4.27823 25.1175 5.05029 25.8213 5.93668 26.3551C7.74161 27.4819 9.79433 27.8575 11.9018 27.8705C13.6859 27.8705 13.7589 27.9071 14.3275 29.5816C14.6969 30.6744 15.4195 31.6132 16.3815 32.2497C17.3435 32.8863 18.4901 33.1844 19.6403 33.0971C20.7905 33.0098 21.879 32.542 22.7339 31.7675C23.5888 30.9931 24.1614 29.956 24.3616 28.82C24.5702 27.5341 24.4216 26.3786 23.3365 25.3718C21.289 23.473 19.3015 21.4985 17.4131 19.4406C16.4711 18.4043 15.1786 17.7538 13.785 17.6148C12.7261 17.4687 11.6566 17.3748 11.0985 17.3148V17.3174Z" fill="url(#paint1_linear_1015_1366)"/>
<path d="M82.422 38.6999C82.3777 40.7865 81.7622 42.5836 80.3354 44.0573C79.5377 44.8866 78.5547 45.5151 77.4672 45.8912C76.3797 46.2673 75.2185 46.3803 74.0789 46.221C72.9392 46.0617 71.8535 45.6346 70.9108 44.9746C69.9681 44.3147 69.1953 43.4408 68.6555 42.4245C68.3321 41.8246 67.9747 41.642 67.3253 41.5821C64.5788 41.3212 62.0409 40.4813 60.0221 38.4938C56.66 35.1787 57.4947 30.0795 61.7305 28.0033C63.5563 27.1113 65.5099 26.8661 67.5105 26.8479H68.4286C67.4114 25.682 66.6185 24.4822 64.8918 24.8186C64.4068 24.8786 63.9162 24.8786 63.4311 24.8186C62.573 24.7638 61.9966 24.1874 61.9809 23.4049C61.9731 23.0249 62.1152 22.6571 62.3762 22.3809C62.6373 22.1047 62.9965 21.9422 63.3764 21.9286C64.0832 21.8765 64.7979 21.9286 65.6508 21.9286C65.6508 21.1905 65.6299 20.5202 65.6508 19.842C65.6925 18.8639 66.2924 18.2197 67.1192 18.217C67.946 18.2144 68.5355 18.8535 68.5721 19.8316C68.6204 20.2519 68.6204 20.6763 68.5721 21.0966C68.2356 22.8128 69.3832 23.6605 70.51 24.6021C70.6378 23.251 70.6482 21.9521 70.9064 20.6897C71.1208 19.5753 71.5006 18.4992 72.0332 17.4972C74.1773 13.6186 79.1565 13.0631 82.2864 16.2974C84.2478 18.3292 85.0851 20.8619 85.3407 23.6162C85.385 24.1144 85.4189 24.4952 85.9693 24.7873C89.1253 26.4618 90.586 29.5944 89.8426 32.9356C89.1123 36.2168 86.3893 38.413 82.8211 38.6321C82.7246 38.6556 82.6281 38.6738 82.422 38.6999ZM82.4638 24.5865C82.422 22.3642 81.6813 20.1107 80.5649 18.7544C78.4783 16.2426 75.364 16.7199 74.1799 19.7455C73.3974 21.746 73.4886 23.8196 73.7025 25.9063C73.8269 27.5015 74.5769 28.9829 75.7891 30.0274C77.5132 31.5584 79.1043 33.246 80.7006 34.9153C80.9659 35.1978 81.2908 35.4177 81.6517 35.5589C82.0127 35.7002 82.4006 35.7592 82.7872 35.7317C83.8077 35.7152 84.7907 35.3442 85.5677 34.6823C86.3447 34.0204 86.8673 33.1089 87.0458 32.1039C87.2244 31.099 87.0478 30.0632 86.5463 29.1742C86.0449 28.2852 85.2498 27.5983 84.2974 27.2313C82.5003 26.5323 82.5003 26.5323 82.4638 24.5865ZM67.5679 29.7874L67.5496 29.6674C66.3681 29.863 65.163 29.97 64.0102 30.2751C62.5 30.6716 61.1984 31.4437 60.9533 33.173C60.6924 34.9596 61.574 36.2455 63.0138 37.1819C64.6718 38.2345 66.6062 38.7685 68.5694 38.7156C70.2335 38.7156 70.3561 38.7938 70.9169 40.4109C71.2705 41.3978 71.9623 42.2275 72.8695 42.7527C73.7768 43.278 74.8407 43.4648 75.8726 43.2801C78.1053 42.8184 79.6573 40.8335 79.4225 38.6112C79.3499 38.0437 79.1049 37.512 78.7208 37.088C77.062 35.343 75.2466 33.7441 73.6608 31.9366C72.4584 30.5673 70.9873 30.0795 69.305 29.9074C68.739 29.8552 68.1522 29.8291 67.5679 29.7874Z" fill="url(#paint2_linear_1015_1366)"/>
<defs>
<linearGradient id="paint0_linear_1015_1366" x1="0.0175781" y1="68.007" x2="100.004" y2="68.007" gradientUnits="userSpaceOnUse">
<stop stop-color="#CCAB64"/>
<stop offset="1" stop-color="#FAECC9"/>
</linearGradient>
<linearGradient id="paint1_linear_1015_1366" x1="-0.00439453" y1="18.0112" x2="36.066" y2="18.0112" gradientUnits="userSpaceOnUse">
<stop stop-color="#CCAB64"/>
<stop offset="1" stop-color="#FAECC9"/>
</linearGradient>
<linearGradient id="paint2_linear_1015_1366" x1="57.9478" y1="30.2403" x2="90.0331" y2="30.2403" gradientUnits="userSpaceOnUse">
<stop stop-color="#CCAB64"/>
<stop offset="1" stop-color="#FAECC9"/>
</linearGradient>
</defs>
</svg>
