<svg width="81" height="80" viewBox="0 0 81 80" fill="none" xmlns="http://www.w3.org/2000/svg">
<path d="M11.2976 56.27V64.42C11.3126 64.6897 11.3126 64.9602 11.2976 65.2299C11.2176 65.7599 10.9476 66.1099 10.3676 66.0999C9.78756 66.0899 9.57757 65.7299 9.50757 65.2299C9.49748 65.0734 9.49748 64.9165 9.50757 64.76V36C9.50757 33.75 10.8675 32.08 12.8275 31.95C13.6775 31.95 14.5376 31.95 15.3976 31.95H15.9376C15.9376 31.68 15.9376 31.44 15.9376 31.2C15.9376 29.31 15.9376 27.42 15.9376 25.53C15.9066 24.9252 15.995 24.3202 16.1979 23.7497C16.4008 23.1791 16.714 22.6541 17.1198 22.2046C17.5257 21.7552 18.0161 21.39 18.563 21.1302C19.11 20.8703 19.7028 20.7207 20.3076 20.69C22.307 20.5967 24.31 20.6133 26.3076 20.74C26.8302 20.7561 27.3395 20.9085 27.785 21.1822C28.2305 21.4558 28.5968 21.8411 28.8476 22.3C29.7676 23.84 30.7276 25.3599 31.7276 26.9699C31.8876 26.6999 32.0076 26.51 32.1076 26.31C33.1076 24.4 34.0276 22.49 34.9576 20.58C35.0554 20.3281 35.2317 20.1143 35.4604 19.9702C35.6891 19.8262 35.9581 19.7595 36.2276 19.78H43.2276C44.3176 19.78 44.6676 20.38 44.2276 21.38C42.9876 23.87 41.7275 26.38 40.5075 28.86C40.4166 29.1372 40.3959 29.4327 40.4475 29.7199C40.4475 30.4299 40.5675 31.12 40.6375 31.87H41.4475C41.377 31.2453 41.377 30.6146 41.4475 29.99C41.5888 29.3697 41.9415 28.818 42.4451 28.4294C42.9487 28.0408 43.5718 27.8394 44.2076 27.86C45.9176 27.86 47.6276 27.86 49.3476 27.86C49.5111 27.8777 49.676 27.8427 49.8182 27.7599C49.9604 27.6771 50.0723 27.551 50.1375 27.4C50.9175 26.03 51.7276 24.69 52.5176 23.33C52.9653 22.4509 53.6599 21.7215 54.516 21.2312C55.3722 20.741 56.3527 20.5112 57.3376 20.57C59.0976 20.63 60.8476 20.57 62.6076 20.57C63.036 20.5133 63.4717 20.5544 63.882 20.6903C64.2922 20.8262 64.6663 21.0532 64.9762 21.3545C65.2861 21.6557 65.5237 22.0232 65.6712 22.4295C65.8186 22.8357 65.8721 23.2701 65.8275 23.7C65.8275 26.15 65.8275 28.61 65.8275 31.06V31.89H67.8476C68.7682 31.8716 69.6612 32.2047 70.3448 32.8214C71.0285 33.4382 71.4514 34.2924 71.5276 35.21C71.5425 35.4798 71.5425 35.7502 71.5276 36.02C71.5276 45.5733 71.5276 55.1199 71.5276 64.6599C71.5427 64.863 71.5427 65.0669 71.5276 65.27C71.5197 65.4866 71.4275 65.6916 71.2705 65.8411C71.1136 65.9906 70.9043 66.0727 70.6876 66.07C70.5746 66.0781 70.4611 66.0639 70.3536 66.028C70.2461 65.9922 70.1468 65.9355 70.0613 65.8612C69.9758 65.7868 69.9059 65.6963 69.8554 65.5949C69.805 65.4934 69.7752 65.383 69.7676 65.27C69.7476 65.0671 69.7476 64.8628 69.7676 64.6599V56.25H61.1876C61.1876 57.84 61.3076 59.4299 61.1876 60.9799C61.0665 61.6768 61.1698 62.3941 61.4825 63.0285C61.7952 63.6629 62.3012 64.1816 62.9276 64.51C64.6076 65.58 66.1376 66.8899 67.7376 68.0999C67.867 68.1886 67.9906 68.2855 68.1076 68.39C68.2051 68.4594 68.2869 68.5485 68.3475 68.6517C68.4082 68.7549 68.4463 68.8697 68.4595 68.9886C68.4727 69.1076 68.4607 69.228 68.4242 69.3419C68.3876 69.4559 68.3275 69.5609 68.2476 69.65C68.1818 69.7443 68.0969 69.8237 67.9984 69.883C67.8999 69.9424 67.7901 69.9803 67.676 69.9945C67.5619 70.0086 67.4461 69.9986 67.3361 69.9651C67.2261 69.9316 67.1244 69.8753 67.0376 69.8C66.5676 69.46 66.1075 69.1 65.6375 68.75L60.3175 64.75L56.1176 67.92L53.8076 69.67C53.1876 70.13 52.6675 70.11 52.3275 69.67C51.9875 69.23 52.1576 68.73 52.7276 68.3C54.7876 66.73 56.8476 65.17 58.9276 63.62C59.0839 63.5193 59.2112 63.3798 59.2972 63.2149C59.3831 63.0501 59.4246 62.8657 59.4176 62.68C59.4176 60.76 59.4176 58.85 59.4176 56.93C59.4176 56.74 59.4176 56.54 59.4176 56.31H57.0276C56.9265 56.9931 56.6052 57.6244 56.1124 58.1082C55.6196 58.5919 54.9824 58.9015 54.2976 58.99C53.6737 59.1278 53.0217 59.0542 52.4442 58.7809C51.8667 58.5075 51.3965 58.0498 51.1076 57.4799C50.9191 57.0517 50.5942 56.698 50.1836 56.4737C49.773 56.2494 49.2997 56.1672 48.8376 56.24C43.7276 56.3 38.6076 56.24 33.4976 56.24C33.3245 56.2097 33.1463 56.2467 32.9995 56.3434C32.8527 56.44 32.7482 56.589 32.7076 56.76C32.5335 57.4643 32.1225 58.0872 31.5434 58.5243C30.9644 58.9613 30.2526 59.1857 29.5276 59.1599C28.7493 59.1203 28.0087 58.813 27.431 58.29C26.8533 57.767 26.4741 57.0604 26.3576 56.2899H21.8175C21.8175 57.9599 21.9275 59.6099 21.8175 61.2899C21.7058 61.9207 21.799 62.5706 22.0833 63.1446C22.3676 63.7186 22.8281 64.1866 23.3976 64.4799C25.1476 65.6199 26.7576 66.98 28.3976 68.24C28.5244 68.3315 28.6446 68.4317 28.7575 68.5399C28.8455 68.6119 28.9178 68.7013 28.9699 68.8023C29.0219 68.9034 29.0527 69.0141 29.0602 69.1276C29.0677 69.241 29.0518 69.3548 29.0135 69.4619C28.9752 69.5689 28.9153 69.667 28.8376 69.75C28.7779 69.8408 28.6999 69.9181 28.6086 69.977C28.5173 70.0359 28.4147 70.0751 28.3073 70.0921C28.2 70.109 28.0903 70.1033 27.9853 70.0754C27.8803 70.0475 27.7823 69.998 27.6975 69.93C27.1975 69.59 26.6976 69.21 26.2376 68.84L20.9176 64.84L16.7176 68.01L14.3476 69.8C13.7976 70.21 13.3476 70.19 12.9676 69.8C12.8937 69.6889 12.8428 69.5641 12.8179 69.433C12.793 69.3019 12.7945 69.1672 12.8225 69.0367C12.8504 68.9062 12.9042 68.7827 12.9807 68.6734C13.0571 68.564 13.1546 68.4711 13.2676 68.4C15.3476 66.83 17.4375 65.26 19.5075 63.67C19.634 63.5756 19.7406 63.4573 19.8212 63.3217C19.9018 63.1862 19.955 63.0361 19.9776 62.88C19.9776 60.88 19.9776 58.7799 19.9776 56.7299C19.9776 56.6299 19.9776 56.52 19.9776 56.38L11.2976 56.27ZM49.0976 54.45L48.7476 53.82C48.0476 52.67 47.3476 51.52 46.6576 50.36C46.3346 49.908 46.1122 49.3922 46.0052 48.8471C45.8983 48.3021 45.9093 47.7404 46.0376 47.2C46.1437 46.8526 46.1532 46.4829 46.0651 46.1306C45.977 45.7782 45.7947 45.4565 45.5376 45.2C45.2555 44.8891 45.0437 44.521 44.9167 44.1209C44.7898 43.7207 44.7506 43.2979 44.8019 42.8813C44.8531 42.4646 44.9936 42.0639 45.2137 41.7064C45.4339 41.349 45.7285 41.0432 46.0775 40.81C47.6775 39.57 49.2876 38.34 50.8776 37.09C51.0376 36.96 51.2576 36.7099 51.2176 36.5999C51.0492 36.1255 50.987 35.6199 51.0354 35.1189C51.0838 34.6178 51.2416 34.1334 51.4976 33.7H28.3076C28.3428 34.2027 28.3428 34.7073 28.3076 35.21C28.2078 35.9492 28.3029 36.7016 28.5836 37.3927C28.8642 38.0838 29.3207 38.6896 29.9076 39.15C31.0776 40.24 32.2775 41.3 33.3875 42.45C34.1776 43.2747 34.8969 44.1645 35.5376 45.11C35.8237 45.5335 35.9969 46.0232 36.0406 46.5325C36.0844 47.0418 35.9973 47.5538 35.7876 48.02C35.2776 49.31 34.7876 50.63 34.3476 51.93C34.0476 52.75 33.7575 53.57 33.4475 54.43L49.0976 54.45ZM17.7676 31.58C17.7676 33.67 17.7176 35.77 17.7676 37.86C17.868 38.9082 18.0284 39.9499 18.2476 40.9799C18.3476 41.5699 18.6376 41.79 19.2476 41.77C20.5576 41.71 21.8676 41.77 23.1676 41.77C24.1421 41.7418 25.088 42.1014 25.7976 42.77C27.0876 44.03 28.3476 45.32 29.6276 46.58C30.0348 46.9395 30.3143 47.4214 30.4243 47.9533C30.5343 48.4852 30.4688 49.0385 30.2376 49.53C29.4876 51.45 28.8176 53.4099 28.1176 55.3499C28.026 55.533 27.9776 55.7347 27.9761 55.9394C27.9746 56.144 28.02 56.3463 28.1089 56.5307C28.1977 56.7151 28.3276 56.8767 28.4886 57.0031C28.6495 57.1296 28.8374 57.2174 29.0376 57.26C29.8576 57.51 30.4876 57.14 30.8376 56.19C31.8876 53.32 32.9076 50.45 33.9776 47.59C34.1351 47.2691 34.1963 46.9093 34.1537 46.5544C34.1111 46.1995 33.9665 45.8645 33.7376 45.59C33.0976 44.81 32.4276 44.04 31.7376 43.33C30.4776 42.07 29.1576 40.8799 27.9176 39.5999C27.0429 38.7983 26.5185 37.6849 26.4576 36.5C26.4576 34.5 26.4576 32.5 26.4576 30.5C26.4587 30.3051 26.5055 30.1131 26.594 29.9395C26.6826 29.7659 26.8105 29.6153 26.9676 29.5C27.1639 29.4596 27.3664 29.46 27.5625 29.5013C27.7587 29.5426 27.9442 29.6238 28.1076 29.74C28.9276 30.3 29.6675 30.96 30.4475 31.56C30.6126 31.7072 30.8182 31.8014 31.0376 31.83C33.2476 31.83 35.4476 31.83 37.6576 31.83C37.8645 31.8025 38.0623 31.7278 38.2358 31.6116C38.4092 31.4954 38.5535 31.3409 38.6576 31.1599C38.7267 30.9798 38.751 30.7855 38.7284 30.5939C38.7057 30.4023 38.6368 30.219 38.5276 30.06C38.2039 29.7659 37.7848 29.599 37.3476 29.59C35.6176 29.59 33.8776 29.59 32.1476 29.59C31.859 29.6165 31.5692 29.554 31.3172 29.411C31.0651 29.268 30.8629 29.0512 30.7376 28.7899C29.6376 26.9599 28.4775 25.17 27.3875 23.33C27.2322 23.0311 26.9938 22.7835 26.7011 22.6167C26.4085 22.45 26.0739 22.3712 25.7376 22.39C24.1176 22.39 22.4876 22.39 20.8676 22.39C20.4442 22.3509 20.0173 22.406 19.6178 22.5514C19.2182 22.6968 18.8558 22.9289 18.5566 23.231C18.2573 23.5331 18.0287 23.8977 17.8871 24.2987C17.7455 24.6996 17.6944 25.1269 17.7376 25.55C17.7576 27.57 17.7676 29.58 17.7676 31.58ZM57.7676 31.95C58.2476 31.88 58.6176 31.81 58.9976 31.78C59.3776 31.75 59.5776 31.58 59.5576 31.13C59.5576 30.13 59.5576 29.06 59.5576 28.03C59.5576 27.38 59.9176 26.97 60.4376 26.96C60.9576 26.95 61.3376 27.34 61.3476 27.96C61.3476 29.2 61.3476 30.44 61.3476 31.67C61.3611 31.8802 61.333 32.091 61.2649 32.2903C61.1968 32.4896 61.09 32.6736 60.9506 32.8315C60.8112 32.9895 60.6421 33.1183 60.4528 33.2107C60.2635 33.3031 60.0578 33.3572 59.8476 33.37C57.8009 33.7366 55.7409 34.07 53.6676 34.37C53.5423 34.3736 53.419 34.4028 53.3054 34.4557C53.1918 34.5087 53.0902 34.5843 53.0068 34.6779C52.9235 34.7716 52.8601 34.8813 52.8207 35.0003C52.7813 35.1193 52.7666 35.2451 52.7776 35.37C52.7772 35.6267 52.8757 35.8738 53.0526 36.06C53.2294 36.2461 53.4711 36.3571 53.7276 36.37C54.0853 36.3999 54.4455 36.3798 54.7976 36.31L62.5775 35.02C62.7967 35.0101 63.0116 34.9558 63.2091 34.8604C63.4067 34.765 63.5828 34.6304 63.7268 34.4649C63.8708 34.2994 63.9797 34.1064 64.0469 33.8976C64.1141 33.6887 64.1381 33.4684 64.1176 33.25C64.1176 29.9833 64.0842 26.72 64.0176 23.46C64.0176 22.55 63.6976 22.25 62.7876 22.25C60.9376 22.25 59.0976 22.31 57.2476 22.25C56.5825 22.2015 55.9182 22.3551 55.3418 22.6905C54.7655 23.026 54.3039 23.5277 54.0176 24.13C53.1676 25.61 52.2676 27.06 51.4376 28.56C51.3054 28.8663 51.079 29.1226 50.7913 29.2917C50.5036 29.4607 50.1695 29.5336 49.8376 29.5C48.0576 29.44 46.2775 29.5 44.5075 29.5C44.0505 29.5289 43.62 29.7246 43.2976 30.05C43.2038 30.2163 43.1546 30.404 43.1546 30.5949C43.1546 30.7859 43.2038 30.9736 43.2976 31.14C43.4406 31.3138 43.6168 31.4572 43.816 31.562C44.0152 31.6667 44.2333 31.7307 44.4576 31.75C46.9976 31.8 49.5376 31.75 52.0876 31.75C52.2376 31.75 52.3775 31.75 52.5675 31.75C52.5675 30.91 52.5675 30.0999 52.5675 29.2899C52.5675 28.4799 52.9075 28.21 53.6375 28.19C54.6375 28.19 55.7076 28.19 56.7476 28.19C57.5176 28.19 57.8175 28.53 57.8175 29.33L57.7676 31.95ZM61.1676 48.63V54.44H69.6276C69.6555 54.3662 69.6724 54.2887 69.6776 54.21C69.6776 47.9767 69.6776 41.7467 69.6776 35.52C69.678 35.0508 69.4973 34.5996 69.1731 34.2605C68.8489 33.9214 68.4063 33.7206 67.9376 33.7C67.2676 33.64 66.5976 33.7 66.0476 33.7C65.8375 34.3833 65.5311 35.0332 65.1375 35.63C64.8729 35.8988 64.676 36.2267 64.563 36.5866C64.4499 36.9465 64.4241 37.3281 64.4876 37.7C64.5764 38.1653 64.5148 38.6468 64.3116 39.0747C64.1084 39.5026 63.7743 39.8547 63.3576 40.08C62.6807 40.5655 62.0298 41.0862 61.4076 41.64C62.7176 41.76 63.9476 41.74 65.1876 41.77C65.4808 41.7571 65.7734 41.8056 66.0468 41.9122C66.3202 42.0188 66.5684 42.1813 66.7754 42.3893C66.9825 42.5973 67.1438 42.8462 67.2492 43.1201C67.3546 43.394 67.4017 43.6868 67.3875 43.9799C67.3875 44.6599 67.3875 45.3299 67.3875 45.9799C67.3875 47.7999 66.5676 48.61 64.7476 48.61L61.1676 48.63ZM15.7676 33.63H13.5675C11.9675 33.63 11.2676 34.33 11.2676 35.93V54.4H19.8476V48.62H19.1476C18.0676 48.62 16.9876 48.62 15.9076 48.62C15.6021 48.6327 15.2974 48.5819 15.0125 48.4708C14.7277 48.3597 14.4691 48.1907 14.253 47.9746C14.0368 47.7584 13.8678 47.4997 13.7567 47.2149C13.6457 46.9301 13.5949 46.6254 13.6076 46.32C13.6076 45.49 13.6076 44.66 13.6076 43.82C13.6228 43.2741 13.8471 42.7549 14.2342 42.3697C14.6213 41.9844 15.1416 41.7626 15.6876 41.75H16.4176L15.7676 33.63ZM62.6276 37L58.4976 37.7299C58.3726 37.773 58.2595 37.845 58.1676 37.94C54.9976 40.6 51.8176 43.25 48.6576 45.94C48.1787 46.3272 47.8561 46.8748 47.7495 47.4814C47.6429 48.0879 47.7594 48.7126 48.0775 49.24C49.5042 51.6866 50.9709 54.11 52.4776 56.51C52.7224 56.8433 53.0762 57.0803 53.4776 57.18C53.7396 57.2611 54.021 57.2531 54.278 57.1572C54.5349 57.0613 54.7528 56.8829 54.8976 56.65C55.068 56.4087 55.1595 56.1204 55.1595 55.825C55.1595 55.5295 55.068 55.2413 54.8976 55L51.7575 49.81C51.4933 49.4554 51.3448 49.028 51.3323 48.586C51.3198 48.144 51.4438 47.7089 51.6876 47.34C51.974 46.9628 52.3104 46.6264 52.6876 46.34C55.7776 43.86 58.8476 41.34 61.9776 38.94C62.2831 38.7321 62.5121 38.4299 62.6295 38.0795C62.7469 37.7291 62.7462 37.3499 62.6276 37ZM21.7176 54.4799C23.2776 54.4799 24.7176 54.4799 26.2376 54.4799C26.3514 54.446 26.4563 54.387 26.5445 54.3075C26.6327 54.2279 26.7021 54.1297 26.7476 54.02C27.3676 52.41 27.9476 50.7799 28.5376 49.1599C28.8676 48.2599 28.6875 47.8399 27.7575 47.4099C27.5312 47.8277 27.1864 48.1693 26.7665 48.3918C26.3466 48.6142 25.8703 48.7074 25.3976 48.6599C24.6776 48.6599 23.9576 48.6599 23.2376 48.6599H21.7176V54.4799ZM42.1076 21.5999C40.2176 21.5999 38.4776 21.5999 36.7276 21.5999C36.5576 21.5999 36.3276 21.8499 36.2276 22.0399C35.3076 23.8399 34.4075 25.65 33.5075 27.45C33.4542 27.6003 33.4108 27.7539 33.3776 27.9099H38.9475L42.1076 21.5999ZM20.7476 46.82C22.2576 46.82 23.7476 46.82 25.2776 46.82C25.5776 46.82 26.0576 46.71 26.1276 46.53C26.23 46.3283 26.2611 46.0979 26.2157 45.8763C26.1703 45.6547 26.0511 45.4551 25.8776 45.31C25.4576 44.96 25.1476 44.49 24.7076 44.19C24.2949 43.8573 23.8015 43.64 23.2776 43.56C20.8476 43.5 18.4176 43.56 15.9876 43.56C15.5076 43.56 15.3476 43.7699 15.3576 44.2199C15.3576 44.8499 15.3576 45.48 15.3576 46.11C15.3576 46.74 15.5276 46.88 16.0876 46.87C17.6476 46.8 19.1976 46.82 20.7476 46.82ZM55.1076 46.68C55.1976 46.76 55.2076 46.78 55.2276 46.78C58.5276 46.78 61.8275 46.78 65.1375 46.78C65.3075 46.78 65.6076 46.45 65.6276 46.25C65.6876 45.59 65.6276 44.91 65.6276 44.25C65.6276 43.59 65.3976 43.52 64.8676 43.52C63.0676 43.52 61.2676 43.52 59.4676 43.52C59.227 43.5137 58.9901 43.5799 58.7876 43.71C57.5776 44.69 56.3576 45.68 55.1076 46.68ZM59.2776 54.4799V48.63C58.1876 48.63 57.1376 48.63 56.0876 48.63C55.6482 48.6928 55.2006 48.663 54.7735 48.5424C54.3464 48.4219 53.9492 48.2132 53.6076 47.93C53.0576 48.18 52.9976 48.48 53.2976 48.93C54.3576 50.65 55.3875 52.3799 56.4475 54.0999C56.5013 54.1876 56.5742 54.262 56.6608 54.3174C56.7474 54.3728 56.8454 54.4079 56.9475 54.42C57.7075 54.5 58.4676 54.4799 59.2776 54.4799ZM54.8476 38.37C54.2507 38.3791 53.6544 38.3288 53.0675 38.2199C52.8965 38.1631 52.7133 38.1536 52.5373 38.1923C52.3612 38.231 52.1989 38.3166 52.0675 38.44L47.4876 42C46.2976 42.93 46.2676 43.5099 47.3976 44.6599L54.8476 38.37ZM55.9976 30.15H54.3576V32.43L55.9976 32.18V30.15Z" fill="white"/>
<path d="M27.3975 14.6805C27.3975 15.9086 26.9117 17.0868 26.0462 17.958C25.1806 18.8292 24.0056 19.3226 22.7775 19.3305C21.549 19.3203 20.3731 18.8304 19.5007 17.9654C18.6283 17.1005 18.1283 15.9289 18.1075 14.7005C18.1035 14.0788 18.2236 13.4625 18.4609 12.8879C18.6981 12.3132 19.0477 11.7916 19.4892 11.3539C19.9307 10.9161 20.4552 10.5709 21.0319 10.3385C21.6086 10.1061 22.2258 9.99119 22.8475 10.0005C23.4538 10.0083 24.0526 10.1357 24.6095 10.3752C25.1665 10.6148 25.6708 10.9619 26.0934 11.3966C26.5161 11.8313 26.8488 12.3452 27.0725 12.9087C27.2963 13.4722 27.4068 14.0743 27.3975 14.6805ZM25.6475 14.6805C25.6423 13.9164 25.3379 13.1848 24.7995 12.6427C24.261 12.1005 23.5315 11.791 22.7675 11.7806C22.0175 11.7883 21.3 12.0882 20.7678 12.6167C20.2356 13.1452 19.9305 13.8606 19.9175 14.6105C19.9082 14.9881 19.9741 15.3638 20.1112 15.7157C20.2484 16.0677 20.4542 16.3888 20.7166 16.6605C20.979 16.9322 21.2928 17.149 21.6397 17.2984C21.9866 17.4477 22.3598 17.5267 22.7375 17.5306C23.4981 17.5333 24.2293 17.2372 24.7736 16.706C25.3179 16.1747 25.6318 15.4509 25.6475 14.6905V14.6805Z" fill="white"/>
<path d="M58.8473 10C60.0763 10.0026 61.2545 10.4906 62.1254 11.3578C62.9963 12.2249 63.4894 13.401 63.4973 14.63C63.492 15.8704 62.9956 17.0582 62.1166 17.9334C61.2376 18.8086 60.0477 19.3 58.8073 19.3C57.5783 19.2816 56.4058 18.7805 55.5432 17.9048C54.6806 17.0291 54.1971 15.8492 54.1973 14.62C54.2052 13.3919 54.6986 12.2169 55.5698 11.3513C56.441 10.4858 57.6192 9.99997 58.8473 10ZM58.8473 11.76C58.085 11.7757 57.3591 12.0889 56.8247 12.6326C56.2903 13.1764 55.9898 13.9076 55.9873 14.67C56.0053 15.421 56.313 16.136 56.846 16.6653C57.3791 17.1946 58.0962 17.4973 58.8473 17.51C59.6095 17.5074 60.3401 17.2048 60.8809 16.6677C61.4218 16.1306 61.7294 15.4022 61.7373 14.64C61.7167 13.8838 61.4044 13.1648 60.8657 12.6335C60.3271 12.1023 59.6038 11.8 58.8473 11.79V11.76Z" fill="white"/>
</svg>
