<svg width="81" height="80" viewBox="0 0 81 80" fill="none" xmlns="http://www.w3.org/2000/svg">
<path d="M71.923 61.467C71.7935 61.9461 71.5406 62.3828 71.1897 62.7337C70.8388 63.0846 70.4021 63.3375 69.923 63.467C69.4871 63.5459 69.0459 63.5928 68.603 63.607V66.907H69.173C69.2877 66.9057 69.4014 66.9273 69.5076 66.9705C69.6137 67.0138 69.7101 67.0778 69.7912 67.1589C69.8723 67.2399 69.9363 67.3363 69.9796 67.4425C70.0228 67.5487 70.0444 67.6624 70.043 67.777C70.0568 67.8984 70.0458 68.0214 70.0105 68.1384C69.9752 68.2554 69.9165 68.364 69.838 68.4576C69.7594 68.5511 69.6625 68.6277 69.5533 68.6826C69.4442 68.7375 69.325 68.7697 69.2031 68.777H42.863C42.623 68.777 42.293 68.777 42.163 68.657C42.033 68.537 41.633 68.007 41.673 67.717C41.713 67.427 42.123 67.157 42.423 66.957C42.563 66.857 42.8231 66.957 43.0731 66.957V63.657C42.4405 63.7613 41.7911 63.653 41.2266 63.349C40.6621 63.045 40.2143 62.5626 39.9531 61.977C38.6831 62.117 37.3931 62.2171 36.1231 62.4271C33.0431 62.9171 29.9631 63.427 26.8731 63.977C26.4731 64.037 26.3331 64.1671 26.3731 64.5571C26.3981 64.8632 26.3981 65.1709 26.3731 65.477C26.3652 65.7167 26.2631 65.9435 26.089 66.1083C25.9149 66.273 25.6827 66.3624 25.4431 66.357C25.2025 66.3544 24.9725 66.2577 24.8024 66.0876C24.6323 65.9175 24.5356 65.6876 24.533 65.447C24.533 65.147 24.533 64.837 24.533 64.447C22.923 64.837 21.373 65.157 19.853 65.577C16.593 66.487 13.3331 67.457 10.0731 68.397C9.84712 68.4853 9.60543 68.5261 9.36304 68.517C9.15325 68.5023 8.95634 68.4103 8.81043 68.2588C8.66451 68.1074 8.57997 67.9072 8.57306 67.697C8.54088 67.4696 8.59782 67.2387 8.732 67.0523C8.86618 66.8659 9.06719 66.7386 9.29303 66.697C10.683 66.257 12.073 65.777 13.483 65.407C13.6116 65.396 13.7362 65.3576 13.8486 65.2942C13.9609 65.2308 14.0583 65.144 14.1342 65.0397C14.21 64.9353 14.2626 64.816 14.2883 64.6896C14.314 64.5632 14.3122 64.4327 14.283 64.3071C14.223 63.2371 14.283 62.167 14.283 61.087C14.2601 60.8226 14.1388 60.5763 13.9431 60.397C12.2389 59.2346 10.8552 57.6613 9.92011 55.8226C8.98499 53.9838 8.52855 51.9389 8.59302 49.877C8.52229 44.8945 9.59297 39.9619 11.723 35.457C12.2192 34.4868 12.7804 33.5514 13.403 32.657C13.5899 32.3375 13.8571 32.0725 14.1782 31.8884C14.4992 31.7042 14.8629 31.6073 15.233 31.6073C15.6032 31.6073 15.9669 31.7042 16.2879 31.8884C16.609 32.0725 16.8762 32.3375 17.0631 32.657C17.9431 34.037 18.6631 35.527 19.4531 36.967C19.5609 37.1853 19.6577 37.4089 19.743 37.637C20.023 36.717 20.233 35.917 20.493 35.127C20.5239 35.0118 20.5778 34.9041 20.6516 34.8104C20.7254 34.7166 20.8174 34.6388 20.9222 34.5818C21.0269 34.5247 21.1422 34.4896 21.261 34.4784C21.3798 34.4673 21.4995 34.4804 21.613 34.517C21.7319 34.5505 21.843 34.6071 21.94 34.6835C22.037 34.7599 22.118 34.8547 22.1783 34.9624C22.2387 35.0701 22.2773 35.1886 22.2918 35.3113C22.3063 35.4339 22.2966 35.5582 22.2631 35.6771L22.173 36.037C21.1167 39.4713 20.6303 43.0554 20.733 46.647C20.778 48.1104 21.138 49.5469 21.7886 50.8585C22.4392 52.17 23.3651 53.3259 24.5031 54.2471C24.5031 54.0271 24.5031 53.877 24.5631 53.727C24.5631 52.427 24.5631 51.127 24.5631 49.827C24.5292 49.4949 24.4085 49.1776 24.213 48.907C23.9398 48.5535 23.6425 48.2194 23.3231 47.907C22.7931 47.297 22.703 46.8471 23.023 46.4271C23.343 46.0071 23.8131 45.977 24.5731 46.357C24.5731 45.267 24.5731 44.197 24.5731 43.137C24.5471 42.9798 24.4697 42.8356 24.353 42.727C24.023 42.327 23.683 41.9471 23.353 41.5571C22.843 40.9771 22.743 40.497 23.053 40.077C23.363 39.657 23.833 39.617 24.613 40.007C24.613 39.277 24.613 38.587 24.613 37.907C24.613 37.227 24.993 36.827 25.543 36.827C25.6754 36.8371 25.8045 36.8734 25.9227 36.9338C26.0409 36.9943 26.1459 37.0777 26.2316 37.1792C26.3172 37.2807 26.3818 37.3981 26.4215 37.5248C26.4613 37.6515 26.4753 37.7848 26.463 37.917C26.463 39.457 26.463 40.997 26.463 42.597L26.843 42.387C27.0333 42.2751 27.259 42.2397 27.4744 42.288C27.6898 42.3363 27.8788 42.4646 28.0031 42.647C28.1436 42.8016 28.2214 43.0031 28.2214 43.212C28.2214 43.421 28.1436 43.6224 28.0031 43.777C27.5931 44.297 27.133 44.777 26.713 45.287C26.5761 45.4554 26.4925 45.6608 26.473 45.877C26.473 46.877 26.473 47.877 26.473 48.877C26.5685 48.8501 26.6621 48.8167 26.7531 48.777C26.8472 48.704 26.9551 48.6508 27.0704 48.6208C27.1857 48.5907 27.306 48.5843 27.4238 48.6021C27.5416 48.6199 27.6546 48.6614 27.7559 48.7241C27.8572 48.7868 27.9447 48.8695 28.0131 48.967C28.1591 49.1467 28.2328 49.3744 28.2199 49.6056C28.2069 49.8368 28.1082 50.0548 27.9431 50.217L27.773 50.397C26.373 51.987 26.3731 51.987 26.5031 54.197C26.6531 54.087 26.7831 54.017 26.8931 53.917C27.9789 52.9579 28.8462 51.7768 29.4362 50.4535C30.0262 49.1303 30.3253 47.6958 30.3131 46.2471C30.4035 41.4117 29.3768 36.6208 27.3131 32.2471C26.9031 31.4171 26.373 30.657 25.903 29.857C25.623 29.387 25.363 29.427 25.093 29.857C24.673 30.567 24.2331 31.267 23.8231 31.977C23.4131 32.687 22.9631 32.8071 22.4531 32.5471C22.3352 32.4753 22.2335 32.3799 22.1544 32.2669C22.0752 32.1539 22.0203 32.0257 21.993 31.8905C21.9658 31.7552 21.9668 31.6158 21.9961 31.4809C22.0254 31.3461 22.0822 31.2188 22.163 31.107C22.6269 30.2582 23.1343 29.4337 23.683 28.637C23.8732 28.3201 24.1421 28.0579 24.4637 27.8758C24.7853 27.6938 25.1485 27.5981 25.5181 27.5981C25.8876 27.5981 26.2508 27.6938 26.5724 27.8758C26.894 28.0579 27.1629 28.3201 27.353 28.637C29.231 31.3485 30.5469 34.4087 31.223 37.637C31.8999 40.5298 32.2057 43.497 32.1331 46.467C32.113 48.3942 31.6291 50.2882 30.7222 51.9888C29.8154 53.6894 28.5122 55.1466 26.923 56.2371C26.7496 56.335 26.6093 56.4825 26.5202 56.6606C26.4311 56.8388 26.3973 57.0395 26.423 57.2371C26.423 58.8671 26.423 60.497 26.423 62.107L39.0631 60.107C39.0631 58.667 39.0631 57.107 39.0631 55.657C39.0631 55.507 38.873 55.317 38.723 55.207C37.3724 54.2877 36.2211 53.1053 35.3379 51.7308C34.4547 50.3562 33.8579 48.8176 33.583 47.207C33.4182 46.169 33.3579 45.1171 33.403 44.067C33.3975 39.9069 34.1708 35.7826 35.683 31.907C36.213 30.617 36.893 29.3871 37.553 28.0571C36.2128 26.4399 34.373 25.3142 32.3231 24.857C30.4279 24.3958 28.4376 24.5178 26.613 25.207C25.703 25.537 25.2531 25.277 25.0631 24.317C24.9879 23.75 24.7293 23.2231 24.3266 22.8168C23.9239 22.4106 23.3994 22.1472 22.833 22.067C22.063 21.897 21.893 21.677 21.833 20.877C21.8794 19.4588 21.3809 18.0767 20.4398 17.0147C19.4987 15.9527 18.1865 15.2916 16.773 15.167C16.5006 15.1655 16.2387 15.0619 16.0388 14.8768C15.8389 14.6917 15.7155 14.4385 15.6931 14.167C15.6173 13.4942 15.285 12.8764 14.7653 12.4424C14.2456 12.0084 13.5786 11.7916 12.903 11.837C12.247 11.8725 11.6268 12.1478 11.1604 12.6106C10.694 13.0733 10.4138 13.6913 10.3731 14.347V14.467C10.3031 15.087 9.91305 15.467 9.37305 15.467C9.11841 15.4344 8.88608 15.3052 8.72412 15.106C8.56217 14.9068 8.48301 14.653 8.50306 14.397C8.5195 13.7928 8.65696 13.1981 8.90729 12.6479C9.15762 12.0978 9.51572 11.6034 9.96045 11.1941C10.4052 10.7848 10.9275 10.4689 11.4965 10.265C12.0654 10.0611 12.6695 9.97336 13.273 10.007C14.1565 10.0333 15.0114 10.3262 15.7253 10.8474C16.4393 11.3686 16.9788 12.0936 17.273 12.9271C17.3256 13.0757 17.4176 13.2072 17.5391 13.3075C17.6607 13.4079 17.8072 13.4735 17.963 13.4971C19.4281 13.8418 20.7535 14.6244 21.7628 15.7409C22.7721 16.8574 23.4174 18.2548 23.613 19.7471C23.6126 19.9362 23.6725 20.1206 23.784 20.2734C23.8955 20.4263 24.0528 20.5396 24.233 20.597C25.2403 21.0051 26.0479 21.7912 26.483 22.787C26.623 23.107 26.7731 23.187 27.1331 23.107C29.1582 22.5576 31.2943 22.5659 33.3151 23.131C35.336 23.696 37.1665 24.7969 38.613 26.317C38.7044 26.391 38.8107 26.4445 38.9246 26.4739C39.0384 26.5032 39.1572 26.5077 39.273 26.4871C39.7372 26.3263 40.2422 26.3278 40.7054 26.4913C41.1686 26.6547 41.5626 26.9705 41.8231 27.387C42.3831 28.197 42.893 29.047 43.423 29.887C44.336 29.7227 45.2575 29.6092 46.183 29.5471C46.4793 29.562 46.7741 29.4953 47.035 29.3542C47.296 29.2132 47.5132 29.0031 47.663 28.7471C48.7175 27.2255 50.2156 26.0662 51.9531 25.4271L52.6331 25.167C52.5545 24.4464 52.6679 23.7178 52.9618 23.0552C53.2557 22.3925 53.7197 21.8194 54.3066 21.394C54.8935 20.9685 55.5825 20.7058 56.3037 20.6326C57.0248 20.5594 57.7526 20.6782 58.413 20.977C59.4639 19.5617 60.9729 18.5545 62.683 18.127C63.6713 17.885 64.6984 17.8464 65.702 18.0134C66.7056 18.1803 67.6648 18.5495 68.5214 19.0984C69.378 19.6474 70.1141 20.3646 70.6851 21.2067C71.2561 22.0488 71.65 22.9981 71.843 23.9971C71.8756 24.1129 71.9157 24.2264 71.963 24.337V25.817C71.593 26.147 71.223 26.497 70.673 26.257C70.123 26.017 70.123 25.5571 70.083 25.0571C70.0133 23.8555 69.5569 22.7086 68.7819 21.7877C68.007 20.8668 66.955 20.2211 65.783 19.947C64.6565 19.6761 63.4736 19.7625 62.3984 20.1944C61.3232 20.6262 60.4091 21.3821 59.783 22.357C59.103 23.417 58.873 23.457 57.783 22.827C57.4544 22.6077 57.0681 22.4907 56.673 22.4907C56.2779 22.4907 55.8917 22.6077 55.5631 22.827C55.2265 23.0233 54.9499 23.3077 54.7631 23.6496C54.5763 23.9915 54.4864 24.3778 54.5031 24.767C54.5496 24.7949 54.6001 24.8151 54.653 24.827C54.7561 24.837 54.8599 24.837 54.963 24.827C57.3145 24.6958 59.6278 25.4645 61.433 26.977C62.0437 27.4995 62.5999 28.0825 63.093 28.717C63.1698 28.8092 63.226 28.9167 63.2578 29.0323C63.2895 29.148 63.2961 29.2691 63.2772 29.3875C63.2582 29.5059 63.2142 29.6189 63.1479 29.7189C63.0816 29.8188 62.9948 29.9035 62.8931 29.967C62.7175 30.1144 62.4909 30.1866 62.2625 30.1679C62.034 30.1492 61.8222 30.0411 61.673 29.8671C61.553 29.7571 61.453 29.6171 61.343 29.4971C60.3203 28.2398 58.9243 27.3404 57.3568 26.9287C55.7893 26.5171 54.1315 26.6145 52.6231 27.207C51.2321 27.7274 50.0323 28.6586 49.183 29.877C50.9791 30.3755 52.6001 31.3662 53.863 32.7371C54.353 33.2571 54.393 33.807 53.993 34.207C53.593 34.607 53.073 34.547 52.483 34.027C51.8699 33.4418 51.1999 32.9192 50.483 32.467C49.5405 31.9161 48.4936 31.5675 47.4089 31.4435C46.3242 31.3196 45.2256 31.423 44.183 31.7471C44.273 31.9871 44.353 32.167 44.423 32.357C44.733 33.357 45.073 34.3571 45.363 35.2971C45.4322 35.5278 45.4081 35.7764 45.2959 35.9896C45.1837 36.2027 44.9924 36.3634 44.7631 36.4371C44.5399 36.5103 44.2972 36.4963 44.0839 36.398C43.8706 36.2997 43.7024 36.1243 43.613 35.907C43.554 35.7534 43.5039 35.5965 43.463 35.4371C42.8309 33.0448 41.7998 30.7763 40.413 28.727C40.023 28.177 39.863 28.147 39.533 28.727C38.7485 30.0159 38.0438 31.3518 37.423 32.727C35.8408 36.7239 35.0856 41.0001 35.2031 45.2971C35.2161 46.6841 35.515 48.0535 36.0811 49.3199C36.6471 50.5862 37.4682 51.7223 38.493 52.657C38.6384 52.79 38.792 52.9136 38.9531 53.027C38.9805 52.9663 39.0007 52.9025 39.0131 52.837C38.968 51.9709 38.968 51.1031 39.0131 50.2371C39.1362 49.5728 39.0776 48.8877 38.8434 48.254C38.6093 47.6203 38.2084 47.0616 37.683 46.637C37.572 46.5672 37.4769 46.4747 37.4041 46.3655C37.3313 46.2564 37.2825 46.133 37.2607 46.0036C37.239 45.8742 37.2449 45.7417 37.2781 45.6147C37.3112 45.4878 37.3709 45.3693 37.4531 45.267C37.7631 44.837 38.1931 44.797 38.8731 45.127C38.8731 45.127 38.943 45.127 38.983 45.127C39.0836 44.0615 39.0635 42.9881 38.923 41.9271C38.753 41.2471 37.983 40.717 37.493 40.107C37.3403 39.9486 37.2549 39.7371 37.2549 39.517C37.2549 39.2969 37.3403 39.0855 37.493 38.9271C37.6221 38.7469 37.815 38.6228 38.0324 38.5801C38.2498 38.5373 38.4754 38.5791 38.663 38.697C38.7732 38.754 38.8867 38.8041 39.0031 38.847C39.0031 38.067 39.0031 37.347 39.0031 36.627C39.0024 36.4995 39.0286 36.3734 39.0798 36.2567C39.1311 36.14 39.2063 36.0353 39.3005 35.9495C39.3948 35.8637 39.5061 35.7987 39.6271 35.7587C39.7481 35.7186 39.8762 35.7044 40.0031 35.717C40.1221 35.7183 40.2397 35.7432 40.3491 35.7903C40.4584 35.8373 40.5574 35.9056 40.6401 35.9912C40.7229 36.0768 40.7879 36.178 40.8313 36.2888C40.8747 36.3997 40.8957 36.518 40.8931 36.637C40.8931 36.857 40.8931 37.087 40.8931 37.317V41.417C40.9648 41.4039 41.0351 41.3838 41.103 41.357C41.1979 41.2754 41.3087 41.2145 41.4284 41.1781C41.5481 41.1417 41.6741 41.1307 41.7983 41.1458C41.9226 41.1609 42.0423 41.2016 42.1498 41.2656C42.2574 41.3295 42.3504 41.4151 42.423 41.517C42.5697 41.7188 42.6356 41.9682 42.6079 42.2161C42.5801 42.464 42.4607 42.6927 42.273 42.857C41.9187 43.2425 41.5849 43.6464 41.273 44.067C41.0867 44.3022 40.9753 44.5878 40.9531 44.887C40.9531 47.4537 40.9531 50.0304 40.9531 52.6171C40.9614 52.7712 40.9781 52.9247 41.0031 53.077C41.3752 52.9203 41.6834 52.6424 41.8777 52.2884C42.0719 51.9344 42.1408 51.5251 42.0731 51.127C42.043 50.9416 42.043 50.7525 42.0731 50.567C42.0733 50.1274 42.2184 49.7001 42.486 49.3512C42.7535 49.0023 43.1285 48.7513 43.553 48.637C43.8271 48.6031 44.0796 48.4709 44.2635 48.2649C44.4474 48.059 44.5503 47.7932 44.553 47.517C44.553 47.277 44.653 47.0371 44.683 46.7971C44.9084 44.5375 44.8378 42.2583 44.473 40.017C44.383 39.297 44.623 38.807 45.173 38.707C45.723 38.607 46.2331 38.917 46.3231 39.707C46.4631 40.707 46.5731 41.797 46.6331 42.837C46.8422 44.7385 46.7101 46.662 46.243 48.517H67.423C67.7382 48.4932 68.0548 48.5377 68.3512 48.6472C68.6476 48.7568 68.917 48.9289 69.1409 49.1518C69.3649 49.3748 69.5381 49.6435 69.6489 49.9394C69.7597 50.2354 69.8055 50.5518 69.783 50.8671C69.783 51.9771 69.783 53.087 69.783 54.207C69.8214 54.7046 69.6954 55.201 69.4244 55.6201C69.1535 56.0392 68.7525 56.3578 68.283 56.527C68.163 56.527 68.003 56.727 67.993 56.837C67.993 57.317 67.993 57.837 67.993 58.337H69.1431C69.5241 58.3089 69.9066 58.3641 70.264 58.4988C70.6215 58.6335 70.9453 58.8445 71.213 59.1171C71.5195 59.5201 71.7969 59.9445 72.043 60.387L71.923 61.467ZM62.663 56.467C62.063 56.467 61.5331 56.467 61.0031 56.467C60.7466 56.4542 60.5049 56.3432 60.3281 56.157C60.1512 55.9709 60.0527 55.7238 60.053 55.467C60.0708 55.2141 60.1839 54.9774 60.3696 54.8047C60.5552 54.6321 60.7995 54.5364 61.053 54.537C61.2162 54.527 61.3799 54.527 61.543 54.537C63.403 54.537 65.253 54.537 67.113 54.537C67.683 54.537 67.873 54.347 67.853 53.787C67.853 52.787 67.853 51.787 67.853 50.787C67.853 50.317 67.703 50.1171 67.213 50.1171H44.533C44.033 50.1171 43.893 50.317 43.913 50.787C43.913 51.787 43.913 52.7271 43.913 53.6871C43.913 54.4971 43.913 54.4971 44.743 54.4971H56.433C56.683 54.4971 56.993 54.497 57.163 54.567C57.333 54.637 57.823 55.087 57.843 55.387C57.863 55.687 57.543 56.057 57.273 56.287C57.003 56.517 56.7631 56.397 56.5031 56.397H49.053V58.017H62.663V56.467ZM14.2531 58.197C14.2531 56.507 14.2531 54.987 14.2531 53.457C14.2245 53.2594 14.1374 53.0748 14.0031 52.9271C13.5931 52.4171 13.133 51.9271 12.723 51.4271C12.5803 51.2735 12.501 51.0717 12.501 50.8621C12.501 50.6524 12.5803 50.4506 12.723 50.2971C12.8458 50.1273 13.0264 50.0082 13.2308 49.9622C13.4352 49.9162 13.6493 49.9464 13.833 50.0471L14.233 50.2371C14.233 49.2371 14.233 48.237 14.233 47.327C14.2102 47.0297 14.1026 46.7451 13.923 46.507C13.593 46.067 13.203 45.6671 12.833 45.2471C12.6476 45.0931 12.5308 44.8718 12.5083 44.6318C12.4858 44.3919 12.5594 44.1528 12.713 43.967C12.7832 43.8703 12.8721 43.7885 12.9742 43.7265C13.0764 43.6644 13.1899 43.6233 13.3082 43.6056C13.4264 43.588 13.547 43.594 13.6628 43.6235C13.7787 43.6529 13.8876 43.7051 13.983 43.777L14.2531 43.897C14.2531 43.107 14.2531 42.367 14.2531 41.627C14.2557 41.5075 14.2818 41.3897 14.3299 41.2803C14.378 41.1709 14.4473 41.072 14.5336 40.9894C14.62 40.9067 14.7218 40.8419 14.8333 40.7986C14.9447 40.7553 15.0635 40.7344 15.183 40.7371C15.3019 40.7316 15.4207 40.7504 15.5321 40.7922C15.6435 40.834 15.7453 40.898 15.8313 40.9802C15.9173 41.0625 15.9857 41.1613 16.0324 41.2707C16.0791 41.3802 16.1032 41.4981 16.103 41.6171C16.103 42.2571 16.103 42.897 16.103 43.537V46.457C16.1884 46.4329 16.2719 46.4029 16.353 46.3671C16.4455 46.2917 16.5522 46.2356 16.6668 46.2023C16.7813 46.1689 16.9014 46.159 17.0198 46.173C17.1383 46.187 17.2528 46.2246 17.3564 46.2837C17.46 46.3429 17.5507 46.4222 17.6231 46.517C17.7046 46.6122 17.7663 46.7228 17.8044 46.8422C17.8426 46.9616 17.8565 47.0875 17.8453 47.2123C17.8342 47.3372 17.7981 47.4585 17.7393 47.5693C17.6805 47.68 17.6002 47.7778 17.5031 47.857C17.1231 48.287 16.733 48.717 16.363 49.157C16.2303 49.3098 16.1436 49.497 16.113 49.697C16.113 50.697 16.113 51.7471 16.113 52.7971C16.1883 52.785 16.262 52.7649 16.333 52.7371C16.4272 52.654 16.5379 52.5917 16.6578 52.5545C16.7778 52.5172 16.9043 52.5058 17.0289 52.5209C17.1536 52.536 17.2737 52.5773 17.3812 52.6421C17.4888 52.707 17.5814 52.7938 17.653 52.897C17.7997 53.0988 17.8656 53.3482 17.8378 53.5961C17.8101 53.844 17.6907 54.0727 17.5031 54.2371C17.3089 54.4779 17.0984 54.7051 16.8731 54.917C15.7531 55.787 16.1831 56.967 16.1231 58.217C17.9093 56.746 19.1634 54.7296 19.6931 52.477C19.9196 51.7904 19.8767 51.0432 19.5731 50.387C19.4047 50.0118 19.2773 49.6196 19.1931 49.217C18.7608 47.2476 18.6561 45.2205 18.8831 43.217C18.9627 42.6498 18.9627 42.0742 18.8831 41.507C18.2932 38.7618 17.1832 36.1549 15.613 33.827C15.213 33.247 15.0531 33.227 14.7031 33.827C14.0513 34.8514 13.4603 35.9133 12.933 37.007C11.5355 40.2016 10.7096 43.6168 10.493 47.097C10.2293 48.9989 10.3071 50.9326 10.723 52.8071C11.3124 54.9318 12.5457 56.8218 14.2531 58.217V58.197ZM24.523 62.407C24.523 60.807 24.523 59.217 24.523 57.637C24.58 57.2884 24.5257 56.9307 24.3677 56.6147C24.2097 56.2988 23.9562 56.0406 23.6431 55.877C23.1633 55.5534 22.7235 55.1741 22.333 54.7471C21.993 54.4171 21.683 54.047 21.333 53.667C20.502 56.3948 18.7577 58.7535 16.3931 60.347C16.2501 60.4494 16.1532 60.6038 16.1231 60.777C16.1231 61.987 16.1231 63.207 16.1231 64.467L24.523 62.407ZM63.0031 63.597H48.7031V66.907H63.0031V63.597ZM55.843 61.697H68.773C68.9756 61.7221 69.1805 61.7221 69.3831 61.697C69.5809 61.665 69.7595 61.5599 69.8836 61.4025C70.0077 61.2451 70.0681 61.0469 70.053 60.847C70.0531 60.6472 69.9744 60.4554 69.834 60.3132C69.6936 60.1709 69.5029 60.0897 69.303 60.087H42.413C42.3142 60.0857 42.2161 60.1042 42.1245 60.1414C42.0329 60.1786 41.9496 60.2338 41.8797 60.3037C41.8098 60.3736 41.7546 60.4569 41.7174 60.5485C41.6802 60.6401 41.6617 60.7382 41.663 60.837C41.6371 61.0354 41.6893 61.2362 41.8088 61.3967C41.9282 61.5572 42.1055 61.6649 42.303 61.697C42.5092 61.7171 42.7169 61.7171 42.923 61.697H55.843ZM42.0031 54.477C41.5731 54.887 41.0031 55.1871 40.9431 55.5571C40.8572 56.5146 40.8405 57.4771 40.8931 58.4371L43.793 58.0471V56.4271C43.3379 56.3171 42.9253 56.0753 42.6069 55.732C42.2885 55.3887 42.0785 54.9592 42.0031 54.4971V54.477ZM64.913 66.827H66.613V63.6171H64.913V66.827ZM46.773 66.827V63.6171H45.0631V66.827H46.773ZM45.773 56.4971V58.107H47.1231V56.4971H45.773ZM64.613 58.127H65.9431V56.537H64.613V58.127Z" fill="white"/>
<path d="M35.5321 67.5974C35.3707 68.2236 35.1772 68.8411 34.9521 69.4474C34.908 69.5487 34.8438 69.6401 34.7634 69.716C34.6831 69.7919 34.5882 69.8507 34.4845 69.889C34.3808 69.9273 34.2705 69.9442 34.1601 69.9388C34.0497 69.9334 33.9415 69.9057 33.8421 69.8574C33.7358 69.8328 33.6355 69.7872 33.5471 69.7234C33.4587 69.6595 33.3838 69.5786 33.327 69.4855C33.2702 69.3924 33.2325 69.2889 33.2162 69.181C33.1999 69.0731 33.2053 68.9631 33.2321 68.8574C33.3409 68.2482 33.5118 67.6517 33.7421 67.0774C33.8146 66.883 33.9581 66.7233 34.1437 66.6305C34.3292 66.5377 34.5431 66.5187 34.7421 66.5774C35.2521 66.7374 35.4421 67.0974 35.5321 67.5974Z" fill="white"/>
<path d="M32.2727 69.1372C32.0412 69.4238 31.7643 69.6705 31.4528 69.8672C31.3584 69.9057 31.2572 69.9249 31.1553 69.9235C31.0534 69.9221 30.9527 69.9002 30.8594 69.8592C30.7661 69.8181 30.6821 69.7587 30.6122 69.6845C30.5423 69.6103 30.4881 69.5228 30.4528 69.4272C30.2249 68.834 30.0509 68.2215 29.9327 67.5972C29.9021 67.3888 29.9509 67.1765 30.0695 67.0024C30.188 66.8283 30.3677 66.7051 30.5728 66.6572C30.7651 66.5687 30.9846 66.5601 31.1833 66.6332C31.382 66.7063 31.5436 66.8552 31.6328 67.0472C31.884 67.7317 32.0976 68.4294 32.2727 69.1372Z" fill="white"/>
</svg>
