<svg width="151" height="96" viewBox="0 0 151 96" fill="none" xmlns="http://www.w3.org/2000/svg">
<path d="M0.718262 48.574V42.7317C2.04252 38.8991 5.20516 38.5058 8.60929 38.7667V14.1589C6.93839 13.933 5.32198 13.8784 3.80687 13.4617C2.13597 13.006 1.40376 11.4753 0.718262 10.0108V4.1685C1.85167 1.24734 3.97443 -0.0418606 7.09422 0.230781C7.96278 0.308678 8.84692 0.230781 9.72326 0.230781C13.4234 0.230781 17.1235 0.211306 20.8198 0.230781C22.3777 0.230781 23.2268 1.0448 23.2385 2.36517C23.2502 3.68553 22.4049 4.47232 20.8704 4.58138C20.3835 4.61643 19.8966 4.58138 19.4098 4.58138C15.0748 4.58138 10.7437 4.61254 6.40872 4.58138C5.08446 4.58138 4.88582 5.38372 5.13899 6.28344C5.44279 7.38569 4.00163 9.20456 6.35414 9.51226C6.74321 9.53759 7.13353 9.53759 7.5226 9.51226H143.493C143.836 9.51226 144.174 9.51226 144.513 9.51226C145.475 9.57068 146.009 9.20847 145.904 8.16465C145.873 7.82579 145.904 7.48304 145.904 7.14419C145.904 4.58136 145.904 4.58138 143.407 4.58138H32.9913C32.3102 4.60492 31.6282 4.58148 30.9503 4.51125C29.7235 4.34377 29.0028 3.60766 29.034 2.34572C29.0652 1.08378 29.7741 0.374899 31.0126 0.238578C31.5465 0.197661 32.0821 0.185972 32.6173 0.203538C69.6654 0.203538 106.713 0.190517 143.762 0.164551C146.909 0.164551 149.133 1.11882 150.282 4.12956V9.97187C148.926 13.711 145.873 14.2017 142.402 13.8668V38.498C144.085 38.7316 145.697 38.7978 147.212 39.2146C148.887 39.6742 149.604 41.2166 150.282 42.6849V48.5273C148.918 52.2663 145.849 52.7337 142.402 52.4221V62.6579C143.816 62.8098 144.899 63.3668 144.95 64.8429C145.012 66.5099 143.726 66.9851 142.297 67.285V69.805C142.297 77.252 142.297 84.7003 142.297 92.1499C142.297 94.2765 141.639 95.1256 139.773 95.1373C131.789 95.1736 123.805 95.1736 115.824 95.1373C114.266 95.1373 113.44 94.2453 113.452 92.9328C113.463 91.6202 114.305 90.8412 115.862 90.7906C116.918 90.7555 117.974 90.7906 119.115 90.7906V67.2266H101.564V90.8178C102.99 90.8178 104.345 90.7555 105.697 90.8178C105.956 90.8146 106.212 90.8636 106.451 90.9618C106.691 91.06 106.908 91.2054 107.089 91.3894C107.271 91.5733 107.414 91.7921 107.509 92.0325C107.605 92.2729 107.651 92.5301 107.644 92.7887C107.722 94.035 107.087 94.8218 105.857 95.0555C105.376 95.1314 104.89 95.1627 104.404 95.1489H11.9589C9.3143 95.1489 8.70276 94.5219 8.70276 91.85C8.70276 84.2082 8.70276 76.5652 8.70276 68.9208V67.1954C7.17207 67.0241 6.09317 66.4593 6.05033 64.9831C5.9958 63.32 7.27335 62.841 8.61708 62.5722V52.6441C6.95787 52.4299 5.34147 52.391 3.82637 51.9859C2.15157 51.5692 1.41544 50.0385 0.718262 48.574ZM137.849 14.0498H13.1819V38.6304H48.5941V28.5816C48.5941 24.231 50.4324 22.4082 54.8259 22.4082H96.1467C96.7305 22.3965 97.3145 22.4199 97.8955 22.4783C99.1193 22.6035 100.253 23.1774 101.079 24.0894C101.905 25.0014 102.364 26.1868 102.367 27.417C102.414 29.5086 102.367 31.6001 102.367 33.6956V38.6304H137.81L137.849 14.0498ZM75.5311 48.0871H143.415C143.855 48.0871 144.291 48.0871 144.731 48.0871C145.604 48.1261 145.978 47.6977 145.9 46.8486C145.869 46.4124 145.9 45.9722 145.9 45.536C145.9 43.1562 145.9 43.1523 143.508 43.1523H8.03285C4.63263 43.1523 5.12727 43.0005 5.1039 46.019C5.1039 48.0872 5.10385 48.0871 7.1993 48.0871H75.5311ZM82.3665 67.2305C82.3665 67.916 82.3665 68.4418 82.3665 68.9715C82.3665 70.6735 82.3977 72.3795 82.3043 74.0777C82.238 75.3162 81.4669 76.0251 80.205 76.0485C78.943 76.0719 78.2263 75.3591 78.0394 74.1322C77.9861 73.6499 77.9678 73.1644 77.9848 72.6794V55.7484C77.9848 52.4533 77.9848 52.5234 74.7092 52.4338C73.346 52.3988 73.0072 52.8233 73.0111 54.1476C73.0618 65.8322 73.0422 77.5168 73.0422 89.1742V90.7049H77.9887C77.9887 88.5199 77.9536 86.3933 77.9887 84.2667C78.0238 82.7087 78.8339 81.8635 80.1348 81.848C81.4357 81.8324 82.2537 82.662 82.3432 84.2082C82.3744 84.7886 82.3432 85.3767 82.3432 85.957V90.7088H97.0152V67.2305H82.3665ZM49.451 67.2305H31.8773V90.6932H49.4237L49.451 67.2305ZM53.0031 38.646H98.0279V28.788C98.0279 26.7821 98.0279 26.7744 96.0103 26.7744H55.005C54.6623 26.7744 54.2573 26.6653 54.0002 26.8133C53.6107 27.0353 53.0382 27.4326 53.0343 27.7637C52.9642 31.3704 52.9914 34.9614 52.9914 38.6616L53.0031 38.646ZM68.5631 67.2071H53.9924V90.6854H68.5631V67.2071ZM27.3437 67.2538H13.1819V90.6971H27.3164L27.3437 67.2538ZM137.818 90.7361V67.2694H123.691V90.7361H137.818ZM49.4471 52.5935H31.9202V62.6696H49.4471V52.5935ZM101.541 62.6345H119.049V52.5585H101.541V62.6345ZM53.9262 62.6345H68.5359V52.6091H53.9262V62.6345ZM82.4756 52.5312V62.6579H96.9801V52.5312H82.4756ZM13.0884 62.6579H27.3242V52.4962C22.7711 52.4962 18.3114 52.4962 13.8479 52.5273C13.5908 52.5273 13.1235 52.9363 13.1196 53.1622C13.0806 56.2703 13.0962 59.4329 13.0962 62.6345L13.0884 62.6579ZM123.648 62.6579H137.908C137.908 59.6394 137.857 56.726 137.935 53.8204C137.966 52.6792 137.545 52.4377 136.498 52.4533C132.653 52.5078 128.809 52.4533 124.969 52.4806C124.548 52.4806 124.128 52.5351 123.648 52.5701V62.6579Z" fill="url(#paint0_linear_1015_1405)"/>
<path d="M22.8727 35.1557C22.047 35.1557 21.2175 35.1985 20.3956 35.1557C19.1415 35.0739 18.2379 34.1664 18.273 33.0174C18.3158 31.7749 19.013 30.9375 20.2204 30.8596C22.0125 30.735 23.811 30.735 25.6031 30.8596C25.8751 30.8693 26.1423 30.9349 26.3879 31.0523C26.6335 31.1698 26.8524 31.3366 27.0307 31.5423C27.2091 31.7481 27.343 31.9883 27.4244 32.2481C27.5058 32.5079 27.5329 32.7817 27.5038 33.0524C27.5132 33.3227 27.4682 33.5922 27.3715 33.8448C27.2749 34.0974 27.1286 34.3281 26.9412 34.5231C26.7537 34.7182 26.5291 34.8736 26.2806 34.9803C26.032 35.0869 25.7646 35.1426 25.4941 35.144C24.6216 35.2102 23.7452 35.144 22.8727 35.144V35.1557Z" fill="white"/>
<path d="M75.4998 35.1718C70.6364 35.1718 65.7731 35.1718 60.9097 35.1718C59.0791 35.1718 58.0469 34.3695 58.043 32.9946C58.0391 31.6197 59.0946 30.7978 60.9019 30.7939C70.6832 30.7939 80.4607 30.7939 90.2342 30.7939C92.3881 30.7939 93.6967 32.5661 92.5711 34.0579C92.2708 34.3802 91.9097 34.6401 91.5087 34.8226C91.1077 35.0051 90.6746 35.1065 90.2342 35.1211C85.3306 35.238 80.4152 35.1718 75.4998 35.1718Z" fill="white"/>
<defs>
<linearGradient id="paint0_linear_1015_1405" x1="0.718262" y1="47.6646" x2="150.282" y2="47.6646" gradientUnits="userSpaceOnUse">
<stop stop-color="#CCAB64"/>
<stop offset="1" stop-color="#FAECC9"/>
</linearGradient>
</defs>
</svg>
