<svg width="101" height="100" viewBox="0 0 101 100" fill="none" xmlns="http://www.w3.org/2000/svg">
<path d="M35.9774 29.0375V2.11201C35.9774 0.495675 36.4704 0 38.0651 0H95.1298C96.7947 0 97.2688 0.479513 97.2688 2.15511C97.2688 31.057 97.2688 59.9589 97.2688 88.8608V90.3316C97.7861 90.3316 98.2737 90.3316 98.7586 90.3316C99.8577 90.3613 100.475 90.927 100.485 91.9911C100.51 94.1085 100.51 96.2259 100.485 98.3433C100.485 99.3696 99.8738 99.9596 98.869 100C98.5996 100 98.3302 100 98.0608 100H2.88558C0.878625 100 0.496094 99.6121 0.496094 97.5755C0.496094 95.8622 0.496094 94.148 0.496094 92.4329C0.496094 90.8165 0.983686 90.3262 2.58116 90.3182H3.72071V31.3219C3.72071 29.4362 4.14095 29.0078 6.00782 29.0078H35.9774V29.0375ZM39.2424 22.5075H93.9688V3.27308H39.2424V22.5075ZM55.3734 67.676H93.9715V25.8533H39.2585V29.0375H62.8867C64.503 29.0375 65.0041 29.5331 65.0068 31.1199C65.0068 35.0817 65.0068 39.0462 65.0068 43.0134C65.0068 44.6809 64.5246 45.1685 62.8517 45.1685H55.3896V48.4012H62.9944C64.468 48.4012 65.0041 48.94 65.0041 50.3866C65.0041 54.352 65.0041 58.3174 65.0041 62.2828C65.0041 64.0823 64.5569 64.5241 62.7412 64.5241H55.3734V67.676ZM94.0146 71.038H55.4057V90.2858H58.563C58.563 87.5569 58.563 84.8765 58.563 82.2041C58.5728 80.6167 59.0514 79.0675 59.9388 77.7512C60.8262 76.4349 62.0828 75.4102 63.5507 74.8058C65.0186 74.2013 66.6324 74.0441 68.1894 74.3539C69.7464 74.6637 71.177 75.4267 72.3018 76.547C73.0664 77.2827 73.6728 78.1668 74.0837 79.1451C74.4946 80.1235 74.7013 81.1754 74.6913 82.2365V90.2858H94.02L94.0146 71.038ZM52.0626 71.038H7.01264V90.2777H18.2327V89.1382C18.2327 84.8388 18.2327 80.5384 18.2327 76.2372C18.2327 74.707 18.7472 74.2033 20.2962 74.2006H38.7413C40.2876 74.2006 40.8075 74.7124 40.8075 76.2345C40.8075 80.5681 40.8075 84.9025 40.8075 89.2379V90.2777H52.0599L52.0626 71.038ZM3.75303 96.7161H97.1988V93.6101H3.75303V96.7161ZM19.7736 51.5719V38.7894H6.98571V51.5773L19.7736 51.5719ZM23.1356 38.749V51.5342H35.9235V38.7543L23.1356 38.749ZM39.2424 51.5449H52.0276V38.7624H39.2424V51.5449ZM19.7736 67.7083V54.9204H6.98571V67.7083H19.7736ZM35.9046 67.7083V54.9204H23.1167V67.7083H35.9046ZM39.2424 67.6814H52.0276V54.8935H39.2424V67.6814ZM6.97762 35.4193H52.0276V32.3106H6.97762V35.4193ZM71.4559 90.2912C71.4559 87.4303 71.5717 84.634 71.4236 81.8701C71.3422 80.664 70.805 79.5341 69.921 78.7096C69.0369 77.8851 67.8723 77.4278 66.6635 77.4306C64.239 77.4144 62.0489 79.2112 61.8791 81.7192C61.6879 84.5505 61.8361 87.4034 61.8361 90.2912H71.4559ZM27.8526 90.2912V77.506H21.5192V90.2939L27.8526 90.2912ZM31.2146 77.4683V90.2535H37.5479V77.4629L31.2146 77.4683ZM61.7175 41.9035V32.3375H55.3815V41.9035H61.7175ZM61.7175 61.2591V51.6823H55.395V61.2511L61.7175 61.2591Z" fill="url(#paint0_linear_943_1557)"/>
<path d="M79.5754 29.0376H88.7346C90.2836 29.0376 90.809 29.5467 90.8117 31.0553C90.8117 35.0818 90.8117 39.1092 90.8117 43.1374C90.8117 44.6487 90.2728 45.1606 88.7373 45.1606H70.3111C68.7621 45.1606 68.2368 44.6514 68.2368 43.1428C68.2368 39.1146 68.2368 35.0863 68.2368 31.058C68.2368 29.544 68.7567 29.0403 70.3084 29.0376H79.5754ZM71.4937 41.8713H77.8297V32.3107H71.4937V41.8713ZM87.5116 41.9036V32.308H81.189V41.9036H87.5116Z" fill="url(#paint1_linear_943_1557)"/>
<path d="M79.5751 48.396H88.7344C90.286 48.396 90.8114 48.9052 90.8141 50.4137C90.8141 54.4402 90.8141 58.4676 90.8141 62.4958C90.8141 64.0071 90.2753 64.519 88.7397 64.519H70.3162C68.7646 64.519 68.2393 64.0098 68.2393 62.5012C68.2393 58.473 68.2393 54.4456 68.2393 50.4191C68.2393 48.9025 68.7592 48.3987 70.3081 48.396H79.5751ZM77.8564 61.2809V51.6879H71.542V61.2809H77.8564ZM87.5302 61.254V51.6933H81.1888V61.254H87.5302Z" fill="url(#paint2_linear_943_1557)"/>
<defs>
<linearGradient id="paint0_linear_943_1557" x1="0.496094" y1="50" x2="100.504" y2="50" gradientUnits="userSpaceOnUse">
<stop stop-color="#CCAB64"/>
<stop offset="1" stop-color="#FAECC9"/>
</linearGradient>
<linearGradient id="paint1_linear_943_1557" x1="68.2368" y1="37.0991" x2="90.8117" y2="37.0991" gradientUnits="userSpaceOnUse">
<stop stop-color="#CCAB64"/>
<stop offset="1" stop-color="#FAECC9"/>
</linearGradient>
<linearGradient id="paint2_linear_943_1557" x1="68.2393" y1="56.4575" x2="90.8141" y2="56.4575" gradientUnits="userSpaceOnUse">
<stop stop-color="#CCAB64"/>
<stop offset="1" stop-color="#FAECC9"/>
</linearGradient>
</defs>
</svg>
