<svg width="100" height="100" viewBox="0 0 100 100" fill="none" xmlns="http://www.w3.org/2000/svg">
<path d="M35.4774 29.0375V2.11201C35.4774 0.495675 35.9704 0 37.5651 0H94.6298C96.2947 0 96.7688 0.479513 96.7688 2.15511C96.7688 31.057 96.7688 59.9589 96.7688 88.8608V90.3316C97.2861 90.3316 97.7737 90.3316 98.2586 90.3316C99.3577 90.3613 99.9746 90.927 99.9853 91.9911C100.01 94.1085 100.01 96.2259 99.9853 98.3433C99.9853 99.3696 99.3738 99.9596 98.369 100C98.0996 100 97.8302 100 97.5608 100H2.38558C0.378625 100 -0.00390625 99.6121 -0.00390625 97.5755C-0.00390625 95.8622 -0.00390625 94.148 -0.00390625 92.4329C-0.00390625 90.8165 0.483686 90.3262 2.08116 90.3182H3.22071V31.3219C3.22071 29.4362 3.64095 29.0078 5.50782 29.0078H35.4774V29.0375ZM38.7424 22.5075H93.4688V3.27308H38.7424V22.5075ZM54.8734 67.676H93.4715V25.8533H38.7585V29.0375H62.3867C64.003 29.0375 64.5041 29.5331 64.5068 31.1199C64.5068 35.0817 64.5068 39.0462 64.5068 43.0134C64.5068 44.6809 64.0246 45.1685 62.3517 45.1685H54.8896V48.4012H62.4944C63.968 48.4012 64.5041 48.94 64.5041 50.3866C64.5041 54.352 64.5041 58.3174 64.5041 62.2828C64.5041 64.0823 64.0569 64.5241 62.2412 64.5241H54.8734V67.676ZM93.5146 71.038H54.9057V90.2858H58.063C58.063 87.5569 58.063 84.8765 58.063 82.2041C58.0728 80.6167 58.5514 79.0675 59.4388 77.7512C60.3262 76.4349 61.5828 75.4102 63.0507 74.8058C64.5186 74.2013 66.1324 74.0441 67.6894 74.3539C69.2464 74.6637 70.677 75.4267 71.8018 76.547C72.5664 77.2827 73.1728 78.1668 73.5837 79.1451C73.9946 80.1235 74.2013 81.1754 74.1913 82.2365V90.2858H93.52L93.5146 71.038ZM51.5626 71.038H6.51264V90.2777H17.7327V89.1382C17.7327 84.8388 17.7327 80.5384 17.7327 76.2372C17.7327 74.707 18.2472 74.2033 19.7962 74.2006H38.2413C39.7876 74.2006 40.3075 74.7124 40.3075 76.2345C40.3075 80.5681 40.3075 84.9025 40.3075 89.2379V90.2777H51.5599L51.5626 71.038ZM3.25303 96.7161H96.6988V93.6101H3.25303V96.7161ZM19.2736 51.5719V38.7894H6.48571V51.5773L19.2736 51.5719ZM22.6356 38.749V51.5342H35.4235V38.7543L22.6356 38.749ZM38.7424 51.5449H51.5276V38.7624H38.7424V51.5449ZM19.2736 67.7083V54.9204H6.48571V67.7083H19.2736ZM35.4046 67.7083V54.9204H22.6167V67.7083H35.4046ZM38.7424 67.6814H51.5276V54.8935H38.7424V67.6814ZM6.47762 35.4193H51.5276V32.3106H6.47762V35.4193ZM70.9559 90.2912C70.9559 87.4303 71.0717 84.634 70.9236 81.8701C70.8422 80.664 70.305 79.5341 69.421 78.7096C68.5369 77.8851 67.3723 77.4278 66.1635 77.4306C63.739 77.4144 61.5489 79.2112 61.3791 81.7192C61.1879 84.5505 61.3361 87.4034 61.3361 90.2912H70.9559ZM27.3526 90.2912V77.506H21.0192V90.2939L27.3526 90.2912ZM30.7146 77.4683V90.2535H37.0479V77.4629L30.7146 77.4683ZM61.2175 41.9035V32.3375H54.8815V41.9035H61.2175ZM61.2175 61.2591V51.6823H54.895V61.2511L61.2175 61.2591Z" fill="url(#paint0_linear_951_924)"/>
<path d="M79.0754 29.0376H88.2346C89.7836 29.0376 90.309 29.5467 90.3117 31.0553C90.3117 35.0818 90.3117 39.1092 90.3117 43.1374C90.3117 44.6487 89.7728 45.1606 88.2373 45.1606H69.8111C68.2621 45.1606 67.7368 44.6514 67.7368 43.1428C67.7368 39.1146 67.7368 35.0863 67.7368 31.058C67.7368 29.544 68.2567 29.0403 69.8084 29.0376H79.0754ZM70.9937 41.8713H77.3297V32.3107H70.9937V41.8713ZM87.0116 41.9036V32.308H80.689V41.9036H87.0116Z" fill="white"/>
<path d="M79.0751 48.396H88.2344C89.786 48.396 90.3114 48.9052 90.3141 50.4137C90.3141 54.4402 90.3141 58.4676 90.3141 62.4958C90.3141 64.0071 89.7753 64.519 88.2397 64.519H69.8162C68.2646 64.519 67.7393 64.0098 67.7393 62.5012C67.7393 58.473 67.7393 54.4456 67.7393 50.4191C67.7393 48.9025 68.2592 48.3987 69.8081 48.396H79.0751ZM77.3564 61.2809V51.6879H71.042V61.2809H77.3564ZM87.0302 61.254V51.6933H80.6888V61.254H87.0302Z" fill="white"/>
<defs>
<linearGradient id="paint0_linear_951_924" x1="-0.00390625" y1="50" x2="100.004" y2="50" gradientUnits="userSpaceOnUse">
<stop stop-color="#CCAB64"/>
<stop offset="1" stop-color="#FAECC9"/>
</linearGradient>
</defs>
</svg>
