<svg width="141" height="79" viewBox="0 0 141 79" fill="none" xmlns="http://www.w3.org/2000/svg">
<path d="M140.496 22.203C138.509 24.6872 136.544 27.1896 134.516 29.6408C134.254 29.9175 134.07 30.2584 133.982 30.6292C133.894 31 133.906 31.3874 134.016 31.7523C134.806 35.0104 134.507 38.4377 133.165 41.5098C132.511 43.077 131.59 43.5921 130.366 43.1062C129.077 42.5911 128.752 41.5281 129.402 39.939C132.054 33.4547 128.697 26.1155 122.129 24.0478C115.684 22.0167 108.839 26.0681 107.268 32.8446C105.306 41.2906 113.438 49.0097 121.8 46.6132C123.027 46.2479 124.141 46.0433 124.879 47.3987C125.566 48.6517 125.018 49.8462 123.539 50.3832C117.635 52.513 110.186 50.2554 106.27 45.068C106.03 44.6958 105.695 44.3948 105.299 44.1963C104.904 43.9978 104.462 43.909 104.02 43.9392C83.923 43.9684 63.8309 43.9684 43.7436 43.9392C43.3023 43.9049 42.8598 43.9882 42.4613 44.1808C42.0628 44.3733 41.7224 44.6681 41.475 45.0351C40.0049 46.9445 38.1146 48.4894 35.9507 49.55C33.7869 50.6105 31.4078 51.1582 28.998 51.1504C26.5883 51.1426 24.2127 50.5796 22.0557 49.5051C19.8988 48.4306 18.0185 46.8735 16.5607 44.9547C16.3411 44.6221 16.0368 44.3541 15.6792 44.1781C15.3215 44.0022 14.9235 43.9248 14.526 43.9537C10.7888 43.9939 7.05165 43.9793 3.31452 43.9537C1.05324 43.9537 0.278775 43.0441 0.552759 40.7974C0.826538 38.4184 1.95645 36.2203 3.73169 34.6131C5.50693 33.0059 7.80622 32.0995 10.2006 32.0628C11.2966 32.0373 12.3925 32.0628 13.3716 32.0628C14.0766 30.4299 14.6648 28.8627 15.4173 27.3758C16.1698 25.889 17.2219 25.5055 18.3836 26.1265C19.5453 26.7475 19.7755 27.8946 18.9462 29.4143C16.7032 33.4839 16.8018 37.5644 19.191 41.4696C21.5034 45.2689 24.9958 47.1904 29.4745 47.0443C36.156 46.8288 41.4019 40.655 40.675 33.9698C39.9443 27.3941 33.6537 22.5976 27.1584 23.6935C25.5364 23.9675 24.5647 23.4341 24.3199 22.1446C24.0752 20.855 24.7583 19.9527 26.3767 19.6824C29.9515 19.0226 33.6444 19.671 36.7807 21.5089C37.0923 21.7209 37.4571 21.8411 37.8336 21.856C38.2101 21.8708 38.5832 21.7797 38.9105 21.593C43.8715 19.2075 48.8689 16.8987 53.8225 14.4949C54.3338 14.203 54.9166 14.0603 55.5048 14.0829C56.0931 14.1055 56.6632 14.2925 57.1505 14.6228C59.6456 16.1242 62.1772 17.5672 64.7161 19.0066C71.0323 22.5647 78.3203 18.3709 78.4299 11.1158C78.4555 9.38784 78.4299 7.65261 78.4299 5.92103C78.4299 4.60955 79.1606 3.78394 80.4172 3.76567C87.1938 3.678 93.9995 3.2725 100.688 4.86161C105.722 6.04888 110.033 8.61337 113.967 11.8866C114.651 12.4528 115.367 12.9825 116.338 13.7387C116.338 12.504 116.338 11.6053 116.338 10.7103C116.338 7.93024 116.313 5.15023 116.338 2.3702C116.36 0.718984 117.043 0.0321832 118.676 0.0285301C125.146 0.0102645 131.619 0.0285497 138.089 0.00297784C138.591 -0.0214285 139.088 0.104629 139.518 0.364991C139.948 0.625352 140.29 1.00814 140.5 1.46423L140.496 22.203ZM82.5105 8.09101C82.5105 9.00794 82.5105 10.0052 82.5105 11.0135C82.3936 21.5272 71.752 27.6754 62.5973 22.5172C60.5735 21.3811 58.5387 20.2559 56.577 19.0211C55.6528 18.4403 54.9148 18.4732 53.965 18.9371C50.1256 20.8148 46.246 22.6122 42.381 24.446C41.9901 24.6323 41.6138 24.8552 41.1754 25.089C44.5728 29.5202 45.5592 34.3862 44.2623 39.7015C44.4071 39.7651 44.5593 39.8105 44.7153 39.8367C49.4643 39.8367 54.1915 39.8695 58.9296 39.8367C59.1572 39.8034 59.3742 39.7187 59.5641 39.5889C59.754 39.4591 59.9118 39.2877 60.0255 39.0878C63.5215 31.6829 69.3702 28.0882 77.524 28.1065C86.1307 28.1284 94.7411 28.1065 103.351 28.1284C104.21 28.1284 104.736 27.9238 105.211 27.1348C107.556 23.2296 111.001 20.8002 115.44 19.7664C115.737 19.6815 116.03 19.5803 116.316 19.4632C107.198 9.22348 95.6982 6.41422 82.5105 8.09101ZM102.869 32.271C102.544 32.271 102.102 32.2053 101.664 32.2053H76.9285C71.6875 32.2053 67.6362 34.3972 64.7746 38.7809C64.6039 39.0938 64.4621 39.4214 64.3508 39.76H103.235C103.11 37.2466 103.004 34.8319 102.869 32.2747V32.271ZM120.426 4.1639C120.426 9.11388 120.426 13.8958 120.426 18.6778C120.426 19.5436 120.956 19.602 121.551 19.7079C124.578 20.2391 127.373 21.6759 129.566 23.8287C130.374 24.6104 131.082 25.4945 131.904 26.3859C134.133 23.2515 137.852 20.8587 136.109 16.0767C133.771 16.0767 131.316 16.1023 128.861 16.0767C127.1 16.0548 126.388 15.3169 126.352 13.5561C126.326 12.4601 126.352 11.3642 126.352 10.2683V4.14561L120.426 4.1639ZM130.436 11.8756H136.281V4.20407H130.501C130.464 4.41069 130.439 4.61924 130.425 4.82875C130.436 7.09003 130.436 9.35864 130.436 11.8756ZM13.2181 36.2931C8.95492 35.6575 6.13106 36.8557 5.18125 39.7234H13.7953L13.2181 36.2931Z" fill="url(#paint0_linear_1015_1393)"/>
<path d="M140.495 64.8604C139.933 66.1134 138.925 66.4276 137.62 66.4276C119.318 66.4056 101.016 66.4056 82.7141 66.4276C80.7816 66.4276 79.9122 65.6969 80.0254 64.1882C80.1021 63.1471 80.6391 62.5004 81.7095 62.3616C82.0261 62.3269 82.3445 62.3123 82.6629 62.3178C101.009 62.3178 119.356 62.3105 137.704 62.2959C138.972 62.2959 139.896 62.6356 140.495 63.7571V64.8604Z" fill="url(#paint1_linear_1015_1393)"/>
<path d="M34.8117 54.8654C45.1062 54.8654 55.4007 54.8654 65.6952 54.8654C66.2401 54.8419 66.7859 54.8737 67.3244 54.9604C68.4204 55.1906 68.9464 55.9322 68.8953 57.0354C68.9035 57.4982 68.7357 57.9468 68.4258 58.2906C68.1159 58.6345 67.687 58.8478 67.2258 58.8875C66.7294 58.9522 66.2284 58.9767 65.728 58.9606H3.68713C1.44411 58.9606 0.508906 58.3323 0.54909 56.8637C0.589275 55.3952 1.47335 54.8618 3.65426 54.8618L34.8117 54.8654Z" fill="url(#paint2_linear_1015_1393)"/>
<path d="M81.8493 78.3291C74.3823 78.3291 66.9153 78.3291 59.4484 78.3291C58.4218 78.3291 57.5232 78.1684 57.125 77.0762C56.9979 76.7808 56.9431 76.4593 56.9652 76.1385C56.9874 75.8177 57.0858 75.5067 57.2523 75.2316C57.4188 74.9565 57.6486 74.7251 57.9225 74.5567C58.1965 74.3883 58.5066 74.2876 58.8273 74.2632C59.2799 74.2169 59.7354 74.2035 60.19 74.223C74.6709 74.223 89.1506 74.223 103.629 74.223C104.264 74.1964 104.899 74.2554 105.518 74.3984C106.548 74.6907 106.917 75.5309 106.818 76.5245C106.72 77.5182 106.216 78.1465 105.204 78.2744C104.751 78.3182 104.296 78.3329 103.841 78.3182L81.8493 78.3291Z" fill="url(#paint3_linear_1015_1393)"/>
<path d="M125.511 35.2335C125.54 39.3396 122.544 42.4301 118.57 42.4119C114.917 42.4119 111.833 39.2081 111.79 35.4234C111.742 31.4561 114.8 28.2085 118.584 28.2085C122.541 28.2048 125.485 31.1785 125.511 35.2335ZM121.441 35.2663C121.441 33.6042 120.214 32.3037 118.676 32.3146C117.138 32.3256 115.91 33.5896 115.888 35.2554C115.866 36.9212 117.149 38.3313 118.731 38.3058C120.228 38.2802 121.452 36.9066 121.441 35.2663Z" fill="url(#paint4_linear_1015_1393)"/>
<path d="M35.9588 35.3286C35.9332 39.1717 32.7878 42.4266 29.1092 42.412C28.1753 42.4077 27.2518 42.2159 26.3934 41.8481C25.5351 41.4803 24.7592 40.9439 24.1119 40.2708C23.4647 39.5976 22.9591 38.8014 22.6252 37.9292C22.2914 37.0571 22.136 36.1268 22.1682 35.1934C22.2376 31.175 25.2515 28.1831 29.1895 28.2087C32.8828 28.2306 35.9807 31.4819 35.9588 35.3286ZM26.2305 35.2154C26.183 36.7862 27.4105 38.2109 28.8863 38.2986C30.4499 38.3899 31.7723 37.0785 31.8088 35.3761C31.8453 33.6737 30.6435 32.3294 29.0398 32.3075C27.5566 32.2965 26.2889 33.6117 26.2305 35.2154Z" fill="url(#paint5_linear_1015_1393)"/>
<path d="M91.9067 12.0108C93.2693 12.0108 94.6355 11.9706 95.9981 12.0108C97.2329 12.0546 98.022 12.8327 98.0768 13.9214C98.0961 14.1964 98.0579 14.4725 97.9646 14.7319C97.8713 14.9914 97.725 15.2285 97.5349 15.4282C97.3448 15.6279 97.1151 15.7858 96.8606 15.8918C96.6061 15.9978 96.3322 16.0496 96.0566 16.0438C93.2851 16.1144 90.5111 16.1144 87.7348 16.0438C86.4087 16.0073 85.7073 15.1342 85.7585 13.9141C85.806 12.756 86.4891 12.0656 87.8115 12.0144C89.134 11.9633 90.5404 12.0108 91.9067 12.0108Z" fill="url(#paint6_linear_1015_1393)"/>
<defs>
<linearGradient id="paint0_linear_1015_1393" x1="0.5" y1="25.5904" x2="140.5" y2="25.5904" gradientUnits="userSpaceOnUse">
<stop stop-color="#CCAB64"/>
<stop offset="1" stop-color="#FAECC9"/>
</linearGradient>
<linearGradient id="paint1_linear_1015_1393" x1="80.0156" y1="64.3617" x2="140.495" y2="64.3617" gradientUnits="userSpaceOnUse">
<stop stop-color="#CCAB64"/>
<stop offset="1" stop-color="#FAECC9"/>
</linearGradient>
<linearGradient id="paint2_linear_1015_1393" x1="0.547852" y1="56.9116" x2="68.8987" y2="56.9116" gradientUnits="userSpaceOnUse">
<stop stop-color="#CCAB64"/>
<stop offset="1" stop-color="#FAECC9"/>
</linearGradient>
<linearGradient id="paint3_linear_1015_1393" x1="56.9604" y1="76.2718" x2="106.834" y2="76.2718" gradientUnits="userSpaceOnUse">
<stop stop-color="#CCAB64"/>
<stop offset="1" stop-color="#FAECC9"/>
</linearGradient>
<linearGradient id="paint4_linear_1015_1393" x1="111.789" y1="35.3102" x2="125.511" y2="35.3102" gradientUnits="userSpaceOnUse">
<stop stop-color="#CCAB64"/>
<stop offset="1" stop-color="#FAECC9"/>
</linearGradient>
<linearGradient id="paint5_linear_1015_1393" x1="22.1641" y1="35.3103" x2="35.9589" y2="35.3103" gradientUnits="userSpaceOnUse">
<stop stop-color="#CCAB64"/>
<stop offset="1" stop-color="#FAECC9"/>
</linearGradient>
<linearGradient id="paint6_linear_1015_1393" x1="85.7559" y1="14.0438" x2="98.0817" y2="14.0438" gradientUnits="userSpaceOnUse">
<stop stop-color="#CCAB64"/>
<stop offset="1" stop-color="#FAECC9"/>
</linearGradient>
</defs>
</svg>
