<svg width="81" height="80" viewBox="0 0 81 80" fill="none" xmlns="http://www.w3.org/2000/svg">
<path d="M30.0969 23.0667H50.2669C50.4469 22.3267 50.5968 21.5767 50.8068 20.8467C51.6766 17.8411 53.4693 15.1849 55.9315 13.254C58.3936 11.3231 61.4004 10.2151 64.5268 10.0868C66.1668 10.0268 67.8169 10.0368 69.4669 10.0868C69.7294 10.055 69.9956 10.0818 70.2465 10.1652C70.4974 10.2486 70.7268 10.3866 70.918 10.5693C71.1093 10.7519 71.2577 10.9747 71.3526 11.2215C71.4475 11.4683 71.4865 11.733 71.4669 11.9967C71.4812 12.2591 71.4385 12.5215 71.3417 12.7658C71.245 13.0102 71.0966 13.2307 70.9066 13.4121C70.7165 13.5936 70.4894 13.7318 70.2409 13.8172C69.9924 13.9026 69.7283 13.9331 69.4669 13.9067C67.7769 13.9067 66.0769 13.9067 64.3869 13.9667C61.8973 14.1463 59.5405 15.1582 57.6957 16.8397C55.851 18.5212 54.6256 20.7744 54.2169 23.2367C54.1168 23.949 54.0667 24.6675 54.0668 25.3868C54.0668 32.3801 54.0668 39.3801 54.0668 46.3868C54.0668 47.7968 53.3868 48.5668 52.1568 48.5768C51.9055 48.5968 51.6529 48.5633 51.4156 48.4784C51.1783 48.3935 50.9617 48.2591 50.7802 48.0842C50.5987 47.9093 50.4564 47.6979 50.3627 47.4638C50.2691 47.2298 50.2262 46.9786 50.2369 46.7267C50.2369 45.3367 50.2369 43.9467 50.2369 42.5667C50.2369 42.3167 50.2369 42.0667 50.2369 41.7867H29.9568V45.7867C29.9634 46.1979 29.9401 46.609 29.8869 47.0168C29.8587 47.2497 29.7841 47.4746 29.6677 47.6783C29.5513 47.882 29.3954 48.0603 29.209 48.2029C29.0227 48.3454 28.8098 48.4493 28.5827 48.5083C28.3556 48.5674 28.1191 48.5804 27.8869 48.5467C27.6611 48.5468 27.4375 48.5018 27.2293 48.4145C27.0211 48.3272 26.8323 48.1993 26.674 48.0382C26.5157 47.8772 26.3912 47.6863 26.3076 47.4765C26.2239 47.2668 26.1828 47.0425 26.1868 46.8167C26.1868 45.3467 26.1868 43.8867 26.1868 42.4167C26.1868 36.4167 26.1268 30.4167 26.1868 24.4167C26.306 21.1306 27.508 17.9761 29.606 15.4441C31.704 12.912 34.5801 11.1446 37.7868 10.4167C40.4521 9.99878 43.1573 9.89474 45.8469 10.1067C46.2898 10.1351 46.7044 10.3346 47.003 10.663C47.3016 10.9914 47.4607 11.4231 47.4468 11.8667C47.4955 12.3201 47.3664 12.7746 47.0866 13.1346C46.8068 13.4946 46.3982 13.732 45.9468 13.7967C44.8956 13.8785 43.8408 13.9052 42.7868 13.8767C40.6806 13.7309 38.5692 14.0731 36.6169 14.8767C34.9472 15.6105 33.4811 16.7395 32.3451 18.1664C31.2092 19.5932 30.4376 21.2751 30.0969 23.0667ZM29.9969 37.7967H50.1568V26.9967H29.9568L29.9969 37.7967Z" fill="white"/>
<path d="M13.2163 62.6963C14.9435 62.7468 16.6433 63.1411 18.2163 63.8563C20.2314 64.8152 22.3576 65.5206 24.5463 65.9563C27.2435 66.3526 29.9973 66.0531 32.5463 65.0863C34.2963 64.4263 36.0263 63.6863 37.8263 63.1963C40.4502 62.5982 43.1979 62.8792 45.6463 63.9963C47.4864 64.7736 49.3858 65.4023 51.3263 65.8763C54.2708 66.458 57.3226 66.1302 60.0763 64.9363L63.1364 63.6763C65.2635 62.7378 67.6321 62.4929 69.9063 62.9763C72.4396 63.5151 74.9026 64.344 77.2464 65.4463C77.6094 65.5892 77.915 65.8481 78.1158 66.1826C78.3165 66.5172 78.4011 66.9087 78.3564 67.2963C78.3237 67.7238 78.148 68.1279 77.8578 68.4435C77.5676 68.7592 77.1797 68.9679 76.7564 69.0363C76.253 69.0511 75.753 68.9484 75.2963 68.7363C73.1219 67.7528 70.8347 67.0408 68.4864 66.6163C67.1564 66.476 65.8127 66.6827 64.5863 67.2162C62.5779 68.055 60.5286 68.7926 58.4463 69.4263C54.3219 70.4549 49.9712 70.0638 46.0963 68.3163C45.2963 67.9763 44.4863 67.6563 43.6763 67.3163C41.5763 66.4812 39.2364 66.4812 37.1364 67.3163C35.2465 68.0849 33.3171 68.7525 31.3564 69.3163C26.953 70.456 22.2845 69.9401 18.2364 67.8663C16.701 67.0609 15.0018 66.617 13.2687 66.5685C11.5356 66.52 9.8144 66.8681 8.23636 67.5863C7.23636 68.0163 6.15635 68.4563 5.10635 68.8463C4.65944 69.0276 4.15877 69.0242 3.71439 68.8367C3.27001 68.6492 2.91826 68.293 2.73636 67.8463C2.61644 67.6447 2.53997 67.4204 2.51199 67.1876C2.48402 66.9547 2.50512 66.7187 2.57388 66.4945C2.64264 66.2703 2.75758 66.063 2.91129 65.8859C3.06499 65.7088 3.25406 65.5659 3.46634 65.4662C6.50802 63.9247 9.81848 62.9842 13.2163 62.6963Z" fill="white"/>
<path d="M53.9569 58.8964C50.9701 58.8305 48.0289 58.1496 45.3169 56.8964C44.1598 56.4174 42.966 56.0328 41.7469 55.7464C39.7469 55.2664 37.8169 56.0464 35.9269 56.7464C33.9512 57.5248 31.9186 58.15 29.8469 58.6164C26.0455 59.2381 22.145 58.7087 18.6468 57.0963C17.2268 56.5063 15.7669 56.0463 14.3169 55.5363C14.0423 55.4674 13.76 55.4339 13.4769 55.4364C13.2217 55.4358 12.9692 55.3824 12.7356 55.2796C12.502 55.1768 12.2922 55.0267 12.1194 54.8389C11.9466 54.651 11.8145 54.4295 11.7314 54.1881C11.6484 53.9468 11.6163 53.6908 11.637 53.4364C11.6242 53.1836 11.6661 52.931 11.7599 52.6959C11.8536 52.4608 11.997 52.2487 12.1802 52.0741C12.3634 51.8994 12.5821 51.7663 12.8214 51.6839C13.0607 51.6014 13.315 51.5716 13.5669 51.5963C14.9842 51.8033 16.3799 52.138 17.7369 52.5963C19.6369 53.2063 21.4569 54.1163 23.3769 54.5963C26.4392 55.3702 29.6683 55.1496 32.5969 53.9663C34.3469 53.3063 36.0769 52.5664 37.8769 52.0864C40.6969 51.3164 43.3969 51.9863 46.0569 53.0363C47.7773 53.7671 49.5572 54.3493 51.3769 54.7764C54.5097 55.3411 57.7403 54.9364 60.637 53.6164C62.237 52.9464 63.8869 52.3764 65.5369 51.8364C66.1311 51.6647 66.7487 51.5871 67.3669 51.6063C67.6182 51.5968 67.8689 51.6386 68.1035 51.7292C68.3381 51.8198 68.5517 51.9572 68.7314 52.1332C68.9111 52.3092 69.053 52.5199 69.1485 52.7525C69.244 52.9852 69.2911 53.2349 69.2869 53.4864C69.2869 54.5864 68.5369 55.2264 67.4269 55.4864C65.976 55.7811 64.5539 56.2027 63.1769 56.7464C61.0236 57.7136 58.7498 58.3863 56.4169 58.7464C55.6269 58.8164 54.7969 58.8464 53.9569 58.8964Z" fill="white"/>
</svg>
