<svg width="99" height="100" viewBox="0 0 99 100" fill="none" xmlns="http://www.w3.org/2000/svg">
<path d="M50.7146 9.84209C50.7146 12.255 50.7012 14.5527 50.7388 16.853C50.7388 17.0568 51.039 17.3061 51.2535 17.4455C52.0578 17.9629 52.9828 18.3356 53.7013 18.9523C58.3556 22.9282 62.9643 26.9551 67.5944 30.9606C68.2783 31.5305 68.8259 32.2462 69.197 33.0553C69.5682 33.8644 69.7534 34.7463 69.7393 35.6363C69.7553 38.1136 69.7393 40.5882 69.7393 43.0655V44.2666H71.0127C78.5375 44.2666 86.0633 44.2666 93.5898 44.2666C94.2903 44.2498 94.9891 44.3402 95.6623 44.5347C96.4447 44.8033 97.1099 45.3348 97.5445 46.0387C97.9791 46.7427 98.1562 47.5755 98.0457 48.3954C97.9282 49.2135 97.5416 49.9691 96.9469 50.543C96.3521 51.1169 95.5831 51.4762 94.7614 51.5644C94.4933 51.5966 94.2252 51.5939 93.874 51.6126V97.579C94.9785 97.579 96.1046 97.579 97.2279 97.579C98.3513 97.579 98.8366 97.9383 98.8661 98.7453C98.8929 99.6005 98.3808 100 97.2119 100H2.18517C0.640892 100 0.104711 99.6702 0.134202 98.7399C0.161012 97.8579 0.654284 97.5737 2.17175 97.5737H5.13699V51.6904C4.57128 51.6195 4.01004 51.5165 3.45598 51.3821C2.66728 51.135 1.98722 50.6248 1.52931 49.9367C1.0714 49.2487 0.863334 48.4244 0.939888 47.6014C1.01644 46.7785 1.37295 46.0067 1.94992 45.4149C2.52689 44.8231 3.28945 44.4471 4.1102 44.3497C4.54226 44.3073 4.97641 44.2903 5.41046 44.2988C12.9388 44.2988 20.4654 44.2988 27.9902 44.2988H29.261C29.261 41.6714 29.3388 39.1646 29.2396 36.6659C29.135 34.0572 30.0305 32.0598 32.0546 30.3654C36.5936 26.5584 41.012 22.6226 45.5081 18.7673C46.0735 18.2485 46.7346 17.8451 47.4545 17.5796C48.2052 17.3356 48.3017 16.9415 48.299 16.2712C48.2749 11.4185 48.2829 6.56854 48.299 1.71586C48.299 0.305638 48.5993 0.00268104 49.9988 0C53.2768 0 56.5548 0 59.8328 0C61.8061 0 62.7632 0.970535 62.782 2.96523C62.7981 4.27179 62.7981 5.57656 62.782 6.87954C62.7578 8.85815 61.7766 9.82868 59.8167 9.82868C56.8301 9.84477 53.8568 9.84209 50.7146 9.84209ZM67.2111 97.5469V96.4744C67.2111 76.3345 67.2191 56.1945 67.2352 36.0546C67.2618 35.3733 67.1273 34.6953 66.8427 34.0757C66.558 33.4562 66.1313 32.9125 65.5971 32.4888C61.0742 28.6201 56.5942 24.7138 52.0954 20.8022C50.2723 19.223 48.7414 19.2204 46.921 20.8022C42.3954 24.7218 37.8885 28.6603 33.3415 32.5532C32.8233 32.9693 32.4105 33.5018 32.1366 34.1073C31.8627 34.7129 31.7354 35.3745 31.7651 36.0385C31.7919 56.1785 31.7991 76.3184 31.7865 96.4584C31.7865 96.8123 31.8187 97.1688 31.8348 97.5308H39.028V96.3055C39.028 89.871 39.028 83.458 39.028 77.0342C39.028 74.0476 40.6366 71.5515 43.4356 71.3102C47.4607 70.9697 51.5074 70.9697 55.5324 71.3102C58.3154 71.5408 59.9508 74.0422 59.9588 77.0182C59.9803 83.4741 59.9588 89.93 59.9588 96.3886V97.5576L67.2111 97.5469ZM29.1939 97.5469V51.6448H7.79394V97.5388L29.1939 97.5469ZM69.8224 51.6261V97.504H91.1902V51.6261H69.8224ZM57.5299 97.5335C57.5299 90.5011 57.5486 83.5921 57.5138 76.6616C57.5214 75.896 57.2399 75.1556 56.7255 74.5885C56.2111 74.0214 55.5016 73.6693 54.7389 73.6025C53.4278 73.4604 52.09 73.573 50.7468 73.573V97.5335H57.5299ZM48.0443 97.5335V73.5114C47.055 73.5114 46.1676 73.5114 45.2561 73.5114C42.7573 73.5114 41.4704 74.7902 41.4677 77.2648C41.4677 83.6832 41.4677 90.1016 41.4677 96.52C41.4677 96.8444 41.4972 97.1688 41.516 97.5335H48.0443ZM29.2154 46.7734H5.08607C3.97076 46.7734 3.43188 47.1487 3.42384 47.9128C3.4158 48.6769 3.96001 49.063 5.0646 49.0817H28.1055C28.4621 49.0817 28.8186 49.0496 29.2208 49.0335L29.2154 46.7734ZM69.7956 49.0281C70.0878 49.0523 70.2862 49.0817 70.4819 49.0817C78.3302 49.0817 86.1767 49.0817 94.0214 49.0817C94.2547 49.0817 94.5576 49.1354 94.7051 49.0094C95.0429 48.701 95.5255 48.3069 95.5255 47.9369C95.5255 47.567 95.0751 47.1326 94.7346 46.8297C94.5817 46.6903 94.2225 46.7707 93.9544 46.7707H70.7152C70.4256 46.7707 70.1334 46.7975 69.7956 46.8136V49.0281ZM60.2859 2.50409H50.7951V7.32996H60.2859V2.50409Z" fill="url(#paint0_linear_943_1383)"/>
<path d="M49.5376 30.2607C54.0954 30.3733 57.7577 34.1268 57.6745 38.5934C57.654 39.6898 57.4172 40.7714 56.9778 41.7761C56.5384 42.7808 55.9051 43.6889 55.1141 44.4483C54.323 45.2077 53.3898 45.8035 52.368 46.2016C51.3462 46.5996 50.2559 46.7921 49.1596 46.7679C44.7412 46.6633 41.0467 42.8268 41.1164 38.4165C41.1531 36.2187 42.0606 34.1254 43.6395 32.5962C45.2185 31.067 47.3398 30.227 49.5376 30.2607ZM43.6393 38.5023C43.6441 39.638 43.9849 40.7469 44.6188 41.6893C45.2527 42.6317 46.1514 43.3654 47.2016 43.798C48.2518 44.2305 49.4064 44.3426 50.5202 44.12C51.6339 43.8975 52.6569 43.3503 53.4602 42.5473C54.2635 41.7444 54.8111 40.7217 55.0342 39.6081C55.2573 38.4944 55.1458 37.3397 54.7137 36.2893C54.2817 35.2389 53.5484 34.34 52.6063 33.7056C51.6642 33.0712 50.5554 32.7299 49.4197 32.7246C48.6587 32.716 47.9036 32.8596 47.1989 33.1469C46.4941 33.4342 45.854 33.8595 45.316 34.3978C44.778 34.9361 44.3529 35.5764 44.0659 36.2813C43.7789 36.9861 43.6357 37.7413 43.6447 38.5023H43.6393Z" fill="url(#paint1_linear_943_1383)"/>
<path d="M49.3526 55.5726C46.2122 55.5726 43.0709 55.5726 39.9287 55.5726C39.5989 55.5726 39.1727 55.6316 38.9582 55.4573C38.5909 55.1544 38.119 54.6852 38.1271 54.2911C38.1351 53.897 38.615 53.4385 38.9957 53.1436C39.2129 52.9747 39.6392 53.0578 39.969 53.0578C46.3212 53.0578 52.6664 53.0578 59.0043 53.0578C59.3046 53.0578 59.696 52.964 59.8863 53.1168C60.2885 53.4358 60.8408 53.8809 60.8515 54.2857C60.8623 54.6906 60.3341 55.1705 59.94 55.4895C59.7282 55.6584 59.2965 55.5753 58.9641 55.5753C55.7629 55.5771 52.5591 55.5762 49.3526 55.5726Z" fill="url(#paint2_linear_943_1383)"/>
<path d="M49.4491 64.077C46.1407 64.077 42.835 64.077 39.5293 64.077C38.4917 64.077 37.9207 63.4845 38.0816 62.6373C38.2317 61.8893 38.7599 61.6399 39.4811 61.6426C42.1219 61.6426 44.76 61.6426 47.3982 61.6426C51.4197 61.6426 55.4144 61.6426 59.4226 61.6426C60.1706 61.6426 60.7631 61.833 60.924 62.6426C61.0849 63.4523 60.5111 64.077 59.4709 64.0797C56.1276 64.0931 52.787 64.077 49.4491 64.077Z" fill="url(#paint3_linear_943_1383)"/>
<path d="M12.9415 83.4904C12.9415 82.7531 12.9174 82.0185 12.9415 81.2839C13.0139 79.3884 14.3651 77.997 16.2419 77.938C17.7433 77.8924 19.2499 77.8924 20.7513 77.938C21.6149 77.9442 22.4417 78.2884 23.0546 78.8967C23.6674 79.5051 24.0176 80.3293 24.0302 81.1928C24.0892 82.729 24.0865 84.2679 24.0302 85.8042C24.0224 86.6854 23.6662 87.5278 23.0392 88.1472C22.4123 88.7667 21.5656 89.1127 20.6843 89.1099C19.2178 89.1608 17.7352 89.1608 16.2767 89.1099C14.3383 89.0375 12.9978 87.6407 12.9361 85.6915C12.92 84.9596 12.9388 84.225 12.9415 83.4904ZM21.6092 83.4904C21.6092 82.855 21.6092 82.2196 21.6092 81.5869C21.6092 80.8603 21.2929 80.4394 20.5368 80.434C19.1695 80.434 17.7995 80.434 16.4322 80.434C15.7459 80.434 15.3759 80.7987 15.3598 81.4877C15.3598 82.8282 15.3598 84.1687 15.3598 85.4932C15.3598 86.2304 15.7351 86.5977 16.4724 86.5977H20.4779C21.2178 86.5977 21.5905 86.2358 21.5905 85.4932L21.6092 83.4904Z" fill="url(#paint4_linear_943_1383)"/>
<path d="M18.4618 60.0447C19.2313 60.0447 19.9981 60.0313 20.7675 60.0447C21.5951 60.0425 22.3922 60.3566 22.9957 60.9228C23.5993 61.4889 23.9637 62.2644 24.0143 63.0904C24.0947 64.758 24.0867 66.4336 24.0143 68.0985C23.9526 69.5999 22.8534 70.9324 21.3681 71.0477C19.4757 71.2018 17.574 71.2018 15.6816 71.0477C14.0971 70.9163 13.0006 69.5517 12.9577 67.9457C12.9148 66.3398 12.9041 64.8062 12.9577 63.2378C12.9739 62.3752 13.3294 61.5537 13.9472 60.9515C14.565 60.3493 15.3953 60.0148 16.258 60.0206C16.9926 60.034 17.7272 60.0447 18.4618 60.0447ZM18.4806 68.6937C19.1508 68.6937 19.8211 68.6937 20.4887 68.6937C21.2367 68.6937 21.604 68.3318 21.6067 67.5972C21.6067 66.2567 21.6067 64.9162 21.6067 63.5756C21.6067 62.8839 21.2179 62.5032 20.5611 62.4791C19.1911 62.4416 17.821 62.4469 16.451 62.4791C16.3071 62.4669 16.1623 62.4862 16.0266 62.5358C15.891 62.5853 15.7678 62.6639 15.6656 62.7661C15.5635 62.8682 15.4849 62.9914 15.4353 63.1271C15.3857 63.2627 15.3664 63.4076 15.3786 63.5515C15.3786 64.9242 15.3598 66.2942 15.3786 67.6642C15.3786 68.3452 15.7701 68.6964 16.4671 68.6884C17.1642 68.6803 17.813 68.6937 18.4913 68.6937H18.4806Z" fill="url(#paint5_linear_943_1383)"/>
<path d="M86.0535 83.5947C86.0535 84.2971 86.0749 84.9996 86.0535 85.702C85.9865 87.6457 84.6406 89.0426 82.7049 89.1123C81.2357 89.1641 79.7656 89.1641 78.2946 89.1123C77.4154 89.113 76.5715 88.7663 75.9468 88.1476C75.3221 87.5289 74.9672 86.6884 74.9594 85.8092C74.9058 84.3052 74.9084 82.8011 74.9594 81.2971C74.9572 80.8526 75.0437 80.4121 75.214 80.0016C75.3843 79.591 75.6349 79.2186 75.9511 78.9062C76.2672 78.5938 76.6426 78.3477 77.0551 78.1823C77.4677 78.0169 77.9091 77.9356 78.3536 77.9431C79.7879 77.9109 81.2276 77.9109 82.662 77.9431C83.1048 77.9385 83.5442 78.0215 83.9547 78.1875C84.3653 78.3535 84.739 78.599 85.0542 78.91C85.3695 79.221 85.6201 79.5914 85.7916 79.9997C85.9631 80.408 86.0521 80.8462 86.0535 81.289C86.083 82.0558 86.0535 82.8279 86.0535 83.5947ZM83.6191 83.5089C83.6191 82.8735 83.6191 82.2381 83.6191 81.6054C83.6191 80.8198 83.2465 80.4338 82.4609 80.4338C81.1579 80.4338 79.8576 80.4338 78.5546 80.4338C77.7074 80.4338 77.3642 80.86 77.3776 81.6858C77.3991 82.9191 77.3991 84.1541 77.3776 85.391C77.3776 86.2328 77.7503 86.6189 78.5841 86.6109C79.82 86.6109 81.056 86.6109 82.2893 86.6109C83.3912 86.5975 83.6057 86.3615 83.6164 85.2167C83.6405 84.643 83.6244 84.0746 83.6244 83.5089H83.6191Z" fill="url(#paint6_linear_943_1383)"/>
<path d="M74.9646 65.5324C74.9646 64.728 74.919 63.9237 74.9646 63.1194C75.0132 62.2953 75.3721 61.5201 75.9689 60.9496C76.5657 60.3791 77.3563 60.0557 78.1818 60.0443C79.7171 60.0139 81.2534 60.0139 82.7906 60.0443C83.6178 60.0487 84.4119 60.3694 85.0101 60.9407C85.6084 61.512 85.9654 62.2906 86.0078 63.1167C86.0775 64.7495 86.0695 66.3903 86.0078 68.0257C85.9569 69.57 84.855 70.9266 83.3268 71.0553C81.4354 71.2108 79.5343 71.2108 77.6429 71.0553C76.1067 70.9293 75.0423 69.5861 74.9619 68.0284C74.9136 67.1946 74.9619 66.3581 74.9619 65.5243L74.9646 65.5324ZM80.4634 68.6933C81.1309 68.6933 81.8039 68.6933 82.4688 68.6933C83.2731 68.7121 83.6243 68.2938 83.6216 67.5217C83.6216 66.2509 83.6216 64.9801 83.6216 63.7093C83.6216 62.9318 83.2597 62.4974 82.4929 62.4813C81.156 62.4545 79.8155 62.4545 78.4714 62.4813C77.7636 62.4974 77.3695 62.8889 77.3722 63.6315C77.3722 64.972 77.3722 66.3125 77.3722 67.6531C77.3722 68.334 77.7341 68.7013 78.4446 68.6987L80.4634 68.6933Z" fill="url(#paint7_linear_943_1383)"/>
<path d="M47.7146 37.4247C47.7146 36.792 47.6717 36.1539 47.7146 35.5238C47.7763 34.8053 48.1838 34.3522 48.9479 34.3522C49.0995 34.3409 49.2518 34.3607 49.3954 34.4105C49.5391 34.4603 49.671 34.539 49.7831 34.6417C49.8951 34.7445 49.985 34.8691 50.047 35.0079C50.109 35.1467 50.1419 35.2968 50.1437 35.4488C50.2017 36.0789 50.2143 36.7124 50.1812 37.3443C50.1624 37.8992 50.3581 38.1486 50.9319 38.1003C51.1314 38.0888 51.3316 38.0959 51.5297 38.1218C52.2322 38.1942 52.645 38.6044 52.6638 39.288C52.6806 39.4478 52.6632 39.6093 52.6127 39.7618C52.5622 39.9143 52.4798 40.0544 52.371 40.1726C52.2622 40.2908 52.1295 40.3844 51.9816 40.4473C51.8338 40.5102 51.6742 40.5409 51.5136 40.5374C50.6474 40.5843 49.7793 40.5843 48.913 40.5374C48.1731 40.5052 47.7602 40.0441 47.7119 39.3202C47.6824 38.6928 47.7146 38.0574 47.7146 37.4247Z" fill="url(#paint8_linear_943_1383)"/>
<defs>
<linearGradient id="paint0_linear_943_1383" x1="0.133057" y1="50" x2="98.8671" y2="50" gradientUnits="userSpaceOnUse">
<stop stop-color="#CCAB64"/>
<stop offset="1" stop-color="#FAECC9"/>
</linearGradient>
<linearGradient id="paint1_linear_943_1383" x1="41.1155" y1="38.5148" x2="57.6759" y2="38.5148" gradientUnits="userSpaceOnUse">
<stop stop-color="#CCAB64"/>
<stop offset="1" stop-color="#FAECC9"/>
</linearGradient>
<linearGradient id="paint2_linear_943_1383" x1="38.127" y1="54.3125" x2="60.8517" y2="54.3125" gradientUnits="userSpaceOnUse">
<stop stop-color="#CCAB64"/>
<stop offset="1" stop-color="#FAECC9"/>
</linearGradient>
<linearGradient id="paint3_linear_943_1383" x1="38.0547" y1="62.8638" x2="60.9508" y2="62.8638" gradientUnits="userSpaceOnUse">
<stop stop-color="#CCAB64"/>
<stop offset="1" stop-color="#FAECC9"/>
</linearGradient>
<linearGradient id="paint4_linear_943_1383" x1="12.9297" y1="83.5259" x2="24.0735" y2="83.5259" gradientUnits="userSpaceOnUse">
<stop stop-color="#CCAB64"/>
<stop offset="1" stop-color="#FAECC9"/>
</linearGradient>
<linearGradient id="paint5_linear_943_1383" x1="12.9214" y1="65.5919" x2="24.0716" y2="65.5919" gradientUnits="userSpaceOnUse">
<stop stop-color="#CCAB64"/>
<stop offset="1" stop-color="#FAECC9"/>
</linearGradient>
<linearGradient id="paint6_linear_943_1383" x1="74.9202" y1="83.535" x2="86.0666" y2="83.535" gradientUnits="userSpaceOnUse">
<stop stop-color="#CCAB64"/>
<stop offset="1" stop-color="#FAECC9"/>
</linearGradient>
<linearGradient id="paint7_linear_943_1383" x1="74.9404" y1="65.5967" x2="86.0571" y2="65.5967" gradientUnits="userSpaceOnUse">
<stop stop-color="#CCAB64"/>
<stop offset="1" stop-color="#FAECC9"/>
</linearGradient>
<linearGradient id="paint8_linear_943_1383" x1="47.6956" y1="37.4608" x2="52.67" y2="37.4608" gradientUnits="userSpaceOnUse">
<stop stop-color="#CCAB64"/>
<stop offset="1" stop-color="#FAECC9"/>
</linearGradient>
</defs>
</svg>
