<svg width="81" height="80" viewBox="0 0 81 80" fill="none" xmlns="http://www.w3.org/2000/svg">
<path d="M3.5293 29.7277C3.6293 29.3777 3.71935 29.0377 3.82935 28.7277C4.15012 27.5516 4.74386 26.4677 5.56226 25.5642C6.38065 24.6607 7.40057 23.9629 8.53931 23.5277C9.44729 23.3241 10.3202 22.9871 11.1294 22.5277C11.7994 21.9677 12.0493 20.9477 12.5493 20.1677C15.3352 15.8207 19.5961 12.6249 24.5493 11.1677C26.4992 10.5579 28.5121 10.172 30.5493 10.0177C33.2893 9.78768 35.1894 11.8277 35.1294 14.6377C35.0041 17.2861 35.9357 19.8759 37.7194 21.8377C38.0694 22.2277 38.4694 22.5577 38.8794 22.9477C40.3274 20.6425 42.5678 18.9461 45.1793 18.1777C46.0128 17.9566 46.862 17.7995 47.7194 17.7077C48.5394 17.6077 49.0494 18.0177 49.3594 18.9177C50.466 22.1044 51.5727 25.2977 52.6793 28.4977C54.1693 32.7777 55.6793 37.0477 57.1393 41.3377C57.7212 43.0964 58.6616 44.7154 59.9009 46.0923C61.1401 47.4693 62.6514 48.5743 64.3394 49.3377C66.5094 50.3377 68.7194 51.3377 70.8594 52.3877C72.89 53.3075 74.5952 54.8194 75.7516 56.7252C76.9079 58.631 77.4614 60.8418 77.3394 63.0677C77.2437 64.8606 76.4898 66.5551 75.222 67.8265C73.9543 69.0979 72.262 69.8568 70.4694 69.9577C69.6294 69.9577 68.7893 69.9577 67.9493 69.9577H16.2394C15.9494 69.9577 15.6594 69.9577 15.3794 69.9577C15.1986 69.9551 15.0201 69.9167 14.8542 69.8448C14.6884 69.7729 14.5383 69.6689 14.4128 69.5388C14.2873 69.4087 14.1889 69.255 14.123 69.0866C14.0572 68.9182 14.0253 68.7384 14.0293 68.5577C14.0151 68.1924 14.1424 67.8358 14.3845 67.562C14.6267 67.2882 14.9651 67.1183 15.3293 67.0877C15.5693 67.0877 15.8093 67.0877 16.0493 67.0877H43.3893C41.7193 66.0177 40.0293 65.0277 38.4493 63.8777C37.2854 62.9857 36.1768 62.0239 35.1294 60.9977C34.9607 60.8787 34.82 60.7244 34.717 60.5454C34.6141 60.3665 34.5514 60.1674 34.5333 59.9618C34.5152 59.7562 34.5422 59.549 34.6123 59.3549C34.6824 59.1608 34.794 58.9843 34.9393 58.8377C35.0874 58.6872 35.2659 58.5698 35.4628 58.4935C35.6597 58.4172 35.8706 58.3836 36.0814 58.3949C36.2923 58.4063 36.4983 58.4623 36.6859 58.5594C36.8735 58.6564 37.0382 58.7921 37.1693 58.9577C41.0659 62.8913 46.0677 65.5456 51.5094 66.5677C52.9686 66.8635 54.4509 67.0308 55.9393 67.0677C60.6293 67.1277 65.3094 67.0677 69.9994 67.0677C70.9233 67.0766 71.8259 66.7905 72.5759 66.2509C73.3259 65.7113 73.8841 64.9465 74.1693 64.0677H73.3893C68.3893 64.0677 63.3893 64.1877 58.3893 64.0677C54.5933 63.967 50.8606 63.0723 47.4314 61.4413C44.0022 59.8102 40.9528 57.479 38.4794 54.5977C37.1694 53.1377 36.0694 51.4877 34.8594 49.9277C32.2334 46.6027 29.1494 43.6669 25.6993 41.2077C20.1744 37.2292 15.5646 32.1147 12.1793 26.2077C11.8393 25.6177 11.5293 25.4177 10.8893 25.7277C10.1265 26.0159 9.38186 26.3498 8.6593 26.7277C7.93984 27.1958 7.35303 27.8412 6.95532 28.6019C6.55762 29.3626 6.36243 30.2128 6.38855 31.0708C6.41467 31.9287 6.66125 32.7655 7.10449 33.5006C7.54774 34.2356 8.17271 34.8442 8.91931 35.2677C13.586 38.121 18.2526 40.961 22.9193 43.7877C25.1505 45.1159 27.2065 46.7183 29.0393 48.5577C29.1833 48.6871 29.2996 48.8445 29.381 49.0202C29.4624 49.1959 29.5072 49.3863 29.5128 49.5798C29.5184 49.7734 29.4847 49.966 29.4136 50.1462C29.3425 50.3263 29.2356 50.4901 29.0994 50.6277C28.9726 50.7755 28.8154 50.8942 28.6384 50.9756C28.4615 51.057 28.2691 51.0991 28.0743 51.0991C27.8796 51.0991 27.6872 51.057 27.5103 50.9756C27.3333 50.8942 27.1761 50.7755 27.0493 50.6277C24.4693 47.9677 21.2793 46.1877 18.1593 44.2777C14.6793 42.1577 11.1594 40.0077 7.70935 37.8977C6.66558 37.3063 5.76567 36.4911 5.0741 35.5108C4.38253 34.5305 3.91644 33.4094 3.70935 32.2277C3.68607 32.1634 3.64847 32.1052 3.59937 32.0577L3.5293 29.7277ZM74.3594 61.1777C74.1274 59.8902 73.6004 58.674 72.8197 57.6243C72.039 56.5746 71.0257 55.7201 69.8594 55.1277C69.0294 54.6977 68.1493 54.3577 67.3293 53.9177C67.1574 53.8231 66.9613 53.7812 66.7657 53.7972C66.5701 53.8132 66.3837 53.8864 66.2294 54.0077C64.2483 55.261 61.9186 55.8487 59.5801 55.685C57.2415 55.5213 55.0165 54.6148 53.2294 53.0977C50.8652 50.9538 49.1065 48.2259 48.1294 45.1877C46.1294 39.5677 44.1894 33.9177 42.2494 28.2777C42.1995 28.0748 42.0962 27.889 41.9502 27.7395C41.8042 27.59 41.6209 27.4823 41.4193 27.4277C39.7751 26.9553 38.2453 26.1508 36.9243 25.0638C35.6034 23.9767 34.5194 22.6303 33.7394 21.1077C32.6692 19.078 32.1584 16.8 32.2594 14.5077C32.296 14.2727 32.2746 14.0324 32.1973 13.8076C32.1199 13.5828 31.9888 13.3802 31.8153 13.2176C31.6418 13.055 31.4312 12.9372 31.2019 12.8745C30.9726 12.8118 30.7315 12.806 30.4994 12.8577C30.1194 12.8577 29.7394 12.9377 29.3594 12.9877C27.6262 13.2193 25.9293 13.6695 24.3093 14.3277C26.6565 17.3495 27.7904 21.139 27.4889 24.9535C27.1874 28.7679 25.4721 32.3321 22.6793 34.9477C24.0993 36.1077 25.4493 37.3477 26.9293 38.4077C31.6551 41.8167 35.7957 45.9708 39.1893 50.7077C41.4804 53.9834 44.538 56.649 48.0955 58.4721C51.6529 60.2953 55.6023 61.2207 59.5994 61.1677C64.2594 61.2377 68.9194 61.1677 73.5994 61.1677L74.3594 61.1777ZM21.4694 15.6477C18.3444 17.3072 15.8268 19.9158 14.2793 23.0977C14.2152 23.2391 14.1821 23.3925 14.1821 23.5477C14.1821 23.7029 14.2152 23.8563 14.2793 23.9977C15.3693 25.7477 16.4593 27.4977 17.6493 29.1777C18.5493 30.4377 19.5893 31.5877 20.5593 32.7877C25.5293 28.6777 25.9494 20.2477 21.4694 15.6477ZM41.4694 24.3877C43.6427 25.2678 46.0603 25.3353 48.2793 24.5777C47.8693 23.3877 47.4893 22.2277 47.0593 21.0877C46.9896 20.9996 46.8995 20.9298 46.7966 20.8845C46.6938 20.8392 46.5814 20.8197 46.4694 20.8277C44.4021 21.3282 42.6054 22.6023 41.4493 24.3877H41.4694ZM50.8594 44.2177L54.4794 42.4277L53.2993 39.0777L49.5994 40.5977L50.8594 44.2177ZM49.2793 27.4577L45.2793 28.1077L46.6294 32.0077L50.3494 30.4977L49.2793 27.4577ZM55.6194 45.1177L52.0094 46.8977L54.1294 50.0177L57.5193 47.8277L55.6194 45.1177ZM47.6194 34.7777L48.6793 37.8377L52.3993 36.3077L51.3193 33.2577L47.6194 34.7777ZM56.6194 51.8777C57.6528 52.4143 58.7895 52.7224 59.9524 52.781C61.1153 52.8397 62.2772 52.6476 63.3594 52.2177C62.2094 51.4877 61.0894 50.7577 59.9594 50.0577C59.8813 50.0204 59.7959 50.001 59.7094 50.001C59.6228 50.001 59.5374 50.0204 59.4594 50.0577C58.5094 50.6377 57.5894 51.2377 56.5994 51.8777H56.6194Z" fill="white"/>
<path d="M3.52991 52.5174C3.74541 52.1928 4.04592 51.9335 4.39856 51.7678C4.7512 51.602 5.14245 51.5362 5.52991 51.5774C9.94991 51.5774 14.3699 51.5774 18.7799 51.5774C19.0197 51.5624 19.2602 51.5624 19.5 51.5774C19.8385 51.6022 20.1571 51.7466 20.3989 51.9847C20.6408 52.2229 20.79 52.5393 20.8199 52.8774C20.8494 53.2276 20.7497 53.5765 20.5397 53.8583C20.3297 54.1401 20.0239 54.3354 19.6799 54.4074C19.4002 54.4626 19.1147 54.4827 18.83 54.4674C14.39 54.4674 9.94 54.4674 5.5 54.4674C5.10561 54.5122 4.70659 54.4416 4.35156 54.2641C3.99653 54.0866 3.70077 53.8098 3.5 53.4674L3.52991 52.5174Z" fill="white"/>
<path d="M3.5293 60.3068C3.72515 59.9599 4.02025 59.6794 4.37659 59.5012C4.73292 59.323 5.13424 59.2553 5.5293 59.3068C6.5293 59.3068 7.5293 59.3068 8.5293 59.3068C8.73298 59.2862 8.93882 59.307 9.13428 59.3679C9.32973 59.4288 9.51079 59.5286 9.66675 59.6612C9.82271 59.7938 9.95035 59.9565 10.0419 60.1396C10.1334 60.3227 10.1869 60.5225 10.1993 60.7268C10.1993 61.5868 9.57932 62.2069 8.54932 62.2369C7.51932 62.2669 6.33938 62.2369 5.23938 62.2369C4.90529 62.2366 4.57701 62.1488 4.28748 61.9821C3.99795 61.8154 3.75727 61.5757 3.58936 61.2868L3.5293 60.3068Z" fill="white"/>
<path d="M20.2696 59.3173H25.8896C26.263 59.2764 26.638 59.3801 26.9374 59.6069C27.2368 59.8338 27.438 60.1667 27.4997 60.5373C27.5344 60.7199 27.5326 60.9075 27.4946 61.0894C27.4565 61.2713 27.3828 61.444 27.2778 61.5973C27.1727 61.7506 27.0385 61.8817 26.8826 61.9829C26.7268 62.0842 26.5525 62.1536 26.3697 62.1873C26.1554 62.2275 25.9377 62.2476 25.7197 62.2473H14.7197C13.3297 62.2473 12.5297 61.1773 13.0997 60.1173C13.2529 59.843 13.4836 59.62 13.7627 59.476C14.0419 59.3319 14.3573 59.2732 14.6696 59.3073L20.2696 59.3173Z" fill="white"/>
<path d="M32.0094 56.1371C31.8182 56.1373 31.629 56.0987 31.4532 56.0235C31.2774 55.9483 31.1186 55.8381 30.9867 55.6997C30.8548 55.5613 30.7525 55.3974 30.6859 55.2182C30.6193 55.039 30.5899 54.8481 30.5994 54.6571C30.6121 54.2838 30.7675 53.9295 31.0335 53.6672C31.2995 53.4049 31.6558 53.2545 32.0293 53.2471C32.4143 53.2571 32.781 53.4138 33.0542 53.6852C33.3275 53.9566 33.4868 54.3222 33.4994 54.7071C33.4955 54.8988 33.4539 55.0879 33.3769 55.2635C33.2999 55.4392 33.1889 55.598 33.0506 55.7308C32.9122 55.8636 32.7491 55.9678 32.5705 56.0375C32.3918 56.1073 32.2012 56.1411 32.0094 56.1371Z" fill="white"/>
</svg>
