<svg width="81" height="80" viewBox="0 0 81 80" fill="none" xmlns="http://www.w3.org/2000/svg">
<path d="M34.3991 63.24L29.2492 64.24C24.3992 65.16 19.5391 66.09 14.6791 66.99C14.185 67.0588 13.6814 67.0033 13.2141 66.8285C12.7467 66.6536 12.3304 66.365 12.0028 65.9887C11.6751 65.6124 11.4465 65.1603 11.3376 64.6733C11.2287 64.1864 11.2431 63.68 11.3792 63.2C11.4492 62.96 11.5491 62.73 11.6491 62.46C11.1941 62.1105 10.8514 61.6355 10.663 61.0936C10.4747 60.5516 10.449 59.9663 10.5892 59.41C10.7253 58.8051 11.0455 58.2573 11.5057 57.8418C11.9659 57.4264 12.5435 57.1638 13.1591 57.09C14.6891 56.79 16.1592 56.49 17.7492 56.22C18.1937 56.1212 18.6547 56.1249 19.0975 56.2308C19.5403 56.3366 19.9532 56.5418 20.3049 56.8309C20.6566 57.12 20.9379 57.4854 21.1275 57.8993C21.3171 58.3132 21.41 58.7648 21.3991 59.22C21.3991 59.32 21.3991 59.43 21.3991 59.62L24.4792 59.04L23.3692 53.18L20.2991 53.75C20.0391 53.75 19.7792 53.87 19.5092 53.91C19.2534 53.9737 18.9825 53.9339 18.7559 53.7991C18.5293 53.6642 18.3652 53.4453 18.2991 53.19C18.2651 53.0592 18.258 52.9229 18.2781 52.7893C18.2983 52.6557 18.3452 52.5275 18.4162 52.4125C18.4872 52.2976 18.5809 52.1982 18.6914 52.1204C18.8019 52.0426 18.927 51.9881 19.0592 51.96C20.7192 51.61 22.3992 51.3 24.0592 50.96C25.5292 50.67 26.9892 50.39 28.4692 50.12C28.7692 50.07 29.1692 49.98 29.3692 50.12C29.7025 50.3291 29.9424 50.6586 30.0391 51.04C30.1291 51.57 29.7392 51.93 29.2092 52.04C28.0492 52.27 26.8792 52.48 25.7192 52.7C25.5968 52.7324 25.4766 52.7724 25.3592 52.82L26.4592 58.63L29.7292 58.03C31.3892 57.71 33.0392 57.41 34.7292 57.03C35.0555 56.9469 35.3465 56.7611 35.5592 56.5C36.4483 55.2771 37.7662 54.435 39.2495 54.1421C40.7327 53.8491 42.2719 54.1269 43.5592 54.92C43.7536 55.0465 43.9722 55.1314 44.2011 55.1692C44.43 55.2071 44.6644 55.1972 44.8892 55.14L46.3492 54.84L45.1591 51.84C44.3691 49.84 43.5591 47.84 42.7791 45.84C42.703 45.5691 42.5342 45.3335 42.3021 45.1745C42.0699 45.0155 41.7893 44.9431 41.5092 44.97C40.8592 44.97 40.2192 44.97 39.5092 44.97V45.65C39.5092 47.73 39.5092 49.81 39.5092 51.9C39.5188 52.0371 39.5001 52.1747 39.4542 52.3042C39.4082 52.4337 39.3361 52.5524 39.2423 52.6528C39.1484 52.7532 39.0349 52.8332 38.9088 52.8877C38.7826 52.9423 38.6467 52.9703 38.5092 52.97C38.3718 52.9703 38.2357 52.9423 38.1096 52.8877C37.9834 52.8332 37.8699 52.7532 37.7761 52.6528C37.6822 52.5524 37.6102 52.4337 37.5643 52.3042C37.5184 52.1747 37.4996 52.0371 37.5092 51.9V26H36.7192C28.4392 26 20.1525 26 11.8592 26C11.4749 26.0072 11.0988 25.8877 10.7891 25.66C10.3291 25.29 10.4392 24.66 10.9692 24.15L16.9692 18.56L25.5992 10.51C26.3392 9.83 26.7292 9.83 27.4692 10.51L41.7192 23.8C41.8892 23.96 42.1292 24.09 42.2092 24.28C42.3725 24.6157 42.4482 24.9872 42.4291 25.36C42.3791 25.5659 42.2539 25.7457 42.0782 25.8641C41.9025 25.9825 41.6888 26.0309 41.4792 26H39.5692V39H43.4191C43.9582 38.9549 44.5001 38.9549 45.0391 39C45.5753 39.0892 46.0771 39.3224 46.491 39.6747C46.9049 40.0269 47.2154 40.485 47.3892 41C48.0492 42.66 48.7092 44.32 49.3892 46L52.7392 45.38L58.2492 44.32C58.9692 44.18 59.5092 44.47 59.6292 45.04C59.7492 45.61 59.4292 46.13 58.6292 46.3C57.6292 46.51 56.5492 46.7 55.5092 46.9L54.9191 47.05L56.0192 52.88L58.8991 52.34C58.7863 51.599 58.7561 50.8477 58.8092 50.1C58.9268 49.5004 59.2327 48.9541 59.6823 48.5404C60.132 48.1267 60.7019 47.8673 61.3092 47.8L65.8292 46.94C66.3988 46.7887 67.0004 46.8085 67.5588 46.9971C68.1172 47.1856 68.6078 47.5344 68.9692 48C69.3504 48.4724 69.5794 49.0493 69.6258 49.6546C69.6722 50.2599 69.5339 50.865 69.2292 51.39C69.8727 51.9427 70.2747 52.725 70.3492 53.57C70.4081 54.3122 70.1889 55.0497 69.7342 55.6393C69.2796 56.2288 68.622 56.6283 67.8892 56.76L55.2791 59.15C55.0991 59.15 54.9191 59.24 54.6691 59.3C55.2291 60.68 55.7392 62.04 56.3492 63.35C56.4689 63.504 56.6199 63.6309 56.7923 63.7222C56.9647 63.8136 57.1545 63.8674 57.3492 63.88C58.0786 63.92 58.8097 63.92 59.5391 63.88C60.3348 63.88 61.0979 64.196 61.6605 64.7587C62.2231 65.3213 62.5391 66.0843 62.5391 66.88C62.5391 67.6756 62.2231 68.4387 61.6605 69.0013C61.0979 69.5639 60.3348 69.88 59.5391 69.88H54.7292C54.0799 69.9168 53.4363 69.7417 52.8952 69.381C52.3541 69.0202 51.9449 68.4935 51.7292 67.88C50.8092 65.61 49.9092 63.34 48.9892 61.06C48.9192 60.87 48.8392 60.68 48.7392 60.45L46.5892 60.85V68.65C46.5892 69.65 46.2692 69.92 45.3292 69.92H35.8292C34.9292 69.92 34.5992 69.59 34.5992 68.68V63.14L34.3991 63.24ZM26.3991 12.43L14.0192 24H38.7891L26.3991 12.43ZM44.3991 68.01V67.4C44.3991 64.86 44.4691 62.32 44.3991 59.79C44.3726 59.211 44.2185 58.6452 43.9476 58.1329C43.6767 57.6205 43.2959 57.1745 42.8323 56.8266C42.3688 56.4787 41.8342 56.2376 41.2666 56.1207C40.6989 56.0037 40.1124 56.0137 39.5491 56.15C38.6589 56.3531 37.865 56.8547 37.2993 57.5715C36.7335 58.2882 36.43 59.1769 36.4392 60.09C36.4392 62.62 36.4392 65.16 36.4392 67.7C36.4311 67.8032 36.4311 67.9068 36.4392 68.01H44.3991ZM46.3991 58.9L64.2392 55.52C65.3192 55.32 66.4092 55.12 67.4792 54.89C67.7383 54.8458 67.9695 54.7015 68.123 54.4881C68.2764 54.2748 68.3397 54.0096 68.2991 53.75C68.2482 53.4924 68.0981 53.2651 67.8811 53.1173C67.664 52.9695 67.3976 52.913 67.1392 52.96L66.4091 53.1L48.9592 56.4L45.7092 57L46.3991 58.9ZM34.3991 59.19H34.1392L17.8692 62.27C16.6192 62.51 15.3792 62.74 14.1392 62.99C13.8787 63.0272 13.6432 63.1657 13.4841 63.3754C13.325 63.585 13.2549 63.849 13.2891 64.11C13.3356 64.3672 13.481 64.596 13.694 64.7474C13.9071 64.8988 14.171 64.9607 14.4291 64.92C14.6391 64.92 14.8391 64.86 15.0491 64.82L31.2592 61.75L34.3991 61.14V59.19ZM50.2292 54.1C50.2335 54.0234 50.2335 53.9466 50.2292 53.87L45.3892 41.74C45.3029 41.5133 45.1447 41.3213 44.9388 41.193C44.7329 41.0648 44.4907 41.0076 44.2492 41.03H39.4892V43.03H41.3492C42.0814 42.9464 42.8193 43.1271 43.4299 43.5397C44.0405 43.9522 44.4836 44.5695 44.6791 45.28C45.8391 48.1734 46.9926 51.0633 48.1392 53.95C48.2892 54.34 48.4592 54.48 48.8692 54.37C49.2792 54.26 49.7092 54.2 50.2192 54.1H50.2292ZM50.5892 60.17C51.5892 62.62 52.5192 65.01 53.4892 67.39C53.5657 67.5895 53.7039 67.7593 53.8839 67.8744C54.0638 67.9896 54.276 68.0442 54.4892 68.03C56.0692 68.03 57.6492 68.03 59.2292 68.03C59.3702 68.0471 59.5132 68.0338 59.6488 67.9913C59.7843 67.9487 59.9092 67.8777 60.0152 67.7831C60.1212 67.6885 60.2058 67.5724 60.2634 67.4426C60.321 67.3127 60.3502 67.1721 60.3492 67.03C60.3431 66.8875 60.3079 66.7478 60.246 66.6193C60.1841 66.4908 60.0967 66.3763 59.9891 66.2828C59.8815 66.1892 59.756 66.1185 59.6202 66.0751C59.4844 66.0316 59.3411 66.0163 59.1992 66.03H57.5092C56.7569 66.1271 55.995 65.9458 55.367 65.5204C54.739 65.0949 54.2881 64.4546 54.0992 63.72C53.5792 62.41 53.0492 61.11 52.5092 59.78L50.5892 60.17ZM52.8392 47.53L50.0491 48.06C50.7891 49.89 51.4892 51.68 52.2192 53.46C52.2631 53.5187 52.3207 53.5657 52.3869 53.5971C52.4531 53.6285 52.526 53.6432 52.5992 53.64C53.0492 53.58 53.4792 53.47 53.9492 53.37L52.8392 47.53ZM66.3792 49.02L65.0692 49.27L61.5892 49.92C61.4462 49.9273 61.3064 49.9654 61.1794 50.0314C61.0523 50.0975 60.9409 50.1901 60.8527 50.3029C60.7646 50.4157 60.7017 50.5462 60.6683 50.6854C60.6349 50.8247 60.6317 50.9694 60.6591 51.11C60.6848 51.2548 60.7423 51.3923 60.8272 51.5124C60.9121 51.6326 61.0225 51.7325 61.1505 51.8051C61.2784 51.8777 61.4209 51.9211 61.5676 51.9324C61.7143 51.9436 61.8617 51.9223 61.9992 51.87L62.4291 51.79C63.8491 51.51 65.2792 51.25 66.6992 50.95C66.8298 50.9363 66.9561 50.8951 67.0697 50.829C67.1832 50.763 67.2815 50.6736 67.358 50.5669C67.4345 50.4601 67.4876 50.3384 67.5136 50.2096C67.5397 50.0809 67.5382 49.9481 67.5092 49.82C67.4651 49.5609 67.3207 49.3296 67.1074 49.1762C66.894 49.0227 66.6289 48.9595 66.3692 49L66.3792 49.02ZM13.6591 61.02L15.0092 60.77L18.4892 60.11C18.6305 60.0999 18.768 60.0599 18.8927 59.9927C19.0173 59.9254 19.1262 59.8325 19.2122 59.72C19.2983 59.6075 19.3594 59.478 19.3917 59.3401C19.4239 59.2022 19.4264 59.059 19.3991 58.92C19.3709 58.782 19.3139 58.6515 19.2316 58.5371C19.1494 58.4227 19.044 58.3269 18.9222 58.2561C18.8004 58.1853 18.665 58.1411 18.5249 58.1262C18.3848 58.1114 18.2431 58.1263 18.1092 58.17L17.6791 58.25C16.2391 58.53 14.7892 58.79 13.3492 59.1C13.1037 59.1463 12.8844 59.2828 12.7344 59.4827C12.5845 59.6825 12.5148 59.9313 12.5391 60.18C12.5834 60.4331 12.7233 60.6594 12.93 60.8121C13.1367 60.9648 13.3942 61.0321 13.6491 61L13.6591 61.02Z" fill="white"/>
<path d="M34.3984 38.0005C34.3984 40.1223 33.5556 42.1571 32.0553 43.6574C30.555 45.1577 28.5202 46.0005 26.3984 46.0005C24.2871 46.0006 22.2613 45.166 20.7627 43.6786C19.2641 42.1913 18.4143 40.1719 18.3984 38.0605C18.3984 35.9388 19.2414 33.904 20.7417 32.4037C22.242 30.9034 24.2767 30.0605 26.3984 30.0605C28.5098 30.0605 30.5357 30.8951 32.0343 32.3824C33.5329 33.8698 34.3826 35.8892 34.3984 38.0005ZM32.3984 38.0005C32.3985 36.4196 31.7746 34.9025 30.6624 33.779C29.5501 32.6555 28.0394 32.0164 26.4585 32.0005C24.8712 32.0136 23.3527 32.6499 22.2303 33.7723C21.1079 34.8947 20.4716 36.4133 20.4585 38.0005C20.4585 39.5918 21.0906 41.1179 22.2158 42.2432C23.341 43.3684 24.8672 44.0005 26.4585 44.0005C28.0308 43.9849 29.534 43.3527 30.6449 42.2399C31.7558 41.1272 32.3854 39.6228 32.3984 38.0505V38.0005Z" fill="white"/>
<path d="M13.4092 42V29.44C13.3891 29.2538 13.3891 29.0661 13.4092 28.88C13.4341 28.6493 13.5444 28.4362 13.7183 28.2827C13.8922 28.1291 14.1173 28.0461 14.3493 28.0499C14.5861 28.0461 14.8166 28.1264 14.9997 28.2766C15.1828 28.4267 15.3067 28.637 15.3493 28.8699C15.3643 29.0329 15.3643 29.1969 15.3493 29.3599V54.7299C15.3493 54.8499 15.3493 54.9799 15.3493 55.0999C15.3315 55.3528 15.2184 55.5896 15.0328 55.7622C14.8471 55.9349 14.6028 56.0306 14.3493 56.03C14.099 56.031 13.8573 55.938 13.6722 55.7695C13.487 55.6011 13.3718 55.3693 13.3493 55.1199C13.3393 54.9301 13.3393 54.7398 13.3493 54.5499L13.4092 42Z" fill="white"/>
<path d="M54.3887 21C54.3887 19.6739 54.9153 18.4022 55.853 17.4645C56.7907 16.5268 58.0626 16 59.3887 16C60.7148 16 61.9865 16.5268 62.9242 17.4645C63.8619 18.4022 64.3887 19.6739 64.3887 21C64.3887 22.3261 63.8619 23.5978 62.9242 24.5355C61.9865 25.4732 60.7148 26 59.3887 26C58.0626 26 56.7907 25.4732 55.853 24.5355C54.9153 23.5978 54.3887 22.3261 54.3887 21ZM59.3887 24C60.1843 24 60.9473 23.6839 61.5099 23.1213C62.0725 22.5587 62.3887 21.7956 62.3887 21C62.3888 20.6009 62.3092 20.2058 62.1547 19.8379C62.0002 19.4699 61.7739 19.1366 61.4889 18.8572C61.2039 18.5778 60.866 18.3581 60.4951 18.2109C60.1242 18.0638 59.7276 17.992 59.3286 18C58.5452 18.0183 57.8 18.3424 57.2524 18.9031C56.7049 19.4637 56.3983 20.2163 56.3986 21C56.3986 21.3948 56.4765 21.7858 56.6279 22.1504C56.7793 22.515 57.0012 22.8462 57.2809 23.1249C57.5605 23.4036 57.8923 23.6244 58.2574 23.7745C58.6226 23.9247 59.0138 24.0013 59.4086 24H59.3887Z" fill="white"/>
<path d="M67.47 13.7506C67.47 14.5806 65.6101 16.5006 64.9901 16.3806C64.8148 16.3409 64.6497 16.2654 64.5051 16.1586C64.3605 16.0519 64.2395 15.9164 64.15 15.7606C64.0866 15.5974 64.0636 15.4212 64.0827 15.2471C64.1019 15.0731 64.1628 14.9062 64.2601 14.7606C64.742 14.1621 65.2886 13.6188 65.8901 13.1406C66.0425 13.0594 66.2102 13.0112 66.3825 12.9991C66.5548 12.987 66.7278 13.0114 66.8901 13.0706C67.1901 13.2206 67.35 13.6006 67.47 13.7506Z" fill="white"/>
<path d="M52.1787 29.2106C51.9387 29.0206 51.5487 28.8405 51.4387 28.5505C51.3807 28.3868 51.3597 28.2122 51.377 28.0394C51.3942 27.8665 51.4494 27.6996 51.5387 27.5505C52.0096 26.9745 52.5318 26.4424 53.0988 25.9606C53.2636 25.7969 53.4865 25.7051 53.7187 25.7051C53.951 25.7051 54.1739 25.7969 54.3387 25.9606C54.4383 26.0203 54.5244 26.1001 54.5916 26.1948C54.6587 26.2895 54.7055 26.397 54.729 26.5107C54.7525 26.6244 54.7522 26.7418 54.728 26.8553C54.7039 26.9689 54.6564 27.0762 54.5887 27.1705C54.0179 27.8214 53.4102 28.4391 52.7688 29.0206C52.7088 29.1106 52.4587 29.1206 52.1787 29.2106Z" fill="white"/>
<path d="M60.379 12.0998C60.379 12.4298 60.379 12.7698 60.379 13.0998C60.3637 13.3545 60.2515 13.5937 60.0656 13.7684C59.8797 13.9432 59.6341 14.0403 59.379 14.0398C59.2497 14.0481 59.1201 14.0296 58.9984 13.9854C58.8766 13.9413 58.7654 13.8725 58.6715 13.7833C58.5776 13.6941 58.503 13.5864 58.4527 13.4671C58.4024 13.3478 58.3773 13.2193 58.379 13.0898C58.379 12.3898 58.379 11.6798 58.379 10.9698C58.3991 10.7187 58.5133 10.4845 58.6987 10.3139C58.8841 10.1433 59.1271 10.049 59.379 10.0498C59.6309 10.049 59.8738 10.1433 60.0592 10.3139C60.2446 10.4845 60.3588 10.7187 60.379 10.9698C60.399 11.3498 60.379 11.7198 60.379 12.0998Z" fill="white"/>
<path d="M54.7085 15.3202C54.7085 16.1002 53.8385 16.6902 53.2585 16.2502C52.59 15.7233 51.9827 15.1229 51.4484 14.4602C51.3784 14.3803 51.3258 14.2867 51.2941 14.1852C51.2625 14.0838 51.2526 13.9769 51.2649 13.8713C51.2771 13.7658 51.3113 13.664 51.3653 13.5725C51.4193 13.481 51.4919 13.4019 51.5785 13.3402C51.8785 13.1302 52.4784 12.9502 52.6784 13.1102C53.368 13.6947 54.0132 14.3299 54.6085 15.0102C54.7085 15.0902 54.7085 15.2402 54.7085 15.3202Z" fill="white"/>
<path d="M50.3887 22C50.0387 22 49.6786 22 49.3286 22C49.0739 21.9847 48.8348 21.8726 48.66 21.6867C48.4853 21.5008 48.3882 21.2551 48.3887 21C48.3887 20.7348 48.494 20.4804 48.6815 20.2929C48.8691 20.1054 49.1235 20 49.3887 20C50.0687 20 50.7586 20 51.4486 20C51.7138 20 51.9682 20.1054 52.1558 20.2929C52.3433 20.4804 52.4486 20.7348 52.4486 21C52.4486 21.2652 52.3433 21.5196 52.1558 21.7071C51.9682 21.8946 51.7138 22 51.4486 22C51.0586 22.06 50.7087 22 50.3887 22Z" fill="white"/>
<path d="M68.3496 22C68.0196 22 67.6796 22 67.3496 22C67.0844 22 66.83 21.8946 66.6425 21.7071C66.4549 21.5196 66.3496 21.2652 66.3496 21C66.3492 20.7449 66.4462 20.4992 66.621 20.3133C66.7957 20.1274 67.0349 20.0153 67.2896 20C67.9896 20 68.6995 20 69.4095 20C69.5374 20.0011 69.6637 20.0282 69.7806 20.0798C69.8976 20.1313 70.0028 20.2062 70.0898 20.2998C70.1769 20.3934 70.2439 20.5038 70.2869 20.6241C70.3298 20.7445 70.3478 20.8724 70.3396 21C70.3396 21.2652 70.2343 21.5196 70.0468 21.7071C69.8592 21.8946 69.6048 22 69.3396 22C69.0596 22.06 68.7096 22 68.3496 22Z" fill="white"/>
<path d="M58.3887 29.9998C58.3887 29.6498 58.3887 29.2898 58.3887 28.9398C58.4159 28.6941 58.5331 28.4671 58.7178 28.3028C58.9024 28.1384 59.1415 28.0483 59.3887 28.0498C59.5136 28.0342 59.6403 28.0454 59.7606 28.0824C59.8809 28.1195 59.992 28.1816 60.0865 28.2648C60.1811 28.348 60.2569 28.4503 60.309 28.5649C60.361 28.6796 60.3882 28.8039 60.3887 28.9298C60.4287 29.6793 60.4287 30.4303 60.3887 31.1798C60.3547 31.4201 60.2345 31.6398 60.0505 31.798C59.8666 31.9562 59.6313 32.0422 59.3887 32.0398C59.1383 32.0408 58.8967 31.9479 58.7115 31.7794C58.5264 31.6109 58.4112 31.3791 58.3887 31.1298V29.9998Z" fill="white"/>
<path d="M64.9484 25.6406C65.1186 25.6702 65.2836 25.724 65.4384 25.8006C66.1004 26.3943 66.7313 27.0218 67.3284 27.6806C67.3904 27.7738 67.4332 27.8782 67.4547 27.988C67.4761 28.0978 67.4757 28.2108 67.4534 28.3204C67.4311 28.4301 67.3874 28.5342 67.3248 28.6269C67.2622 28.7196 67.1818 28.799 67.0885 28.8606C66.9207 29.0225 66.6966 29.113 66.4635 29.113C66.2303 29.113 66.0062 29.0225 65.8385 28.8606C65.2634 28.3806 64.7375 27.8447 64.2685 27.2606C64.1841 27.1093 64.1341 26.9413 64.122 26.7684C64.1099 26.5956 64.136 26.4222 64.1984 26.2606C64.3284 26.0006 64.7084 25.8206 64.9484 25.6406Z" fill="white"/>
<path d="M42.8893 60.0006C42.8906 60.3279 42.8271 60.6523 42.7024 60.955C42.5777 61.2577 42.3943 61.5328 42.1628 61.7642C41.9314 61.9957 41.6563 62.1791 41.3536 62.3037C41.0509 62.4284 40.7265 62.4919 40.3992 62.4906C40.0667 62.4933 39.7371 62.4293 39.4299 62.3021C39.1227 62.1749 38.8442 61.9873 38.611 61.7503C38.3777 61.5134 38.1945 61.2319 38.0723 60.9227C37.95 60.6136 37.8911 60.283 37.8992 59.9506C37.9018 59.6232 37.9692 59.2996 38.0975 58.9984C38.2258 58.6972 38.4124 58.4243 38.6467 58.1956C38.881 57.9669 39.1583 57.7869 39.4625 57.6659C39.7667 57.5448 40.0918 57.4853 40.4192 57.4906C40.7469 57.4905 41.0715 57.5557 41.3738 57.6823C41.6761 57.809 41.9502 57.9945 42.18 58.2281C42.4099 58.4617 42.591 58.7387 42.7128 59.043C42.8345 59.3474 42.8946 59.6729 42.8893 60.0006ZM40.4092 59.3106C40.1792 59.6006 39.9092 59.8106 39.9392 59.9506C39.9692 60.0906 40.2392 60.3105 40.4092 60.4805C40.5692 60.3205 40.8292 60.1606 40.8492 59.9906C40.8692 59.8206 40.6292 59.6605 40.4092 59.3505V59.3106Z" fill="white"/>
</svg>
