<svg width="153" height="100" viewBox="0 0 153 100" fill="none" xmlns="http://www.w3.org/2000/svg">
<path d="M152.214 73.3754C151.301 76.9889 149.901 80.3454 147.343 83.1485C143.84 86.9913 139.48 89.5097 134.735 91.4508C127.354 94.4555 119.633 96.1397 111.805 97.3811C98.4967 99.4074 85.0359 100.261 71.5781 99.9311C60.2909 99.7097 49.0431 98.8913 37.9179 96.8237C36.0796 96.4837 35.2533 95.5229 35.5458 94.1234C35.8384 92.7239 36.9612 92.1822 38.7837 92.4115C45.1766 93.222 51.5615 94.2815 57.982 94.6848C66.0907 95.1988 74.2388 95.3964 82.3633 95.3134C96.4299 95.179 110.39 93.815 124.057 90.2687C129.987 88.7308 135.767 86.7778 140.772 83.0852C143.987 80.7131 146.501 77.7796 147.422 73.7905C148.486 69.2005 147.149 65.1521 143.991 61.8153C142.25 60.0793 140.338 58.5255 138.282 57.1778C136.491 55.9364 134.996 54.5211 134.032 52.568C132.308 49.0837 130.595 45.594 128.892 42.0991C128.137 40.5494 128.461 39.2645 129.683 38.6635C130.905 38.0626 132.134 38.5568 132.901 40.1026C134.482 43.2654 136.064 46.4282 137.57 49.6464C138.311 51.3792 139.611 52.8141 141.263 53.7225C142.212 54.2325 143.034 54.9718 143.951 55.5411C144.36 55.7877 144.82 55.9378 145.295 55.9799C145.719 55.9532 146.138 55.8653 146.537 55.719C146.418 55.2762 146.414 54.7504 146.165 54.3985C144.457 51.9829 142.69 49.6148 140.958 47.215C139.377 44.9892 140.077 43.4038 142.816 43.0836C144.153 42.9294 144.315 42.5538 143.477 41.3915C141.773 39.0194 140.033 36.7026 138.337 34.3463C136.641 31.99 137.376 30.4442 140.187 30.1556C141.373 30.033 141.63 29.5902 140.978 28.6572C138.238 24.8579 135.443 21.0902 132.699 17.3106C132.091 16.4764 131.545 16.5595 130.968 17.362C129.323 19.6432 127.627 21.8809 126.034 24.1937C125.906 24.4298 125.829 24.6904 125.81 24.9582C125.79 25.2261 125.827 25.4951 125.919 25.7474C126.544 27.2418 127.323 28.673 128.022 30.1398C128.789 31.7489 128.461 33.097 127.192 33.6663C125.923 34.2356 124.761 33.6663 124.006 32.1205C119.725 23.4228 115.444 14.725 111.161 6.02731C110.838 5.52132 110.463 5.05086 110.042 4.62381C109.613 5.05913 109.231 5.53889 108.903 6.05498C102.617 18.7062 96.3442 31.3575 90.0845 44.0087C89.9012 44.4123 89.6843 44.7998 89.4361 45.1671C88.6968 46.1713 87.7163 46.4599 86.5777 45.9261C86.3176 45.808 86.0843 45.6381 85.8919 45.4269C85.6994 45.2158 85.5519 44.9677 85.4584 44.6977C85.3648 44.4278 85.3271 44.1416 85.3476 43.8567C85.3681 43.5717 85.4463 43.2939 85.5775 43.0401C86.301 41.4587 87.0956 39.9445 87.9496 38.4461C88.1657 38.0948 88.2801 37.6903 88.2801 37.2778C88.2801 36.8653 88.1657 36.4609 87.9496 36.1096C85.447 31.0886 82.9959 26.04 80.5012 21.019C80.2179 20.5851 79.8834 20.1869 79.5049 19.833C79.1231 20.1708 78.7845 20.5546 78.4968 20.9755C76.52 24.7788 74.8358 28.7442 72.61 32.3814C67.1344 41.3163 59.0455 46.4559 48.6754 47.9266C39.5586 49.2194 30.4893 50.6269 21.7915 53.8332C18.0792 55.2011 14.521 56.8655 11.4255 59.3681C8.48799 61.7402 6.21469 64.6223 5.46352 68.4374C4.48701 73.3833 6.28193 77.4396 9.69381 80.891C13.3943 84.631 18.0713 86.7027 22.9262 88.4264C24.6381 89.0352 26.4014 89.4938 28.137 90.0394C29.7381 90.5455 30.4181 91.6683 29.9911 93.0401C29.6195 94.2262 28.469 94.7797 26.9785 94.3685C20.7834 92.6646 14.7622 90.5376 9.52379 86.671C5.26981 83.532 2.10305 79.5824 1.07118 74.2728C-0.197898 67.7812 1.99631 62.3293 6.51913 57.7392C10.4726 53.7146 15.4066 51.1883 20.6885 49.4843C25.4999 47.9345 30.4339 46.7524 35.3521 45.5703C36.9691 45.175 38.3014 44.6926 39.1237 43.1547C39.5191 42.4233 40.0845 41.7908 40.1952 41.178C39.6575 39.7666 38.934 38.4105 38.6335 36.9359C38.2895 35.2517 39.4242 33.9707 40.3849 32.7016C41.3456 31.4326 42.1798 30.2426 43.0654 29.0328C40.3612 25.5695 40.3414 24.1107 42.8993 20.6039C45.1924 17.4622 47.4907 14.3205 49.7943 11.1787C52.4471 7.58104 56.1199 7.62057 58.7845 11.2341C61.0855 14.3732 63.3838 17.5162 65.6795 20.6632C68.1544 24.0356 68.1267 25.8028 65.462 29.0051L67.6009 31.9623C68.3679 30.717 69.123 29.6614 69.7081 28.5149C71.4516 25.0951 73.0962 21.6279 74.8476 18.2041C75.2503 17.3219 75.9053 16.5788 76.73 16.0687C77.5547 15.5585 78.5121 15.3042 79.4812 15.3378C81.62 15.3378 83.1263 16.346 84.1463 18.1685C84.3875 18.5955 84.5852 19.0502 84.8026 19.493C86.6239 23.2014 88.4477 26.9098 90.2743 30.6181C90.4877 31.0412 90.725 31.4523 91.065 32.0414C91.405 31.4088 91.6659 30.9582 91.8952 30.4956C96.3442 21.442 100.793 12.3872 105.242 3.33101C106.61 0.563553 109.152 -0.590871 111.817 0.290762C113.268 0.769136 114.189 1.79705 114.841 3.14124C117.361 8.32034 119.895 13.4915 122.444 18.6548C122.673 19.1292 122.942 19.5839 123.298 20.2362C124.674 18.3583 125.935 16.6227 127.208 14.895C129.975 11.1471 133.802 11.1511 136.562 14.895C139.071 18.3214 141.575 21.7478 144.074 25.1742C146.639 28.6849 146.56 30.5628 143.651 33.8719C144.675 35.2793 145.71 36.7105 146.75 38.1338C149.308 41.6247 149.233 43.554 146.319 46.8315C147.462 48.4129 148.62 49.9943 149.771 51.5757C152.091 54.7701 151.728 57.4309 148.905 59.6765L152.285 68.6391L152.214 73.3754ZM44.0814 43.9178C52.0636 43.4315 58.919 41.008 64.5093 35.4217C62.8962 33.2077 61.3464 31.1637 59.8915 29.0684C58.7055 27.3486 59.4092 25.6604 61.4136 25.3442L63.2836 25.0674L54.2222 12.685L45.224 25.0002C45.8961 25.1702 46.1215 25.2572 46.3547 25.2849C49.2803 25.6525 49.9406 27.1865 48.1931 29.5902C46.6868 31.6619 45.1686 33.7217 43.6663 35.7933C43.3935 36.1689 43.1761 36.584 42.844 37.1217C43.3896 37.2284 43.7098 37.3114 44.03 37.351C46.6038 37.6594 47.3431 39.3277 45.8368 41.4784C45.307 42.2494 44.7694 42.9966 44.0814 43.9178Z" fill="url(#paint0_linear_943_1363)"/>
<path d="M78.9592 88.1972C62.8328 87.9679 49.3355 87.0942 36.119 83.7139C31.4419 82.5279 26.8322 81.073 22.7522 78.3885C21.5502 77.6153 20.4572 76.6845 19.5023 75.6211C16.893 72.6401 16.9681 69.1097 19.5735 66.1327C21.5503 63.8475 24.1635 62.448 26.8836 61.2501C33.0409 58.5993 39.5503 56.8561 46.2083 56.0749C54.3565 55.0431 62.5759 54.5607 70.7675 53.861C71.2549 53.8057 71.7484 53.8736 72.2027 54.0586C72.6712 54.2395 73.0567 54.5866 73.2857 55.0336C73.5146 55.4806 73.571 55.9962 73.4441 56.4821C73.1989 57.6247 72.4201 58.2098 71.2301 58.281C66.4859 58.5577 61.7733 58.7198 57.0646 59.1824C47.0069 60.1668 37.0243 61.6138 27.7059 65.8599C26.147 66.5806 24.6944 67.5118 23.3887 68.6273C21.6412 70.1138 21.5542 71.7664 23.3887 73.1027C25.5846 74.7471 27.9747 76.1147 30.505 77.1748C37.1153 79.8276 44.109 81.0137 51.1383 81.9823C62.3829 83.4676 73.7379 83.9439 85.0674 83.4056C97.4893 82.8876 109.832 81.6621 121.653 77.4753C124.062 76.6166 126.354 75.4612 128.477 74.0357C131.64 71.9206 131.529 69.9122 128.477 67.7101C125.227 65.3736 121.483 64.1164 117.692 63.0331C107.934 60.2657 97.9242 59.1033 87.823 58.5577C85.7553 58.447 83.6836 58.368 81.6159 58.277C80.0345 58.2019 79.1015 57.3321 79.145 55.9603C79.1924 54.6556 80.1294 53.7582 81.6397 53.861C88.6651 54.3472 95.7063 54.7031 102.7 55.4819C109.694 56.2607 116.514 57.6247 123.084 60.1075C125.456 61.0089 127.718 62.2503 129.999 63.3929C130.648 63.7494 131.253 64.1806 131.802 64.6778C136.59 68.6945 136.507 73.6246 131.545 77.4437C127.524 80.5393 122.788 82.0772 117.988 83.4016C110.382 85.4573 102.591 86.7538 94.7298 87.2721C88.6176 87.707 82.5134 87.9916 78.9592 88.1972Z" fill="url(#paint1_linear_943_1363)"/>
<path d="M74.128 76.1471C72.59 76.3329 71.0284 76.4911 69.4747 76.7125C68 76.922 66.9128 76.3171 66.6716 75.0401C66.4186 73.7118 67.067 72.668 68.5416 72.3359C72.2033 71.5156 76.0012 71.5156 79.6629 72.3359C81.1296 72.6641 81.7859 73.7236 81.517 75.0441C81.2482 76.3646 80.2005 76.918 78.7061 76.7046C77.2117 76.4911 75.6896 76.3369 74.128 76.1471Z" fill="url(#paint2_linear_943_1363)"/>
<path d="M54.4316 63.9307C56.266 64.1481 57.9897 64.2904 59.6779 64.5711C61.366 64.8518 62.1607 65.9074 61.9274 67.2951C61.6942 68.6828 60.5635 69.086 58.8635 69.0109C55.8865 68.8765 52.8937 68.9081 49.9167 69.0386C48.3867 69.1058 47.2718 68.6077 46.9911 67.2793C46.7341 66.0932 47.5208 64.9072 48.9678 64.6462C50.8102 64.3102 52.6762 64.1521 54.4316 63.9307Z" fill="url(#paint3_linear_943_1363)"/>
<path d="M119.736 52.4373C118.345 52.4373 117.313 51.5122 117.313 50.2194C117.319 49.9116 117.386 49.608 117.512 49.3267C117.637 49.0454 117.817 48.7921 118.042 48.5817C118.267 48.3712 118.532 48.208 118.821 48.1015C119.109 47.9951 119.417 47.9476 119.724 47.962C120.02 47.9514 120.314 47.9994 120.591 48.1032C120.867 48.207 121.12 48.3645 121.336 48.5666C121.551 48.7688 121.724 49.0116 121.845 49.281C121.966 49.5504 122.033 49.8411 122.041 50.1364C122.085 51.4885 121.152 52.4176 119.736 52.4373Z" fill="url(#paint4_linear_943_1363)"/>
<path d="M116.561 71.8692C113.821 71.8692 111.085 71.8692 108.35 71.8692C107.67 71.8692 106.994 72.1064 106.314 72.1578C105.792 72.2344 105.261 72.1035 104.834 71.7931C104.408 71.4827 104.12 71.0175 104.032 70.4973C103.744 69.2876 104.214 68.2241 105.416 67.8999C109.375 66.8127 113.555 66.8127 117.514 67.8999C118.617 68.2004 119.143 69.1927 118.898 70.359C118.653 71.5253 117.83 72.225 116.561 71.8692Z" fill="url(#paint5_linear_943_1363)"/>
<path d="M113.695 42.5972C113.665 43.2188 113.392 43.8037 112.935 44.226C112.478 44.6483 111.873 44.8741 111.251 44.8547C110.65 44.8547 110.072 44.6156 109.647 44.19C109.221 43.7644 108.982 43.1872 108.982 42.5854C108.982 41.9835 109.221 41.4063 109.647 40.9807C110.072 40.5552 110.65 40.3161 111.251 40.3161C111.877 40.2968 112.485 40.5259 112.943 40.9532C113.401 41.3805 113.671 41.9715 113.695 42.5972Z" fill="url(#paint6_linear_943_1363)"/>
<path d="M72.9185 46.1555C71.4952 46.1555 70.5464 45.258 70.5464 43.9297C70.5464 42.6013 71.5467 41.6999 72.9541 41.7236C73.249 41.7098 73.5437 41.7553 73.8207 41.8575C74.0977 41.9597 74.3514 42.1165 74.5667 42.3185C74.7821 42.5206 74.9546 42.7638 75.0742 43.0337C75.1938 43.3037 75.258 43.5949 75.2629 43.8901C75.2906 45.2106 74.322 46.1476 72.9185 46.1555Z" fill="url(#paint7_linear_943_1363)"/>
<defs>
<linearGradient id="paint0_linear_943_1363" x1="0.715088" y1="50" x2="152.285" y2="50" gradientUnits="userSpaceOnUse">
<stop stop-color="#CCAB64"/>
<stop offset="1" stop-color="#FAECC9"/>
</linearGradient>
<linearGradient id="paint1_linear_943_1363" x1="17.582" y1="71.0197" x2="135.33" y2="71.0197" gradientUnits="userSpaceOnUse">
<stop stop-color="#CCAB64"/>
<stop offset="1" stop-color="#FAECC9"/>
</linearGradient>
<linearGradient id="paint2_linear_943_1363" x1="66.6182" y1="74.237" x2="81.576" y2="74.237" gradientUnits="userSpaceOnUse">
<stop stop-color="#CCAB64"/>
<stop offset="1" stop-color="#FAECC9"/>
</linearGradient>
<linearGradient id="paint3_linear_943_1363" x1="46.9429" y1="66.4876" x2="61.9673" y2="66.4876" gradientUnits="userSpaceOnUse">
<stop stop-color="#CCAB64"/>
<stop offset="1" stop-color="#FAECC9"/>
</linearGradient>
<linearGradient id="paint4_linear_943_1363" x1="117.313" y1="50.1984" x2="122.043" y2="50.1984" gradientUnits="userSpaceOnUse">
<stop stop-color="#CCAB64"/>
<stop offset="1" stop-color="#FAECC9"/>
</linearGradient>
<linearGradient id="paint5_linear_943_1363" x1="103.95" y1="69.6318" x2="118.957" y2="69.6318" gradientUnits="userSpaceOnUse">
<stop stop-color="#CCAB64"/>
<stop offset="1" stop-color="#FAECC9"/>
</linearGradient>
<linearGradient id="paint6_linear_943_1363" x1="108.982" y1="42.5854" x2="113.695" y2="42.5854" gradientUnits="userSpaceOnUse">
<stop stop-color="#CCAB64"/>
<stop offset="1" stop-color="#FAECC9"/>
</linearGradient>
<linearGradient id="paint7_linear_943_1363" x1="70.5464" y1="43.9383" x2="75.2635" y2="43.9383" gradientUnits="userSpaceOnUse">
<stop stop-color="#CCAB64"/>
<stop offset="1" stop-color="#FAECC9"/>
</linearGradient>
</defs>
</svg>
