<svg width="81" height="80" viewBox="0 0 81 80" fill="none" xmlns="http://www.w3.org/2000/svg">
<path d="M10.5 34.74C10.63 33.94 10.72 33.12 10.91 32.33C11.79 28.76 14.21 26.92 17.72 26.33C20.6527 25.8623 23.6318 25.7582 26.59 26.02C32.3861 26.4643 38.1298 27.435 43.75 28.92C45.67 29.41 47.57 30 49.47 30.59C49.8912 30.7649 50.3449 30.8475 50.8007 30.8322C51.2565 30.8168 51.7037 30.7039 52.1122 30.5011C52.5206 30.2983 52.8809 30.0103 53.1686 29.6564C53.4563 29.3026 53.6648 28.8912 53.78 28.45L60.07 10.27C60.07 10.18 60.15 10.09 60.18 10H60.42L61.83 10.61L59.49 17.3799L66.33 19.6L68.76 12.12L70.42 12.65C70.36 12.9 70.31 13.13 70.24 13.34C67.92 20.48 65.5867 27.6133 63.24 34.74C63.04 35.34 63.16 35.57 63.69 35.91C65.9122 37.1945 67.7209 39.0876 68.9027 41.3661C70.0845 43.6446 70.5901 46.2135 70.36 48.77C70.1677 51.902 68.8832 54.8674 66.73 57.15C66.5203 57.4088 66.3978 57.7274 66.38 58.06C66.38 59.35 66.38 60.64 66.38 61.93C66.4025 62.0802 66.3691 62.2334 66.2862 62.3605C66.2032 62.4877 66.0765 62.58 65.93 62.62C64.33 63.26 62.76 63.93 61.17 64.62C61.0312 64.6534 60.91 64.7378 60.8304 64.8563C60.7508 64.9748 60.7185 65.1188 60.74 65.2599C60.74 66.8399 60.74 68.42 60.74 70.03H59.07V66.33C59.07 65.59 59.07 64.85 59.07 64.11C59.0485 63.9492 59.0879 63.7862 59.1804 63.653C59.2729 63.5198 59.4119 63.4259 59.57 63.39C61.29 62.7 62.99 61.97 64.69 61.27V58.8H48.71C48.71 59.57 48.71 60.34 48.71 61.11C48.71 61.22 48.97 61.36 49.13 61.43C50.69 62.09 52.25 62.76 53.82 63.43C53.9851 63.4726 54.1287 63.5748 54.2228 63.717C54.317 63.8592 54.3552 64.0313 54.33 64.2C54.33 65.98 54.33 67.76 54.33 69.54V70.08H52.57V68.8199C52.57 67.6499 52.57 66.48 52.57 65.3C52.5915 65.1588 52.5593 65.0148 52.4796 64.8962C52.4 64.7777 52.2788 64.6934 52.14 64.66L47.38 62.66C47.2325 62.6242 47.1036 62.5347 47.0185 62.4089C46.9334 62.2832 46.8983 62.1302 46.92 61.98C46.92 60.6466 46.92 59.3133 46.92 57.98C46.915 57.7365 46.8307 57.5013 46.68 57.31C45.2476 55.8023 44.1743 53.9905 43.54 52.0099C43.54 51.9399 43.46 51.88 43.44 51.83C41.37 52.1 39.32 52.41 37.27 52.64C32.6006 53.2565 27.875 53.3236 23.19 52.84C21.448 52.6476 19.7715 52.066 18.2846 51.1382C16.7977 50.2104 15.5384 48.9602 14.6 47.48C12.3487 44.2712 10.9703 40.5322 10.6 36.6299C10.5764 36.4417 10.543 36.2548 10.5 36.0699V34.74ZM58.93 19.0699C58.82 19.3599 58.75 19.5599 58.68 19.7599L55.41 29.15C54.9939 30.4032 54.099 31.441 52.9206 32.0367C51.7422 32.6325 50.3759 32.7379 49.12 32.33C45.8 31.33 42.49 30.41 39.12 29.66C33.255 28.2257 27.2261 27.5734 21.19 27.72C19.8096 27.7989 18.4382 27.9929 17.09 28.3C16.1564 28.4441 15.2799 28.8408 14.5555 29.4471C13.8311 30.0534 13.2863 30.8463 12.98 31.74C12.642 32.6556 12.4398 33.6158 12.38 34.59C12.27 39.1987 13.8091 43.6952 16.72 47.27C17.4429 48.2949 18.3779 49.1523 19.4615 49.7838C20.5451 50.4153 21.7519 50.8062 23 50.93C24.75 51.12 26.5 51.32 28.25 51.34C32.3499 51.3269 36.4424 50.9925 40.49 50.34L43.07 49.97C42.6943 47.5857 42.9451 45.1447 43.7976 42.8865C44.6502 40.6284 46.0753 38.6308 47.933 37.0897C49.7908 35.5487 52.0173 34.5172 54.3941 34.0964C56.7708 33.6757 59.2162 33.8802 61.49 34.6899C62.93 30.2299 64.38 25.7699 65.85 21.2599L58.93 19.0699ZM56.66 56.97C59.08 56.97 61.5 56.97 63.92 56.97C64.2051 56.9744 64.4833 56.8828 64.71 56.71C66.1482 55.4611 67.2564 53.8772 67.9366 52.0981C68.6168 50.319 68.8481 48.3997 68.61 46.5099C68.448 44.8776 67.9503 43.2965 67.1481 41.8657C66.3459 40.4349 65.2565 39.1854 63.9485 38.1957C62.6404 37.2059 61.1418 36.4973 59.5468 36.1143C57.9518 35.7312 56.2949 35.6821 54.68 35.97C52.4326 36.27 50.3266 37.2362 48.6334 38.744C46.9402 40.2519 45.7374 42.2323 45.18 44.43C44.4848 46.5854 44.4403 48.8979 45.0522 51.0784C45.664 53.259 46.905 55.2108 48.62 56.6899C48.841 56.8686 49.1159 56.9673 49.4 56.97C51.82 56.97 54.24 56.97 56.66 56.97Z" fill="white"/>
<path d="M15.4492 39.5301V37.8301H35.9192V39.5301H15.4492Z" fill="white"/>
<path d="M30.1808 42.6504V44.3504H17.8008V42.6504H30.1808Z" fill="white"/>
<path d="M15.4492 34.7095V33.0195H25.2292V34.7095H15.4492Z" fill="white"/>
<path d="M37.2203 33.0303V34.7203H34.0703V33.0303H37.2203Z" fill="white"/>
<path d="M27.0703 32.9697H28.7603V34.6797H27.0703V32.9697Z" fill="white"/>
<path d="M32.2896 34.7303H30.5996V33.0303H32.2896V34.7303Z" fill="white"/>
<path d="M39.4402 39.5399H37.7402V37.8398H39.4402V39.5399Z" fill="white"/>
<path d="M33.7 42.6396V44.3397H32V42.6396H33.7Z" fill="white"/>
<path d="M37.2095 44.3504H35.5195V42.6504H37.2095V44.3504Z" fill="white"/>
<path d="M47.0703 47.8096H48.7503V49.5496H47.0703V47.8096Z" fill="white"/>
<path d="M54.7903 47.8203V49.5504H53.0703V47.8203H54.7903Z" fill="white"/>
<path d="M60.7703 47.8301V49.5501H59.0703V47.8301H60.7703Z" fill="white"/>
<path d="M66.7303 49.5701H65.0703V47.8301H66.7503L66.7303 49.5701Z" fill="white"/>
<path d="M53.0703 38.5996H54.7603V40.3096H53.0703V38.5996Z" fill="white"/>
<path d="M60.7303 40.3303H59.0703V38.6104H60.7303V40.3303Z" fill="white"/>
<path d="M50.0703 43.21H51.7703V44.91H50.0703V43.21Z" fill="white"/>
<path d="M56 44.8997V43.2197H57.7V44.8997H56Z" fill="white"/>
<path d="M63.6902 43.2197V44.9097H61.9902V43.2197H63.6902Z" fill="white"/>
<path d="M51.7303 54.17H50.0703V52.46H51.7703L51.7303 54.17Z" fill="white"/>
<path d="M57.7203 52.4697V54.1497H56.0703V52.4697H57.7203Z" fill="white"/>
<path d="M63.69 52.4697V54.1697H62V52.4697H63.69Z" fill="white"/>
</svg>
