<svg width="153" height="100" viewBox="0 0 153 100" fill="none" xmlns="http://www.w3.org/2000/svg">
<path d="M152.214 73.3754C151.3 76.9889 149.901 80.3454 147.343 83.1485C143.84 86.9913 139.479 89.5097 134.735 91.4508C127.354 94.4555 119.633 96.1397 111.805 97.3811C98.4964 99.4074 85.0357 100.261 71.5779 99.9311C60.2906 99.7097 49.0429 98.8913 37.9177 96.8237C36.0793 96.4837 35.253 95.5229 35.5456 94.1234C35.8381 92.7239 36.9609 92.1822 38.7835 92.4115C45.1763 93.222 51.5613 94.2815 57.9818 94.6848C66.0904 95.1988 74.2386 95.3964 82.363 95.3134C96.4296 95.179 110.39 93.815 124.057 90.2687C129.987 88.7308 135.767 86.7778 140.772 83.0852C143.986 80.7131 146.501 77.7796 147.422 73.7905C148.486 69.2005 147.149 65.1521 143.99 61.8153C142.25 60.0793 140.337 58.5255 138.282 57.1778C136.491 55.9364 134.996 54.5211 134.031 52.568C132.308 49.0837 130.595 45.594 128.892 42.0991C128.137 40.5494 128.461 39.2645 129.683 38.6635C130.904 38.0626 132.134 38.5568 132.901 40.1026C134.482 43.2654 136.064 46.4282 137.57 49.6464C138.311 51.3792 139.611 52.8141 141.262 53.7225C142.211 54.2325 143.034 54.9718 143.951 55.5411C144.36 55.7877 144.819 55.9378 145.295 55.9799C145.719 55.9532 146.137 55.8653 146.536 55.719C146.418 55.2762 146.414 54.7504 146.165 54.3985C144.457 51.9829 142.69 49.6148 140.958 47.215C139.377 44.9892 140.076 43.4038 142.816 43.0836C144.152 42.9294 144.315 42.5538 143.476 41.3915C141.772 39.0194 140.033 36.7026 138.337 34.3463C136.641 31.99 137.376 30.4442 140.187 30.1556C141.373 30.033 141.63 29.5902 140.978 28.6572C138.238 24.8579 135.443 21.0902 132.699 17.3106C132.09 16.4764 131.545 16.5595 130.968 17.362C129.323 19.6432 127.627 21.8809 126.034 24.1937C125.906 24.4298 125.829 24.6904 125.809 24.9582C125.79 25.2261 125.827 25.4951 125.919 25.7474C126.544 27.2418 127.322 28.673 128.022 30.1398C128.789 31.7489 128.461 33.097 127.192 33.6663C125.923 34.2356 124.761 33.6663 124.005 32.1205C119.725 23.4228 115.443 14.725 111.16 6.02731C110.838 5.52132 110.463 5.05086 110.042 4.62381C109.612 5.05913 109.231 5.53889 108.903 6.05498C102.617 18.7062 96.344 31.3575 90.0843 44.0087C89.901 44.4123 89.6841 44.7998 89.4359 45.1671C88.6966 46.1713 87.7161 46.4599 86.5775 45.9261C86.3174 45.808 86.084 45.6381 85.8916 45.4269C85.6992 45.2158 85.5517 44.9677 85.4581 44.6977C85.3646 44.4278 85.3269 44.1416 85.3474 43.8567C85.3679 43.5717 85.4461 43.2939 85.5772 43.0401C86.3007 41.4587 87.0954 39.9445 87.9493 38.4461C88.1655 38.0948 88.2799 37.6903 88.2799 37.2778C88.2799 36.8653 88.1655 36.4609 87.9493 36.1096C85.4468 31.0886 82.9956 26.04 80.5009 21.019C80.2176 20.5851 79.8831 20.1869 79.5047 19.833C79.1228 20.1708 78.7842 20.5546 78.4965 20.9755C76.5198 24.7788 74.8356 28.7442 72.6098 32.3814C67.1341 41.3163 59.0452 46.4559 48.6752 47.9266C39.5584 49.2194 30.489 50.6269 21.7913 53.8332C18.079 55.2011 14.5208 56.8655 11.4252 59.3681C8.48775 61.7402 6.21445 64.6223 5.46328 68.4374C4.48676 73.3833 6.28169 77.4396 9.69357 80.891C13.3941 84.631 18.071 86.7027 22.926 88.4264C24.6378 89.0352 26.4011 89.4938 28.1367 90.0394C29.7379 90.5455 30.4179 91.6683 29.9909 93.0401C29.6193 94.2262 28.4688 94.7797 26.9783 94.3685C20.7832 92.6646 14.7619 90.5376 9.52354 86.671C5.26957 83.532 2.1028 79.5824 1.07093 74.2728C-0.198142 67.7812 1.99607 62.3293 6.51889 57.7392C10.4724 53.7146 15.4064 51.1883 20.6883 49.4843C25.4997 47.9345 30.4337 46.7524 35.3519 45.5703C36.9689 45.175 38.3012 44.6926 39.1235 43.1547C39.5188 42.4233 40.0842 41.7908 40.1949 41.178C39.6572 39.7666 38.9337 38.4105 38.6333 36.9359C38.2893 35.2517 39.424 33.9707 40.3847 32.7016C41.3454 31.4326 42.1795 30.2426 43.0651 29.0328C40.3609 25.5695 40.3412 24.1107 42.8991 20.6039C45.1921 17.4622 47.4904 14.3205 49.794 11.1787C52.4468 7.58104 56.1196 7.62057 58.7843 11.2341C61.0852 14.3732 63.3836 17.5162 65.6792 20.6632C68.1541 24.0356 68.1264 25.8028 65.4618 29.0051L67.6006 31.9623C68.3676 30.717 69.1227 29.6614 69.7078 28.5149C71.4513 25.0951 73.096 21.6279 74.8474 18.2041C75.25 17.3219 75.9051 16.5788 76.7298 16.0687C77.5545 15.5585 78.5118 15.3042 79.481 15.3378C81.6198 15.3378 83.1261 16.346 84.1461 18.1685C84.3872 18.5955 84.5849 19.0502 84.8024 19.493C86.6236 23.2014 88.4475 26.9098 90.274 30.6181C90.4875 31.0412 90.7247 31.4523 91.0647 32.0414C91.4047 31.4088 91.6656 30.9582 91.8949 30.4956C96.344 21.442 100.793 12.3872 105.242 3.33101C106.61 0.563553 109.152 -0.590871 111.817 0.290762C113.268 0.769136 114.189 1.79705 114.841 3.14124C117.361 8.32034 119.895 13.4915 122.444 18.6548C122.673 19.1292 122.942 19.5839 123.298 20.2362C124.674 18.3583 125.935 16.6227 127.208 14.895C129.975 11.1471 133.802 11.1511 136.562 14.895C139.071 18.3214 141.575 21.7478 144.073 25.1742C146.639 28.6849 146.56 30.5628 143.65 33.8719C144.674 35.2793 145.71 36.7105 146.75 38.1338C149.308 41.6247 149.233 43.554 146.319 46.8315C147.462 48.4129 148.62 49.9943 149.77 51.5757C152.091 54.7701 151.727 57.4309 148.905 59.6765L152.285 68.6391L152.214 73.3754ZM44.0812 43.9178C52.0633 43.4315 58.9187 41.008 64.509 35.4217C62.896 33.2077 61.3462 31.1637 59.8913 29.0684C58.7052 27.3486 59.409 25.6604 61.4134 25.3442L63.2834 25.0674L54.222 12.685L45.2238 25.0002C45.8959 25.1702 46.1212 25.2572 46.3545 25.2849C49.2801 25.6525 49.9403 27.1865 48.1929 29.5902C46.6866 31.6619 45.1684 33.7217 43.6661 35.7933C43.3933 36.1689 43.1758 36.584 42.8438 37.1217C43.3893 37.2284 43.7096 37.3114 44.0298 37.351C46.6035 37.6594 47.3428 39.3277 45.8365 41.4784C45.3068 42.2494 44.7691 42.9966 44.0812 43.9178Z" fill="url(#paint0_linear_1012_1326)"/>
<path d="M78.9587 88.1972C62.8323 87.9679 49.3351 87.0942 36.1185 83.7139C31.4415 82.5279 26.8317 81.073 22.7517 78.3885C21.5497 77.6153 20.4567 76.6845 19.5018 75.6211C16.8925 72.6401 16.9677 69.1097 19.573 66.1327C21.5498 63.8475 24.163 62.448 26.8831 61.2501C33.0404 58.5993 39.5498 56.8561 46.2078 56.0749C54.356 55.0431 62.5754 54.5607 70.767 53.861C71.2544 53.8057 71.7479 53.8736 72.2022 54.0586C72.6707 54.2395 73.0562 54.5866 73.2852 55.0336C73.5142 55.4806 73.5705 55.9962 73.4436 56.4821C73.1985 57.6247 72.4196 58.2098 71.2296 58.281C66.4854 58.5577 61.7728 58.7198 57.0642 59.1824C47.0064 60.1668 37.0238 61.6138 27.7054 65.8599C26.1465 66.5806 24.6939 67.5118 23.3882 68.6273C21.6407 70.1138 21.5537 71.7664 23.3882 73.1027C25.5841 74.7471 27.9742 76.1147 30.5045 77.1748C37.1148 79.8276 44.1085 81.0137 51.1378 81.9823C62.3825 83.4676 73.7374 83.9439 85.0669 83.4056C97.4888 82.8876 109.832 81.6621 121.653 77.4753C124.061 76.6166 126.354 75.4612 128.476 74.0357C131.639 71.9206 131.529 69.9122 128.476 67.7101C125.227 65.3736 121.483 64.1164 117.691 63.0331C107.934 60.2657 97.9237 59.1033 87.8225 58.5577C85.7548 58.447 83.6831 58.368 81.6155 58.277C80.0341 58.2019 79.101 57.3321 79.1445 55.9603C79.192 54.6556 80.129 53.7582 81.6392 53.861C88.6646 54.3472 95.7058 54.7031 102.7 55.4819C109.693 56.2607 116.513 57.6247 123.084 60.1075C125.456 61.0089 127.717 62.2503 129.999 63.3929C130.648 63.7494 131.253 64.1806 131.801 64.6778C136.589 68.6945 136.506 73.6246 131.544 77.4437C127.524 80.5393 122.787 82.0772 117.988 83.4016C110.382 85.4573 102.591 86.7538 94.7293 87.2721C88.6171 87.707 82.5129 87.9916 78.9587 88.1972Z" fill="url(#paint1_linear_1012_1326)"/>
<path d="M74.128 76.1471C72.59 76.3329 71.0284 76.4911 69.4747 76.7125C68 76.922 66.9128 76.3171 66.6716 75.0401C66.4186 73.7118 67.067 72.668 68.5416 72.3359C72.2033 71.5156 76.0012 71.5156 79.6629 72.3359C81.1296 72.6641 81.7859 73.7236 81.517 75.0441C81.2482 76.3646 80.2005 76.918 78.7061 76.7046C77.2117 76.4911 75.6896 76.3369 74.128 76.1471Z" fill="url(#paint2_linear_1012_1326)"/>
<path d="M54.4316 63.9307C56.266 64.1481 57.9897 64.2904 59.6779 64.5711C61.366 64.8518 62.1607 65.9074 61.9274 67.2951C61.6942 68.6828 60.5635 69.086 58.8635 69.0109C55.8865 68.8765 52.8937 68.9081 49.9167 69.0386C48.3867 69.1058 47.2718 68.6077 46.9911 67.2793C46.7341 66.0932 47.5208 64.9072 48.9678 64.6462C50.8102 64.3102 52.6762 64.1521 54.4316 63.9307Z" fill="url(#paint3_linear_1012_1326)"/>
<path d="M119.736 52.4373C118.344 52.4373 117.312 51.5122 117.312 50.2194C117.319 49.9116 117.386 49.608 117.511 49.3267C117.637 49.0454 117.817 48.7921 118.042 48.5817C118.267 48.3712 118.531 48.208 118.82 48.1015C119.109 47.9951 119.417 47.9476 119.724 47.962C120.019 47.9514 120.314 47.9994 120.59 48.1032C120.867 48.207 121.12 48.3645 121.335 48.5666C121.551 48.7688 121.724 49.0116 121.845 49.281C121.966 49.5504 122.033 49.8411 122.041 50.1364C122.084 51.4885 121.151 52.4176 119.736 52.4373Z" fill="url(#paint4_linear_1012_1326)"/>
<path d="M116.561 71.8692C113.821 71.8692 111.085 71.8692 108.349 71.8692C107.669 71.8692 106.993 72.1064 106.313 72.1578C105.792 72.2344 105.26 72.1035 104.834 71.7931C104.408 71.4827 104.12 71.0175 104.032 70.4973C103.744 69.2876 104.214 68.2241 105.416 67.8999C109.375 66.8127 113.554 66.8127 117.514 67.8999C118.617 68.2004 119.143 69.1927 118.897 70.359C118.652 71.5253 117.83 72.225 116.561 71.8692Z" fill="url(#paint5_linear_1012_1326)"/>
<path d="M113.694 42.5972C113.665 43.2188 113.392 43.8037 112.935 44.226C112.478 44.6483 111.873 44.8741 111.251 44.8547C110.649 44.8547 110.072 44.6156 109.647 44.19C109.221 43.7644 108.982 43.1872 108.982 42.5854C108.982 41.9835 109.221 41.4063 109.647 40.9807C110.072 40.5552 110.649 40.3161 111.251 40.3161C111.877 40.2968 112.485 40.5259 112.943 40.9532C113.401 41.3805 113.671 41.9715 113.694 42.5972Z" fill="url(#paint6_linear_1012_1326)"/>
<path d="M72.918 46.1555C71.4947 46.1555 70.5459 45.258 70.5459 43.9297C70.5459 42.6013 71.5462 41.6999 72.9536 41.7236C73.2486 41.7098 73.5432 41.7553 73.8202 41.8575C74.0972 41.9597 74.3509 42.1165 74.5663 42.3185C74.7816 42.5206 74.9541 42.7638 75.0737 43.0337C75.1933 43.3037 75.2575 43.5949 75.2625 43.8901C75.2901 45.2106 74.3215 46.1476 72.918 46.1555Z" fill="url(#paint7_linear_1012_1326)"/>
<defs>
<linearGradient id="paint0_linear_1012_1326" x1="0.714844" y1="50" x2="152.285" y2="50" gradientUnits="userSpaceOnUse">
<stop stop-color="#CCAB64"/>
<stop offset="1" stop-color="#FAECC9"/>
</linearGradient>
<linearGradient id="paint1_linear_1012_1326" x1="17.5815" y1="71.0197" x2="135.33" y2="71.0197" gradientUnits="userSpaceOnUse">
<stop stop-color="#CCAB64"/>
<stop offset="1" stop-color="#FAECC9"/>
</linearGradient>
<linearGradient id="paint2_linear_1012_1326" x1="66.6182" y1="74.237" x2="81.576" y2="74.237" gradientUnits="userSpaceOnUse">
<stop stop-color="#CCAB64"/>
<stop offset="1" stop-color="#FAECC9"/>
</linearGradient>
<linearGradient id="paint3_linear_1012_1326" x1="46.9429" y1="66.4876" x2="61.9673" y2="66.4876" gradientUnits="userSpaceOnUse">
<stop stop-color="#CCAB64"/>
<stop offset="1" stop-color="#FAECC9"/>
</linearGradient>
<linearGradient id="paint4_linear_1012_1326" x1="117.312" y1="50.1984" x2="122.042" y2="50.1984" gradientUnits="userSpaceOnUse">
<stop stop-color="#CCAB64"/>
<stop offset="1" stop-color="#FAECC9"/>
</linearGradient>
<linearGradient id="paint5_linear_1012_1326" x1="103.95" y1="69.6318" x2="118.957" y2="69.6318" gradientUnits="userSpaceOnUse">
<stop stop-color="#CCAB64"/>
<stop offset="1" stop-color="#FAECC9"/>
</linearGradient>
<linearGradient id="paint6_linear_1012_1326" x1="108.982" y1="42.5854" x2="113.694" y2="42.5854" gradientUnits="userSpaceOnUse">
<stop stop-color="#CCAB64"/>
<stop offset="1" stop-color="#FAECC9"/>
</linearGradient>
<linearGradient id="paint7_linear_1012_1326" x1="70.5459" y1="43.9383" x2="75.263" y2="43.9383" gradientUnits="userSpaceOnUse">
<stop stop-color="#CCAB64"/>
<stop offset="1" stop-color="#FAECC9"/>
</linearGradient>
</defs>
</svg>
