<svg width="81" height="80" viewBox="0 0 81 80" fill="none" xmlns="http://www.w3.org/2000/svg">
<g clip-path="url(#clip0_3618_1403)">
<path d="M80.5 43.5308C80.1514 44.3012 79.7425 45.0428 79.2771 45.7488C78.8187 46.3195 78.231 46.7728 77.5626 47.0714C76.8943 47.3699 76.1645 47.505 75.4335 47.4655H74.3853C74.3853 48.4985 74.3853 49.4784 74.3853 50.4583C74.4211 52.0988 73.9048 53.7038 72.9193 55.0158C72.2266 55.935 71.3161 56.6676 70.27 57.1476C69.2238 57.6275 68.0747 57.8399 66.9261 57.7655C66.5549 57.6959 66.1711 57.767 65.8495 57.965C65.5279 58.163 65.2916 58.4738 65.1867 58.8366C64.5904 60.1683 63.5501 61.2516 62.2436 61.9014C60.9371 62.5512 59.4455 62.7271 58.0237 62.399C56.6106 62.0974 55.3421 61.3239 54.4269 60.2057C53.5117 59.0875 53.0041 57.6912 52.9877 56.2463C52.9345 49.9949 52.9877 43.7435 52.9877 37.4997V36.5046H28.0427V43.0675H48.7643C49.1236 43.0162 49.49 43.0689 49.8202 43.2194C50.1544 43.4701 50.5798 43.9334 50.5342 44.2752C50.4132 44.7245 50.1216 45.1088 49.7214 45.3462C49.3828 45.4759 49.0164 45.5151 48.658 45.4601H28.0047V46.3413C28.0047 49.6227 28.0047 52.9041 28.0047 56.216C28.0068 57.5971 27.5541 58.9405 26.7167 60.0387C25.8793 61.137 24.7036 61.9291 23.3713 62.2927C21.8496 62.75 20.2117 62.6188 18.7823 61.9252C17.3528 61.2316 16.2362 60.0262 15.6538 58.5479C15.6007 58.2992 15.4528 58.0808 15.2416 57.9391C15.0304 57.7973 14.7724 57.7433 14.522 57.7883C13.3124 57.9159 12.0901 57.7339 10.9701 57.2596C9.84999 56.7853 8.86883 56.0341 8.11869 55.0766C7.11891 53.769 6.58426 52.165 6.59951 50.519C6.59951 49.5316 6.59951 48.5517 6.59951 47.4807C6.05261 47.4807 5.58926 47.4807 5.1335 47.4807C3.89846 47.4266 2.73078 46.9025 1.86944 46.0157C1.00809 45.129 0.518191 43.9465 0.5 42.7104C0.5 40.9406 0.5 39.1707 0.5 37.3933C0.5 34.2258 2.43696 32.2205 5.58926 32.0762C5.90069 32.0762 6.20452 32.0762 6.6071 32.0762C6.6071 30.9824 6.6071 29.9797 6.6071 28.9695C6.56121 27.3544 7.07887 25.7736 8.07124 24.4985C9.06361 23.2234 10.4688 22.3334 12.0458 21.9812C12.9392 21.8112 13.8485 21.7399 14.7575 21.7685C14.928 21.7748 15.0956 21.7236 15.2334 21.623C15.3712 21.5224 15.4711 21.3784 15.5171 21.2141C16.0392 19.7678 17.066 18.5587 18.4086 17.8092C19.7512 17.0598 21.3193 16.8204 22.8243 17.1351C24.2793 17.4273 25.5875 18.2157 26.5255 19.3657C27.4635 20.5157 27.9729 21.9557 27.9668 23.4396C28.0123 26.6679 27.9668 29.8962 27.9668 33.1244V34.0207H52.9497V33.1624C52.9497 29.9873 52.9497 26.8122 52.9497 23.6371C52.8875 22.0176 53.4454 20.4354 54.5096 19.213C55.5739 17.9907 57.0643 17.2204 58.677 17.0591C60.0554 16.8937 61.4499 17.1873 62.6445 17.8945C63.8392 18.6016 64.7674 19.683 65.2854 20.971C65.3587 21.2348 65.5302 21.4605 65.7647 21.6017C65.9992 21.743 66.2789 21.7891 66.5463 21.7306C67.7309 21.6195 68.9244 21.8059 70.0187 22.2728C71.113 22.7397 72.0735 23.4723 72.813 24.4043C73.8159 25.7103 74.3509 27.3154 74.3321 28.9619C74.3321 29.9493 74.3321 30.9368 74.3321 32.0002L75.6994 32.0762C76.7457 32.1047 77.7548 32.4706 78.5761 33.1195C79.3975 33.7684 79.987 34.6653 80.2569 35.6766C80.3018 35.7955 80.3577 35.91 80.424 36.0184L80.5 43.5308ZM15.1145 55.35V54.3702C15.1145 47.3465 15.1145 40.3177 15.1145 33.2839C15.1055 32.9438 15.1233 32.6034 15.1677 32.2661C15.1917 32.0167 15.3062 31.7848 15.4895 31.6141C15.6728 31.4434 15.9123 31.3457 16.1627 31.3394C16.4229 31.2883 16.6928 31.3385 16.9173 31.4796C17.1417 31.6208 17.3038 31.8423 17.3705 32.099C17.4571 32.4234 17.498 32.7583 17.492 33.094V47.5263C17.492 50.4431 17.492 53.3599 17.492 56.2691C17.5043 56.8332 17.6365 57.3883 17.8796 57.8975C18.1228 58.4066 18.4714 58.8582 18.9024 59.2224C19.3333 59.5866 19.8368 59.855 20.3794 60.0098C20.922 60.1646 21.4913 60.2022 22.0496 60.1203C24.2676 59.8316 25.6576 58.1757 25.6576 55.7754C25.6779 45.0804 25.688 34.4157 25.688 23.7815C25.688 23.5992 25.688 23.4169 25.688 23.2346C25.6221 22.1847 25.1577 21.1997 24.3895 20.481C23.6214 19.7623 22.6077 19.3643 21.5558 19.3683C20.4886 19.3842 19.4705 19.8194 18.7215 20.5798C17.9725 21.3402 17.5527 22.3647 17.5528 23.432C17.5528 24.6018 17.5528 25.7792 17.5528 26.9489C17.5528 27.8984 17.0818 28.4681 16.3526 28.4681C15.6234 28.4681 15.1905 27.9212 15.1753 26.9489C15.1601 25.9767 15.1753 25.1411 15.1753 24.2524C11.5976 23.6068 9.04539 25.6804 9.03779 29.1973C8.99728 36.221 8.97702 43.2776 8.97702 50.3671C8.97013 51.2216 9.14354 52.068 9.48595 52.851C10.4278 54.8411 12.3952 55.6843 15.1145 55.3273V55.35ZM63.4852 39.7329C63.4852 34.2638 63.4852 28.7948 63.4852 23.3257C63.4903 22.6689 63.335 22.0207 63.0327 21.4376C62.7303 20.8545 62.2901 20.354 61.7504 19.9797C61.2106 19.6054 60.5876 19.3685 59.9355 19.2898C59.2834 19.211 58.6219 19.2927 58.0085 19.5278C57.1583 19.848 56.4353 20.4362 55.9488 21.2036C55.4624 21.971 55.2389 22.8758 55.312 23.7815V56.1172C55.3157 56.7115 55.4494 57.2978 55.7039 57.8349C55.9583 58.372 56.3272 58.8468 56.7847 59.2261C57.2422 59.6055 57.7772 59.88 58.3521 60.0306C58.927 60.1811 59.5279 60.2039 60.1126 60.0975C61.0714 59.9392 61.9396 59.437 62.5548 58.6848C63.17 57.9326 63.4899 56.982 63.4548 56.0109C63.4928 50.595 63.4852 45.1791 63.4852 39.7329ZM65.9463 24.1689V55.312C69.6834 55.7298 72.023 53.8384 72.023 50.3595C72.023 43.27 72.023 36.1805 72.023 29.091C72.0214 28.2609 71.8535 27.4396 71.5292 26.6755C70.5798 24.693 68.6884 23.8726 65.9463 24.1689ZM6.57672 34.4613C3.80422 34.2866 2.83954 35.1753 2.83954 37.8263C2.83954 39.2847 2.83954 40.7431 2.83954 42.2015C2.83954 44.3436 4.47266 45.5361 6.56913 44.9588L6.57672 34.4613ZM74.4537 34.4613V45.05C76.7324 45.3386 78.1225 44.3967 78.1681 42.4674C78.206 40.6671 78.1681 38.8745 78.1681 37.0743C78.1883 36.4675 77.989 35.8738 77.6066 35.4021C77.2243 34.9305 76.6846 34.6126 76.0868 34.5069C75.5396 34.4457 74.9885 34.4279 74.4385 34.4537L74.4537 34.4613Z" fill="white"/>
</g>
<defs>
<clipPath id="clip0_3618_1403">
<rect width="80" height="80" fill="white" transform="translate(0.5)"/>
</clipPath>
</defs>
</svg>
