<svg width="101" height="100" viewBox="0 0 101 100" fill="none" xmlns="http://www.w3.org/2000/svg">
<mask id="mask0_943_1534" style="mask-type:luminance" maskUnits="userSpaceOnUse" x="0" y="0" width="101" height="100">
<path d="M99 1.5V98.5H2V1.5H99Z" fill="white" stroke="white" stroke-width="3"/>
</mask>
<g mask="url(#mask0_943_1534)">
<path d="M30.281 37.2783C25.9485 38.9754 22.1687 41.8357 19.358 45.5438C18.8117 46.2848 18.5821 47.2125 18.7197 48.1229C18.8573 49.0332 19.3509 49.8515 20.0919 50.3979C20.6868 50.8388 21.4078 51.0767 22.1482 51.0767C22.6927 51.0773 23.2297 50.9498 23.7157 50.7043C24.2018 50.4589 24.6232 50.1026 24.946 49.664C27.5106 46.3635 31.0933 44.0021 35.1376 42.9464C38.9912 41.887 43.0397 41.7472 46.9573 42.5382V46.3754C42.1066 46.8469 37.4293 48.4271 33.2866 50.994C28.4897 53.9097 24.7913 58.3294 22.7669 63.5651C22.6102 63.9934 22.5395 64.4483 22.5587 64.9039C22.5779 65.3595 22.6866 65.8068 22.8788 66.2204C23.0709 66.634 23.3426 67.0056 23.6784 67.3141C24.0142 67.6226 24.4075 67.862 24.8358 68.0185C25.264 68.1751 25.7189 68.2459 26.1745 68.2267C26.6301 68.2075 27.0775 68.0987 27.4911 67.9066C27.9046 67.7145 28.2763 67.4428 28.5848 67.107C28.8933 66.7712 29.1326 66.3779 29.2891 65.9496C31.6936 59.3372 38.7068 54.4731 46.9573 53.376V59.1794C44.1097 59.6473 41.3954 60.72 38.9973 62.3253C35.7876 64.4523 33.3451 67.5532 32.0293 71.1719C31.715 72.0465 31.7542 73.0093 32.1387 73.8554C32.5232 74.7016 33.2226 75.3644 34.0881 75.7029C34.522 75.8596 34.9828 75.9283 35.4435 75.9049C35.9042 75.8816 36.3557 75.7666 36.7715 75.5667C37.1873 75.3669 37.5591 75.0862 37.8651 74.741C38.1712 74.3958 38.4054 73.9931 38.554 73.5564C39.2501 71.7469 40.3808 70.1365 41.8462 68.8671C43.3117 67.5978 45.067 66.7085 46.9573 66.2777V71.485C46.9601 72.5406 46.573 73.5601 45.8702 74.3478L45.8527 74.3679C43.1356 76.0355 41.0453 78.5537 39.9065 81.5313C39.8028 81.7871 39.7634 82.0645 39.7919 82.339C39.8204 82.6136 39.9159 82.8769 40.07 83.106C40.224 83.335 40.432 83.5227 40.6756 83.6525C40.9192 83.7824 41.1909 83.8504 41.467 83.8507H44.2873V92.2063C44.2748 93.8386 44.8973 95.4118 46.0231 96.5938C47.149 97.7757 48.6901 98.4738 50.3211 98.5407C51.1507 98.5638 51.9765 98.4204 52.7497 98.1188C53.5229 97.8173 54.2279 97.3638 54.8229 96.7852C55.4178 96.2066 55.8907 95.5146 56.2137 94.75C56.5366 93.9855 56.703 93.164 56.703 92.3341V83.8431H59.5283C59.8044 83.8429 60.0761 83.7748 60.3197 83.645C60.5633 83.5151 60.7713 83.3275 60.9253 83.0984C61.0794 82.8694 61.1749 82.6061 61.2034 82.3315C61.2319 82.0569 61.1925 81.7796 61.0888 81.5238C59.9512 78.5407 57.8588 76.0176 55.1376 74.3478C54.4357 73.5614 54.0479 72.5441 54.0481 71.49V66.2827C55.9384 66.7135 57.6936 67.6028 59.1591 68.8721C60.6245 70.1415 61.7552 71.7519 62.4513 73.5614C62.6849 74.2476 63.1274 74.8436 63.7167 75.2658C64.306 75.688 65.0126 75.9153 65.7375 75.9158C66.1727 75.9125 66.6035 75.8275 67.0074 75.6653C67.8539 75.3133 68.5313 74.6472 68.8974 73.8067C69.2635 72.9661 69.2899 72.0164 68.971 71.1569C67.6516 67.5434 65.2085 64.4481 62.0005 62.3253C59.6026 60.7191 56.8883 59.6455 54.0405 59.1769V53.376C56.68 53.7225 59.2496 54.477 61.6573 55.6127" stroke="url(#paint0_linear_943_1534)" stroke-width="3" stroke-miterlimit="10" stroke-linecap="round" stroke-linejoin="round"/>
<path d="M67.0829 59.219C69.1469 61.057 70.7357 63.3669 71.7141 65.9517C71.9581 66.6195 72.4012 67.1964 72.9834 67.6044C73.5657 68.0125 74.2592 68.232 74.9702 68.2334C75.377 68.233 75.7806 68.1609 76.1624 68.0205C76.5907 67.8641 76.984 67.6247 77.3198 67.3162C77.6556 67.0077 77.9273 66.6361 78.1195 66.2225C78.3116 65.809 78.4203 65.3616 78.4395 64.906C78.4587 64.4504 78.388 63.9955 78.2313 63.5672C76.2071 58.3314 72.5086 53.9117 67.7116 50.9961C63.5687 48.4297 58.8915 46.8495 54.0409 46.3775V42.5328C57.9433 41.7497 61.9747 41.8904 65.813 42.9435C69.8574 43.9991 73.44 46.3606 76.0046 49.6611C76.3272 50.0998 76.7487 50.4563 77.2347 50.7017C77.7208 50.9471 78.2579 51.0746 78.8024 51.0738C79.5428 51.0736 80.2637 50.8357 80.8587 50.395C81.5997 49.8486 82.0933 49.0303 82.2309 48.1199C82.3686 47.2096 82.139 46.2819 81.5926 45.5409C78.1094 41.0038 73.2238 37.7457 67.6965 36.2735C63.2492 35.0409 58.5891 34.7769 54.0309 35.4995V32.1082C57.5752 29.8955 61.5283 28.4184 65.6552 27.7651C66.5536 27.6425 67.3708 27.1797 67.938 26.4722C68.5052 25.7647 68.7792 24.8665 68.7035 23.9629C68.6557 23.496 68.5139 23.0437 68.2864 22.6332C68.0589 22.2226 67.7505 21.8625 67.3799 21.5745C67.0093 21.2865 66.5841 21.0767 66.1302 20.9577C65.6762 20.8387 65.2027 20.813 64.7385 20.8821C61.0228 21.4466 57.4132 22.567 54.0309 24.2058V21.1276C54.0392 20.2005 53.6889 19.306 53.0532 18.631C52.4175 17.9561 51.5455 17.5529 50.6195 17.5058C50.1441 17.4883 49.6701 17.5668 49.2257 17.7367C48.7813 17.9065 48.3758 18.1642 48.0332 18.4944C47.6907 18.8245 47.4183 19.2202 47.2322 19.6581C47.0461 20.0959 46.9502 20.5667 46.9502 21.0424V24.2409C43.5502 22.5842 39.919 21.4518 36.18 20.8821C35.7156 20.813 35.242 20.8388 34.7878 20.958C34.3337 21.0771 33.9084 21.2872 33.5377 21.5754C33.1671 21.8636 32.8588 22.224 32.6314 22.6348C32.4041 23.0456 32.2624 23.4983 32.215 23.9655C32.1393 24.8691 32.4133 25.7672 32.9805 26.4747C33.5477 27.1821 34.3648 27.645 35.2632 27.7676C39.4183 28.4248 43.3973 29.9167 46.9602 32.1533V35.5071C43.5107 34.9637 39.9966 34.9747 36.5506 35.5397" stroke="url(#paint1_linear_943_1534)" stroke-width="3" stroke-miterlimit="10" stroke-linecap="round" stroke-linejoin="round"/>
<path d="M89.397 51.8778C88.9931 56.8344 87.6323 61.6658 85.3896 66.1045C82.7301 71.3578 78.9276 75.9486 74.2612 79.5397C73.8404 79.8615 73.4869 80.2632 73.2214 80.7217C72.9558 81.1802 72.7833 81.6865 72.7135 82.2118C72.6437 82.737 72.6781 83.2708 72.8147 83.7828C72.9514 84.2947 73.1875 84.7747 73.5097 85.1953C73.8863 85.6862 74.3711 86.0838 74.9262 86.357C75.4814 86.6303 76.092 86.7718 76.7107 86.7707C77.5979 86.7718 78.4603 86.4785 79.1628 85.9367C84.7899 81.6065 89.3756 76.0708 92.5831 69.7363C95.8998 63.1729 97.6164 55.9178 97.5925 48.5641C97.6104 42.3749 96.4003 36.2438 94.0322 30.5256C91.6641 24.8075 88.1851 19.6159 83.7966 15.2516C79.4324 10.8632 74.2408 7.38416 68.5226 5.01606C62.8044 2.64796 56.6731 1.43784 50.484 1.45576C44.2949 1.43784 38.1638 2.64796 32.4456 5.01606C26.7274 7.38416 21.5359 10.8632 17.1716 15.2516C12.7831 19.6159 9.30413 24.8075 6.93603 30.5256C4.56793 36.2438 3.35781 42.3749 3.37573 48.5641C3.35185 55.9178 5.06842 63.1729 8.38513 69.7363C11.5926 76.0708 16.1784 81.6065 21.8054 85.9367C22.226 86.2589 22.7059 86.4951 23.2178 86.6317C23.7297 86.7684 24.2636 86.8027 24.7889 86.733C25.3141 86.6632 25.8205 86.4906 26.2789 86.225C26.7374 85.9595 27.1391 85.6061 27.461 85.1852C27.7832 84.7646 28.0193 84.2847 28.1559 83.7728C28.2926 83.2608 28.3269 82.727 28.2571 82.2017C28.1874 81.6765 28.0149 81.1702 27.7493 80.7117C27.4837 80.2532 27.1303 79.8515 26.7094 79.5297C22.0432 75.9385 18.2407 71.3477 15.5811 66.0945C12.8328 60.6597 11.4089 54.6518 11.4258 48.5616C11.4118 43.4333 12.4153 38.3532 14.378 33.6154C16.3406 28.8775 19.2234 24.576 22.8598 20.9598C26.4759 17.3235 30.7775 14.4406 35.5153 12.4779C40.2532 10.5153 45.3333 9.51189 50.4616 9.52586C55.5898 9.51189 60.6699 10.5153 65.4078 12.4779C70.1457 14.4406 74.4472 17.3235 78.0634 20.9598C84.6241 27.4844 88.6329 36.1418 89.3645 45.3656" stroke="url(#paint2_linear_943_1534)" stroke-width="3" stroke-miterlimit="10" stroke-linecap="round" stroke-linejoin="round"/>
<path d="M50.502 92.2129V92.6788" stroke="url(#paint3_linear_943_1534)" stroke-width="3" stroke-miterlimit="10" stroke-linecap="round" stroke-linejoin="round"/>
<path d="M50.502 87.0259V87.4918" stroke="url(#paint4_linear_943_1534)" stroke-width="3" stroke-miterlimit="10" stroke-linecap="round" stroke-linejoin="round"/>
<path d="M50.502 81.8394V82.3052" stroke="url(#paint5_linear_943_1534)" stroke-width="3" stroke-miterlimit="10" stroke-linecap="round" stroke-linejoin="round"/>
<path d="M50.502 76.6514V77.1172" stroke="url(#paint6_linear_943_1534)" stroke-width="3" stroke-miterlimit="10" stroke-linecap="round" stroke-linejoin="round"/>
</g>
<defs>
<linearGradient id="paint0_linear_943_1534" x1="18.6807" y1="67.9107" x2="69.1925" y2="67.9107" gradientUnits="userSpaceOnUse">
<stop stop-color="#CCAB64"/>
<stop offset="1" stop-color="#FAECC9"/>
</linearGradient>
<linearGradient id="paint1_linear_943_1534" x1="32.2026" y1="42.8684" x2="82.27" y2="42.8684" gradientUnits="userSpaceOnUse">
<stop stop-color="#CCAB64"/>
<stop offset="1" stop-color="#FAECC9"/>
</linearGradient>
<linearGradient id="paint2_linear_943_1534" x1="3.37549" y1="44.1131" x2="97.5927" y2="44.1131" gradientUnits="userSpaceOnUse">
<stop stop-color="#CCAB64"/>
<stop offset="1" stop-color="#FAECC9"/>
</linearGradient>
<linearGradient id="paint3_linear_943_1534" x1="50.502" y1="92.4458" x2="51.502" y2="92.4458" gradientUnits="userSpaceOnUse">
<stop stop-color="#CCAB64"/>
<stop offset="1" stop-color="#FAECC9"/>
</linearGradient>
<linearGradient id="paint4_linear_943_1534" x1="50.502" y1="87.2588" x2="51.502" y2="87.2588" gradientUnits="userSpaceOnUse">
<stop stop-color="#CCAB64"/>
<stop offset="1" stop-color="#FAECC9"/>
</linearGradient>
<linearGradient id="paint5_linear_943_1534" x1="50.502" y1="82.0723" x2="51.502" y2="82.0723" gradientUnits="userSpaceOnUse">
<stop stop-color="#CCAB64"/>
<stop offset="1" stop-color="#FAECC9"/>
</linearGradient>
<linearGradient id="paint6_linear_943_1534" x1="50.502" y1="76.8843" x2="51.502" y2="76.8843" gradientUnits="userSpaceOnUse">
<stop stop-color="#CCAB64"/>
<stop offset="1" stop-color="#FAECC9"/>
</linearGradient>
</defs>
</svg>
