<svg width="144" height="100" viewBox="0 0 144 100" fill="none" xmlns="http://www.w3.org/2000/svg">
<path d="M139.589 26.4047C120.398 18.2991 101.237 10.123 82.0383 2.03225C76.5446 -0.317575 70.3952 -0.640678 64.6856 1.1205C60.0787 2.4807 55.7905 4.6637 51.3689 6.52795C35.7359 13.13 20.1128 19.7544 4.49948 26.401C3.06887 27.0051 1.93475 27.8612 1.34916 29.3215C0.289165 31.9641 1.49 34.6733 4.31417 35.8779C13.1351 39.6434 21.9671 43.3818 30.8103 47.093C31.7442 47.4822 32.1223 47.9158 32.1186 48.9795C32.0716 58.3687 32.0716 67.7505 32.1186 77.1249C32.1186 77.9551 31.9258 78.4184 31.129 78.8372C28.8571 80.0306 27.697 82.0135 27.6748 84.5745C27.634 88.8738 27.6525 93.173 27.6748 97.4686C27.6748 99.1957 28.3975 99.9592 30.0764 99.9778C32.8487 100.007 35.621 100.007 38.3933 99.9778C39.9759 99.9592 40.7319 99.2587 40.7393 97.7132C40.769 93.2323 40.7838 88.7478 40.7208 84.2632C40.6838 81.7948 39.431 79.9565 37.2777 78.8039C36.5698 78.4332 36.2844 78.0626 36.2844 77.2361C36.3141 68.3151 36.303 59.3941 36.3067 50.4731C36.3067 50.21 36.34 49.9432 36.366 49.5355C36.959 49.7615 37.4778 49.9357 37.9708 50.147C45.6131 53.39 53.2591 56.6144 60.8866 59.8871C68.1287 62.9966 75.3818 63.1523 82.6609 60.0872C90.4738 56.796 98.2754 53.4715 106.088 50.1729C106.585 49.9617 107.056 49.6207 107.76 49.706C107.76 54.2239 107.689 58.7418 107.789 63.2561C107.842 64.2258 107.646 65.1929 107.222 66.0663C106.797 66.9397 106.157 67.6906 105.362 68.2484C102.682 70.3054 99.6023 71.5285 96.4186 72.5143C89.7473 74.575 82.9056 75.4571 75.9674 75.6758C65.1933 76.0167 54.5637 75.1902 44.353 71.3691C42.7444 70.765 41.6177 71.1541 41.1322 72.4587C40.6949 73.6299 41.3101 74.6825 42.8371 75.2866C47.9221 77.3251 53.2406 78.4332 58.648 79.1411C65.7083 80.0653 72.8459 80.2479 79.9443 79.686C86.9862 79.1263 93.9613 78.033 100.625 75.5201C103.879 74.2933 106.981 72.7701 109.446 70.2053C110.263 69.3903 110.906 68.4185 111.337 67.3485C111.768 66.2784 111.979 65.1322 111.955 63.9788C111.907 58.9864 111.955 53.9941 111.922 49.0055C111.922 48.053 112.111 47.4748 113.097 47.1857C113.894 46.9509 114.653 46.6053 115.354 46.1591C116.325 45.5438 116.684 44.621 116.154 43.5276C115.962 43.048 115.589 42.6629 115.116 42.455C114.642 42.2471 114.107 42.233 113.623 42.4157C113.142 42.5784 112.672 42.7702 112.215 42.9902C101.773 47.4204 91.3299 51.8457 80.8856 56.266C74.926 58.7789 68.9515 58.7344 62.9992 56.203C58.5838 54.3301 54.1696 52.4622 49.7567 50.5992C46.6657 49.2871 43.5821 47.9677 40.4169 46.6186C40.5956 46.4799 40.7852 46.356 40.984 46.248C49.0488 42.9494 57.1174 39.6694 65.1711 36.3412C65.8901 36.0447 66.3719 36.2781 66.9723 36.5561C70.7601 38.3129 74.5183 38.2758 78.0392 35.9446C81.7084 33.5207 81.7084 29.0287 78.1615 26.4565C74.7851 24.0104 69.2665 23.9956 65.8975 26.4565C64.1926 27.6981 63.0844 29.34 63.2772 31.5008C63.3587 32.4125 63.0956 32.6645 62.358 32.9833C53.463 36.5957 44.5914 40.234 35.7433 43.8982C35.4335 44.0328 35.0977 44.0972 34.7601 44.0869C34.4224 44.0767 34.0912 43.992 33.7901 43.8389C24.7172 39.9721 15.6368 36.1175 6.54904 32.2754C6.02645 32.053 5.25555 31.9678 5.24813 31.2154C5.24072 30.463 6.01535 30.3778 6.53793 30.1554C25.4572 22.1177 44.3826 14.0875 63.3142 6.06466C69.1182 3.61482 75.0075 3.64818 80.8152 6.10543C97.9332 13.3351 115.043 20.5871 132.143 27.8612C134.096 28.6914 136.057 29.4957 137.996 30.3592C139.026 30.8188 139.107 31.4007 138.255 31.9344C137.97 32.0817 137.674 32.2056 137.369 32.305C132.531 34.3583 127.693 36.4103 122.855 38.4611C122.014 38.8318 121.28 39.2543 121.121 40.255C120.832 42.0562 122.455 43.1978 124.308 42.4231C129.075 40.4366 133.804 38.3462 138.585 36.4153C140.542 35.6184 142.147 34.5621 143.032 32.5682V29.7959C142.232 28.2986 141.242 27.1014 139.589 26.4047ZM68.2213 30.0183C69.3073 29.1251 70.6007 28.8656 71.9869 28.9064C73.3262 28.7974 74.6601 29.1736 75.745 29.9664C76.7643 30.7558 76.7754 31.5378 75.8192 32.3532C74.0365 33.8765 69.9151 33.858 68.1806 32.3236C67.2799 31.5193 67.2762 30.7929 68.2213 30.0183ZM34.1607 82.2099C35.5988 82.1729 36.5253 83.3218 36.5327 85.149C36.5327 86.7204 36.5327 88.2882 36.5327 89.8596C36.5327 91.4311 36.492 93.0915 36.5327 94.7075C36.5624 95.5228 36.3586 95.8193 35.4728 95.8193C31.8221 95.8712 31.8221 95.9046 31.8221 92.3021C31.8221 89.9004 31.8221 87.4839 31.8221 85.0971C31.8517 83.3589 32.7746 82.2433 34.1607 82.2099Z" fill="url(#paint0_linear_943_1398)"/>
<defs>
<linearGradient id="paint0_linear_943_1398" x1="0.967773" y1="50" x2="143.032" y2="50" gradientUnits="userSpaceOnUse">
<stop stop-color="#CCAB64"/>
<stop offset="1" stop-color="#FAECC9"/>
</linearGradient>
</defs>
</svg>
