<svg width="101" height="100" viewBox="0 0 101 100" fill="none" xmlns="http://www.w3.org/2000/svg">
<path d="M0.5 29.0966C1.07744 28.2589 1.87717 28.0122 2.86397 28.1396C4.1544 28.2941 5.45569 28.3673 6.74883 28.5002C7.74105 28.6032 8.37542 29.2863 8.30764 30.1538C8.23987 31.0214 7.49433 31.6585 6.45602 31.6042C6.00057 31.5799 5.55055 31.5012 5.10053 31.4633C4.65051 31.4253 4.19778 31.4145 3.6854 31.3874V60.7798C4.41737 60.7798 5.15204 60.7798 5.88672 60.7798C8.19648 60.8232 10.4954 60.8666 12.8133 60.9343C13.8977 60.9642 14.5646 61.6013 14.5564 62.5122C14.5483 63.423 13.8353 64.0628 12.694 64.0466C10.3192 64.0086 7.94434 63.9489 5.56952 63.9029C4.95684 63.9029 4.34147 63.9029 3.62577 63.9029V65.093C3.62577 73.9489 3.62577 82.8047 3.62577 91.6606C3.62577 94.9734 5.52344 96.8657 8.83084 96.8657H92.1176C95.5009 96.8657 97.358 95.0005 97.358 91.601C97.358 73.4735 97.358 55.3452 97.358 37.216V36.0692C95.5931 36.3186 93.9042 36.5328 92.2261 36.8039C90.5995 37.075 89.7591 36.7334 89.5747 35.6463C89.3985 34.6188 90.0546 34.0034 91.6405 33.7486C93.5002 33.4558 95.3627 33.1874 97.2875 32.8974C97.3092 32.6642 97.3525 32.4148 97.3525 32.1654C97.3525 28.2914 97.3525 24.4174 97.3688 20.5461C97.3688 19.9877 97.2251 19.6868 96.6857 19.4618C93.1966 17.949 89.7428 16.3604 86.2402 14.8856C85.9347 14.7712 85.6094 14.7192 85.2834 14.7327C84.9575 14.7462 84.6375 14.8249 84.3425 14.9642C81.5692 16.5908 78.8664 18.3421 76.1391 20.05C76.0388 20.1124 75.9493 20.1991 75.7298 20.3726C76.8711 20.9148 77.9148 21.3947 78.9558 21.8881C79.9968 22.3815 80.4116 23.1758 80.0402 24.0569C79.6363 24.9759 78.7416 25.2904 77.66 24.7184C73.7562 22.658 69.8578 20.5787 66.0027 18.4261C64.9915 17.8595 64.2298 17.8297 63.2348 18.4641C55.9369 23.1216 48.2241 27.0389 40.5222 30.9699C39.4893 31.5121 38.6245 31.2545 38.1908 30.387C37.757 29.5195 38.1095 28.7198 39.1396 28.1667C45.4671 24.7699 51.7999 21.3892 58.1165 17.9599C59.3988 17.2631 60.6215 16.4471 61.8522 15.6582C63.6822 14.4817 65.5012 14.4708 67.3501 15.6149C68.7869 16.5041 70.2237 17.396 71.6877 18.2174C71.8728 18.3087 72.0755 18.3589 72.2819 18.3645C72.4882 18.3701 72.6934 18.3311 72.8832 18.25C76.0171 16.3984 79.1646 14.563 82.2117 12.5759C83.9901 11.4156 85.7008 11.1743 87.6337 12.0337C91.4526 13.7578 95.2841 15.4558 99.1283 17.1276C100.099 17.5478 100.5 18.1659 100.5 19.2232C100.484 43.4702 100.477 67.7172 100.481 91.9642C100.481 96.6027 97.1004 99.9915 92.4755 99.9915C64.4855 100.002 36.4955 100.002 8.50554 99.9915C4.58004 99.9915 1.5844 97.5895 0.678934 93.7969C0.631732 93.6461 0.572807 93.4993 0.502714 93.3577L0.5 29.0966Z" fill="url(#paint0_linear_1015_1382)"/>
<path d="M39.164 0C39.8336 0.227722 40.5195 0.40395 41.1701 0.691314C42.8586 1.44271 44.2258 2.76871 45.0285 4.43344C45.8313 6.09817 46.0174 7.99369 45.5539 9.78277C45.0903 11.5718 44.0071 13.1385 42.4971 14.204C40.987 15.2695 39.1479 15.7648 37.3069 15.6017C35.4651 15.4407 33.74 14.6319 32.4381 13.3191C31.1362 12.0063 30.3418 10.2745 30.1962 8.43138C30.0505 6.58825 30.563 4.75314 31.6425 3.25215C32.722 1.75116 34.2987 0.681471 36.0924 0.23314C36.3391 0.170788 36.5777 0.0813348 36.819 0.00542726L39.164 0ZM38.0037 3.12577C37.0792 3.12318 36.1747 3.39414 35.404 3.90455C34.6332 4.41496 34.0307 5.14202 33.6723 5.99414C33.3139 6.84627 33.2157 7.78539 33.3899 8.69324C33.5641 9.6011 34.003 10.4371 34.6514 11.096C35.2998 11.7549 36.1287 12.2073 37.0336 12.3961C37.9385 12.585 38.8791 12.5018 39.7369 12.1572C40.5947 11.8126 41.3313 11.2219 41.8541 10.4595C42.3769 9.69707 42.6624 8.79705 42.6747 7.8727C42.6815 7.25382 42.5659 6.6397 42.3345 6.06566C42.1031 5.49162 41.7605 4.96898 41.3264 4.52782C40.8923 4.08667 40.3752 3.73571 39.805 3.49509C39.2347 3.25447 38.6226 3.12895 38.0037 3.12577Z" fill="url(#paint1_linear_1015_1382)"/>
<path d="M61.4238 39.8675C61.0822 40.1033 60.9087 40.2416 60.7163 40.35C59.9328 40.7973 59.1249 40.6509 58.6261 39.984C58.3772 39.6744 58.2614 39.2786 58.3041 38.8837C58.3468 38.4887 58.5445 38.1269 58.8538 37.8776C59.8027 37.0372 60.803 36.251 61.7844 35.4377C64.7448 32.9978 67.7079 30.5579 70.6737 28.118C72.7801 26.3911 75.0519 26.3803 77.1448 28.0991C80.9185 31.195 84.6859 34.2964 88.4469 37.4031C89.5855 38.3411 89.8295 39.1246 89.2358 39.9515C88.6421 40.7783 87.8125 40.7919 86.5031 39.9515V51.5572H90.2334C91.0467 51.5572 91.86 51.5301 92.6733 51.5572C92.8777 51.5561 93.0803 51.5957 93.2693 51.6736C93.4583 51.7514 93.6299 51.8661 93.7741 52.0109C93.9184 52.1557 94.0325 52.3277 94.1097 52.5169C94.1869 52.7062 94.2258 52.9089 94.224 53.1133C94.224 53.9618 93.5896 54.5935 92.6625 54.664C92.4347 54.6802 92.207 54.664 91.9793 54.664H63.6658C61.8738 54.664 61.4211 54.2085 61.4211 52.4166C61.4238 48.3013 61.4238 44.1698 61.4238 39.8675ZM83.2283 51.5057C83.2577 51.3927 83.2786 51.2776 83.2906 51.1614C83.2906 46.7018 83.3069 42.245 83.2716 37.7881C83.2268 37.3926 83.0329 37.029 82.7294 36.7715C80.2895 34.7166 77.8253 32.705 75.3637 30.6691C74.2088 29.7202 73.6422 29.7284 72.4602 30.7016C70.0203 32.7104 67.5804 34.7003 65.1758 36.7471C64.8222 37.0856 64.6109 37.5461 64.5848 38.0348C64.5387 41.8736 64.5577 45.7123 64.5577 49.5511V51.4867H69.245C69.245 50.0282 69.245 48.632 69.245 47.2386C69.245 44.308 71.205 42.1935 73.9079 42.1826C76.6107 42.1718 78.6033 44.2782 78.6169 47.1925C78.6169 48.6131 78.6169 50.0363 78.6169 51.5057H83.2283ZM75.4775 51.5057C75.4775 49.8791 75.5101 48.3393 75.4775 46.7913C75.4591 46.4011 75.2933 46.0324 75.0136 45.7597C74.734 45.4869 74.3612 45.3305 73.9707 45.3219C73.5801 45.3133 73.2009 45.4532 72.9094 45.7133C72.618 45.9735 72.4362 46.3345 72.4006 46.7235C72.3491 48.3013 72.387 49.8818 72.387 51.5057H75.4775Z" fill="url(#paint2_linear_1015_1382)"/>
<path d="M19.2436 90.6089C19.2436 88.535 19.2436 86.5858 19.2436 84.6448C19.2436 80.9307 21.9167 78.1384 25.4464 78.1194C29.0276 78.1005 31.7196 80.8901 31.7385 84.6529C31.7385 86.5994 31.7385 88.5459 31.7385 90.5547H37.9738V88.4076C37.9738 85.0894 37.9738 81.7702 37.9738 78.4502C37.9738 77.2899 38.5566 76.5877 39.4946 76.5525C40.4326 76.5172 41.0914 77.2546 41.0941 78.4502C41.0941 82.3865 41.0941 86.3229 41.0941 90.2592C41.1077 90.3723 41.1276 90.4845 41.1538 90.5954H42.0538C44.2226 90.5954 46.4131 90.5954 48.5927 90.5954C49.7422 90.5954 50.4443 91.2026 50.4497 92.1433C50.4552 93.0841 49.7503 93.7103 48.6117 93.713C38.3949 93.713 28.1835 93.713 17.9776 93.713C16.82 93.713 16.1233 93.1139 16.1124 92.1704C16.1016 91.227 16.801 90.6144 17.9423 90.5927C18.3436 90.6035 18.7313 90.6089 19.2436 90.6089ZM28.6047 90.5628C28.6047 88.3534 28.6616 86.2253 28.5857 84.0727C28.5287 82.5085 27.176 81.3021 25.6253 81.2398C24.0339 81.1774 22.5131 82.3242 22.4263 83.9101C22.307 86.106 22.3965 88.3127 22.3965 90.5628H28.6047Z" fill="url(#paint3_linear_1015_1382)"/>
<path d="M31.7416 31.1082C31.7416 33.6186 31.7416 36.1886 31.7416 38.7559C31.7416 39.824 31.2373 40.4828 30.3861 40.5993C29.3857 40.7376 28.6321 39.9731 28.6266 38.7667C28.6266 35.481 28.6022 32.1953 28.6266 28.9123C28.6453 28.6107 28.5902 28.3091 28.4659 28.0337C28.3417 27.7583 28.1521 27.5174 27.9136 27.3318C26.0702 25.7378 24.2647 24.0976 22.3453 22.387C21.2907 23.2925 20.2361 24.1871 19.1897 25.098C18.1433 26.0089 16.7878 26.673 16.289 27.7764C15.7901 28.8798 16.1236 30.4494 16.1154 31.813C16.1019 33.6619 16.1154 35.5135 16.1154 37.4519C16.476 37.4682 16.7878 37.4953 17.0995 37.498C19.3117 37.498 21.5239 37.498 23.7333 37.498C24.8014 37.498 25.4819 38.1432 25.4792 39.0595C25.4765 39.9758 24.7933 40.6102 23.7252 40.6129C19.1707 40.6238 14.6172 40.6238 10.0646 40.6129C8.98016 40.6129 8.31327 39.9758 8.31055 39.0568C8.30784 38.1378 8.98828 37.5224 10.0564 37.4953C10.9673 37.4736 11.8782 37.4763 12.7891 37.4655C12.8162 37.4655 12.8433 37.4383 12.93 37.3896V30.5606C12.6589 30.7314 12.4339 30.894 12.19 31.0242C11.8834 31.2202 11.5144 31.2935 11.1562 31.2297C10.798 31.1659 10.477 30.9696 10.257 30.6799C10.123 30.5456 10.0174 30.3857 9.94641 30.2098C9.87543 30.0339 9.84057 29.8455 9.84385 29.6558C9.84714 29.4661 9.88854 29.279 9.96557 29.1057C10.0426 28.9323 10.1537 28.7762 10.2923 28.6466C10.7999 28.1433 11.3348 27.6681 11.8945 27.2234C14.5332 24.957 17.1736 22.6906 19.8159 20.4242C21.6621 18.8383 23.0691 18.8437 24.899 20.4757C27.9841 23.2165 31.0801 25.9438 34.1164 28.7388C34.3318 28.9599 34.4994 29.223 34.6085 29.5117C34.7177 29.8005 34.7661 30.1086 34.7507 30.4169C34.6992 30.848 34.0703 31.4417 33.6121 31.5284C33.0645 31.6368 32.4274 31.2844 31.7416 31.1082Z" fill="url(#paint4_linear_1015_1382)"/>
<path d="M9.87173 74.2297C9.57894 74.4276 9.47593 74.5008 9.3702 74.5713C8.4322 75.1731 7.59724 75.0809 7.05233 74.3192C6.50742 73.5574 6.67278 72.7658 7.48065 72.0907C8.90392 70.9033 10.3462 69.7376 11.7803 68.5665C14.5491 66.3001 17.3179 64.0337 20.0867 61.7673C23.5758 58.9018 27.4064 58.8991 30.9063 61.7673C34.9782 65.1109 39.0537 68.4544 43.1328 71.798C43.3063 71.9417 43.4906 72.0691 43.656 72.2371C44.3419 72.9013 44.4205 73.7417 43.8702 74.4059C43.7462 74.5685 43.5902 74.7038 43.4118 74.8035C43.2333 74.9032 43.0363 74.9651 42.8329 74.9854C42.6295 75.0058 42.4241 74.9841 42.2294 74.9217C42.0348 74.8593 41.855 74.7576 41.7014 74.6228C40.5438 73.7282 39.4269 72.782 38.2937 71.8549C35.1218 69.2632 31.9527 66.6606 28.7754 64.0771C26.5904 62.3014 24.3836 62.3068 22.2338 64.0771C19.3873 66.4031 16.5408 68.7454 13.6915 71.047C13.459 71.2115 13.272 71.4324 13.1483 71.6889C13.0245 71.9455 12.968 72.2292 12.984 72.5136C13.0111 78.8221 13.0002 85.1333 13.0002 91.4444C13.0124 91.7373 13.007 92.0306 12.984 92.3228C12.9528 92.7171 12.7708 93.0841 12.476 93.3477C12.1811 93.6113 11.796 93.751 11.4007 93.7379C11.0203 93.737 10.6542 93.5928 10.3754 93.3341C10.0966 93.0753 9.92546 92.721 9.89615 92.3418C9.86671 92.0508 9.86034 91.758 9.87715 91.4661C9.87715 86.1309 9.87715 80.7993 9.87715 75.4713L9.87173 74.2297Z" fill="url(#paint5_linear_1015_1382)"/>
<path d="M42.4257 65.5815C43.8138 65.9692 44.9117 66.262 46.0015 66.5846C62.4328 71.44 77.4272 79.0551 90.7652 89.8638C91.1204 90.1512 91.4701 90.444 91.8171 90.7368C92.7578 91.5284 92.9286 92.4257 92.2915 93.1766C91.6544 93.9276 90.7924 93.8679 89.792 93.1197C86.3301 90.528 82.9495 87.817 79.3629 85.4097C68.1502 77.8894 55.9183 72.5677 42.93 68.9432C42.5818 68.8703 42.244 68.7546 41.9242 68.5989C41.26 68.2166 40.8913 67.5633 41.2193 66.8747C41.4742 66.3379 42.0598 65.9584 42.4257 65.5815Z" fill="url(#paint6_linear_1015_1382)"/>
<path d="M58.298 45.8565C58.2818 46.6698 57.7233 47.1009 56.9968 47.4316C53.8114 48.8901 50.5745 50.2537 47.4622 51.8532C43.2467 54.022 39.1287 56.3643 34.9701 58.6306C34.699 58.7716 34.4712 58.9397 34.2137 59.0752C33.2648 59.5714 32.3946 59.3463 31.9446 58.533C31.5163 57.7496 31.7603 56.9064 32.6413 56.3832C34.5715 55.2446 36.4692 54.0409 38.4672 53.0379C44.2091 50.1561 49.9889 47.3448 55.7687 44.5444C57.0645 43.9236 58.2628 44.5606 58.298 45.8565Z" fill="url(#paint7_linear_1015_1382)"/>
<path d="M51.2684 42.5919C51.2358 44.0775 50.1379 44.8095 49.0996 44.3757C48.533 44.1371 48.0152 43.763 47.473 43.5055C43.8493 41.8265 40.2211 40.1583 36.5884 38.501C36.2521 38.3835 35.925 38.2413 35.6097 38.0754C34.9374 37.6281 34.6636 36.991 34.9835 36.2157C35.3034 35.4403 35.9323 35.0716 36.7863 35.2722C37.2292 35.3792 37.6598 35.5318 38.0713 35.7277C42.0971 37.6254 46.1311 39.4878 50.127 41.4207C50.6719 41.6945 51.0244 42.3343 51.2684 42.5919Z" fill="url(#paint8_linear_1015_1382)"/>
<defs>
<linearGradient id="paint0_linear_1015_1382" x1="0.5" y1="55.7593" x2="100.5" y2="55.7593" gradientUnits="userSpaceOnUse">
<stop stop-color="#CCAB64"/>
<stop offset="1" stop-color="#FAECC9"/>
</linearGradient>
<linearGradient id="paint1_linear_1015_1382" x1="30.1719" y1="7.81609" x2="45.8034" y2="7.81609" gradientUnits="userSpaceOnUse">
<stop stop-color="#CCAB64"/>
<stop offset="1" stop-color="#FAECC9"/>
</linearGradient>
<linearGradient id="paint2_linear_1015_1382" x1="58.2954" y1="40.7438" x2="94.224" y2="40.7438" gradientUnits="userSpaceOnUse">
<stop stop-color="#CCAB64"/>
<stop offset="1" stop-color="#FAECC9"/>
</linearGradient>
<linearGradient id="paint3_linear_1015_1382" x1="16.1123" y1="85.1321" x2="50.4498" y2="85.1321" gradientUnits="userSpaceOnUse">
<stop stop-color="#CCAB64"/>
<stop offset="1" stop-color="#FAECC9"/>
</linearGradient>
<linearGradient id="paint4_linear_1015_1382" x1="8.31055" y1="29.9321" x2="34.7535" y2="29.9321" gradientUnits="userSpaceOnUse">
<stop stop-color="#CCAB64"/>
<stop offset="1" stop-color="#FAECC9"/>
</linearGradient>
<linearGradient id="paint5_linear_1015_1382" x1="6.73486" y1="76.678" x2="44.2331" y2="76.678" gradientUnits="userSpaceOnUse">
<stop stop-color="#CCAB64"/>
<stop offset="1" stop-color="#FAECC9"/>
</linearGradient>
<linearGradient id="paint6_linear_1015_1382" x1="41.0977" y1="79.6464" x2="92.6707" y2="79.6464" gradientUnits="userSpaceOnUse">
<stop stop-color="#CCAB64"/>
<stop offset="1" stop-color="#FAECC9"/>
</linearGradient>
<linearGradient id="paint7_linear_1015_1382" x1="31.7388" y1="51.8208" x2="58.298" y2="51.8208" gradientUnits="userSpaceOnUse">
<stop stop-color="#CCAB64"/>
<stop offset="1" stop-color="#FAECC9"/>
</linearGradient>
<linearGradient id="paint8_linear_1015_1382" x1="34.8501" y1="39.8589" x2="51.2684" y2="39.8589" gradientUnits="userSpaceOnUse">
<stop stop-color="#CCAB64"/>
<stop offset="1" stop-color="#FAECC9"/>
</linearGradient>
</defs>
</svg>
