<svg width="80" height="46" viewBox="0 0 80 46" fill="none" xmlns="http://www.w3.org/2000/svg">
<path d="M80 26.5308C79.6515 27.3012 79.2425 28.0428 78.7771 28.7488C78.3187 29.3195 77.731 29.7728 77.0626 30.0714C76.3943 30.3699 75.6645 30.505 74.9335 30.4655H73.8853C73.8853 31.4985 73.8853 32.4784 73.8853 33.4583C73.9211 35.0988 73.4048 36.7038 72.4193 38.0158C71.7266 38.935 70.8161 39.6676 69.77 40.1476C68.7238 40.6275 67.5747 40.8399 66.4261 40.7655C66.0549 40.6959 65.6711 40.767 65.3495 40.965C65.0279 41.163 64.7916 41.4738 64.6867 41.8366C64.0904 43.1683 63.0501 44.2516 61.7436 44.9014C60.4371 45.5512 58.9455 45.7271 57.5237 45.399C56.1106 45.0974 54.8421 44.3239 53.9269 43.2057C53.0117 42.0875 52.5041 40.6912 52.4877 39.2463C52.4345 32.9949 52.4877 26.7435 52.4877 20.4997V19.5046H27.5427V26.0675H48.2643C48.6236 26.0162 48.99 26.0689 49.3202 26.2194C49.6544 26.4701 50.0798 26.9334 50.0342 27.2752C49.9132 27.7245 49.6216 28.1088 49.2214 28.3462C48.8828 28.4759 48.5163 28.5151 48.158 28.4601H27.5047V29.3413C27.5047 32.6227 27.5047 35.9041 27.5047 39.216C27.5068 40.5971 27.0541 41.9404 26.2167 43.0387C25.3793 44.137 24.2036 44.9291 22.8713 45.2927C21.3496 45.75 19.7117 45.6188 18.2823 44.9252C16.8528 44.2316 15.7362 43.0262 15.1538 41.5479C15.1007 41.2992 14.9528 41.0808 14.7416 40.9391C14.5304 40.7973 14.2724 40.7433 14.022 40.7883C12.8124 40.9159 11.5901 40.7339 10.4701 40.2596C9.34999 39.7853 8.36883 39.0341 7.61869 38.0766C6.61891 36.769 6.08426 35.165 6.09951 33.519C6.09951 32.5316 6.09951 31.5517 6.09951 30.4807C5.55261 30.4807 5.08926 30.4807 4.6335 30.4807C3.39846 30.4266 2.23078 29.9025 1.36944 29.0157C0.508091 28.129 0.0181914 26.9465 0 25.7104C0 23.9406 0 22.1707 0 20.3933C0 17.2258 1.93696 15.2205 5.08925 15.0762C5.40069 15.0762 5.70452 15.0762 6.1071 15.0762C6.1071 13.9824 6.1071 12.9797 6.1071 11.9695C6.06121 10.3544 6.57887 8.77361 7.57124 7.4985C8.56361 6.22338 9.96883 5.33338 11.5458 4.98124C12.4392 4.81122 13.3485 4.73987 14.2575 4.76854C14.428 4.77484 14.5956 4.7236 14.7334 4.62301C14.8712 4.52242 14.9711 4.37835 15.0171 4.21405C15.5392 2.76779 16.566 1.5587 17.9086 0.809249C19.2512 0.0597929 20.8193 -0.179616 22.3243 0.135057C23.7793 0.427263 25.0875 1.21575 26.0255 2.3657C26.9635 3.51566 27.4729 4.95568 27.4668 6.43964C27.5123 9.6679 27.4668 12.8962 27.4668 16.1244V17.0207H52.4497V16.1624C52.4497 12.9873 52.4497 9.81223 52.4497 6.63714C52.3875 5.01762 52.9454 3.43537 54.0096 2.21303C55.0739 0.990702 56.5643 0.220381 58.177 0.0591165C59.5554 -0.106307 60.9499 0.187275 62.1445 0.894461C63.3392 1.60165 64.2674 2.68296 64.7854 3.97098C64.8587 4.23475 65.0302 4.46046 65.2647 4.60173C65.4992 4.74299 65.7789 4.78909 66.0463 4.73057C67.2309 4.61949 68.4244 4.80587 69.5187 5.27277C70.613 5.73967 71.5735 6.47234 72.313 7.40434C73.3159 8.71029 73.8509 10.3154 73.8321 11.9619C73.8321 12.9493 73.8321 13.9368 73.8321 15.0002L75.1994 15.0762C76.2457 15.1047 77.2548 15.4706 78.0761 16.1195C78.8975 16.7684 79.487 17.6653 79.7569 18.6766C79.8018 18.7955 79.8577 18.91 79.924 19.0184L80 26.5308ZM14.6145 38.35V37.3702C14.6145 30.3465 14.6145 23.3177 14.6145 16.2839C14.6055 15.9438 14.6233 15.6034 14.6677 15.2661C14.6917 15.0167 14.8062 14.7848 14.9895 14.6141C15.1728 14.4434 15.4123 14.3457 15.6627 14.3394C15.9229 14.2883 16.1928 14.3385 16.4173 14.4796C16.6417 14.6208 16.8038 14.8423 16.8705 15.099C16.9571 15.4234 16.998 15.7583 16.992 16.094V30.5263C16.992 33.4431 16.992 36.3599 16.992 39.2691C17.0043 39.8332 17.1365 40.3883 17.3796 40.8975C17.6228 41.4066 17.9714 41.8582 18.4024 42.2224C18.8333 42.5866 19.3368 42.855 19.8794 43.0098C20.422 43.1646 20.9913 43.2022 21.5496 43.1203C23.7676 42.8316 25.1576 41.1757 25.1576 38.7754C25.1779 28.0804 25.188 17.4157 25.188 6.78147C25.188 6.59917 25.188 6.41689 25.188 6.23458C25.1221 5.18474 24.6576 4.19972 23.8895 3.48103C23.1214 2.76233 22.1077 2.36425 21.0558 2.36825C19.9886 2.38421 18.9705 2.81939 18.2215 3.57978C17.4725 4.34016 17.0527 5.3647 17.0528 6.43204C17.0528 7.60181 17.0528 8.77918 17.0528 9.94894C17.0528 10.8984 16.5818 11.4681 15.8526 11.4681C15.1234 11.4681 14.6905 10.9212 14.6753 9.94894C14.6601 8.97667 14.6753 8.14113 14.6753 7.25241C11.0976 6.60676 8.54539 8.68045 8.53779 12.1973C8.49728 19.221 8.47703 26.2776 8.47703 33.3671C8.47013 34.2216 8.64354 35.068 8.98595 35.851C9.92784 37.8411 11.8952 38.6843 14.6145 38.3273V38.35ZM62.9852 22.7329C62.9852 17.2638 62.9852 11.7948 62.9852 6.32573C62.9903 5.6689 62.835 5.02074 62.5327 4.43761C62.2303 3.85447 61.7901 3.35399 61.2504 2.97967C60.7106 2.60536 60.0876 2.36852 59.4355 2.28976C58.7834 2.21101 58.1219 2.29273 57.5085 2.52778C56.6583 2.84803 55.9353 3.43624 55.4488 4.20362C54.9624 4.971 54.7389 5.87584 54.812 6.78147V39.1172C54.8157 39.7115 54.9494 40.2978 55.2039 40.8349C55.4583 41.372 55.8272 41.8468 56.2847 42.2261C56.7422 42.6055 57.2772 42.88 57.8521 43.0306C58.427 43.1811 59.0279 43.2039 59.6126 43.0975C60.5714 42.9392 61.4396 42.437 62.0548 41.6848C62.67 40.9326 62.9899 39.982 62.9548 39.0109C62.9928 33.595 62.9852 28.1791 62.9852 22.7329ZM65.4463 7.16887V38.312C69.1834 38.7298 71.523 36.8384 71.523 33.3595C71.523 26.27 71.523 19.1805 71.523 12.091C71.5214 11.2609 71.3535 10.4396 71.0292 9.6755C70.0798 7.69297 68.1884 6.87263 65.4463 7.16887ZM6.07672 17.4613C3.30422 17.2866 2.33954 18.1753 2.33954 20.8263C2.33954 22.2847 2.33954 23.7431 2.33954 25.2015C2.33954 27.3436 3.97266 28.5361 6.06913 27.9588L6.07672 17.4613ZM73.9537 17.4613V28.05C76.2324 28.3386 77.6225 27.3967 77.6681 25.4674C77.706 23.6671 77.6681 21.8745 77.6681 20.0743C77.6883 19.4675 77.489 18.8738 77.1066 18.4021C76.7243 17.9305 76.1846 17.6126 75.5868 17.5069C75.0396 17.4457 74.4884 17.4279 73.9385 17.4537L73.9537 17.4613Z" fill="white"/>
</svg>
