<svg width="74" height="60" viewBox="0 0 74 60" fill="none" xmlns="http://www.w3.org/2000/svg">
<path d="M0.0299072 19.7277C0.129907 19.3777 0.219956 19.0377 0.329956 18.7277C0.650731 17.5516 1.24447 16.4677 2.06287 15.5642C2.88126 14.6607 3.90118 13.9629 5.03992 13.5277C5.9479 13.3241 6.8208 12.9871 7.63 12.5277C8.3 11.9677 8.54993 10.9477 9.04993 10.1677C11.8358 5.82067 16.0967 2.62494 21.0499 1.1677C22.9998 0.557852 25.0128 0.172009 27.0499 0.0176781C29.7899 -0.212322 31.69 1.82767 31.63 4.63767C31.5047 7.28613 32.4363 9.87595 34.22 11.8377C34.57 12.2277 34.97 12.5577 35.38 12.9477C36.828 10.6425 39.0685 8.94608 41.6799 8.17765C42.5134 7.95657 43.3626 7.79947 44.22 7.70768C45.04 7.60768 45.55 8.0177 45.86 8.9177C46.9667 12.1044 48.0733 15.2977 49.1799 18.4977C50.6699 22.7777 52.1799 27.0477 53.6399 31.3377C54.2218 33.0964 55.1622 34.7154 56.4015 36.0923C57.6408 37.4693 59.152 38.5743 60.84 39.3377C63.01 40.3377 65.22 41.3377 67.36 42.3877C69.3906 43.3075 71.0958 44.8194 72.2522 46.7252C73.4085 48.631 73.962 50.8418 73.84 53.0677C73.7443 54.8606 72.9904 56.5551 71.7227 57.8265C70.4549 59.0979 68.7626 59.8568 66.97 59.9577C66.13 59.9577 65.2899 59.9577 64.45 59.9577H12.74C12.45 59.9577 12.16 59.9577 11.88 59.9577C11.6992 59.9551 11.5207 59.9167 11.3549 59.8448C11.189 59.7729 11.0389 59.6689 10.9135 59.5388C10.788 59.4087 10.6895 59.255 10.6237 59.0866C10.5578 58.9182 10.5259 58.7384 10.5299 58.5577C10.5158 58.1924 10.643 57.8358 10.8851 57.562C11.1273 57.2882 11.4657 57.1183 11.83 57.0877C12.07 57.0877 12.3099 57.0877 12.5499 57.0877H39.8899C38.2199 56.0177 36.53 55.0277 34.95 53.8777C33.786 52.9857 32.6774 52.0239 31.63 50.9977C31.4613 50.8787 31.3206 50.7244 31.2177 50.5454C31.1147 50.3665 31.052 50.1674 31.0339 49.9618C31.0159 49.7562 31.0428 49.549 31.1129 49.3549C31.183 49.1608 31.2946 48.9843 31.4399 48.8377C31.5881 48.6872 31.7665 48.5698 31.9634 48.4935C32.1603 48.4172 32.3712 48.3836 32.582 48.3949C32.7929 48.4063 32.999 48.4623 33.1865 48.5594C33.3741 48.6564 33.5388 48.7921 33.6699 48.9577C37.5665 52.8913 42.5683 55.5456 48.01 56.5677C49.4692 56.8635 50.9515 57.0308 52.4399 57.0677C57.1299 57.1277 61.81 57.0677 66.5 57.0677C67.4239 57.0766 68.3265 56.7905 69.0765 56.2509C69.8265 55.7113 70.3847 54.9465 70.6699 54.0677H69.8899C64.8899 54.0677 59.8899 54.1877 54.8899 54.0677C51.0939 53.967 47.3612 53.0723 43.932 51.4413C40.5028 49.8102 37.4534 47.479 34.98 44.5977C33.67 43.1377 32.57 41.4877 31.36 39.9277C28.734 36.6027 25.65 33.6669 22.2 31.2077C16.675 27.2292 12.0652 22.1147 8.67993 16.2077C8.33993 15.6177 8.02989 15.4177 7.38989 15.7277C6.62713 16.0159 5.88247 16.3498 5.15991 16.7277C4.44045 17.1958 3.85364 17.8412 3.45593 18.6019C3.05823 19.3626 2.86304 20.2128 2.88916 21.0708C2.91528 21.9287 3.16186 22.7655 3.6051 23.5006C4.04835 24.2356 4.67332 24.8442 5.41992 25.2677C10.0866 28.121 14.7533 30.961 19.4199 33.7877C21.6511 35.1159 23.7071 36.7183 25.5399 38.5577C25.6839 38.6871 25.8002 38.8445 25.8816 39.0202C25.963 39.1959 26.0078 39.3863 26.0134 39.5798C26.019 39.7734 25.9853 39.966 25.9142 40.1462C25.8431 40.3263 25.7363 40.4901 25.6 40.6277C25.4732 40.7755 25.316 40.8942 25.139 40.9756C24.9621 41.057 24.7697 41.0991 24.575 41.0991C24.3802 41.0991 24.1878 41.057 24.0109 40.9756C23.8339 40.8942 23.6767 40.7755 23.5499 40.6277C20.9699 37.9677 17.7799 36.1877 14.6599 34.2777C11.1799 32.1577 7.65996 30.0077 4.20996 27.8977C3.16619 27.3063 2.26628 26.4911 1.57471 25.5108C0.883139 24.5305 0.417053 23.4094 0.209961 22.2277C0.186685 22.1634 0.149081 22.1052 0.0999756 22.0577L0.0299072 19.7277ZM70.86 51.1777C70.6281 49.8902 70.1011 48.674 69.3203 47.6243C68.5396 46.5746 67.5263 45.7201 66.36 45.1277C65.53 44.6977 64.65 44.3577 63.83 43.9177C63.658 43.8231 63.462 43.7812 63.2664 43.7972C63.0708 43.8132 62.8843 43.8864 62.73 44.0077C60.7489 45.261 58.4192 45.8487 56.0807 45.685C53.7422 45.5213 51.5171 44.6148 49.73 43.0977C47.3659 40.9538 45.6071 38.2259 44.63 35.1877C42.63 29.5677 40.69 23.9177 38.75 18.2777C38.7001 18.0748 38.5968 17.889 38.4508 17.7395C38.3048 17.59 38.1216 17.4823 37.9199 17.4277C36.2757 16.9553 34.7459 16.1508 33.4249 15.0638C32.104 13.9767 31.02 12.6303 30.24 11.1077C29.1698 9.078 28.659 6.80002 28.76 4.50767C28.7966 4.27274 28.7753 4.03242 28.6979 3.8076C28.6205 3.58277 28.4894 3.38025 28.3159 3.21763C28.1425 3.05501 27.9319 2.93722 27.7025 2.87449C27.4732 2.81176 27.2321 2.80601 27 2.8577C26.62 2.8577 26.24 2.93771 25.86 2.98771C24.1268 3.21929 22.4299 3.66951 20.8099 4.32768C23.1571 7.34951 24.291 11.139 23.9895 14.9535C23.688 18.7679 21.9727 22.3321 19.1799 24.9477C20.5999 26.1077 21.9499 27.3477 23.4299 28.4077C28.1557 31.8167 32.2963 35.9708 35.6899 40.7077C37.9811 43.9834 41.0386 46.649 44.5961 48.4721C48.1535 50.2953 52.1029 51.2207 56.1 51.1677C60.76 51.2377 65.42 51.1677 70.1 51.1677L70.86 51.1777ZM17.97 5.64768C14.845 7.30716 12.3274 9.91577 10.7799 13.0977C10.7158 13.2391 10.6827 13.3925 10.6827 13.5477C10.6827 13.7029 10.7158 13.8563 10.7799 13.9977C11.8699 15.7477 12.9599 17.4977 14.1499 19.1777C15.0499 20.4377 16.0899 21.5877 17.0599 22.7877C22.0299 18.6777 22.45 10.2477 17.97 5.64768ZM37.97 14.3877C40.1433 15.2678 42.5609 15.3353 44.7799 14.5777C44.3699 13.3877 43.9899 12.2277 43.5599 11.0877C43.4902 10.9996 43.4001 10.9298 43.2972 10.8845C43.1944 10.8392 43.0821 10.8197 42.97 10.8277C40.9027 11.3282 39.106 12.6023 37.95 14.3877H37.97ZM47.36 34.2177L50.98 32.4277L49.7999 29.0777L46.1 30.5977L47.36 34.2177ZM45.7799 17.4577L41.7799 18.1077L43.13 22.0077L46.85 20.4977L45.7799 17.4577ZM52.12 35.1177L48.51 36.8977L50.63 40.0177L54.0199 37.8277L52.12 35.1177ZM44.12 24.7777L45.1799 27.8377L48.8999 26.3077L47.8199 23.2577L44.12 24.7777ZM53.12 41.8777C54.1534 42.4143 55.2901 42.7224 56.453 42.781C57.6159 42.8397 58.7779 42.6476 59.86 42.2177C58.71 41.4877 57.59 40.7577 56.46 40.0577C56.3819 40.0204 56.2965 40.001 56.21 40.001C56.1234 40.001 56.038 40.0204 55.96 40.0577C55.01 40.6377 54.09 41.2377 53.1 41.8777H53.12Z" fill="white"/>
<path d="M0.0299072 42.5184C0.245408 42.1937 0.545921 41.9345 0.89856 41.7687C1.2512 41.603 1.64245 41.5371 2.02991 41.5784C6.44991 41.5784 10.8699 41.5784 15.2799 41.5784C15.5197 41.5634 15.7602 41.5634 16 41.5784C16.3385 41.6032 16.6571 41.7476 16.8989 41.9857C17.1408 42.2239 17.29 42.5403 17.3199 42.8784C17.3494 43.2286 17.2497 43.5774 17.0397 43.8593C16.8297 44.1411 16.5239 44.3364 16.1799 44.4084C15.9002 44.4635 15.6147 44.4837 15.33 44.4684C10.89 44.4684 6.44 44.4684 2 44.4684C1.60561 44.5132 1.20659 44.4426 0.851562 44.2651C0.496535 44.0876 0.200767 43.8108 0 43.4684L0.0299072 42.5184Z" fill="white"/>
<path d="M0.0299072 50.3058C0.225764 49.9589 0.520865 49.6784 0.877197 49.5002C1.23353 49.3221 1.63485 49.2544 2.02991 49.3058C3.02991 49.3058 4.02991 49.3058 5.02991 49.3058C5.23359 49.2852 5.43943 49.306 5.63489 49.3669C5.83034 49.4278 6.0114 49.5276 6.16736 49.6602C6.32332 49.7928 6.45096 49.9555 6.54248 50.1386C6.634 50.3218 6.68752 50.5215 6.69995 50.7259C6.69995 51.5859 6.07993 52.2059 5.04993 52.2359C4.01993 52.2659 2.83999 52.2359 1.73999 52.2359C1.4059 52.2357 1.07762 52.1478 0.788086 51.9811C0.498556 51.8144 0.257885 51.5747 0.0899658 51.2859L0.0299072 50.3058Z" fill="white"/>
<path d="M16.7699 49.3163H22.3899C22.7634 49.2754 23.1384 49.3791 23.4378 49.606C23.7372 49.8329 23.9384 50.1658 24.0001 50.5363C24.0348 50.7189 24.033 50.9065 23.9949 51.0885C23.9568 51.2704 23.8831 51.443 23.7781 51.5963C23.6731 51.7497 23.5388 51.8807 23.383 51.9819C23.2271 52.0832 23.0528 52.1527 22.87 52.1863C22.6557 52.2266 22.4381 52.2466 22.22 52.2463H11.22C9.83002 52.2463 9.03003 51.1763 9.60003 50.1163C9.75329 49.842 9.98392 49.619 10.2631 49.475C10.5423 49.3309 10.8577 49.2723 11.17 49.3063L16.7699 49.3163Z" fill="white"/>
<path d="M28.51 46.1361C28.3188 46.1363 28.1296 46.0977 27.9538 46.0225C27.778 45.9473 27.6192 45.8372 27.4873 45.6987C27.3554 45.5603 27.2532 45.3965 27.1866 45.2172C27.12 45.038 27.0905 44.8471 27.1 44.6561C27.1127 44.2828 27.2681 43.9285 27.5341 43.6662C27.8001 43.4039 28.1564 43.2536 28.5299 43.2461C28.9149 43.2561 29.2816 43.4129 29.5548 43.6843C29.8281 43.9557 29.9874 44.3212 30 44.7061C29.9961 44.8979 29.9545 45.0869 29.8775 45.2626C29.8005 45.4382 29.6895 45.597 29.5512 45.7298C29.4128 45.8626 29.2497 45.9668 29.0711 46.0366C28.8924 46.1063 28.7018 46.1401 28.51 46.1361Z" fill="white"/>
</svg>
