<svg width="76" height="60" viewBox="0 0 76 60" fill="none" xmlns="http://www.w3.org/2000/svg">
<path d="M27.5964 13.0667H47.7664C47.9464 12.3267 48.0963 11.5767 48.3063 10.8467C49.1761 7.84105 50.9688 5.18494 53.431 3.254C55.8931 1.32307 58.9 0.215107 62.0263 0.0867682C63.6663 0.0267682 65.3164 0.0367682 66.9664 0.0867682C67.2289 0.0550154 67.4951 0.0817651 67.746 0.165198C67.997 0.248632 68.2263 0.386624 68.4175 0.569251C68.6088 0.751879 68.7572 0.974656 68.8521 1.22147C68.947 1.46829 68.986 1.73304 68.9664 1.99674C68.9807 2.25913 68.938 2.52151 68.8412 2.76585C68.7445 3.01018 68.5961 3.23066 68.4061 3.41215C68.216 3.59363 67.9889 3.7318 67.7404 3.81718C67.4919 3.90255 67.2278 3.93309 66.9664 3.90671C65.2764 3.90671 63.5764 3.90671 61.8864 3.96671C59.3968 4.14625 57.04 5.15823 55.1952 6.8397C53.3505 8.52117 52.1252 10.7744 51.7164 13.2367C51.6163 13.949 51.5662 14.6675 51.5663 15.3868C51.5663 22.3801 51.5663 29.3801 51.5663 36.3868C51.5663 37.7968 50.8863 38.5668 49.6563 38.5768C49.405 38.5968 49.1524 38.5633 48.9151 38.4784C48.6778 38.3935 48.4612 38.2591 48.2797 38.0842C48.0982 37.9093 47.9559 37.6979 47.8622 37.4638C47.7686 37.2298 47.7257 36.9786 47.7364 36.7267C47.7364 35.3367 47.7364 33.9468 47.7364 32.5667C47.7364 32.3167 47.7364 32.0667 47.7364 31.7867H27.4564V35.7867C27.4629 36.1979 27.4396 36.609 27.3864 37.0168C27.3582 37.2497 27.2836 37.4746 27.1672 37.6783C27.0508 37.882 26.8949 38.0603 26.7086 38.2029C26.5222 38.3454 26.3093 38.4493 26.0822 38.5083C25.8552 38.5674 25.6186 38.5804 25.3864 38.5467C25.1606 38.5468 24.937 38.5018 24.7288 38.4145C24.5206 38.3272 24.3318 38.1993 24.1735 38.0382C24.0153 37.8772 23.8907 37.6863 23.8071 37.4765C23.7234 37.2668 23.6824 37.0425 23.6863 36.8167C23.6863 35.3467 23.6863 33.8867 23.6863 32.4167C23.6863 26.4167 23.6263 20.4167 23.6863 14.4167C23.8055 11.1306 25.0076 7.9761 27.1055 5.44407C29.2035 2.91204 32.0796 1.14455 35.2863 0.416724C37.9516 -0.00121638 40.6568 -0.105257 43.3464 0.106727C43.7893 0.135063 44.2039 0.334564 44.5025 0.663001C44.8011 0.991439 44.9602 1.42308 44.9463 1.86674C44.995 2.32008 44.8659 2.77462 44.5861 3.13462C44.3063 3.49462 43.8977 3.73198 43.4463 3.79673C42.3951 3.87847 41.3403 3.90519 40.2863 3.87675C38.1801 3.73091 36.0687 4.07313 34.1164 4.87675C32.4467 5.61049 30.9806 6.7395 29.8447 8.16636C28.7087 9.59322 27.9372 11.2751 27.5964 13.0667ZM27.4964 27.7967H47.6563V16.9967H27.4564L27.4964 27.7967Z" fill="white"/>
<path d="M10.7163 52.6953C12.4435 52.7458 14.1433 53.1402 15.7163 53.8553C17.7314 54.8142 19.8576 55.5196 22.0463 55.9553C24.7435 56.3516 27.4973 56.0521 30.0463 55.0853C31.7963 54.4253 33.5263 53.6853 35.3263 53.1953C37.9502 52.5972 40.6979 52.8783 43.1463 53.9953C44.9864 54.7726 46.8858 55.4013 48.8263 55.8753C51.7708 56.4571 54.8226 56.1292 57.5763 54.9353L60.6364 53.6753C62.7635 52.7368 65.1321 52.4919 67.4063 52.9753C69.9396 53.5142 72.4026 54.343 74.7464 55.4453C75.1094 55.5882 75.415 55.8471 75.6158 56.1816C75.8165 56.5162 75.9011 56.9077 75.8564 57.2953C75.8237 57.7228 75.648 58.1269 75.3578 58.4426C75.0676 58.7582 74.6797 58.9669 74.2564 59.0353C73.753 59.0501 73.253 58.9474 72.7963 58.7353C70.6219 57.7519 68.3347 57.0399 65.9864 56.6153C64.6564 56.475 63.3127 56.6817 62.0863 57.2153C60.0779 58.054 58.0286 58.7916 55.9463 59.4253C51.8219 60.4539 47.4712 60.0629 43.5963 58.3153C42.7963 57.9753 41.9863 57.6553 41.1763 57.3153C39.0763 56.4803 36.7364 56.4803 34.6364 57.3153C32.7465 58.0839 30.8171 58.7515 28.8564 59.3153C24.453 60.4551 19.7845 59.9391 15.7364 57.8653C14.201 57.0599 12.5018 56.616 10.7687 56.5675C9.03561 56.519 7.3144 56.8671 5.73636 57.5853C4.73636 58.0153 3.65635 58.4553 2.60635 58.8453C2.15944 59.0266 1.65877 59.0233 1.21439 58.8358C0.770006 58.6483 0.418265 58.292 0.236358 57.8453C0.116444 57.6438 0.0399698 57.4194 0.0119932 57.1866C-0.0159835 56.9538 0.00512204 56.7177 0.0738828 56.4935C0.142644 56.2694 0.257583 56.062 0.411285 55.8849C0.564987 55.7079 0.754063 55.5649 0.966339 55.4653C4.00802 53.9237 7.31848 52.9832 10.7163 52.6953Z" fill="white"/>
<path d="M51.4563 48.8964C48.4695 48.8305 45.5283 48.1496 42.8163 46.8964C41.6592 46.4174 40.4654 46.0328 39.2463 45.7464C37.2463 45.2664 35.3163 46.0464 33.4263 46.7464C31.4506 47.5248 29.4179 48.15 27.3463 48.6164C23.5449 49.2381 19.6444 48.7087 16.1462 47.0963C14.7262 46.5063 13.2663 46.0463 11.8163 45.5363C11.5417 45.4674 11.2594 45.4339 10.9763 45.4364C10.7211 45.4358 10.4686 45.3824 10.235 45.2796C10.0013 45.1768 9.79159 45.0267 9.61876 44.8389C9.44594 44.651 9.31385 44.4295 9.23083 44.1881C9.1478 43.9468 9.11565 43.6908 9.13634 43.4364C9.12362 43.1836 9.1655 42.931 9.25927 42.6959C9.35303 42.4608 9.49636 42.2487 9.67956 42.0741C9.86275 41.8994 10.0815 41.7663 10.3208 41.6839C10.5601 41.6014 10.8144 41.5716 11.0663 41.5963C12.4836 41.8033 13.8793 42.138 15.2363 42.5963C17.1363 43.2063 18.9563 44.1163 20.8763 44.5963C23.9386 45.3702 27.1677 45.1496 30.0963 43.9663C31.8463 43.3063 33.5763 42.5664 35.3763 42.0864C38.1963 41.3164 40.8963 41.9863 43.5563 43.0363C45.2767 43.7671 47.0566 44.3493 48.8763 44.7764C52.0091 45.3411 55.2397 44.9364 58.1363 43.6164C59.7363 42.9464 61.3862 42.3764 63.0362 41.8364C63.6305 41.6647 64.2481 41.5871 64.8663 41.6063C65.1176 41.5968 65.3683 41.6386 65.6029 41.7292C65.8375 41.8198 66.0511 41.9572 66.2308 42.1332C66.4105 42.3092 66.5524 42.5199 66.6479 42.7525C66.7434 42.9852 66.7905 43.2349 66.7862 43.4864C66.7862 44.5864 66.0363 45.2264 64.9263 45.4864C63.4754 45.7811 62.0533 46.2027 60.6763 46.7464C58.523 47.7136 56.2492 48.3863 53.9162 48.7464C53.1262 48.8164 52.2963 48.8464 51.4563 48.8964Z" fill="white"/>
</svg>
