<svg width="64" height="60" viewBox="0 0 64 60" fill="none" xmlns="http://www.w3.org/2000/svg">
<g clip-path="url(#clip0_3755_3745)">
<path d="M55.3828 55.9695C51.8186 52.8811 48.3084 49.874 44.8116 46.7992C43.262 45.4446 41.719 44.09 40.2031 42.6948C39.4619 42.0176 39.4282 41.6789 39.8257 40.7646C37.736 39.4824 35.4641 38.5278 33.0882 37.9336C29.6588 37.0938 26.2025 36.3826 22.7461 35.6715C18.5823 34.8181 14.4185 33.958 10.6186 31.9465C5.84163 29.427 2.32466 25.7426 0.714383 20.4869C-0.0163337 18.2187 -0.190302 15.8064 0.207422 13.4559C0.605145 11.1055 1.56268 8.88663 2.99834 6.9888C4.26174 5.05823 5.91156 3.41359 7.8426 2.15981C10.7815 0.365196 14.2473 -0.352643 17.6525 0.127975C20.7126 0.467367 23.6627 1.4711 26.2988 3.06969C28.9349 4.66828 31.194 6.82353 32.9197 9.38635C34.6797 12.0628 35.919 15.0504 36.5716 18.191C37.4475 21.7873 38.1886 25.4107 39.0914 29.0274C39.7745 32.0902 41.3453 34.8808 43.6056 37.0464C43.7103 37.1768 43.8553 37.2682 44.0176 37.3063C44.18 37.3443 44.3504 37.3267 44.5017 37.2563C44.9565 37.12 45.4396 37.111 45.8991 37.2304C46.3586 37.3497 46.7769 37.5929 47.1091 37.9336C48.7193 39.2475 50.3297 40.5682 51.8793 41.9499C54.6889 44.4558 57.4579 47.0024 60.2338 49.5489C60.3661 49.688 60.5311 49.7914 60.7136 49.8494C60.8962 49.9074 61.0904 49.9182 61.2782 49.8808C61.8083 49.7811 62.3549 49.816 62.8683 49.9824C63.1101 50.0945 63.327 50.2546 63.5059 50.4529C63.6848 50.6513 63.8219 50.8839 63.9094 51.1368C63.9968 51.3897 64.0326 51.6577 64.0146 51.9249C63.9966 52.192 63.9253 52.4527 63.8047 52.6915C62.7858 55.0072 61.0262 56.9143 58.8055 58.1097C58.1077 58.4041 57.3501 58.5272 56.5956 58.4687C55.7332 58.4077 54.8775 57.446 55.3828 55.9695ZM15.665 1.57058C14.7082 1.6654 13.7515 1.71281 12.8015 1.86858C6.15155 2.96577 1.47563 9.86724 2.13591 16.5655C2.70861 22.4172 5.74722 26.7247 10.7061 29.7589C13.4958 31.3596 16.5534 32.4338 19.7277 32.9285C21.9848 33.3349 24.2351 34.0121 26.5663 33.7209C29.6992 33.3281 32.4009 32.0751 34.247 29.3796C35.5474 27.4764 36.4772 25.3633 36.0123 23.0199C35.4766 20.2955 34.7768 17.6063 33.9169 14.9671C32.6301 11.1085 30.1829 7.74693 26.9132 5.34707C23.6435 2.94722 19.7131 1.62759 15.665 1.57058ZM29.8138 34.4862C34.178 35.2014 38.3242 36.901 41.9414 39.4575L42.7904 38.3603C39.489 35.4615 37.9999 31.5875 36.9623 27.4697C36.3596 29.0891 35.4098 30.5554 34.1802 31.7645C32.9507 32.9736 31.4714 33.8959 29.8475 34.4659L29.8138 34.4862ZM49.6154 41.9363C49.0505 43.3888 47.9869 44.5901 46.6172 45.3227L52.9372 50.8696C54.0849 50.0954 54.9393 48.9549 55.3626 47.6322C55.3844 47.5264 55.3831 47.417 55.3586 47.3118C55.3342 47.2065 55.2873 47.1079 55.2211 47.0227C53.4222 45.343 51.5761 43.6837 49.6491 41.9363H49.6154ZM42.5545 41.1439C43.491 42.0921 44.414 43.047 45.3707 43.9681C45.4586 44.0122 45.5556 44.0352 45.6538 44.0352C45.752 44.0352 45.8489 44.0122 45.9367 43.9681C47.0172 43.4197 47.8486 42.4774 48.2612 41.3335C48.3218 41.171 48.3353 40.873 48.2612 40.7985C47.3449 40.0602 46.4219 39.3356 45.4651 38.6583C45.3784 38.5989 45.2807 38.5575 45.1778 38.5366C45.0749 38.5156 44.9688 38.5156 44.8659 38.5364C44.763 38.5572 44.6652 38.5985 44.5784 38.6578C44.4915 38.7171 44.4173 38.7933 44.3601 38.8818C43.7807 39.6268 43.2081 40.365 42.5882 41.1439H42.5545ZM54.3115 51.8855C55.0257 52.4883 55.8006 53.1588 56.6091 53.7954C57.0538 54.1544 57.5995 54.405 58.0913 53.958C58.6783 53.4097 59.217 52.8115 59.7015 52.17C59.7658 52.054 59.7997 51.9235 59.7997 51.7907C59.7997 51.658 59.7658 51.5274 59.7015 51.4114C58.7583 50.3549 57.7679 49.3457 56.8785 48.4111L54.3115 51.8855ZM61.5409 51.4182C61.4409 51.9274 61.3013 52.4278 61.1232 52.915C60.9143 53.3823 60.564 53.7954 60.308 54.2695C60.0134 54.8717 59.5701 55.3878 59.0204 55.7684C58.4706 56.149 57.8328 56.3815 57.1682 56.4436C56.9867 56.4932 56.8139 56.5709 56.6561 56.6739L56.7573 56.9854C57.1814 56.9352 57.5976 56.8329 57.9969 56.6806C59.7774 55.638 61.23 54.1123 62.1878 52.2783C62.2669 52.0243 62.3032 51.7588 62.2955 51.4927L61.5409 51.4182Z" fill="white"/>
<path d="M19.074 59.9927C14.0006 59.9114 8.29379 56.376 8.15904 48.6753C8.0445 41.9026 13.3673 37.5815 19.074 37.4054C20.5312 37.3459 21.9852 37.5841 23.3481 38.1058C24.7111 38.6275 25.9546 39.4217 27.0033 40.4405C28.052 41.4593 28.8842 42.6813 29.4494 44.0327C30.0147 45.3842 30.3014 46.8369 30.292 48.3029C30.3161 51.3395 29.1548 54.2647 27.0574 56.4503C24.96 58.6359 22.0938 59.9077 19.074 59.9927ZM19.3097 57.8389C20.6452 57.8478 21.9674 57.5716 23.1888 57.0284C24.4101 56.4852 25.5028 55.6875 26.3945 54.688C27.2862 53.6886 27.9566 52.5102 28.3613 51.2308C28.7661 49.9514 28.8959 48.6002 28.7423 47.2666C28.0685 40.4329 20.0374 36.6333 14.4048 40.4938C13.9755 40.8201 13.6654 41.2795 13.5223 41.801C13.3739 42.3121 13.3869 42.8569 13.5594 43.3603C13.732 43.8637 14.0556 44.3009 14.4857 44.6117C14.8606 44.9035 15.3172 45.0697 15.7911 45.0867C16.265 45.1037 16.7321 44.9707 17.1268 44.7065C17.5108 44.5101 17.8813 44.2663 18.2519 44.0292C18.8852 43.6432 19.4916 43.2165 20.1519 42.8779C20.8445 42.4878 21.6393 42.3203 22.4295 42.3978C23.2196 42.4752 23.9672 42.7941 24.5718 43.3113C25.5171 44.0153 26.2382 44.9805 26.6473 46.0893C27.0565 47.198 27.1359 48.4024 26.876 49.5558C26.5054 51.6418 25.36 52.8542 23.5072 53.1318C22.813 53.2063 22.1129 53.2063 21.4187 53.1318C20.1249 52.9588 18.8225 52.8593 17.5176 52.8338C17.1048 52.8215 16.6951 52.909 16.3229 53.0889C15.9507 53.2688 15.6268 53.5358 15.3786 53.8676C15.1303 54.1994 14.9651 54.5863 14.8964 54.9956C14.8278 55.405 14.8579 55.825 14.9843 56.2202C15.0966 56.5749 15.337 56.8745 15.658 57.06C16.7974 57.6046 18.0485 57.8715 19.3097 57.8389ZM11.8984 42.7559C8.5768 46.9212 9.87724 52.9964 13.3336 55.5159C13.7715 52.9829 14.6339 51.8315 16.7024 51.337C17.4879 51.1687 18.2939 51.1185 19.0941 51.1881C20.1788 51.2422 21.2569 51.4657 22.3416 51.547C23.9991 51.6825 24.9356 51.039 25.3735 49.4745C25.6092 48.7044 25.6425 47.886 25.4701 47.0991C25.2977 46.3122 24.9255 45.5836 24.3899 44.9842C23.9709 44.41 23.3485 44.0196 22.6514 43.8935C21.9542 43.7675 21.2355 43.9154 20.6437 44.3069C20.0913 44.6117 19.586 44.9842 19.0403 45.3228C18.466 45.6797 17.8617 45.9857 17.2345 46.2372C16.7178 46.4363 16.1644 46.5211 15.6121 46.4857C15.0598 46.4503 14.5217 46.2954 14.0343 46.0318C13.547 45.7682 13.1219 45.402 12.7881 44.9583C12.4544 44.5145 12.2199 44.0035 12.1006 43.4603C12.0197 43.2639 11.9725 43.0472 11.9052 42.7559H11.8984Z" fill="white"/>
<path d="M18.3935 12.7592L25.131 17.9607C26.1956 16.3488 27.1523 14.8588 28.1562 13.3552C28.3718 13.0301 28.5806 12.6779 28.776 12.3528C29.0455 11.8923 29.4093 11.6282 29.9079 11.96C30.4064 12.2919 30.265 12.7118 30.0023 13.1114L26.6335 18.2248C26.5257 18.3874 26.4246 18.5567 26.2831 18.787C27.1994 19.3897 28.109 19.9858 28.9782 20.5953C30.0292 21.2726 31.06 22.0379 32.111 22.7558C32.5288 23.0403 32.7376 23.3857 32.4277 23.8598C32.1178 24.3338 31.7001 24.239 31.2958 23.9614L25.4275 19.9857L21.9912 24.7267L25.2051 26.6772C25.5756 26.9008 25.9598 27.1175 26.3236 27.3545C26.4238 27.4013 26.5123 27.4698 26.583 27.5551C26.6537 27.6404 26.7048 27.7404 26.7325 27.8479C26.7602 27.9554 26.7638 28.0677 26.7432 28.1768C26.7226 28.2859 26.6783 28.389 26.6133 28.4788C26.5583 28.5685 26.4848 28.6453 26.3978 28.7041C26.3108 28.7629 26.2122 28.8023 26.1088 28.8196C26.0054 28.8369 25.8995 28.8318 25.7982 28.8045C25.6969 28.7773 25.6027 28.7286 25.5217 28.6617L21.2435 26.1151C21.1693 26.0677 21.0884 26.0338 20.9604 25.9661C20.5022 26.5757 20.0441 27.192 19.6129 27.7947C19.1817 28.3975 18.7573 28.4314 18.3867 28.1334C18.0162 27.8354 17.9758 27.3749 18.3867 26.8601L19.7343 25.0653L12.8551 20.2228L10.3959 23.8598L9.26407 25.5529C8.97436 25.9864 8.68462 26.447 8.06477 26.1083C7.6403 25.878 7.6403 25.3159 8.06477 24.7538L11.3056 19.8841C11.4268 19.708 11.5347 19.5184 11.6627 19.322C10.268 18.2045 8.89347 17.1277 7.53922 16.0237C6.6027 15.2651 5.69306 14.4727 4.77676 13.6939C4.6541 13.6044 4.54318 13.4997 4.44662 13.3823C4.20407 13.0572 3.96833 12.705 4.35237 12.3325C4.42418 12.2559 4.51083 12.1948 4.607 12.153C4.70317 12.1112 4.80688 12.0897 4.91164 12.0897C5.0164 12.0897 5.11994 12.1112 5.21611 12.153C5.31228 12.1948 5.39893 12.2559 5.47074 12.3325C6.38031 13.0843 7.28319 13.8428 8.20623 14.5878C9.61438 15.7257 11.0293 16.8499 12.4914 18.0216L16.2238 12.8743C15.988 12.6576 15.7456 12.4477 15.5165 12.1971C13.4234 10.2059 11.3325 8.21013 9.24384 6.20991C8.75873 5.74259 8.69136 5.22109 9.0754 4.90277C9.45944 4.58445 9.93772 4.71315 10.3352 5.09243C12.5586 7.22585 14.8024 9.35249 17.0392 11.4791C17.1201 11.5536 17.2076 11.6146 17.3424 11.723C18.252 10.5987 19.1548 9.4744 20.0374 8.33657C20.4349 7.84893 20.846 7.36128 21.2637 6.88719C21.6814 6.41309 22.0384 6.31831 22.4561 6.71113C22.8738 7.10395 22.7862 7.51709 22.4561 7.937C21.0816 9.49474 19.7882 11.0525 18.3935 12.7592ZM17.1942 13.6871L13.5828 18.8073L20.61 23.7785L24.0192 19.0782L17.1942 13.6871Z" fill="white"/>
</g>
<defs>
<clipPath id="clip0_3755_3745">
<rect width="64" height="60" fill="white"/>
</clipPath>
</defs>
</svg>
