<svg width="60" height="60" viewBox="0 0 60 60" fill="none" xmlns="http://www.w3.org/2000/svg">
<path d="M23.8991 53.24L18.7492 54.24C13.8992 55.16 9.03915 56.09 4.17915 56.99C3.68496 57.0588 3.18139 57.0033 2.71406 56.8285C2.24673 56.6536 1.83041 56.365 1.50276 55.9887C1.1751 55.6124 0.946484 55.1603 0.837597 54.6733C0.72871 54.1864 0.743058 53.68 0.879223 53.2C0.949223 52.96 1.04912 52.73 1.14912 52.46C0.694098 52.1105 0.351389 51.6355 0.163036 51.0936C-0.0253159 50.5516 -0.0510152 49.9663 0.0891838 49.41C0.225317 48.8051 0.545469 48.2573 1.00569 47.8418C1.46591 47.4264 2.04353 47.1638 2.65913 47.09C4.18913 46.79 5.65922 46.49 7.24922 46.22C7.69365 46.1212 8.15468 46.1249 8.59748 46.2308C9.04029 46.3366 9.45316 46.5418 9.80488 46.8309C10.1566 47.12 10.4379 47.4854 10.6275 47.8993C10.8171 48.3132 10.91 48.7648 10.8991 49.22C10.8991 49.32 10.8991 49.43 10.8991 49.62L13.9792 49.04L12.8692 43.18L9.79914 43.75C9.53914 43.75 9.27923 43.87 9.00923 43.91C8.75335 43.9737 8.48255 43.9339 8.25593 43.7991C8.02932 43.6642 7.86515 43.4453 7.79914 43.19C7.76512 43.0592 7.75803 42.9229 7.77815 42.7893C7.79827 42.6557 7.84518 42.5275 7.91621 42.4125C7.98724 42.2976 8.08085 42.1982 8.19136 42.1204C8.30186 42.0426 8.42697 41.9881 8.55915 41.96C10.2192 41.61 11.8992 41.3 13.5592 40.96C15.0292 40.67 16.4892 40.39 17.9692 40.12C18.2692 40.07 18.6692 39.98 18.8692 40.12C19.2025 40.3291 19.4424 40.6586 19.5391 41.04C19.6291 41.57 19.2392 41.93 18.7092 42.04C17.5492 42.27 16.3792 42.48 15.2192 42.7C15.0968 42.7324 14.9766 42.7724 14.8592 42.82L15.9592 48.63L19.2292 48.03C20.8892 47.71 22.5392 47.41 24.2292 47.03C24.5555 46.9469 24.8465 46.7611 25.0592 46.5C25.9483 45.2771 27.2662 44.435 28.7495 44.1421C30.2327 43.8491 31.7719 44.1269 33.0592 44.92C33.2536 45.0465 33.4722 45.1314 33.7011 45.1692C33.93 45.2071 34.1644 45.1972 34.3892 45.14L35.8492 44.84L34.6591 41.84C33.8691 39.84 33.0591 37.84 32.2791 35.84C32.203 35.5691 32.0342 35.3335 31.8021 35.1745C31.5699 35.0155 31.2893 34.9431 31.0092 34.97C30.3592 34.97 29.7192 34.97 29.0092 34.97V35.65C29.0092 37.73 29.0092 39.81 29.0092 41.9C29.0188 42.0371 29.0001 42.1747 28.9542 42.3042C28.9082 42.4337 28.8361 42.5524 28.7423 42.6528C28.6484 42.7532 28.5349 42.8332 28.4088 42.8877C28.2826 42.9423 28.1467 42.9703 28.0092 42.97C27.8718 42.9703 27.7357 42.9423 27.6096 42.8877C27.4834 42.8332 27.3699 42.7532 27.2761 42.6528C27.1822 42.5524 27.1102 42.4337 27.0643 42.3042C27.0184 42.1747 26.9996 42.0371 27.0092 41.9V16H26.2192C17.9392 16 9.65254 16 1.3592 16C0.974875 16.0072 0.59878 15.8877 0.289135 15.66C-0.170865 15.29 -0.0608113 14.66 0.469189 14.15L6.46919 8.55999L15.0992 0.51C15.8392 -0.17 16.2292 -0.17 16.9692 0.51L31.2192 13.8C31.3892 13.96 31.6292 14.09 31.7092 14.28C31.8725 14.6157 31.9482 14.9872 31.9291 15.36C31.8791 15.5659 31.7539 15.7457 31.5782 15.8641C31.4025 15.9825 31.1888 16.0309 30.9792 16H29.0692V29H32.9191C33.4582 28.9549 34.0001 28.9549 34.5391 29C35.0753 29.0892 35.5771 29.3224 35.991 29.6747C36.4049 30.0269 36.7154 30.485 36.8892 31C37.5492 32.66 38.2092 34.32 38.8892 36L42.2392 35.38L47.7492 34.32C48.4692 34.18 49.0092 34.47 49.1292 35.04C49.2492 35.61 48.9292 36.13 48.1292 36.3C47.1292 36.51 46.0492 36.7 45.0092 36.9L44.4191 37.05L45.5192 42.88L48.3991 42.34C48.2863 41.599 48.2561 40.8477 48.3092 40.1C48.4268 39.5004 48.7327 38.9541 49.1823 38.5404C49.632 38.1267 50.2019 37.8673 50.8092 37.8L55.3292 36.94C55.8988 36.7887 56.5004 36.8085 57.0588 36.9971C57.6172 37.1856 58.1078 37.5344 58.4692 38C58.8504 38.4724 59.0794 39.0493 59.1258 39.6546C59.1722 40.2599 59.0339 40.865 58.7292 41.39C59.3727 41.9427 59.7747 42.725 59.8492 43.57C59.9081 44.3122 59.6889 45.0497 59.2342 45.6393C58.7796 46.2288 58.122 46.6283 57.3892 46.76L44.7791 49.15C44.5991 49.15 44.4191 49.24 44.1691 49.3C44.7291 50.68 45.2392 52.04 45.8492 53.35C45.9689 53.504 46.1199 53.6309 46.2923 53.7222C46.4647 53.8136 46.6545 53.8674 46.8492 53.88C47.5786 53.92 48.3097 53.92 49.0391 53.88C49.8348 53.88 50.5979 54.196 51.1605 54.7587C51.7231 55.3213 52.0391 56.0843 52.0391 56.88C52.0391 57.6756 51.7231 58.4387 51.1605 59.0013C50.5979 59.5639 49.8348 59.88 49.0391 59.88H44.2292C43.5799 59.9168 42.9363 59.7417 42.3952 59.381C41.8541 59.0202 41.4449 58.4935 41.2292 57.88C40.3092 55.61 39.4092 53.34 38.4892 51.06C38.4192 50.87 38.3392 50.68 38.2392 50.45L36.0892 50.85V58.65C36.0892 59.65 35.7692 59.92 34.8292 59.92H25.3292C24.4292 59.92 24.0992 59.59 24.0992 58.68V53.14L23.8991 53.24ZM15.8991 2.42998L3.51924 14H28.2891L15.8991 2.42998ZM33.8991 58.01V57.4C33.8991 54.86 33.9691 52.32 33.8991 49.79C33.8726 49.211 33.7185 48.6452 33.4476 48.1329C33.1767 47.6205 32.7959 47.1745 32.3323 46.8266C31.8688 46.4787 31.3342 46.2376 30.7666 46.1207C30.1989 46.0037 29.6124 46.0137 29.0491 46.15C28.1589 46.3531 27.365 46.8547 26.7993 47.5715C26.2335 48.2882 25.93 49.1769 25.9392 50.09C25.9392 52.62 25.9392 55.16 25.9392 57.7C25.9311 57.8032 25.9311 57.9068 25.9392 58.01H33.8991ZM35.8991 48.9L53.7392 45.52C54.8192 45.32 55.9092 45.12 56.9792 44.89C57.2383 44.8458 57.4695 44.7015 57.623 44.4881C57.7764 44.2748 57.8397 44.0096 57.7991 43.75C57.7482 43.4924 57.5981 43.2651 57.3811 43.1173C57.164 42.9695 56.8976 42.913 56.6392 42.96L55.9091 43.1L38.4592 46.4L35.2092 47L35.8991 48.9ZM23.8991 49.19H23.6392L7.36921 52.27C6.11921 52.51 4.87923 52.74 3.63923 52.99C3.37867 53.0272 3.14321 53.1657 2.98408 53.3754C2.82496 53.585 2.7549 53.849 2.78913 54.11C2.8356 54.3672 2.98097 54.596 3.19404 54.7474C3.40711 54.8988 3.67097 54.9607 3.92915 54.92C4.13915 54.92 4.33914 54.86 4.54914 54.82L20.7592 51.75L23.8991 51.14V49.19ZM39.7292 44.1C39.7335 44.0234 39.7335 43.9466 39.7292 43.87L34.8892 31.74C34.8029 31.5133 34.6447 31.3213 34.4388 31.193C34.2329 31.0648 33.9907 31.0076 33.7492 31.03H28.9892V33.03H30.8492C31.5814 32.9464 32.3193 33.1271 32.9299 33.5397C33.5405 33.9522 33.9836 34.5695 34.1791 35.28C35.3391 38.1734 36.4926 41.0633 37.6392 43.95C37.7892 44.34 37.9592 44.48 38.3692 44.37C38.7792 44.26 39.2092 44.2 39.7192 44.1H39.7292ZM40.0892 50.17C41.0892 52.62 42.0192 55.01 42.9892 57.39C43.0657 57.5895 43.2039 57.7593 43.3839 57.8744C43.5638 57.9896 43.776 58.0442 43.9892 58.03C45.5692 58.03 47.1492 58.03 48.7292 58.03C48.8702 58.0471 49.0132 58.0338 49.1488 57.9913C49.2843 57.9487 49.4092 57.8777 49.5152 57.7831C49.6212 57.6885 49.7058 57.5724 49.7634 57.4426C49.821 57.3127 49.8502 57.1721 49.8492 57.03C49.8431 56.8876 49.8079 56.7478 49.746 56.6193C49.6841 56.4908 49.5967 56.3763 49.4891 56.2828C49.3815 56.1892 49.256 56.1185 49.1202 56.0751C48.9844 56.0316 48.8411 56.0163 48.6992 56.03H47.0092C46.2569 56.1271 45.495 55.9458 44.867 55.5204C44.239 55.0949 43.7881 54.4546 43.5992 53.72C43.0792 52.41 42.5492 51.11 42.0092 49.78L40.0892 50.17ZM42.3392 37.53L39.5491 38.06C40.2891 39.89 40.9892 41.68 41.7192 43.46C41.7631 43.5187 41.8207 43.5657 41.8869 43.5971C41.9531 43.6285 42.026 43.6432 42.0992 43.64C42.5492 43.58 42.9792 43.47 43.4492 43.37L42.3392 37.53ZM55.8792 39.02L54.5692 39.27L51.0892 39.92C50.9462 39.9273 50.8064 39.9654 50.6794 40.0314C50.5523 40.0975 50.4409 40.1901 50.3527 40.3029C50.2646 40.4157 50.2017 40.5462 50.1683 40.6854C50.1349 40.8247 50.1317 40.9694 50.1591 41.11C50.1848 41.2548 50.2423 41.3923 50.3272 41.5124C50.4121 41.6326 50.5225 41.7325 50.6505 41.8051C50.7784 41.8777 50.9209 41.9211 51.0676 41.9324C51.2143 41.9436 51.3617 41.9223 51.4992 41.87L51.9291 41.79C53.3491 41.51 54.7792 41.25 56.1992 40.95C56.3298 40.9363 56.4561 40.8951 56.5697 40.829C56.6832 40.763 56.7815 40.6736 56.858 40.5669C56.9345 40.4601 56.9876 40.3384 57.0136 40.2096C57.0397 40.0809 57.0382 39.9481 57.0092 39.82C56.9651 39.5609 56.8207 39.3296 56.6074 39.1762C56.394 39.0227 56.1289 38.9595 55.8692 39L55.8792 39.02ZM3.15913 51.02L4.50923 50.77L7.98921 50.11C8.13048 50.0999 8.268 50.0599 8.39265 49.9927C8.5173 49.9254 8.6262 49.8325 8.71223 49.72C8.79826 49.6075 8.85945 49.478 8.89167 49.3401C8.9239 49.2022 8.92639 49.059 8.89912 48.92C8.87086 48.782 8.81385 48.6515 8.73164 48.5371C8.64943 48.4227 8.54399 48.3269 8.42219 48.2561C8.3004 48.1853 8.16495 48.1411 8.02485 48.1262C7.88475 48.1114 7.74313 48.1263 7.6092 48.17L7.17915 48.25C5.73915 48.53 4.28919 48.79 2.84919 49.1C2.60367 49.1463 2.38436 49.2828 2.23445 49.4827C2.08454 49.6825 2.01482 49.9313 2.03913 50.18C2.08337 50.4331 2.22333 50.6594 2.43 50.8121C2.63668 50.9648 2.89418 51.0321 3.14912 51L3.15913 51.02Z" fill="white"/>
<path d="M23.8992 28.0005C23.8992 30.1223 23.0563 32.1571 21.556 33.6574C20.0557 35.1577 18.0209 36.0005 15.8992 36.0005C13.7878 36.0006 11.762 35.166 10.2634 33.6786C8.76485 32.1913 7.91501 30.1719 7.89917 28.0605C7.89917 25.9388 8.74214 23.904 10.2424 22.4037C11.7427 20.9034 13.7774 20.0605 15.8992 20.0605C18.0105 20.0605 20.0365 20.8951 21.535 22.3824C23.0336 23.8698 23.8833 25.8892 23.8992 28.0005ZM21.8992 28.0005C21.8992 26.4196 21.2754 24.9025 20.1631 23.779C19.0508 22.6555 17.5401 22.0164 15.9592 22.0005C14.372 22.0136 12.8535 22.6499 11.7311 23.7723C10.6087 24.8947 9.97229 26.4133 9.95923 28.0005C9.95923 29.5918 10.5913 31.1179 11.7166 32.2432C12.8418 33.3684 14.3679 34.0005 15.9592 34.0005C17.5315 33.9849 19.0348 33.3527 20.1456 32.2399C21.2565 31.1272 21.8861 29.6228 21.8992 28.0505V28.0005Z" fill="white"/>
<path d="M2.90923 32.0009V19.4409C2.88907 19.2548 2.88907 19.0671 2.90923 18.8809C2.93415 18.6503 3.0444 18.4372 3.21831 18.2836C3.39223 18.1301 3.61732 18.0471 3.8493 18.0509C4.08608 18.0471 4.31656 18.1274 4.49969 18.2775C4.68281 18.4277 4.8067 18.638 4.8493 18.8709C4.86426 19.0339 4.86426 19.1979 4.8493 19.3609V44.7309C4.8493 44.8509 4.8493 44.9809 4.8493 45.1009C4.83155 45.3538 4.71841 45.5905 4.53277 45.7632C4.34712 45.9358 4.10282 46.0316 3.8493 46.031C3.59896 46.032 3.35732 45.939 3.17217 45.7705C2.98702 45.602 2.87182 45.3702 2.8493 45.1209C2.8393 44.9311 2.8393 44.7408 2.8493 44.5509L2.90923 32.0009Z" fill="white"/>
<path d="M43.8893 11C43.8893 9.67392 44.416 8.40216 45.3536 7.46448C46.2913 6.5268 47.5632 6 48.8893 6C50.2154 6 51.4871 6.5268 52.4248 7.46448C53.3625 8.40216 53.8893 9.67392 53.8893 11C53.8893 12.3261 53.3625 13.5978 52.4248 14.5355C51.4871 15.4732 50.2154 16 48.8893 16C47.5632 16 46.2913 15.4732 45.3536 14.5355C44.416 13.5978 43.8893 12.3261 43.8893 11ZM48.8893 14C49.6849 14 50.4479 13.6839 51.0105 13.1213C51.5731 12.5587 51.8893 11.7956 51.8893 11C51.8894 10.6009 51.8098 10.2058 51.6553 9.83789C51.5008 9.46995 51.2745 9.13655 50.9895 8.85718C50.7045 8.5778 50.3667 8.35812 49.9957 8.21094C49.6248 8.06375 49.2282 7.99202 48.8292 8C48.0458 8.01829 47.3006 8.34244 46.7531 8.90308C46.2055 9.46372 45.899 10.2163 45.8992 11C45.8992 11.3948 45.9772 11.7858 46.1285 12.1504C46.2799 12.515 46.5019 12.8462 46.7815 13.1249C47.0611 13.4036 47.3929 13.6244 47.7581 13.7745C48.1232 13.9247 48.5144 14.0013 48.9092 14H48.8893Z" fill="white"/>
<path d="M56.9692 3.75062C56.9692 4.58062 55.1092 6.50062 54.4892 6.38062C54.3139 6.34095 54.1488 6.26535 54.0042 6.15864C53.8596 6.05193 53.7387 5.91642 53.6491 5.76063C53.5858 5.59737 53.5627 5.42121 53.5819 5.24714C53.601 5.07307 53.6619 4.90622 53.7592 4.76063C54.2411 4.16213 54.7878 3.61882 55.3892 3.14063C55.5417 3.05941 55.7094 3.01115 55.8817 2.99909C56.054 2.98703 56.227 3.01143 56.3892 3.07063C56.6892 3.22063 56.8492 3.60062 56.9692 3.75062Z" fill="white"/>
<path d="M41.6792 19.2106C41.4392 19.0206 41.0492 18.8405 40.9392 18.5505C40.8812 18.3868 40.8602 18.2122 40.8774 18.0394C40.8947 17.8665 40.9499 17.6996 41.0392 17.5505C41.5101 16.9745 42.0323 16.4424 42.5992 15.9606C42.7641 15.7969 42.9869 15.7051 43.2192 15.7051C43.4515 15.7051 43.6744 15.7969 43.8392 15.9606C43.9388 16.0203 44.0249 16.1001 44.092 16.1948C44.1592 16.2895 44.206 16.397 44.2295 16.5107C44.253 16.6244 44.2527 16.7418 44.2285 16.8553C44.2044 16.9689 44.1569 17.0762 44.0892 17.1705C43.5183 17.8214 42.9107 18.4391 42.2693 19.0206C42.2093 19.1106 41.9592 19.1206 41.6792 19.2106Z" fill="white"/>
<path d="M49.8792 2.10077C49.8792 2.43077 49.8792 2.77077 49.8792 3.10077C49.8639 3.35546 49.7518 3.59467 49.5659 3.76941C49.38 3.94416 49.1344 4.04124 48.8792 4.04078C48.75 4.04905 48.6204 4.03055 48.4986 3.98639C48.3769 3.94224 48.2656 3.87344 48.1717 3.78425C48.0778 3.69505 48.0033 3.58741 47.953 3.46808C47.9026 3.34876 47.8776 3.22032 47.8792 3.09083C47.8792 2.39083 47.8792 1.68077 47.8792 0.970769C47.8994 0.719655 48.0135 0.485451 48.1989 0.314885C48.3843 0.14432 48.6273 0.049979 48.8792 0.0507864C49.1311 0.049979 49.374 0.14432 49.5594 0.314885C49.7448 0.485451 49.8591 0.719655 49.8792 0.970769C49.8992 1.35077 49.8792 1.72077 49.8792 2.10077Z" fill="white"/>
<path d="M44.2092 5.32019C44.2092 6.10019 43.3392 6.69018 42.7592 6.25018C42.0907 5.72328 41.4835 5.12286 40.9492 4.4602C40.8791 4.38034 40.8265 4.28667 40.7949 4.18524C40.7632 4.08381 40.7533 3.97687 40.7656 3.87134C40.7778 3.7658 40.812 3.66399 40.866 3.57251C40.9201 3.48102 40.9927 3.4019 41.0792 3.34021C41.3792 3.13021 41.9792 2.95017 42.1792 3.11017C42.8687 3.69474 43.5139 4.32986 44.1092 5.01019C44.2092 5.09019 44.2092 5.24019 44.2092 5.32019Z" fill="white"/>
<path d="M39.8893 12C39.5393 12 39.1792 12 38.8292 12C38.5745 11.9847 38.3354 11.8726 38.1606 11.6867C37.9859 11.5008 37.8888 11.2551 37.8893 11C37.8893 10.7348 37.9946 10.4804 38.1821 10.2929C38.3697 10.1054 38.6241 10 38.8893 10C39.5693 10 40.2592 10 40.9492 10C41.2144 10 41.4688 10.1054 41.6564 10.2929C41.8439 10.4804 41.9492 10.7348 41.9492 11C41.9492 11.2652 41.8439 11.5196 41.6564 11.7071C41.4688 11.8946 41.2144 12 40.9492 12C40.5592 12.06 40.2093 12 39.8893 12Z" fill="white"/>
<path d="M57.8492 12C57.5192 12 57.1792 12 56.8492 12C56.584 12 56.3296 11.8946 56.1421 11.7071C55.9546 11.5196 55.8492 11.2652 55.8492 11C55.8488 10.7449 55.9459 10.4992 56.1206 10.3133C56.2954 10.1274 56.5345 10.0153 56.7892 10C57.4892 10 58.1992 10 58.9092 10C59.037 10.0011 59.1633 10.0282 59.2803 10.0798C59.3972 10.1313 59.5024 10.2062 59.5895 10.2998C59.6765 10.3934 59.7436 10.5038 59.7865 10.6241C59.8294 10.7445 59.8474 10.8724 59.8392 11C59.8392 11.2652 59.7339 11.5196 59.5464 11.7071C59.3589 11.8946 59.1045 12 58.8392 12C58.5592 12.06 58.2092 12 57.8492 12Z" fill="white"/>
<path d="M47.8893 19.9998C47.8893 19.6498 47.8893 19.2898 47.8893 18.9398C47.9165 18.6941 48.0337 18.4671 48.2184 18.3028C48.4031 18.1384 48.6421 18.0483 48.8893 18.0498C49.0142 18.0342 49.1409 18.0454 49.2612 18.0824C49.3815 18.1195 49.4926 18.1816 49.5872 18.2648C49.6817 18.348 49.7575 18.4503 49.8096 18.5649C49.8616 18.6796 49.8888 18.8039 49.8893 18.9298C49.9293 19.6793 49.9293 20.4303 49.8893 21.1798C49.8553 21.4201 49.7351 21.6398 49.5511 21.798C49.3672 21.9562 49.1319 22.0422 48.8893 22.0398C48.6389 22.0408 48.3973 21.9479 48.2122 21.7794C48.027 21.6109 47.9118 21.3791 47.8893 21.1298V19.9998Z" fill="white"/>
<path d="M54.4492 15.6406C54.6193 15.6702 54.7844 15.724 54.9392 15.8006C55.6012 16.3943 56.232 17.0218 56.8292 17.6806C56.8911 17.7738 56.934 17.8782 56.9554 17.988C56.9768 18.0978 56.9765 18.2108 56.9542 18.3204C56.9319 18.4301 56.8881 18.5342 56.8255 18.6269C56.7629 18.7196 56.6826 18.799 56.5892 18.8606C56.4214 19.0225 56.1974 19.113 55.9642 19.113C55.731 19.113 55.507 19.0225 55.3392 18.8606C54.7641 18.3806 54.2383 17.8447 53.7692 17.2606C53.6849 17.1093 53.6349 16.9413 53.6228 16.7684C53.6107 16.5956 53.6367 16.4222 53.6992 16.2606C53.8292 16.0006 54.2092 15.8206 54.4492 15.6406Z" fill="white"/>
<path d="M32.3893 50.0006C32.3906 50.3279 32.3271 50.6523 32.2024 50.955C32.0777 51.2577 31.8943 51.5328 31.6628 51.7642C31.4314 51.9957 31.1563 52.1791 30.8536 52.3037C30.5509 52.4284 30.2265 52.4919 29.8992 52.4906C29.5667 52.4933 29.2371 52.4293 28.9299 52.3021C28.6227 52.1749 28.3442 51.9873 28.111 51.7503C27.8777 51.5134 27.6945 51.2319 27.5723 50.9227C27.45 50.6136 27.3911 50.283 27.3992 49.9506C27.4018 49.6232 27.4692 49.2996 27.5975 48.9984C27.7258 48.6972 27.9124 48.4243 28.1467 48.1956C28.381 47.9669 28.6583 47.7869 28.9625 47.6659C29.2667 47.5448 29.5918 47.4853 29.9192 47.4906C30.2469 47.4905 30.5715 47.5557 30.8738 47.6823C31.1761 47.809 31.4502 47.9945 31.68 48.2281C31.9099 48.4617 32.091 48.7387 32.2128 49.043C32.3345 49.3474 32.3946 49.6729 32.3893 50.0006ZM29.9092 49.3106C29.6792 49.6006 29.4092 49.8106 29.4392 49.9506C29.4692 50.0906 29.7392 50.3105 29.9092 50.4805C30.0692 50.3205 30.3292 50.1606 30.3492 49.9906C30.3692 49.8206 30.1292 49.6605 29.9092 49.3505V49.3106Z" fill="white"/>
</svg>
