<svg width="70" height="70" viewBox="0 0 70 70" fill="none" xmlns="http://www.w3.org/2000/svg">
<path d="M24.1732 42.2741C24.7014 38.3196 26.6758 36.233 29.8302 36.2425C33.0284 36.252 34.9876 38.3139 35.4892 42.2323H42.6342V34.0249C38.7444 33.0405 37.0076 31.239 37.0589 28.2422C37.1121 25.2017 38.9306 23.3945 42.811 22.5983C42.811 22.0377 42.811 21.4581 42.811 20.8709C42.849 18.3834 44.7112 16.5192 47.2081 16.5154C53.3245 16.5027 59.4414 16.5027 65.559 16.5154C68.0997 16.5154 69.9828 18.3777 69.9771 20.9146C69.9404 35.8321 69.8929 50.7489 69.8346 65.6651C69.8251 68.1849 67.9343 70.0187 65.3614 70.0035C57.3955 69.9598 49.4296 69.8781 41.4637 69.8458C34.541 69.8192 27.6184 69.8458 20.6938 69.8458C18.4819 69.8458 16.7792 68.565 16.2909 66.5373C16.1995 66.1001 16.1588 65.6537 16.1693 65.2071C16.1617 59.1122 16.1617 53.0172 16.1693 46.9223C16.1693 44.0509 17.9593 42.2969 20.8534 42.295L24.1732 42.2741ZM44.3882 42.3653C46.9953 42.3653 49.5075 42.3539 52.0177 42.3653C52.9679 42.3653 53.384 42.8594 53.3327 43.8115C53.3232 44.0015 53.2947 44.1916 53.289 44.3816C53.2674 45.0058 53.3967 45.626 53.6659 46.1896C53.935 46.7532 54.3361 47.2436 54.8351 47.6192C55.3342 47.9947 55.9164 48.2444 56.5325 48.3471C57.1485 48.4497 57.7803 48.4023 58.3741 48.2088C60.0843 47.652 61.1181 46.0463 61.0345 44.1212C60.968 42.6846 61.2758 42.3615 62.7257 42.3596H68.2365C68.2574 42.1696 68.2764 42.0689 68.2764 41.9796C68.2764 34.9395 68.2764 27.8989 68.2764 20.8576C68.2764 19.3012 67.1362 18.2199 65.5343 18.218C59.4446 18.2066 53.3542 18.2066 47.2633 18.218C45.629 18.218 44.5497 19.3183 44.525 20.9412C44.5136 21.7469 44.525 22.5527 44.5136 23.3584C44.5136 24.0235 44.1829 24.3618 43.5083 24.3732C43.0583 24.3728 42.6086 24.3963 42.1611 24.4435C41.2637 24.5677 40.4373 24.9995 39.8228 25.6652C39.2083 26.3309 38.8438 27.1891 38.7915 28.0936C38.7393 28.998 39.0025 29.8926 39.5363 30.6246C40.07 31.3566 40.8412 31.8807 41.7183 32.1074C42.23 32.2056 42.7498 32.2552 43.2708 32.2557C44.2095 32.2975 44.4243 32.5027 44.4224 33.4662C44.4224 34.9864 44.4015 36.5067 44.3958 38.0174C44.3844 39.4104 44.3882 40.8033 44.3882 42.3653ZM42.4518 61.7486C38.5392 61.1253 36.5401 59.1869 36.561 56.021C36.5819 52.8551 38.6019 50.9263 42.5943 50.341V44.011C42.4043 43.9996 42.2143 43.9787 42.0394 43.9787C39.7591 43.9787 37.4788 43.9787 35.2099 43.9787C34.0203 43.9787 33.7125 43.5568 33.6802 42.3786C33.6555 41.552 33.5453 40.6513 33.1918 39.9234C32.3918 38.2835 30.4383 37.5728 28.6996 38.1162C27.8557 38.3816 27.1269 38.9256 26.6326 39.6592C26.1382 40.3929 25.9075 41.2726 25.9784 42.1544C26.0924 43.6101 25.7523 43.9787 24.2872 43.9806C23.147 43.9806 22.0069 43.9806 20.8667 43.9806C18.8847 43.9806 17.8814 44.9726 17.8795 46.9451C17.8795 53.0172 17.8795 59.0881 17.8795 65.1577C17.8795 67.1208 18.898 68.1279 20.8667 68.1279H42.4556L42.4518 61.7486ZM44.3521 44.0585C44.3521 44.317 44.3521 44.5697 44.3521 44.8187C44.3331 46.8121 44.3274 48.8093 44.2913 50.7951C44.2704 51.8612 43.7383 52.3154 42.6988 52.1805C41.057 51.979 39.7458 52.5605 38.8527 53.9326C37.99 55.2628 37.9653 56.6785 38.7691 58.0372C39.6052 59.4492 40.9012 60.0706 42.5449 59.9376C43.7516 59.8406 44.2228 60.2568 44.219 61.4578C44.219 63.4265 44.1924 65.3953 44.181 67.3621C44.181 67.611 44.2057 67.86 44.219 68.1222C44.4091 68.1336 44.5307 68.145 44.6466 68.1469C51.5218 68.1976 58.3969 68.2483 65.2721 68.2989C67.0431 68.3103 68.1225 67.2424 68.1225 65.4827C68.1706 58.6301 68.2162 51.777 68.2593 44.9232C68.2593 44.6514 68.2593 44.3797 68.2593 44.1326H62.7846C62.4407 47.6444 60.6183 49.8032 57.8078 50.0768C56.4754 50.2361 55.1304 49.9066 54.0225 49.1495C52.261 47.939 51.5312 46.1907 51.5293 44.0547L44.3521 44.0585Z" fill="white"/>
<path d="M19.4985 3.03117C21.5888 -0.3799 25.1498 -0.579434 27.4054 0.800194C29.6212 2.14752 31.2193 5.43506 29.1157 8.88413C29.2734 9.00005 29.4273 9.13118 29.6003 9.23569C30.6663 9.897 31.7438 10.5412 32.806 11.2101C35.1281 12.6696 35.721 15.1343 34.311 17.4812C33.5908 18.6784 32.8554 19.8661 32.1181 21.0538C31.4986 22.0495 30.9476 22.1616 29.9499 21.5098C29.5135 21.1931 29.0164 20.9697 28.4899 20.8533C27.9633 20.737 27.4185 20.7302 26.8892 20.8336C26.3599 20.9369 25.8576 21.148 25.4134 21.4539C24.9693 21.7597 24.5928 22.1537 24.3075 22.6113C24.0222 23.0689 23.8341 23.5804 23.7549 24.1138C23.6758 24.6472 23.7073 25.1912 23.8474 25.712C23.9876 26.2327 24.2334 26.7191 24.5696 27.1407C24.9058 27.5623 25.3252 27.9103 25.8016 28.1628C26.8981 28.807 27.0292 29.3239 26.3717 30.4128C25.8016 31.3421 25.2316 32.2732 24.6615 33.1949C23.2325 35.4581 20.7849 36.0453 18.5103 34.6733C16.6461 33.5464 14.7934 32.4024 12.9407 31.2527C12.0114 30.6826 11.9088 30.1924 12.4827 29.2555C13.5411 27.5262 13.0908 25.4283 11.4394 24.3983C9.75389 23.3455 7.65604 23.8871 6.58049 25.6506C6.03891 26.54 5.51631 26.6863 4.64789 26.1656C3.77947 25.6449 2.93768 25.1394 2.10726 24.6016C-0.0134328 23.2391 -0.619615 20.7535 0.683966 18.5833C3.89161 13.2435 7.11634 7.91434 10.3582 2.59599C11.7036 0.387826 14.1739 -0.197472 16.3972 1.11945C17.412 1.73895 18.4324 2.37936 19.4985 3.03117ZM5.17236 24.5047C7.54769 22.0343 9.88693 21.5155 12.2167 22.8971C13.2083 23.4752 13.9741 24.373 14.3886 25.4435C15.0081 26.9922 14.8143 28.4954 14.0694 29.9681C15.9564 31.1235 17.7787 32.2713 19.6315 33.3659C20.6348 33.9569 21.9251 33.8467 22.6339 32.9744C23.4719 31.9445 24.1275 30.7663 24.8534 29.666C22.1417 27.4407 21.4158 24.6948 22.7783 22.1141C23.3674 20.9628 24.3458 20.0578 25.5394 19.5601C27.3409 18.8 29.091 19.0128 30.786 19.9649C31.5062 18.7962 32.1941 17.694 32.8668 16.5785C33.7827 15.0583 33.4369 13.6197 31.9281 12.6753C30.6226 11.86 29.3038 11.0657 27.9945 10.2562C26.9703 9.62336 26.8544 9.02096 27.5784 8.048C27.8953 7.64669 28.1289 7.1862 28.2656 6.69349C28.4023 6.20077 28.4394 5.68573 28.3746 5.17852C28.278 4.32347 27.9029 3.52391 27.3071 2.90304C26.7114 2.28218 25.9279 1.87448 25.0776 1.74275C23.4168 1.47291 21.7788 2.38696 20.9693 4.02313C20.46 5.0607 19.85 5.24503 18.86 4.64643C17.8281 4.01933 16.8039 3.38082 15.7739 2.74612C14.0333 1.68194 12.6917 1.99929 11.639 3.72668C11.1968 4.45513 10.7534 5.18422 10.3088 5.91394C7.61041 10.3708 4.91392 14.829 2.21935 19.2884C1.25591 20.8846 1.60939 22.3042 3.19421 23.279C3.8422 23.6914 4.49207 24.0829 5.17236 24.499V24.5047Z" fill="white"/>
<path d="M63.1475 27.1075C63.1475 25.6385 63.1475 24.1696 63.1475 22.7007C63.1475 22.0032 63.461 21.6232 63.9969 21.627C64.5327 21.6308 64.8463 22.007 64.8482 22.7102C64.8482 25.6468 64.8482 28.584 64.8482 31.5219C64.8482 32.2307 64.5403 32.5918 63.9874 32.5899C63.4344 32.588 63.1494 32.2307 63.1456 31.5124C63.1437 30.0435 63.1475 28.5745 63.1475 27.1075Z" fill="white"/>
<path d="M63.155 36.8941C63.155 36.5882 63.1341 36.2784 63.155 35.9743C63.1987 35.4727 63.5351 35.1287 63.9892 35.2142C64.3028 35.275 64.7493 35.6342 64.7949 35.9211C64.8913 36.5758 64.9003 37.2404 64.8216 37.8975C64.8185 38.0057 64.7927 38.1122 64.746 38.2099C64.6992 38.3076 64.6325 38.3945 64.5502 38.4648C64.4678 38.5352 64.3716 38.5875 64.2678 38.6184C64.164 38.6493 64.0549 38.6581 63.9474 38.6443C63.8398 38.6447 63.7332 38.6232 63.6341 38.5811C63.5349 38.5391 63.4453 38.4774 63.3707 38.3998C63.2961 38.3222 63.2381 38.2302 63.2 38.1295C63.1619 38.0288 63.1447 37.9214 63.1493 37.8139C63.1341 37.5079 63.1493 37.2001 63.1493 36.8922L63.155 36.8941Z" fill="white"/>
<path d="M65.164 54.0837C65.164 55.5279 65.164 56.9721 65.164 58.4164C65.164 59.0055 65.0196 59.4635 64.3431 59.5129C63.7863 59.5528 63.4575 59.1328 63.4575 58.4012C63.4575 55.4899 63.4575 52.5767 63.4575 49.6597C63.4575 49.0649 63.6476 48.6184 64.2956 48.5518C64.839 48.4948 65.1621 48.9319 65.1659 49.673C65.1697 51.1515 65.1659 52.6185 65.164 54.0837Z" fill="white"/>
<path d="M65.156 63.8737C65.156 64.1815 65.2528 64.535 65.1312 64.782C64.9773 65.0956 64.6866 65.4642 64.3806 65.5535C63.9189 65.6866 63.5407 65.335 63.4951 64.8618C63.434 64.2046 63.4308 63.5433 63.4856 62.8855C63.4867 62.7772 63.5109 62.6703 63.5566 62.5721C63.6023 62.4738 63.6686 62.3865 63.7508 62.316C63.833 62.2454 63.9294 62.1933 64.0334 62.163C64.1375 62.1328 64.2468 62.1251 64.354 62.1406C64.8519 62.1634 65.1294 62.456 65.156 62.9539C65.1731 63.2599 65.156 63.5677 65.156 63.8737Z" fill="white"/>
</svg>
